<?xml version="1.0" encoding="UTF-8" standalone="no"?><!DOCTYPE svg PUBLIC "-//W3C//DTD SVG 1.1//EN" "http://www.w3.org/Graphics/SVG/1.1/DTD/svg11.dtd"><svg width="100px" height="100px" viewBox="0 0 1400 980" version="1.1" xmlns="http://www.w3.org/2000/svg" xmlns:xlink="http://www.w3.org/1999/xlink" xml:space="preserve" xmlns:serif="http://www.serif.com/" style="fill-rule:evenodd;clip-rule:evenodd;stroke-linejoin:round;stroke-miterlimit:1.41421;"><g><rect x="0" y="0" width="1400" height="980" style="fill:url(#_Linear1);fill-rule:nonzero;"/><path d="M1158.46,471.18c0.89,-2.552 1.76,-5.109 2.55,-7.702l-417.744,0c0.792,2.593 1.663,5.15 2.548,7.702l412.646,0Z" style="fill:#fff397;fill-rule:nonzero;"/><path d="M737.464,439.571l429.346,0c0.98,-5.295 1.8,-10.647 2.39,-16.069l-434.123,0c0.59,5.422 1.407,10.774 2.387,16.069Z" style="fill:#fff397;fill-rule:nonzero;"/><path d="M1147.02,498.14c0.51,-1.02 1.06,-2.024 1.56,-3.054l-392.881,0c0.501,1.03 1.047,2.034 1.564,3.054l389.757,0Z" style="fill:#fff397;fill-rule:nonzero;"/><path d="M952.139,181.205c-120.614,0 -218.391,97.776 -218.391,218.39l436.782,0c0,-120.614 -97.78,-218.39 -218.391,-218.39Z" style="fill:#fff397;fill-rule:nonzero;"/><path d="M1132.19,523.161c0.26,-0.375 0.54,-0.737 0.8,-1.114l-361.697,0c0.256,0.377 0.534,0.739 0.792,1.114l360.105,0Z" style="fill:#fff397;fill-rule:nonzero;"/><path d="M634.792,594.941c51.298,-45.498 360.947,7.436 459.448,0c98.5,-7.436 69.32,-22.308 146.65,-67.102c50.63,-29.324 113.4,-26.224 150.71,-20.585l0,133.185l-1383.27,0l0,-33.648c126.324,6.549 582.314,27.303 626.459,-11.85Z" style="fill:#f3ad71;fill-rule:nonzero;"/><path d="M1126.92,713.88c-93.331,-11.119 -87.37,-52.878 -146.941,-54.94c-59.568,-2.062 -61.554,-34.353 -113.181,-61.94c-51.626,-27.587 -101.267,59.878 -148.922,64.002c-47.655,4.125 -87.367,30.065 -148.413,-4.124c-61.046,-34.189 -64.049,-19.878 -121.103,-21.905c-57.054,-2.027 -79.954,-25.973 -130.321,-53.079c-50.367,-27.107 -44.943,33.106 -78.169,32.291c-33.225,-0.815 -70.027,-1.185 -111.725,42.693c-41.699,43.879 -118.145,37.921 -118.145,37.921l8.273,213.619l1373.33,0l0,-181.751c0,0 -171.36,-1.667 -264.68,-12.787Z" style="fill:#cf783e;fill-rule:nonzero;"/><path d="M1400,768.978c-201.51,-15.443 -775,-77.911 -775,-77.911c0,0 -341.623,45.724 -625,-24.646l0,313.579l1400,0l0,-211.022Z" style="fill:#b56b38;fill-rule:nonzero;"/><path d="M1400,692.422c-58.01,6.499 -126.25,11.272 -163,3.656c-72,-14.921 -204,118.922 -304,103.08c-100,-15.842 -25,-48.074 -170,-20.158c-145,27.916 -306,-9.667 -338,-38c-20.46,-18.116 -244,50.937 -425,46.515l0,192.485l1400,0l0,-287.578Z" style="fill:#f3ad71;fill-rule:nonzero;"/><path d="M919,857c-136,-36 -226,-26 -332,-13.691c-106,12.308 -262,-46.309 -288,-51.372c-18.634,-3.628 -198.551,50.806 -299,81.94l0,106.123l1400,0l0,-147.867c-78.12,12.727 -364.12,55.805 -481,24.867Z" style="fill:#e69c65;fill-rule:nonzero;"/><path d="M543.237,146.634l62.014,-12.935c-37.036,-0.904 -59.719,3.253 -73.387,7.944c-13.669,-4.691 -36.351,-8.848 -73.388,-7.944l62.014,12.935c-6.256,3.549 -8.097,6.434 -8.097,6.434l19.471,-4.061l19.469,4.061c0,0 -1.84,-2.885 -8.096,-6.434Z" style="fill:#ee7b31;fill-rule:nonzero;"/><path d="M440.848,314.399l62.013,-12.935c-37.036,-0.904 -59.718,3.253 -73.387,7.944c-13.669,-4.691 -36.351,-8.848 -73.388,-7.944l62.015,12.935c-6.257,3.549 -8.098,6.434 -8.098,6.434l19.471,-4.061l19.47,4.061c0,0 -1.84,-2.885 -8.096,-6.434Z" style="fill:#ee7b31;fill-rule:nonzero;"/><path d="M594.878,272.286l62.014,-12.936c-37.036,-0.904 -59.718,3.253 -73.387,7.944c-13.669,-4.691 -36.351,-8.848 -73.387,-7.944l62.013,12.936c-6.256,3.547 -8.096,6.433 -8.096,6.433l19.47,-4.061l19.47,4.061c0,0 -1.841,-2.886 -8.097,-6.433Z" style="fill:#ee7b31;fill-rule:nonzero;"/><path d="M462.971,215.717l24.508,-5.113c-14.637,-0.356 -23.601,1.286 -29.003,3.14c-5.402,-1.854 -14.366,-3.496 -29.002,-3.14l24.507,5.113c-2.472,1.402 -3.199,2.542 -3.199,2.542l7.694,-1.605l7.695,1.605c0,0 -0.728,-1.14 -3.2,-2.542Z" style="fill:#ee7b31;fill-rule:nonzero;"/><path d="M742.494,154.378l24.507,-5.112c-14.636,-0.357 -23.6,1.285 -29.001,3.139c-5.403,-1.854 -14.367,-3.496 -29.003,-3.139l24.507,5.112c-2.472,1.402 -3.199,2.542 -3.199,2.542l7.695,-1.605l7.694,1.605c0,0 -0.728,-1.14 -3.2,-2.542Z" style="fill:#ee7b31;fill-rule:nonzero;"/><path d="M350.811,134.884l24.507,-5.113c-14.636,-0.356 -23.6,1.286 -29.002,3.14c-5.402,-1.854 -14.366,-3.496 -29.003,-3.14l24.508,5.113c-2.472,1.402 -3.199,2.542 -3.199,2.542l7.694,-1.605l7.695,1.605c0,0 -0.728,-1.14 -3.2,-2.542Z" style="fill:#ee7b31;fill-rule:nonzero;"/><path d="M213.11,207.977l24.508,-5.112c-14.637,-0.357 -23.6,1.286 -29.002,3.14c-5.402,-1.854 -14.366,-3.497 -29.003,-3.14l24.508,5.112c-2.473,1.402 -3.2,2.543 -3.2,2.543l7.695,-1.605l7.694,1.605c0,0 -0.727,-1.141 -3.2,-2.543Z" style="fill:#ee7b31;fill-rule:nonzero;"/><path d="M426.271,252.707l37.279,-7.776c-22.264,-0.543 -35.899,1.955 -44.116,4.775c-8.217,-2.82 -21.852,-5.318 -44.116,-4.775l37.279,7.776c-3.761,2.133 -4.867,3.868 -4.867,3.868l11.704,-2.442l11.704,2.442c0,0 -1.106,-1.735 -4.867,-3.868Z" style="fill:#ee7b31;fill-rule:nonzero;"/><path d="M532.016,241.237l50.759,-10.588c-30.314,-0.739 -48.88,2.663 -60.069,6.503c-11.187,-3.84 -29.753,-7.242 -60.067,-6.503l50.759,10.588c-5.121,2.905 -6.627,5.267 -6.627,5.267l15.935,-3.325l15.938,3.325c0,0 -1.507,-2.362 -6.628,-5.267Z" style="fill:#ee7b31;fill-rule:nonzero;"/><path d="M613.042,222.527l75.302,-15.708c-44.973,-1.097 -72.516,3.95 -89.113,9.647c-16.598,-5.697 -44.141,-10.744 -89.113,-9.647l75.302,15.708c-7.597,4.308 -9.832,7.812 -9.832,7.812l23.643,-4.931l23.642,4.931c0,0 -2.235,-3.504 -9.831,-7.812Z" style="fill:#ee7b31;fill-rule:nonzero;"/><path d="M752.838,194.499l75.302,-15.707c-44.973,-1.098 -72.515,3.95 -89.113,9.646c-16.597,-5.696 -44.141,-10.744 -89.113,-9.646l75.302,15.707c-7.596,4.309 -9.831,7.813 -9.831,7.813l23.642,-4.932l23.642,4.932c0,0 -2.234,-3.504 -9.831,-7.813Z" style="fill:#ee7b31;fill-rule:nonzero;"/><path d="M360.126,210.691l75.303,-15.708c-44.972,-1.097 -72.515,3.951 -89.113,9.647c-16.598,-5.696 -44.141,-10.744 -89.113,-9.647l75.302,15.708c-7.597,4.309 -9.831,7.812 -9.831,7.812l23.642,-4.931l23.642,4.931c0,0 -2.234,-3.503 -9.832,-7.812Z" style="fill:#ee7b31;fill-rule:nonzero;"/><path d="M781.501,241.36l53.046,-11.065c-31.68,-0.774 -51.083,2.782 -62.775,6.795c-11.692,-4.013 -31.094,-7.569 -62.775,-6.795l53.046,11.065c-5.352,3.035 -6.925,5.503 -6.925,5.503l16.654,-3.474l16.655,3.474c0,0 -1.574,-2.468 -6.926,-5.503Z" style="fill:#ee7b31;fill-rule:nonzero;"/><path d="M529.583,184.202l104.095,-21.714c-62.168,-1.517 -100.242,5.461 -123.186,13.335c-22.944,-7.874 -61.018,-14.852 -123.186,-13.335l104.095,21.714c-10.502,5.956 -13.591,10.799 -13.591,10.799l32.682,-6.817l32.682,6.817c0,0 -3.089,-4.843 -13.591,-10.799Z" style="fill:#ee7b31;fill-rule:nonzero;"/><path d="M247.065,275.334l35.877,-7.483c-21.427,-0.523 -34.549,1.882 -42.458,4.596c-7.907,-2.714 -21.03,-5.119 -42.457,-4.596l35.877,7.483c-3.619,2.053 -4.684,3.723 -4.684,3.723l11.264,-2.35l11.265,2.35c0,0 -1.065,-1.67 -4.684,-3.723Z" style="fill:#ee7b31;fill-rule:nonzero;"/><path d="M187.827,372.395l35.878,-7.484c-21.427,-0.523 -34.55,1.881 -42.458,4.596c-7.908,-2.715 -21.03,-5.119 -42.458,-4.596l35.878,7.484c-3.62,2.053 -4.684,3.722 -4.684,3.722l11.264,-2.35l11.265,2.35c0,0 -1.065,-1.669 -4.685,-3.722Z" style="fill:#ee7b31;fill-rule:nonzero;"/><path d="M276.941,348.029l35.878,-7.484c-21.426,-0.523 -34.549,1.882 -42.458,4.597c-7.907,-2.715 -21.03,-5.12 -42.458,-4.597l35.878,7.484c-3.62,2.054 -4.685,3.723 -4.685,3.723l11.265,-2.35l11.265,2.35c0,0 -1.065,-1.669 -4.685,-3.723Z" style="fill:#ee7b31;fill-rule:nonzero;"/><path d="M200.627,315.302l14.179,-2.958c-8.468,-0.206 -13.654,0.744 -16.779,1.817c-3.126,-1.073 -8.312,-2.023 -16.78,-1.817l14.179,2.958c-1.43,0.811 -1.851,1.471 -1.851,1.471l4.452,-0.929l4.452,0.929c0,0 -0.421,-0.66 -1.852,-1.471Z" style="fill:#ee7b31;fill-rule:nonzero;"/><path d="M362.344,279.814l14.179,-2.957c-8.468,-0.207 -13.654,0.744 -16.779,1.816c-3.125,-1.072 -8.311,-2.023 -16.779,-1.816l14.179,2.957c-1.431,0.811 -1.852,1.472 -1.852,1.472l4.452,-0.929l4.451,0.929c0,0 -0.42,-0.661 -1.851,-1.472Z" style="fill:#ee7b31;fill-rule:nonzero;"/><path d="M135.737,268.536l14.179,-2.957c-8.468,-0.207 -13.654,0.743 -16.779,1.816c-3.126,-1.073 -8.312,-2.023 -16.78,-1.816l14.178,2.957c-1.431,0.812 -1.85,1.471 -1.85,1.471l4.452,-0.928l4.451,0.928c0,0 -0.421,-0.659 -1.851,-1.471Z" style="fill:#ee7b31;fill-rule:nonzero;"/><path d="M56.07,310.824l14.179,-2.957c-8.468,-0.207 -13.654,0.743 -16.779,1.816c-3.125,-1.073 -8.311,-2.023 -16.78,-1.816l14.179,2.957c-1.43,0.811 -1.851,1.471 -1.851,1.471l4.452,-0.928l4.451,0.928c0,0 -0.42,-0.66 -1.851,-1.471Z" style="fill:#ee7b31;fill-rule:nonzero;"/><path d="M179.394,336.703l21.568,-4.499c-12.881,-0.315 -20.77,1.131 -25.523,2.762c-4.754,-1.631 -12.643,-3.077 -25.523,-2.762l21.567,4.499c-2.175,1.234 -2.816,2.237 -2.816,2.237l6.772,-1.413l6.771,1.413c0,0 -0.64,-1.003 -2.816,-2.237Z" style="fill:#ee7b31;fill-rule:nonzero;"/><path d="M240.573,330.067l29.366,-6.126c-17.538,-0.428 -28.279,1.541 -34.752,3.762c-6.473,-2.221 -17.214,-4.19 -34.752,-3.762l29.366,6.126c-2.963,1.68 -3.834,3.047 -3.834,3.047l9.22,-1.924l9.22,1.924c0,0 -0.871,-1.367 -3.834,-3.047Z" style="fill:#ee7b31;fill-rule:nonzero;"/><path d="M287.45,319.242l43.566,-9.088c-26.019,-0.634 -41.954,2.285 -51.557,5.581c-9.602,-3.296 -25.537,-6.215 -51.556,-5.581l43.566,9.088c-4.394,2.492 -5.687,4.52 -5.687,4.52l13.677,-2.853l13.679,2.853c0,0 -1.293,-2.028 -5.688,-4.52Z" style="fill:#ee7b31;fill-rule:nonzero;"/><path d="M368.329,303.026l43.566,-9.087c-26.019,-0.635 -41.954,2.285 -51.557,5.581c-9.602,-3.296 -25.537,-6.216 -51.556,-5.581l43.566,9.087c-4.395,2.493 -5.688,4.52 -5.688,4.52l13.678,-2.853l13.679,2.853c0,0 -1.293,-2.027 -5.688,-4.52Z" style="fill:#ee7b31;fill-rule:nonzero;"/><path d="M141.127,312.394l43.566,-9.087c-26.019,-0.635 -41.954,2.285 -51.556,5.581c-9.603,-3.296 -25.537,-6.216 -51.557,-5.581l43.566,9.087c-4.395,2.493 -5.688,4.52 -5.688,4.52l13.679,-2.853l13.678,2.853c0,0 -1.293,-2.027 -5.688,-4.52Z" style="fill:#ee7b31;fill-rule:nonzero;"/><path d="M384.912,330.138l30.69,-6.402c-18.329,-0.447 -29.554,1.61 -36.319,3.931c-6.764,-2.321 -17.99,-4.378 -36.318,-3.931l30.689,6.402c-3.096,1.756 -4.007,3.183 -4.007,3.183l9.636,-2.009l9.635,2.009c0,0 -0.91,-1.427 -4.006,-3.183Z" style="fill:#ee7b31;fill-rule:nonzero;"/><path d="M239.165,297.069l60.224,-12.563c-35.967,-0.877 -57.994,3.16 -71.269,7.716c-13.274,-4.556 -35.302,-8.593 -71.268,-7.716l60.223,12.563c-6.076,3.446 -7.863,6.248 -7.863,6.248l18.908,-3.944l18.908,3.944c0,0 -1.787,-2.802 -7.863,-6.248Z" style="fill:#ee7b31;fill-rule:nonzero;"/></g><defs><linearGradient id="_Linear1" x1="0" y1="0" x2="1" y2="0" gradientUnits="userSpaceOnUse" gradientTransform="matrix(1.12872e-11,-1090.19,1090.19,1.12872e-11,700,979)"><stop offset="0" style="stop-color:#f07f4d;stop-opacity:1"/><stop offset="1" style="stop-color:#f9c643;stop-opacity:1"/></linearGradient></defs></svg>