<?xml version="1.0" encoding="iso-8859-1"?>
<!-- Generator: Adobe Illustrator 19.1.0, SVG Export Plug-In . SVG Version: 6.00 Build 0)  -->
<svg version="1.1" id="Capa_1" xmlns="http://www.w3.org/2000/svg" xmlns:xlink="http://www.w3.org/1999/xlink" x="0px" y="0px"
	 viewBox="0 0 64.5 64.5" style="enable-background:new 0 0 64.5 64.5;" xml:space="preserve">
<g>
	<g id="group-90svg">
		<path id="path-1_88_" style="fill:#8B71B5;" d="M47.795,28.865C43.298,23.297,41.691,15.5,41.691,15.5H28.309
			c0,0-1.607,7.797-6.104,13.365L17.602,64.5h34.796L47.795,28.865z"/>
		<path id="path-2_88_" style="fill:#53ECF4;" d="M39.564,44.5h-10v-11h10V44.5z"/>
		<path id="path-3_88_" d="M48.398,63.5H13.602c-0.432,0-0.842-0.186-1.127-0.51c-0.285-0.324-0.416-0.755-0.361-1.182l4.604-35.636
			c0.035-0.275,0.146-0.534,0.32-0.75c4.22-5.223,5.786-12.65,5.802-12.725C22.983,12,23.597,11.5,24.309,11.5h13.382
			c0.711,0,1.325,0.5,1.469,1.196c0.016,0.075,1.596,7.52,5.802,12.726c0.174,0.216,0.285,0.475,0.32,0.75l4.604,35.636
			c0.055,0.427-0.076,0.858-0.361,1.182C49.24,63.314,48.83,63.5,48.398,63.5z M15.308,60.5h31.384L42.36,26.97
			c-3.473-4.47-5.215-10.052-5.85-12.47H25.49c-0.635,2.418-2.377,8-5.85,12.47L15.308,60.5z"/>
		<path id="path-4_88_" d="M36.064,43.5h-10c-0.828,0-1.5-0.672-1.5-1.5V31c0-0.828,0.672-1.5,1.5-1.5h10c0.829,0,1.5,0.672,1.5,1.5
			v11C37.564,42.828,36.893,43.5,36.064,43.5z M27.564,40.5h7v-8h-7V40.5z"/>
		<path id="path-5_85_" d="M37.064,15c-0.828,0-1.5-0.672-1.5-1.5v-12c0-0.828,0.672-1.5,1.5-1.5c0.829,0,1.5,0.672,1.5,1.5v12
			C38.564,14.328,37.893,15,37.064,15z"/>
		<path id="path-6_77_" d="M25.064,15c-0.828,0-1.5-0.672-1.5-1.5v-12c0-0.828,0.672-1.5,1.5-1.5c0.829,0,1.5,0.672,1.5,1.5v12
			C26.564,14.328,25.893,15,25.064,15z"/>
	</g>
</g>
<g>
</g>
<g>
</g>
<g>
</g>
<g>
</g>
<g>
</g>
<g>
</g>
<g>
</g>
<g>
</g>
<g>
</g>
<g>
</g>
<g>
</g>
<g>
</g>
<g>
</g>
<g>
</g>
<g>
</g>
</svg>
