<?xml version="1.0" encoding="iso-8859-1"?>
<!-- Generator: Adobe Illustrator 19.1.0, SVG Export Plug-In . SVG Version: 6.00 Build 0)  -->
<svg version="1.1" id="Capa_1" xmlns="http://www.w3.org/2000/svg" xmlns:xlink="http://www.w3.org/1999/xlink" x="0px" y="0px"
	 viewBox="0 0 65.5 65.5" style="enable-background:new 0 0 65.5 65.5;" xml:space="preserve">
<g>
	<g id="group-61svg">
		<path id="path-1_56_" style="fill:#53ECF4;" d="M65.5,47.919c0,10.809-7.334,14.307-14.526,14.307
			c-7.193,0-14.527-3.498-14.527-14.307c0-10.81,7.334-24.838,14.527-24.838C58.166,23.082,65.5,37.11,65.5,47.919z"/>
		<path id="path-2_56_" style="fill:#EDC951;" d="M31.974,28.045c0,9.849-6.683,13.037-13.237,13.037
			c-6.553,0-13.237-3.188-13.237-13.037c0-9.85,6.684-22.633,13.237-22.633C25.291,5.411,31.974,18.194,31.974,28.045z"/>
		<path id="path-3_56_" style="fill:#81BDA4;" d="M31.974,56.436c0,5.404-3.667,7.153-7.263,7.153s-7.263-1.749-7.263-7.153
			s3.667-12.418,7.263-12.418S31.974,51.032,31.974,56.436z"/>
		<path id="path-4_56_" d="M46.974,61.727c-10.036,0-16.027-5.909-16.027-15.807c0-11.5,7.772-26.338,16.027-26.338
			C55.228,19.582,63,34.419,63,45.919C63,55.818,57.009,61.727,46.974,61.727z M46.974,22.582c-5.844,0-13.027,12.868-13.027,23.338
			c0,11.143,8.161,12.807,13.027,12.807C51.839,58.727,60,57.062,60,45.919C60,35.45,52.817,22.582,46.974,22.582z"/>
		<path id="path-5_56_" d="M14.737,40.582C5.509,40.582,0,35.146,0,26.045C0,15.507,7.146,1.911,14.737,1.911
			c7.59,0,14.737,13.595,14.737,24.133C29.474,35.146,23.965,40.582,14.737,40.582z M14.737,4.911C9.472,4.911,3,16.563,3,26.045
			c0,10.038,7.354,11.537,11.737,11.537s11.737-1.499,11.737-11.537C26.474,16.563,20.002,4.911,14.737,4.911z"/>
		<path id="path-6_49_" d="M54.323,40.582c-0.739,0-1.384-0.547-1.484-1.3c-0.801-5.947-5.458-9.48-5.505-9.515
			c-0.664-0.495-0.801-1.435-0.307-2.099c0.496-0.665,1.435-0.801,2.1-0.307c0.233,0.174,5.718,4.337,6.685,11.52
			c0.11,0.822-0.465,1.577-1.287,1.688C54.457,40.576,54.39,40.582,54.323,40.582z"/>
		<path id="path-7_40_" d="M20.187,20.77c-0.828,0-1.499-0.671-1.499-1.5c0-3.723-3.922-7.241-3.962-7.276
			c-0.62-0.549-0.678-1.496-0.13-2.116c0.547-0.621,1.493-0.68,2.114-0.134c0.203,0.178,4.977,4.438,4.977,9.526
			C21.687,20.098,21.016,20.77,20.187,20.77z"/>
		<path id="path-8_34_" d="M20.711,63.089c-4.236,0-8.763-2.273-8.763-8.653c0-6.135,4.126-13.918,8.763-13.918
			s8.763,7.783,8.763,13.918C29.474,60.815,24.947,63.089,20.711,63.089z M20.711,43.518c-2.275,0-5.763,5.856-5.763,10.918
			c0,4.672,3.134,5.653,5.763,5.653s5.763-0.981,5.763-5.653C26.474,49.374,22.986,43.518,20.711,43.518z"/>
		<path id="path-9_23_" d="M23.701,54.363c-0.828,0-1.5-0.672-1.5-1.5c0-1.448-1.438-3.04-1.942-3.484
			c-0.622-0.547-0.682-1.495-0.135-2.117c0.548-0.622,1.494-0.682,2.117-0.134c0.303,0.266,2.96,2.693,2.96,5.735
			C25.201,53.692,24.529,54.363,23.701,54.363z"/>
	</g>
</g>
<g>
</g>
<g>
</g>
<g>
</g>
<g>
</g>
<g>
</g>
<g>
</g>
<g>
</g>
<g>
</g>
<g>
</g>
<g>
</g>
<g>
</g>
<g>
</g>
<g>
</g>
<g>
</g>
<g>
</g>
</svg>
