<?xml version="1.0" encoding="iso-8859-1"?>
<!-- Generator: Adobe Illustrator 19.1.0, SVG Export Plug-In . SVG Version: 6.00 Build 0)  -->
<svg version="1.1" id="Capa_1" xmlns="http://www.w3.org/2000/svg" xmlns:xlink="http://www.w3.org/1999/xlink" x="0px" y="0px"
	 viewBox="0 0 62.035 62.035" style="enable-background:new 0 0 62.035 62.035;" xml:space="preserve">
<g>
	<g id="group-43svg">
		<path id="path-1_36_" style="fill:#E56A77;" d="M22.26,62.035c2.669-1.435,5.728-2.425,8.975-2.425h6.196
			c3.247,0,6.305,0.99,8.975,2.425c5.803-3.12,9.76-9.07,9.76-15.968l3.047-23.603c0-2.568-3.262-4.433-8.262-5.692v2.907
			c0,6.807-5.396,11.931-12.361,11.931h-8.514c-6.966,0-13.125-5.124-13.125-11.931v-2.907c-5,1.258-7.88,3.167-7.88,5.734
			l3.314,23.561C12.385,52.965,16.457,58.915,22.26,62.035z"/>
		<path id="path-2_36_" style="fill:#53ECF4;" d="M40.53,46.592c0,3.48-2.821,6.301-6.301,6.301s-6.301-2.821-6.301-6.301
			s2.821-6.301,6.301-6.301S40.53,43.112,40.53,46.592z"/>
		<path id="path-3_36_" style="fill:#EDC951;" d="M20.951,28.072V2.21c0-1.388-5-3.08-5-1.692v23.363
			C16.951,25.742,18.951,27.207,20.951,28.072z"/>
		<path id="path-4_36_" style="fill:#EDC951;" d="M25.365,28.61h2.586V8.299c0-1.388-6-3.08-6-1.691v22.034
			C22.951,28.837,24.418,28.61,25.365,28.61z"/>
		<path id="path-5_36_" style="fill:#EDC951;" d="M33.878,28.61c0.631,0,2.073,0.278,2.073,0.189V2.717c0-1.388-6,0.304-6,1.691
			V28.61H33.878z"/>
		<path id="path-6_31_" style="fill:#EDC951;" d="M42.951,23.948V9.898c0-1.388-5-3.08-5-1.692v19.885
			C39.951,27.239,40.951,25.79,42.951,23.948z"/>
		<path id="path-7_24_" d="M41.406,61.285c-0.245,0-0.489-0.059-0.711-0.178c-3.168-1.704-5.794-2.497-8.264-2.497h-6.196
			c-2.47,0-5.096,0.793-8.265,2.497c-0.444,0.238-0.977,0.238-1.42,0C9.982,57.575,6.048,51.202,6.01,44.045L2.835,20.708
			c-0.009-0.067-0.014-0.134-0.014-0.202c0-3.223,3.117-5.642,9.264-7.189c0.448-0.112,0.923-0.013,1.288,0.272
			c0.365,0.284,0.578,0.72,0.578,1.183v2.906c0,5.755,4.679,9.932,11.125,9.932h8.514c6.477,0,11.361-4.27,11.361-9.932v-2.906
			c0-0.463,0.213-0.899,0.578-1.183c0.365-0.284,0.839-0.383,1.288-0.272c2.262,0.57,9.146,2.302,9.146,7.084
			c0,0.07-0.005,0.139-0.015,0.208l-3.282,23.439c-0.039,7.153-3.976,13.525-10.55,17.059C41.894,61.226,41.65,61.285,41.406,61.285
			z M26.235,55.61h6.196c2.78,0,5.641,0.787,8.948,2.468c5.204-3.083,8.287-8.313,8.287-14.136c0-0.07,0.005-0.139,0.015-0.208
			l3.279-23.42c-0.074-1.306-1.83-2.545-5.009-3.559v0.923c0,7.373-6.174,12.932-14.361,12.932h-8.514
			c-8.052,0-14.125-5.559-14.125-12.932V16.76c-3.179,1.031-5.051,2.352-5.127,3.663L8.996,43.74
			c0.009,0.066,0.014,0.134,0.014,0.202c0,5.826,3.078,11.056,8.277,14.136C20.594,56.397,23.454,55.61,26.235,55.61z"/>
		<path id="path-8_19_" d="M29.229,52.393c-4.301,0-7.801-3.5-7.801-7.801c0-4.302,3.5-7.801,7.801-7.801
			c4.302,0,7.801,3.499,7.801,7.801C37.03,48.893,33.531,52.393,29.229,52.393z M29.229,39.791c-2.647,0-4.801,2.154-4.801,4.801
			s2.154,4.801,4.801,4.801s4.801-2.154,4.801-4.801S31.876,39.791,29.229,39.791z"/>
	</g>
</g>
<g>
</g>
<g>
</g>
<g>
</g>
<g>
</g>
<g>
</g>
<g>
</g>
<g>
</g>
<g>
</g>
<g>
</g>
<g>
</g>
<g>
</g>
<g>
</g>
<g>
</g>
<g>
</g>
<g>
</g>
</svg>
