<?xml version="1.0" encoding="iso-8859-1"?>
<!-- Generator: Adobe Illustrator 19.1.0, SVG Export Plug-In . SVG Version: 6.00 Build 0)  -->
<svg version="1.1" id="Capa_1" xmlns="http://www.w3.org/2000/svg" xmlns:xlink="http://www.w3.org/1999/xlink" x="0px" y="0px"
	 viewBox="0 0 65.501 65.501" style="enable-background:new 0 0 65.501 65.501;" xml:space="preserve">
<g>
	<g id="group-41svg">
		<path id="path-1_34_" style="fill:#99746A;" d="M9.699,39.693l31.395-29.262c0,0,12.498-8.229,21.641,3.353
			c9.145,11.583-7.315,25.605-7.315,25.605S33.169,66.212,19.453,61.945C-4.548,54.477,9.699,39.693,9.699,39.693z"/>
		<path id="path-2_34_" style="fill:#231F20;" d="M18.612,60.904c-1.266,0-2.479-0.177-3.604-0.528
			C6.555,57.747,1.616,53.871,0.33,48.857c-1.754-6.835,4.041-12.948,4.289-13.205L36.071,6.334
			c0.062-0.057,0.127-0.109,0.198-0.155c0.191-0.126,4.748-3.083,10.537-3.083c5.156,0,9.566,2.274,13.107,6.759
			c7.899,10.005-1.346,22.367-7.422,27.591C50.911,39.333,32.541,60.904,18.612,60.904z M6.722,37.79
			c0.004,0-4.827,5.133-3.483,10.334c1.017,3.932,5.277,7.091,12.659,9.388c0.837,0.26,1.75,0.392,2.714,0.392
			c12.862,0,31.467-22.248,31.654-22.473c0.054-0.066,0.115-0.128,0.18-0.184c0.154-0.131,15.25-13.226,7.112-23.533
			c-2.943-3.728-6.56-5.617-10.752-5.617c-4.447,0-8.159,2.141-8.794,2.529L6.722,37.79L6.722,37.79z"/>
		<path id="path-3_34_" style="fill:#231F20;" d="M31.501,41.242c-0.626,0-1.21-0.394-1.421-1.02
			c-3.553-10.511-18.352-6.926-18.978-6.767c-0.804,0.202-1.619-0.285-1.822-1.088c-0.202-0.803,0.283-1.618,1.086-1.821
			c6.245-1.584,19.002-1.8,22.556,8.716c0.265,0.784-0.156,1.635-0.941,1.9C31.822,41.216,31.66,41.242,31.501,41.242z"/>
		<path id="path-4_34_" style="fill:#231F20;" d="M43.105,30.166c-0.626,0-1.21-0.395-1.421-1.02
			c-3.553-10.512-18.354-6.926-18.98-6.767c-0.805,0.202-1.618-0.285-1.821-1.088c-0.202-0.803,0.283-1.618,1.086-1.821
			c6.246-1.583,19.003-1.799,22.556,8.715c0.266,0.785-0.156,1.636-0.94,1.901C43.426,30.14,43.264,30.166,43.105,30.166z"/>
		<path id="path-5_34_" style="fill:#231F20;" d="M53.941,21.698c-0.626,0-1.21-0.394-1.42-1.02
			c-3.553-10.512-18.354-6.926-18.98-6.767c-0.806,0.201-1.618-0.285-1.821-1.088c-0.202-0.803,0.283-1.618,1.086-1.821
			c6.245-1.583,19.003-1.799,22.556,8.715c0.266,0.785-0.156,1.636-0.94,1.901C54.263,21.672,54.101,21.698,53.941,21.698z"/>
	</g>
</g>
<g>
</g>
<g>
</g>
<g>
</g>
<g>
</g>
<g>
</g>
<g>
</g>
<g>
</g>
<g>
</g>
<g>
</g>
<g>
</g>
<g>
</g>
<g>
</g>
<g>
</g>
<g>
</g>
<g>
</g>
</svg>
