<?xml version="1.0" encoding="iso-8859-1"?>
<!-- Generator: Adobe Illustrator 19.1.0, SVG Export Plug-In . SVG Version: 6.00 Build 0)  -->
<svg version="1.1" id="Capa_1" xmlns="http://www.w3.org/2000/svg" xmlns:xlink="http://www.w3.org/1999/xlink" x="0px" y="0px"
	 viewBox="0 0 63 63" style="enable-background:new 0 0 63 63;" xml:space="preserve">
<g>
	<g id="group-52svg">
		<path id="path-1_46_" style="fill:#99746A;" d="M30.096,17.081l7.129,7.128l5.184-5.184l-7.128-7.128L30.096,17.081z"/>
		<path id="path-2_46_" style="fill:#99746A;" d="M19.08,28.097l7.128,7.128l4.536-4.536l-7.128-7.128L19.08,28.097z"/>
		<path id="path-3_46_" style="fill:#99746A;" d="M8.065,39.113l7.128,7.129l4.536-4.536l-7.128-7.128L8.065,39.113z"/>
		<path id="path-4_46_" style="fill:#99746A;" d="M43.441,30.424l7.128,7.128l5.184-5.184l-7.128-7.128L43.441,30.424z"/>
		<path id="path-5_46_" style="fill:#99746A;" d="M32.424,41.44l7.128,7.128l4.537-4.535l-7.129-7.129L32.424,41.44z"/>
		<path id="path-6_40_" style="fill:#99746A;" d="M21.407,52.457l7.128,7.127l4.537-4.536l-7.129-7.128L21.407,52.457z"/>
		<path id="path-7_32_" style="fill:#81BDA4;" d="M44.493,14.996c-1.592,1.592-4.116,1.65-5.637,0.129s-1.463-4.044,0.129-5.637
			c1.593-1.593,4.117-1.65,5.638-0.129S46.087,13.404,44.493,14.996z"/>
		<path id="path-8_27_" style="fill:#81BDA4;" d="M57.838,28.339c-1.593,1.593-4.117,1.651-5.638,0.13s-1.463-4.045,0.129-5.638
			c1.593-1.592,4.117-1.65,5.638-0.129C59.488,24.223,59.43,26.747,57.838,28.339z"/>
		<path id="path-9_18_" style="fill:#E56A77;" d="M22.196,37.293c-1.592,1.593-4.117,1.651-5.638,0.13s-1.463-4.045,0.13-5.637
			c1.592-1.593,4.116-1.651,5.637-0.13C23.846,33.177,23.788,35.701,22.196,37.293z"/>
		<path id="path-10_14_" style="fill:#E56A77;" d="M35.54,50.636c-1.592,1.593-4.116,1.651-5.637,0.13s-1.463-4.045,0.129-5.638
			c1.592-1.591,4.116-1.65,5.637-0.128C37.19,46.52,37.132,49.044,35.54,50.636z"/>
		<path id="path-11_13_" style="fill:#EDC951;" d="M33.021,26.469c-1.593,1.593-4.117,1.65-5.638,0.129s-1.463-4.045,0.129-5.637
			c1.593-1.593,4.117-1.651,5.638-0.129C34.672,22.353,34.614,24.876,33.021,26.469z"/>
		<path id="path-12_12_" style="fill:#EDC951;" d="M46.364,39.812c-1.592,1.593-4.116,1.65-5.637,0.129s-1.463-4.045,0.13-5.637
			c1.592-1.593,4.116-1.651,5.637-0.13C48.014,35.696,47.957,38.219,46.364,39.812z"/>
		<path id="path-13_10_" d="M1.5,49.658c-0.384,0-0.768-0.147-1.061-0.44c-0.586-0.586-0.586-1.535,0-2.121l6.481-6.48
			c0.586-0.586,1.535-0.586,2.121,0c0.586,0.586,0.586,1.535,0,2.121l-6.481,6.48C2.268,49.511,1.885,49.658,1.5,49.658z"/>
		<path id="path-14_6_" d="M41.678,9.481c-0.384,0-0.768-0.147-1.061-0.44c-0.586-0.585-0.586-1.535,0-2.121l6.48-6.48
			c0.586-0.586,1.536-0.586,2.122,0c0.585,0.585,0.585,1.536,0,2.121l-6.481,6.48C42.444,9.334,42.061,9.481,41.678,9.481z"/>
		<path id="path-15_5_" d="M38.556,16.729c-1.43,0-2.765-0.547-3.761-1.543c-2.103-2.103-2.045-5.584,0.13-7.758
			c1.078-1.079,2.498-1.673,3.998-1.673c1.43,0,2.765,0.548,3.76,1.543c2.104,2.103,2.046,5.584-0.129,7.759
			C41.477,16.135,40.056,16.729,38.556,16.729z M38.924,8.755c-0.699,0-1.365,0.282-1.877,0.794
			c-1.005,1.005-1.063,2.582-0.13,3.516c0.905,0.903,2.543,0.843,3.516-0.13c1.006-1.004,1.064-2.582,0.13-3.516
			C40.135,8.991,39.552,8.755,38.924,8.755z"/>
		<path id="path-16_4_" d="M51.9,30.073c-1.43,0-2.765-0.549-3.761-1.544c-2.103-2.103-2.045-5.583,0.129-7.759
			c1.079-1.078,2.499-1.672,3.999-1.672c1.43,0,2.765,0.548,3.761,1.543c2.103,2.103,2.045,5.584-0.129,7.759
			C54.819,29.479,53.399,30.073,51.9,30.073z M52.267,22.098c-0.698,0-1.365,0.282-1.877,0.794c-1.005,1.005-1.063,2.583-0.13,3.516
			c0.906,0.905,2.544,0.843,3.517-0.13c1.005-1.005,1.063-2.582,0.13-3.516C53.478,22.334,52.895,22.098,52.267,22.098z"/>
		<path id="path-17_4_" d="M27.083,28.202c-1.43,0-2.765-0.548-3.761-1.543c-2.103-2.103-2.045-5.584,0.13-7.759
			c1.078-1.078,2.498-1.672,3.998-1.672c1.43,0,2.766,0.547,3.761,1.543c2.103,2.103,2.045,5.583-0.13,7.758
			C30.003,27.608,28.583,28.202,27.083,28.202z M27.45,20.228c-0.698,0-1.365,0.282-1.877,0.793
			c-1.005,1.005-1.063,2.583-0.129,3.517c0.904,0.904,2.543,0.843,3.516-0.13c1.005-1.005,1.063-2.582,0.13-3.516
			C28.661,20.463,28.08,20.228,27.45,20.228z"/>
		<path id="path-18_2_" d="M40.427,41.545c-1.43,0-2.765-0.548-3.76-1.544c-2.104-2.102-2.046-5.583,0.129-7.758
			c1.079-1.079,2.499-1.673,3.998-1.673c1.43,0,2.765,0.549,3.76,1.544c2.104,2.103,2.046,5.585-0.128,7.758
			C43.347,40.951,41.926,41.545,40.427,41.545z M40.794,33.57c-0.698,0-1.365,0.283-1.877,0.795
			c-1.005,1.005-1.063,2.582-0.129,3.515c0.906,0.906,2.544,0.844,3.516-0.13c1.005-1.003,1.063-2.581,0.129-3.515
			C42.005,33.806,41.423,33.57,40.794,33.57z"/>
		<path id="path-19_2_" d="M16.259,39.027c-1.431,0-2.766-0.548-3.761-1.544c-2.104-2.103-2.046-5.583,0.129-7.758
			c1.079-1.079,2.499-1.673,3.998-1.673c1.43,0,2.766,0.548,3.761,1.544c2.103,2.103,2.045,5.583-0.129,7.758
			C19.178,38.433,17.758,39.027,16.259,39.027z M16.625,31.052c-0.698,0-1.365,0.282-1.877,0.794
			c-1.005,1.005-1.063,2.583-0.129,3.517c0.905,0.904,2.543,0.843,3.516-0.13c1.005-1.005,1.063-2.583,0.13-3.516
			C17.837,31.288,17.254,31.052,16.625,31.052z"/>
		<path id="path-20_1_" d="M29.601,52.371c-1.429,0-2.765-0.549-3.76-1.544c-2.103-2.103-2.045-5.584,0.129-7.759
			c1.079-1.078,2.499-1.673,3.998-1.673c1.43,0,2.766,0.548,3.761,1.544c2.103,2.103,2.045,5.584-0.129,7.758
			C32.521,51.776,31.101,52.371,29.601,52.371z M29.969,44.395c-0.698,0-1.364,0.282-1.876,0.794
			c-1.005,1.006-1.063,2.583-0.13,3.517c0.906,0.905,2.545,0.842,3.517-0.13c1.005-1.005,1.062-2.582,0.128-3.517
			C31.179,44.631,30.597,44.395,29.969,44.395z"/>
		<path id="path-21_1_" d="M34.225,24.709c-0.383,0-0.767-0.147-1.06-0.44l-7.128-7.127c-0.586-0.586-0.586-1.536,0-2.122
			l5.184-5.184c0.586-0.586,1.535-0.586,2.121,0l7.128,7.128c0.282,0.282,0.44,0.663,0.44,1.061c0,0.398-0.158,0.779-0.44,1.06
			l-5.184,5.184C34.993,24.562,34.609,24.709,34.225,24.709z M29.219,16.081l5.006,5.007l3.063-3.063l-5.007-5.007L29.219,16.081z"
			/>
		<path id="path-22_1_" d="M23.208,35.725c-0.384,0-0.767-0.146-1.06-0.439l-7.128-7.128c-0.586-0.586-0.586-1.536,0-2.121
			l4.536-4.537c0.586-0.585,1.535-0.585,2.121,0l7.128,7.128c0.586,0.586,0.586,1.536,0,2.121l-4.536,4.537
			C23.976,35.579,23.592,35.725,23.208,35.725z M18.201,27.097l5.007,5.007l2.415-2.415l-5.007-5.007L18.201,27.097z"/>
		<path id="path-23_1_" d="M12.193,46.742c-0.384,0-0.767-0.147-1.06-0.44l-7.128-7.129c-0.586-0.585-0.586-1.535,0-2.121
			l4.536-4.535c0.281-0.282,0.662-0.44,1.06-0.44l0,0c0.398,0,0.78,0.158,1.061,0.44l7.128,7.128
			c0.281,0.281,0.439,0.663,0.439,1.061c0,0.397-0.158,0.779-0.439,1.06l-4.536,4.536C12.961,46.595,12.576,46.742,12.193,46.742z
			 M7.185,38.113l5.007,5.008l2.415-2.415l-5.007-5.007L7.185,38.113z"/>
		<path id="path-24_1_" d="M47.569,38.052L47.569,38.052c-0.398,0-0.78-0.158-1.061-0.439l-7.128-7.129
			c-0.586-0.586-0.586-1.535,0-2.121l5.184-5.184c0.281-0.281,0.663-0.439,1.061-0.439l0,0c0.398,0,0.779,0.158,1.06,0.439
			l7.128,7.129c0.586,0.586,0.586,1.535,0,2.121l-5.184,5.184C48.347,37.894,47.967,38.052,47.569,38.052z M42.562,29.424
			l5.007,5.006l3.063-3.062l-5.007-5.007L42.562,29.424z"/>
		<path id="path-25_1_" d="M36.553,49.068c-0.384,0-0.768-0.147-1.061-0.44L28.363,41.5c-0.586-0.585-0.586-1.534,0-2.121
			l4.536-4.536c0.562-0.562,1.558-0.562,2.121,0l7.128,7.128c0.281,0.282,0.44,0.663,0.44,1.062c0,0.397-0.159,0.779-0.44,1.059
			l-4.536,4.536C37.319,48.921,36.936,49.068,36.553,49.068z M31.545,40.441l5.007,5.006l2.414-2.414l-5.007-5.007L31.545,40.441z"
			/>
		<path id="path-26_1_" d="M25.535,60.084c-0.383,0-0.767-0.146-1.06-0.439l-7.129-7.128c-0.281-0.281-0.439-0.662-0.439-1.06
			c0-0.399,0.158-0.78,0.439-1.061l4.537-4.536c0.585-0.586,1.535-0.586,2.121,0l7.128,7.128c0.281,0.281,0.439,0.662,0.439,1.06
			c0,0.398-0.158,0.78-0.439,1.061l-4.536,4.536C26.303,59.938,25.92,60.084,25.535,60.084z M20.529,51.457l5.006,5.006l2.415-2.415
			l-5.007-5.007L20.529,51.457z"/>
		<path id="path-27_1_" d="M14.844,63c-0.384,0-0.768-0.146-1.061-0.439c-0.585-0.586-0.585-1.536,0-2.121l6.48-6.481
			c0.586-0.585,1.536-0.585,2.121,0c0.586,0.586,0.586,1.537,0,2.123l-6.479,6.479C15.612,62.854,15.227,63,14.844,63z"/>
		<path id="path-28_1_" d="M55.021,22.824c-0.384,0-0.768-0.147-1.061-0.44c-0.586-0.585-0.586-1.535,0-2.121l6.48-6.48
			c0.586-0.586,1.535-0.586,2.121,0c0.586,0.586,0.586,1.536,0,2.121l-6.48,6.48C55.788,22.677,55.405,22.824,55.021,22.824z"/>
	</g>
</g>
<g>
</g>
<g>
</g>
<g>
</g>
<g>
</g>
<g>
</g>
<g>
</g>
<g>
</g>
<g>
</g>
<g>
</g>
<g>
</g>
<g>
</g>
<g>
</g>
<g>
</g>
<g>
</g>
<g>
</g>
</svg>
