<?xml version="1.0" encoding="iso-8859-1"?>
<!-- Generator: Adobe Illustrator 19.1.0, SVG Export Plug-In . SVG Version: 6.00 Build 0)  -->
<svg version="1.1" id="Capa_1" xmlns="http://www.w3.org/2000/svg" xmlns:xlink="http://www.w3.org/1999/xlink" x="0px" y="0px"
	 viewBox="0 0 63 63" style="enable-background:new 0 0 63 63;" xml:space="preserve">
<g>
	<g id="group-30svg">
		<path id="path-1_22_" style="fill:#8B71B5;" d="M62.5,49.25v-8.703c0-3.191-2.558-6.297-5.748-6.297h-41.89
			c-3.19,0-5.362,3.106-5.362,6.297v8.703H62.5z"/>
		<path id="path-2_22_" style="fill:#EDC951;" d="M53.5,34.25v-2.866c0-3.191-2.225-6.134-5.415-6.134H23.529
			c-3.191,0-6.029,2.943-6.029,6.134v2.866H53.5z"/>
		<path id="path-3_22_" style="fill:#8B71B5;" d="M47.5,25.25v-1.469c0-2.017-1.918-4.531-3.935-4.531H28.049
			c-2.017,0-3.549,2.514-3.549,4.531v1.469H47.5z"/>
		<path id="path-4_22_" d="M59,49.25H5c-0.828,0-1.5-0.671-1.5-1.5v-8.203c0-4.024,3.303-7.297,7.362-7.297h41.89
			c4.128,0,7.748,3.41,7.748,7.297v8.203C60.5,48.579,59.828,49.25,59,49.25z M6.5,46.25h51v-6.703c0-2.249-2.263-4.297-4.748-4.297
			h-41.89c-2.364,0-4.362,1.968-4.362,4.297V46.25z"/>
		<path id="path-5_22_" d="M50,34.25H14c-0.828,0-1.5-0.672-1.5-1.5v-2.366c0-3.847,2.887-8.134,7.029-8.134h24.556
			c4.244,0,7.415,4.294,7.415,8.134v2.366C51.5,33.578,50.828,34.25,50,34.25z M15.5,31.25h33v-0.866
			c0-2.311-2.037-5.134-4.415-5.134H19.529c-2.305,0-4.029,2.71-4.029,5.134V31.25z"/>
		<path id="path-6_19_" d="M43,25.25H20c-0.828,0-1.5-0.672-1.5-1.5v-0.969c0-2.843,2.696-5.531,5.549-5.531h15.516
			c3.048,0,4.935,2.871,4.935,5.531v0.969C44.5,24.578,43.828,25.25,43,25.25z M21.584,22.25H41.45c-0.19-1.029-0.912-2-1.885-2
			H24.049C23.034,20.25,21.898,21.229,21.584,22.25z"/>
		<path id="path-7_15_" d="M61.5,55.25h-60c-0.828,0-1.5-0.671-1.5-1.5s0.672-1.5,1.5-1.5h60c0.828,0,1.5,0.671,1.5,1.5
			S62.328,55.25,61.5,55.25z"/>
		<path id="path-8_12_" d="M37,19.75c-0.828,0-1.5-0.671-1.5-1.5v-7c0-0.829,0.672-1.5,1.5-1.5s1.5,0.671,1.5,1.5v7
			C38.5,19.079,37.828,19.75,37,19.75z"/>
		<path id="path-9_8_" d="M25,19.75c-0.828,0-1.5-0.671-1.5-1.5v-7c0-0.829,0.672-1.5,1.5-1.5s1.5,0.671,1.5,1.5v7
			C26.5,19.079,25.828,19.75,25,19.75z"/>
		<path id="path-10_4_" d="M31,19.75c-0.828,0-1.5-0.671-1.5-1.5v-9c0-0.829,0.672-1.5,1.5-1.5s1.5,0.671,1.5,1.5v9
			C32.5,19.079,31.828,19.75,31,19.75z"/>
		<path id="path-11_4_" d="M15.357,45.03c-5.38,0.001-10.863-4.051-11.172-4.283c-0.663-0.497-0.796-1.436-0.3-2.098
			c0.496-0.663,1.435-0.799,2.099-0.302c0.082,0.062,8.423,6.214,12.898,2.503c6.007-4.986,15.914-1.992,16.332-1.863
			c3.241,1.128,9.065,2.326,11.097,0.804c3.948-2.954,11.799-0.514,12.684-0.225c0.787,0.257,1.217,1.102,0.96,1.89
			c-0.256,0.787-1.098,1.221-1.891,0.962c-2.765-0.899-7.912-1.753-9.954-0.226c-3.963,2.968-12.838-0.007-13.835-0.356
			c-0.035-0.009-8.727-2.62-13.477,1.322C19.153,44.522,17.262,45.03,15.357,45.03z"/>
	</g>
</g>
<g>
</g>
<g>
</g>
<g>
</g>
<g>
</g>
<g>
</g>
<g>
</g>
<g>
</g>
<g>
</g>
<g>
</g>
<g>
</g>
<g>
</g>
<g>
</g>
<g>
</g>
<g>
</g>
<g>
</g>
</svg>
