<?xml version="1.0" encoding="iso-8859-1"?>
<!-- Generator: Adobe Illustrator 19.1.0, SVG Export Plug-In . SVG Version: 6.00 Build 0)  -->
<svg version="1.1" id="Capa_1" xmlns="http://www.w3.org/2000/svg" xmlns:xlink="http://www.w3.org/1999/xlink" x="0px" y="0px"
	 viewBox="0 0 65.502 65.502" style="enable-background:new 0 0 65.502 65.502;" xml:space="preserve">
<g>
	<g id="group-39svg">
		<path id="path-1_31_" style="fill:#8B71B5;" d="M49.537,25.296c3.9,6.936,4.71,10.035-8.728,17.591
			c-13.437,7.556-15.484,5.153-19.384-1.784c-3.901-6.936-4.89-9.935,8.547-17.49C43.41,16.057,45.636,18.359,49.537,25.296z"/>
		<path id="path-2_31_" style="fill:#FF917B;" d="M59.519,27.261c0.984,1.75,3.369,2.214,4.957,0.776
			c0.86-0.777,1.223-2.017,0.92-3.136c-0.271-0.998-0.933-1.713-1.74-2.091c0.784-1.437,0.839-3.231-0.023-4.763
			c-0.883-1.57-2.501-2.462-4.18-2.498c0.15-0.917-0.093-1.908-0.816-2.7c-0.796-0.873-2.072-1.228-3.205-0.891
			c-2.05,0.611-2.892,2.89-1.909,4.639l-4.288,5.315c-0.539,0.662-0.548,1.547-0.13,2.29l1.626,2.893
			c0.419,0.745,1.182,1.196,2.027,1.078L59.519,27.261z"/>
		<path id="path-3_31_" style="fill:#FF917B;" d="M17.479,50.9c0.984,1.749,0.141,4.029-1.912,4.638
			c-1.111,0.33-2.359-0.003-3.157-0.843c-0.713-0.75-0.98-1.688-0.883-2.574c-1.636-0.076-3.196-0.962-4.058-2.494
			c-0.882-1.57-0.804-3.416,0.038-4.869c-0.863-0.348-1.582-1.071-1.883-2.1c-0.332-1.134,0.026-2.408,0.903-3.201
			c1.588-1.435,3.973-0.97,4.956,0.778l7.058-1.064c0.844-0.116,1.894,0.173,2.312,0.917l1.626,2.892
			c0.419,0.745,0.12,1.793-0.42,2.455L17.479,50.9z"/>
		<path id="path-4_31_" d="M24.747,48.041c-4.581,0-6.639-3.661-8.63-7.203c-2.097-3.729-3.491-6.612-2.327-9.767
			c1.1-2.983,4.417-5.812,11.447-9.766c6.092-3.425,9.959-4.886,12.929-4.886c4.319,0,6.403,3.095,8.678,7.141
			c2.022,3.595,3.469,6.601,2.232,9.835c-1.149,3.001-4.489,5.84-11.531,9.8C31.503,46.592,27.675,48.041,24.747,48.041z
			 M38.166,19.419c-2.388,0-5.921,1.388-11.458,4.502c-6.181,3.474-9.296,6-10.104,8.189c-0.667,1.806,0.081,3.619,2.128,7.258
			c2.217,3.945,3.456,5.673,6.015,5.673c2.346,0,5.84-1.376,11.327-4.462c6.204-3.488,9.35-6.034,10.2-8.256
			c0.712-1.861-0.056-3.754-2.045-7.292C41.9,20.889,40.634,19.419,38.166,19.419z"/>
		<path id="path-5_31_" d="M58.303,29.389c-1.33,0-2.583-0.566-3.461-1.523l-5.883,0.793c-0.154,0.022-0.311,0.033-0.466,0.033
			c-0.001,0-0.001,0-0.001,0c-1.266,0-2.413-0.697-3.068-1.862l-1.626-2.892c-0.736-1.306-0.628-2.865,0.274-3.973l3.728-4.62
			c-0.294-1.003-0.246-2.081,0.157-3.075c0.538-1.331,1.649-2.333,3.048-2.749c1.667-0.496,3.573,0.038,4.74,1.317
			c0.63,0.69,1.034,1.525,1.184,2.409c1.681,0.43,3.148,1.529,4.011,3.065c0.862,1.533,1.049,3.311,0.559,4.955
			c0.638,0.597,1.107,1.368,1.344,2.241c0.452,1.664-0.084,3.485-1.36,4.642C60.6,28.949,59.47,29.389,58.303,29.389z
			 M56.328,24.638l0.499,0.888c0.299,0.532,0.865,0.863,1.476,0.863c0.299,0,0.744-0.081,1.166-0.463
			c0.443-0.401,0.635-1.057,0.479-1.633c-0.138-0.509-0.468-0.909-0.929-1.125l-1.444-0.677l0.765-1.4
			c0.569-1.043,0.563-2.28-0.015-3.309c-0.596-1.059-1.681-1.707-2.904-1.733l-1.728-0.037l0.279-1.706
			c0.05-0.304,0.059-0.896-0.442-1.445c-0.402-0.44-1.099-0.634-1.67-0.465c-0.71,0.212-1.008,0.717-1.122,1
			c-0.195,0.48-0.161,1.015,0.093,1.466l0.498,0.886l-4.927,6.106c-0.179,0.22-0.053,0.501,0.01,0.612l1.627,2.894
			c0.044,0.077,0.206,0.332,0.453,0.332L56.328,24.638z"/>
		<path id="path-6_27_" d="M10.695,56.164c-1.276,0-2.506-0.524-3.373-1.437C6.7,54.073,6.283,53.27,6.106,52.414
			c-1.661-0.435-3.082-1.518-3.944-3.052c-0.863-1.536-1.041-3.361-0.535-5.019c-0.678-0.588-1.181-1.367-1.443-2.264
			c-0.496-1.693,0.03-3.552,1.337-4.734c0.883-0.798,2.011-1.238,3.177-1.238c1.325,0,2.572,0.561,3.45,1.511l6.169-0.93
			c1.689-0.234,3.17,0.467,3.844,1.665l1.626,2.892c0.788,1.401,0.26,3.127-0.566,4.139l-4.012,4.787
			c0.288,0.998,0.236,2.069-0.164,3.057c-0.54,1.331-1.652,2.333-3.051,2.748C11.575,56.101,11.137,56.164,10.695,56.164z
			 M4.698,39.107c-0.298,0-0.742,0.081-1.165,0.463c-0.453,0.409-0.642,1.079-0.47,1.667c0.209,0.715,0.719,1.014,1.004,1.13
			l1.605,0.646l-0.868,1.496c-0.613,1.059-0.623,2.323-0.027,3.383c0.578,1.029,1.632,1.676,2.819,1.731l1.595,0.074l-0.173,1.587
			c-0.055,0.505,0.116,0.994,0.479,1.377c0.401,0.422,1.082,0.607,1.643,0.439c0.711-0.211,1.01-0.716,1.124-0.999
			c0.195-0.481,0.162-1.015-0.092-1.467l-0.508-0.904l5.246-6.258c0.225-0.277,0.299-0.655,0.259-0.763l-1.623-2.886
			c-0.045-0.055-0.414-0.217-0.801-0.166l-8.062,1.216L6.175,39.97C5.877,39.438,5.31,39.107,4.698,39.107z"/>
	</g>
</g>
<g>
</g>
<g>
</g>
<g>
</g>
<g>
</g>
<g>
</g>
<g>
</g>
<g>
</g>
<g>
</g>
<g>
</g>
<g>
</g>
<g>
</g>
<g>
</g>
<g>
</g>
<g>
</g>
<g>
</g>
</svg>
