<?xml version="1.0" encoding="iso-8859-1"?>
<!-- Generator: Adobe Illustrator 19.1.0, SVG Export Plug-In . SVG Version: 6.00 Build 0)  -->
<svg version="1.1" id="Capa_1" xmlns="http://www.w3.org/2000/svg" xmlns:xlink="http://www.w3.org/1999/xlink" x="0px" y="0px"
	 viewBox="0 0 66 66" style="enable-background:new 0 0 66 66;" xml:space="preserve">
<g>
	<g id="group-68svg">
		<path id="path-1_63_" style="fill:#53ECF4;" d="M66,29v28H24.856C20.471,57,6,56.872,6,47.913V25l0,0"/>
		<path id="path-2_63_" style="fill:#E56A77;" d="M66,33H24.856C20.471,33,6,32.227,6,23.269V16h43.182
			C53.567,16,66,15.478,66,25.156V33z"/>
		<path id="path-3_63_" style="fill:#EDC951;" d="M66,39H39v10h27l0,0"/>
		<path id="path-4_63_" d="M61.5,29H19.856C3.445,29,0,23.164,0,18.268V10.5C0,9.672,0.672,9,1.5,9h42.682C48.879,9,63,9,63,20.156
			V27.5C63,28.328,62.328,29,61.5,29z M3,12v6.268C3,24.658,12.167,26,19.856,26H60v-5.844C60,12.846,51.005,12,44.239,12H3z"/>
		<path id="path-5_63_" d="M18.629,53.002c-4.344,0-12.237-0.199-16.25-4.201C0.8,47.228,0,45.246,0,42.913V20
			c0-0.828,0.672-1.5,1.5-1.5S3,19.172,3,20v22.913c0,1.528,0.489,2.759,1.497,3.764C7.862,50.033,15.924,50,19.345,50h0.511H60V24
			c0-0.828,0.672-1.5,1.5-1.5S63,23.172,63,24v27.5c0,0.828-0.672,1.5-1.5,1.5l-42.147,0.001
			C19.125,53.002,18.883,53.002,18.629,53.002z"/>
		<path id="path-6_56_" d="M61,45H34.5c-0.828,0-1.5-0.672-1.5-1.5v-10c0-0.828,0.672-1.5,1.5-1.5H61c0.828,0,1.5,0.672,1.5,1.5
			S61.828,35,61,35H36v7h25c0.828,0,1.5,0.672,1.5,1.5S61.828,45,61,45z"/>
		<path id="path-7_47_" d="M60,20h-9c-0.828,0-1.5-0.672-1.5-1.5S50.172,17,51,17h9c0.828,0,1.5,0.672,1.5,1.5S60.828,20,60,20z"/>
	</g>
</g>
<g>
</g>
<g>
</g>
<g>
</g>
<g>
</g>
<g>
</g>
<g>
</g>
<g>
</g>
<g>
</g>
<g>
</g>
<g>
</g>
<g>
</g>
<g>
</g>
<g>
</g>
<g>
</g>
<g>
</g>
</svg>
