<?xml version="1.0" encoding="iso-8859-1"?>
<!-- Generator: Adobe Illustrator 19.1.0, SVG Export Plug-In . SVG Version: 6.00 Build 0)  -->
<svg version="1.1" id="Capa_1" xmlns="http://www.w3.org/2000/svg" xmlns:xlink="http://www.w3.org/1999/xlink" x="0px" y="0px"
	 viewBox="0 0 66.5 66.5" style="enable-background:new 0 0 66.5 66.5;" xml:space="preserve">
<g>
	<g id="group-67svg">
		<path id="path-1_62_" style="fill:#FF917B;" d="M65.611,21.826v28.714c0,6.041-13.557,10.859-30.125,10.859
			S6.611,56.424,6.611,50.382V21.826l0,0"/>
		<path id="path-2_62_" style="fill:#99746A;" d="M66.5,20.539c0,6.041-13.432,10.937-30,10.937c-16.57,0-30-4.896-30-10.937
			c0-6.04,13.43-10.938,30-10.938C53.068,9.601,66.5,14.499,66.5,20.539z"/>
		<path id="path-3_62_" style="fill:#53ECF4;" d="M65.556,45.23c-13.75,10.628-29.945,6.246-29.945,6.246V40.812
			c13,2.331,29.879-4.997,29.879-4.997L65.556,45.23z"/>
		<path id="path-4_62_" d="M31.5,29.977C16.229,29.977,0,25.618,0,17.539C0,9.46,16.229,5.102,31.5,5.102
			C46.77,5.102,63,9.46,63,17.539C63,25.618,46.77,29.977,31.5,29.977z M31.5,8.101C14.704,8.101,3,13.075,3,17.539
			c0,4.463,11.704,9.437,28.5,9.437c16.795,0,28.5-4.974,28.5-9.437C60,13.075,48.295,8.101,31.5,8.101z"/>
		<path id="path-5_62_" d="M30.986,59.898c-17.601,0-30.375-5.264-30.375-12.516V18.826c0-0.828,0.672-1.5,1.5-1.5
			s1.5,0.672,1.5,1.5v28.557c0,4.595,11,9.516,27.375,9.516c16.869,0,28.625-4.933,28.625-9.359V18.826c0-0.828,0.672-1.5,1.5-1.5
			s1.5,0.672,1.5,1.5v28.714C62.611,55.567,46.317,59.898,30.986,59.898z"/>
		<path id="path-6_55_" d="M39.363,50.896c-4.933,0-8.337-0.889-8.644-0.972c-0.654-0.176-1.108-0.77-1.108-1.447V37.812
			c0-0.444,0.197-0.865,0.537-1.15c0.341-0.286,0.791-0.405,1.228-0.327c12.401,2.224,28.217-4.816,28.376-4.887
			c0.756-0.34,1.643-0.004,1.983,0.751c0.341,0.755,0.005,1.643-0.751,1.984c-0.65,0.294-15.448,6.87-28.373,5.365v7.716
			c3.788,0.708,16.562,2.252,27.523-6.221c0.654-0.506,1.598-0.386,2.104,0.27c0.507,0.655,0.387,1.597-0.27,2.103
			C54.091,49.507,45.532,50.896,39.363,50.896z"/>
		<path id="path-7_46_" d="M60.611,18.826h-13c-0.828,0-1.5-0.672-1.5-1.5c0-0.829,0.672-1.5,1.5-1.5h13c0.828,0,1.5,0.671,1.5,1.5
			C62.111,18.153,61.439,18.826,60.611,18.826z"/>
	</g>
</g>
<g>
</g>
<g>
</g>
<g>
</g>
<g>
</g>
<g>
</g>
<g>
</g>
<g>
</g>
<g>
</g>
<g>
</g>
<g>
</g>
<g>
</g>
<g>
</g>
<g>
</g>
<g>
</g>
<g>
</g>
</svg>
