<?xml version="1.0" encoding="iso-8859-1"?>
<!-- Generator: Adobe Illustrator 19.1.0, SVG Export Plug-In . SVG Version: 6.00 Build 0)  -->
<svg version="1.1" id="Capa_1" xmlns="http://www.w3.org/2000/svg" xmlns:xlink="http://www.w3.org/1999/xlink" x="0px" y="0px"
	 viewBox="0 0 63.979 63.979" style="enable-background:new 0 0 63.979 63.979;" xml:space="preserve">
<g>
	<g id="group-84svg">
		<path id="path-1_81_" style="fill:#E56A77;" d="M42.978,53.979h-30c-0.553,0-1.989-0.053-1.989,0.5v3c0,0.552,1.436,1.5,1.989,1.5
			h3.384c-1.001,0-3.373,1.403-3.373,2.404v0.125c0,1.296,2.039,2.471,3.334,2.471h22.31c1.295,0,1.356-1.3,1.356-2.596v0.125
			c0-1.001,1.088-2.529,0.087-2.529h2.902c0.552,0,0.011-0.948,0.011-1.5v-3C42.989,53.929,43.528,53.979,42.978,53.979z"/>
		<path id="path-2_81_" style="fill:#8B71B5;" d="M43.744,22.979H14.152c-1.165,0-3.163,1.194-3.163,2.359v21.535
			c0,1.164,1.998,2.106,3.163,2.106h27.667c1.164,0,0.17-0.942,0.17-2.106V32.929c0-1.005,1.679-1.87,2.664-2.068l12.097-2.51
			c0.985-0.198,1.239-1.063,1.239-2.068v-3.334c0-1.31-0.242-2.302-1.532-2.077l-12.82,2.2
			C43.517,23.094,43.866,22.979,43.744,22.979z"/>
		<path id="path-3_81_" d="M37.819,47.979H10.152c-2.451,0-4.163-1.278-4.163-3.106V23.338c0-1.863,2.058-4.359,4.163-4.359h29.592
			c0.27,0,0.54,0.076,0.775,0.213l11.965-1.803c1.465-0.258,3.505,0.521,3.505,3.56v3.334c0,1.866-0.985,3.221-2.57,3.538
			L41.205,30.33c-0.506,0.102-1.071,0.475-1.216,0.689v13.854c0,0.235,0.03,0.428,0.052,0.588c0.062,0.447,0.165,1.196-0.395,1.84
			C39.055,47.979,38.189,47.979,37.819,47.979z M8.989,44.738c0.176,0.102,0.604,0.241,1.163,0.241h26.837c0-0.036,0-0.071,0-0.106
			V30.929c0-1.942,2.117-3.237,3.62-3.538l12.214-2.51c0.076-0.037,0.166-0.212,0.166-0.598v-3.334c0-0.282-0.032-0.476-0.064-0.592
			l-12.939,1.949c-0.42,0.062-0.869-0.062-1.198-0.327H10.152c-0.358,0.066-1.138,0.96-1.163,1.363V44.738z"/>
		<path id="path-4_81_" d="M29.735,18.729c-0.578,0-1.129-0.336-1.375-0.9c-0.611-1.397-5.781-13.768,0.601-17.612
			c0.709-0.429,1.63-0.201,2.058,0.51c0.428,0.71,0.199,1.632-0.511,2.058c-3.51,2.116-0.67,10.925,0.602,13.844
			c0.33,0.76-0.017,1.643-0.776,1.975C30.139,18.689,29.935,18.729,29.735,18.729z"/>
		<path id="path-5_79_" d="M14.326,18.729c-0.578,0-1.129-0.336-1.375-0.9c-0.611-1.397-5.781-13.768,0.6-17.612
			c0.709-0.429,1.631-0.201,2.059,0.51c0.428,0.71,0.199,1.632-0.511,2.058C11.59,4.901,14.429,13.71,15.7,16.629
			c0.331,0.76-0.016,1.643-0.775,1.975C14.73,18.689,14.526,18.729,14.326,18.729z"/>
		<path id="path-6_71_" d="M22.484,18.729c-0.538,0-1.058-0.29-1.327-0.799c-0.38-0.72-3.674-7.158-2.226-11.658
			c0.488-1.516,1.485-2.685,2.884-3.381c0.741-0.371,1.642-0.069,2.011,0.674c0.369,0.742,0.067,1.642-0.674,2.011
			c-0.686,0.342-1.12,0.854-1.364,1.612c-0.903,2.798,1.153,7.691,2.022,9.34c0.386,0.734,0.105,1.64-0.627,2.027
			C22.96,18.672,22.72,18.729,22.484,18.729z"/>
		<path id="path-7_56_" d="M34.633,62.979h-22.31c-2.12,0-3.845-1.725-3.845-3.846c0-0.367,0.088-0.767,0.245-1.167
			c-1.217-0.116-2.734-1.042-2.734-2.487v-3c0-1.549,1.741-2.5,2.989-2.5h30c0.715,0,1.169,0.304,1.424,0.561
			c0.592,0.596,0.587,1.347,0.587,1.843v3.096c0,0.595,0.006,1.343-0.585,1.938c-0.255,0.256-0.71,0.562-1.426,0.562h-0.511
			c0.017,0.32,0.014,0.632,0.012,0.914l-0.001,0.24C38.478,61.254,36.753,62.979,34.633,62.979z M12.444,57.977
			c-0.327,0.136-0.916,0.857-0.968,1.191c0.002,0.432,0.381,0.811,0.847,0.811h22.31c0.465,0,0.845-0.379,0.845-0.846l0.001-0.263
			c0.002-0.256,0.006-0.716-0.029-1.028c-0.516-0.236-0.874-0.758-0.874-1.363c0-0.828,0.671-1.5,1.5-1.5h1.913v-2h-29v1.998
			c0.007,0.002,0.015,0.002,0.021,0.004l3.352-0.002c0.828,0,1.5,0.672,1.5,1.5C13.862,57.279,13.234,57.934,12.444,57.977z"/>
		<path id="path-8_45_" d="M29.989,57.979h-14c-0.829,0-1.5-0.672-1.5-1.5c0-0.828,0.671-1.5,1.5-1.5h14c0.829,0,1.5,0.672,1.5,1.5
			C31.489,57.307,30.818,57.979,29.989,57.979z"/>
	</g>
</g>
<g>
</g>
<g>
</g>
<g>
</g>
<g>
</g>
<g>
</g>
<g>
</g>
<g>
</g>
<g>
</g>
<g>
</g>
<g>
</g>
<g>
</g>
<g>
</g>
<g>
</g>
<g>
</g>
<g>
</g>
</svg>
