<?xml version="1.0" encoding="iso-8859-1"?>
<!-- Generator: Adobe Illustrator 19.1.0, SVG Export Plug-In . SVG Version: 6.00 Build 0)  -->
<svg version="1.1" id="Capa_1" xmlns="http://www.w3.org/2000/svg" xmlns:xlink="http://www.w3.org/1999/xlink" x="0px" y="0px"
	 viewBox="0 0 792 792" style="enable-background:new 0 0 792 792;" xml:space="preserve">
<g>
	<g id="group-91svg">
		<path id="path-1_89_" style="fill:#E56A77;" d="M96.5,25.043c0-6.568,4.693-12.035,10.908-13.245
			c2.247-4.332,6.765-7.298,11.983-7.298c5.137,0,9.603,2.871,11.884,7.096c0.341-0.026,0.682-0.052,1.029-0.052
			c7.456,0,13.5,6.044,13.5,13.499c0,7.456-7.171,13.5-14.626,13.5l0.487,18.388c0,7.019-5.691,7.569-12.711,7.569
			c-7.021,0-12.711-0.55-12.711-7.569l-0.247-18.992C105.996,37.939,96.5,32.499,96.5,25.043z"/>
		<path id="path-2_89_" d="M113.954,63c-5.659,0-14.211,0-14.211-9.069l-0.236-18.149C97.134,34.249,90,29.054,90,22.044
			c0-6.922,4.762-12.936,11.421-14.565C104.105,2.848,109.011,0,114.391,0c5.196,0,9.984,2.677,12.717,7.046
			c0.066-0.002,0.13-0.002,0.196-0.002c8.271,0,15,6.728,15,15c0,7.509-6.656,14.152-14.588,14.924l0.448,16.923
			C128.165,63,119.613,63,113.954,63z M114.391,3c-4.495,0-8.576,2.486-10.651,6.489c-0.211,0.407-0.596,0.694-1.046,0.781
			C97.077,11.363,93,16.314,93,22.044c0,6.486,8.655,11.544,8.743,11.594c0.459,0.264,0.746,0.752,0.753,1.281l0.247,18.992
			c0,5.213,3.459,6.089,11.211,6.089s11.211-0.876,11.211-6.069l-0.486-18.348c-0.011-0.404,0.141-0.797,0.424-1.086
			c0.283-0.291,0.67-0.454,1.075-0.454c6.992,0,13.126-5.607,13.126-11.999c0-6.617-5.383-12-12-12
			c-0.297,0-0.589,0.022-0.881,0.045c-0.599,0.042-1.186-0.26-1.468-0.781C122.855,5.417,118.807,3,114.391,3z"/>
		<path id="path-3_89_" d="M118.246,56.095c-0.828,0-1.5-0.672-1.5-1.5v-17c0-0.828,0.672-1.5,1.5-1.5c0.828,0,1.5,0.672,1.5,1.5v17
			C119.746,55.423,119.074,56.095,118.246,56.095z"/>
		<path id="path-4_89_" d="M109.246,56.095c-0.828,0-1.5-0.672-1.5-1.5v-17c0-0.828,0.672-1.5,1.5-1.5c0.828,0,1.5,0.672,1.5,1.5v17
			C110.746,55.423,110.074,56.095,109.246,56.095z"/>
		<path id="path-5_86_" d="M128.461,27.718c-0.319,0-0.64-0.101-0.912-0.31c-0.658-0.504-0.782-1.446-0.278-2.102
			c3.477-4.536-0.63-8.737-0.807-8.913c-0.586-0.585-0.586-1.536,0-2.121c0.586-0.586,1.535-0.586,2.121,0
			c2.138,2.139,5.114,7.58,1.067,12.858C129.357,27.516,128.911,27.718,128.461,27.718z"/>
	</g>
</g>
<g>
</g>
<g>
</g>
<g>
</g>
<g>
</g>
<g>
</g>
<g>
</g>
<g>
</g>
<g>
</g>
<g>
</g>
<g>
</g>
<g>
</g>
<g>
</g>
<g>
</g>
<g>
</g>
<g>
</g>
</svg>
