<?xml version="1.0" encoding="iso-8859-1"?>
<!-- Generator: Adobe Illustrator 19.1.0, SVG Export Plug-In . SVG Version: 6.00 Build 0)  -->
<svg version="1.1" id="Capa_1" xmlns="http://www.w3.org/2000/svg" xmlns:xlink="http://www.w3.org/1999/xlink" x="0px" y="0px"
	 viewBox="0 0 65.5 65.5" style="enable-background:new 0 0 65.5 65.5;" xml:space="preserve">
<g>
	<g id="group-4svg">
		<path id="path-1_32_" d="M48.91,38.966c-0.742,0-1.387-0.551-1.485-1.307c-0.037-0.274-3.738-27.495-16.704-29.397
			c-0.819-0.121-1.386-0.882-1.266-1.702c0.12-0.82,0.883-1.392,1.702-1.266c15.202,2.23,19.085,30.764,19.242,31.978
			c0.107,0.822-0.472,1.574-1.293,1.681C49.04,38.961,48.974,38.966,48.91,38.966z"/>
		<path id="path-2_32_" style="fill:#E56A77;" d="M55.752,38.117c-1.806,0-1.39,0.493-2.84,1.349
			c-1.45-0.856-1.736-1.349-3.542-1.349c-5.383,0-9.748,4.365-9.748,9.748c0,5.384,2.961,12.358,8.345,12.358
			c1.805,0,3.495-0.493,4.945-1.349c1.45,0.856,3.14,1.349,4.945,1.349c5.384,0,7.643-6.974,7.643-12.358
			C65.5,42.482,61.135,38.117,55.752,38.117z"/>
		<path id="path-3_32_" style="fill:#E56A77;" d="M14.496,35.855c1.666,0,1.283,0.455,2.621,1.245
			c1.338-0.79,1.602-1.245,3.269-1.245c4.968,0,8.996,4.028,8.996,8.997c0,4.968-2.733,11.405-7.701,11.405
			c-1.667,0-3.226-0.455-4.564-1.245c-1.338,0.79-2.898,1.245-4.564,1.245c-4.969,0-7.053-6.437-7.053-11.405
			C5.5,39.883,9.527,35.855,14.496,35.855z"/>
		<path id="path-4_32_" d="M53.857,59.723c-1.718,0-3.411-0.394-4.945-1.146c-1.534,0.752-3.227,1.146-4.945,1.146
			c-6.081,0-9.845-7.193-9.845-13.858c0-6.202,5.046-11.248,11.248-11.248c1.726,0,2.473,0.394,3.479,1.04
			c0.02-0.019,0.04-0.037,0.06-0.055c0.734-0.667,1.347-0.985,2.843-0.985C57.954,34.617,63,39.663,63,45.865
			C63,52.752,59.859,59.723,53.857,59.723z M48.912,55.374c0.264,0,0.527,0.07,0.763,0.208c1.263,0.746,2.71,1.141,4.182,1.141
			c4.475,0,6.143-6.66,6.143-10.858c0-4.548-3.7-8.248-8.248-8.248c-0.504,0-0.643,0.046-0.657,0.051
			c-0.046,0.034-0.101,0.092-0.168,0.154c-0.247,0.224-0.618,0.561-1.253,0.936c-0.471,0.277-1.054,0.277-1.524,0
			c-0.324-0.191-0.592-0.365-0.833-0.52c-0.776-0.501-0.961-0.621-1.947-0.621c-4.547,0-8.248,3.7-8.248,8.248
			c0,4.438,2.438,10.858,6.845,10.858c1.472,0,2.919-0.395,4.183-1.141C48.385,55.444,48.648,55.374,48.912,55.374z"/>
		<path id="path-5_32_" d="M17.681,55.757c-1.585,0-3.147-0.359-4.565-1.044c-1.417,0.685-2.979,1.044-4.564,1.044
			C2.938,55.757,0,49.265,0,42.852c0-5.788,4.708-10.497,10.496-10.497c1.411,0,1.995,0.3,2.691,0.929
			c0.795-0.508,1.55-0.929,3.199-0.929c5.787,0,10.496,4.709,10.496,10.497C26.882,49.058,23.364,55.757,17.681,55.757z
			 M13.116,51.512c0.264,0,0.527,0.07,0.763,0.209c1.149,0.677,2.464,1.036,3.802,1.036c3.993,0,6.201-5.857,6.201-9.905
			c0-4.134-3.363-7.497-7.496-7.497c-0.876,0-1.024,0.096-1.735,0.555c-0.223,0.144-0.472,0.305-0.772,0.482
			c-0.471,0.277-1.055,0.277-1.525,0c-0.596-0.352-0.944-0.669-1.175-0.878c-0.056-0.051-0.103-0.1-0.157-0.138
			c0.01,0.013-0.132-0.021-0.526-0.021C6.363,35.355,3,38.718,3,42.852c0,3.829,1.507,9.905,5.552,9.905
			c1.339,0,2.654-0.359,3.802-1.036C12.589,51.582,12.853,51.512,13.116,51.512z"/>
		<path id="path-6_28_" d="M13.118,36.6c-0.107,0-0.215-0.011-0.324-0.035c-0.809-0.178-1.321-0.978-1.142-1.787
			c0.204-0.929,5.145-22.817,17.346-29.324c0.731-0.39,1.639-0.113,2.03,0.618c0.389,0.731,0.113,1.639-0.619,2.029
			c-10.993,5.863-15.78,27.107-15.828,27.321C14.428,36.123,13.807,36.6,13.118,36.6z"/>
		<path id="path-7_21_" d="M50.947,53.15c-0.761,0-1.413-0.577-1.491-1.351c-0.082-0.824,0.519-1.559,1.344-1.642
			c0.966-0.097,1.679-0.458,2.179-1.104c1.308-1.691,0.878-4.736,0.873-4.767c-0.127-0.818,0.433-1.585,1.251-1.712
			c0.824-0.128,1.586,0.433,1.713,1.251c0.069,0.441,0.611,4.381-1.464,7.063c-1.003,1.297-2.474,2.076-4.254,2.254
			C51.048,53.147,50.997,53.15,50.947,53.15z"/>
		<path id="path-8_16_" d="M5.997,45.556c-0.123,0-0.248-0.015-0.373-0.047c-0.802-0.205-1.286-1.023-1.081-1.826
			c1.007-3.926,7.43-5.875,8.16-6.084c0.798-0.226,1.626,0.232,1.854,1.027c0.229,0.796-0.23,1.626-1.026,1.856
			c-2.273,0.657-5.664,2.316-6.082,3.946C7.276,45.106,6.666,45.556,5.997,45.556z"/>
	</g>
</g>
<g>
</g>
<g>
</g>
<g>
</g>
<g>
</g>
<g>
</g>
<g>
</g>
<g>
</g>
<g>
</g>
<g>
</g>
<g>
</g>
<g>
</g>
<g>
</g>
<g>
</g>
<g>
</g>
<g>
</g>
</svg>
