<?xml version="1.0" encoding="iso-8859-1"?>
<!-- Generator: Adobe Illustrator 19.1.0, SVG Export Plug-In . SVG Version: 6.00 Build 0)  -->
<svg version="1.1" id="Capa_1" xmlns="http://www.w3.org/2000/svg" xmlns:xlink="http://www.w3.org/1999/xlink" x="0px" y="0px"
	 viewBox="0 0 65.653 65.653" style="enable-background:new 0 0 65.653 65.653;" xml:space="preserve">
<g>
	<g id="group-59svg">
		<path id="path-1_53_" style="fill:#FF917B;" d="M46.683,21.885v-1.753c0,0-39.95-5.469-39.336,29.805
			c0,0-10.823,16.775,17.272,12.27c16.851-2.702,21.193-11.853,22.208-18.622l0,0"/>
		<path id="path-2_53_" style="fill:#FF917B;" d="M54.458,21.177c0,0-35.888,8.282-23.312,23.925
			c12.577,15.644,27.299-20.551,27.299-20.551l6.442-0.92c0,0,3.067-6.748-3.068-7.055C61.819,16.576,53.538,7.374,54.458,21.177z"
			/>
		<path id="path-3_53_" style="fill:#FF917B;" d="M39.693,19.439c0.92-1.94,1.438-3.213,1.438-3.213l5.895-0.842
			c0,0,2.808-6.176-2.807-6.457c0,0-7.58-8.422-6.738,4.211c0,0-23.34,5.386-23.776,15.654l0,0"/>
		<path id="path-4_53_" d="M12.276,62.482c-5.698,0-9.381-1.369-11.173-4.131c-2.606-4.014,0.109-9.314,0.989-10.824
			c-0.081-9.813,2.925-17.496,8.94-22.841c12.005-10.667,31.528-8.153,32.354-8.041c0.743,0.102,1.297,0.736,1.297,1.487v1.753
			c0,0.828-0.671,1.5-1.5,1.5c-0.828,0-1.5-0.672-1.5-1.5v-0.393c-4.46-0.351-19.381-0.816-28.669,7.446
			c-5.412,4.815-8.076,11.873-7.917,20.974c0.004,0.3-0.081,0.594-0.245,0.846c-0.888,1.373-2.845,5.485-1.229,7.967
			c1.792,2.748,7.787,3.458,16.884,2.001c15.707-2.519,20.171-10.833,21.149-17.363c0.122-0.82,0.881-1.384,1.706-1.262
			c0.82,0.123,1.384,0.887,1.261,1.706c-1.127,7.521-6.144,17.076-23.642,19.88C17.682,62.217,14.784,62.482,12.276,62.482z"/>
		<path id="path-5_53_" d="M33.96,48.525C33.96,48.525,33.96,48.525,33.96,48.525c-2.906-0.001-5.592-1.508-7.983-4.483
			c-2.834-3.525-3.671-7.044-2.489-10.459c3.176-9.168,20.568-14.298,25.411-15.564c-0.105-3.421,0.4-5.618,1.563-6.862
			c0.665-0.71,1.531-1.086,2.507-1.086c2.248,0,4.552,2.053,5.547,3.06c2.247,0.273,3.366,1.359,3.916,2.261
			c1.635,2.686,0.01,6.44-0.18,6.859c-0.212,0.467-0.647,0.792-1.153,0.865l-5.597,0.799C53.462,28.718,44.412,48.525,33.96,48.525z
			 M52.969,13.071c-0.145,0-0.219,0.032-0.317,0.136c-0.238,0.255-0.993,1.432-0.697,5.871c0.049,0.733-0.442,1.395-1.159,1.561
			c-5.942,1.373-21.92,6.553-24.473,13.928c-0.833,2.408-0.182,4.891,1.992,7.595c1.794,2.231,3.693,3.362,5.645,3.363
			c7.804,0.001,16.43-16.991,19.096-23.539c0.201-0.494,0.649-0.844,1.177-0.92l5.562-0.795c0.306-0.972,0.598-2.463,0.072-3.321
			c-0.322-0.527-1.037-0.822-2.123-0.876c-0.397-0.02-0.771-0.198-1.038-0.493C55.79,14.569,53.97,13.071,52.969,13.071z"/>
		<path id="path-6_47_" d="M9.706,28.292c-0.022,0-0.043,0-0.065-0.001c-0.828-0.035-1.47-0.734-1.435-1.562
			C8.633,16.704,26.625,11.34,31.923,9.976c-0.082-2.818,0.259-6.067,2.579-7.046c2.452-1.038,5.268,1.399,6.414,2.554
			c2.077,0.265,3.118,1.28,3.633,2.124c1.531,2.514,0.02,6.007-0.158,6.397c-0.211,0.466-0.646,0.792-1.153,0.864l-5.057,0.723
			c-0.249,0.575-0.632,1.434-1.132,2.49c-0.356,0.748-1.252,1.066-1.998,0.712c-0.749-0.355-1.068-1.25-0.713-1.998
			c0.887-1.872,1.398-3.122,1.403-3.135c0.201-0.494,0.649-0.844,1.178-0.919l5.011-0.716c0.275-0.908,0.479-2.167,0.054-2.86
			c-0.271-0.444-0.891-0.693-1.841-0.741c-0.398-0.02-0.772-0.198-1.04-0.494c-1.196-1.322-2.938-2.448-3.434-2.238
			c-0.011,0.005-1.01,0.566-0.691,5.345c0.049,0.734-0.442,1.396-1.159,1.562c-6.182,1.429-22.298,6.777-22.615,14.256
			C11.17,27.662,10.505,28.292,9.706,28.292z"/>
		<path id="path-7_38_" d="M15.287,55.805c-3.956,0-7.38-0.748-7.648-0.809c-0.808-0.181-1.317-0.982-1.136-1.791
			c0.18-0.809,0.989-1.314,1.791-1.137c3.087,0.69,11.831,1.767,15.162-1.474c0.594-0.579,1.544-0.565,2.121,0.027
			c0.577,0.594,0.564,1.544-0.029,2.121C23.061,55.164,18.946,55.805,15.287,55.805z"/>
	</g>
</g>
<g>
</g>
<g>
</g>
<g>
</g>
<g>
</g>
<g>
</g>
<g>
</g>
<g>
</g>
<g>
</g>
<g>
</g>
<g>
</g>
<g>
</g>
<g>
</g>
<g>
</g>
<g>
</g>
<g>
</g>
</svg>
