<?xml version="1.0" encoding="iso-8859-1"?>
<!-- Generator: Adobe Illustrator 19.1.0, SVG Export Plug-In . SVG Version: 6.00 Build 0)  -->
<svg version="1.1" id="Capa_1" xmlns="http://www.w3.org/2000/svg" xmlns:xlink="http://www.w3.org/1999/xlink" x="0px" y="0px"
	 viewBox="0 0 64.515 64.515" style="enable-background:new 0 0 64.515 64.515;" xml:space="preserve">
<g>
	<g id="group-60svg">
		<path id="path-1_55_" style="fill:#FF917B;" d="M20.582,56.14l8.288-8.109c0,0,48.672-12.66,32.266-33.066l-1.032-1.767
			c-1.039-1.775-2.518-3.25-4.296-4.283l-1.773-1.03C33.628-8.521,20.952,40.167,20.952,40.167l-8.081,8.261
			c-1.261-0.834-2.274-1.511-3.293-1.853c-3.935-1.319-6.807,3.537-3.873,6.471l2.192,2.193l4.807,1.067l1.068,4.807l2.191,2.191
			c2.934,2.935,7.791,0.062,6.471-3.874C22.092,58.412,21.415,57.4,20.582,56.14z"/>
		<path id="path-2_55_" style="fill:#99746A;" d="M29.947,47.745c-2.616-2.743-5.805-6.086-8.345-8.741
			c-0.197,0.687-0.298,1.076-0.298,1.076l-8.081,8.261c-1.261-0.834-2.275-1.511-3.293-1.852c-3.936-1.32-6.809,3.536-3.873,6.47
			l2.192,2.193l4.807,1.068l1.067,4.807l2.19,2.19c2.935,2.935,7.792,0.062,6.471-3.874c-0.342-1.017-1.017-2.03-1.851-3.289
			l8.289-8.11C29.222,47.944,29.482,47.875,29.947,47.745z"/>
		<path id="path-3_55_" d="M15.764,63.007L15.764,63.007c-1.431,0-2.802-0.583-3.862-1.643l-2.191-2.19
			c-0.202-0.202-0.342-0.457-0.403-0.736l-0.862-3.874l-3.874-0.861c-0.278-0.062-0.534-0.203-0.735-0.404l-2.192-2.192
			c-1.609-1.609-2.079-3.887-1.227-5.945c1.067-2.576,3.935-3.917,6.637-3.008c0.878,0.294,1.713,0.771,2.606,1.343l6.943-7.097
			c1.127-4.153,10.385-36.393,26.101-36.393c3.06,0,6.148,1.224,9.18,3.637l1.677,0.974c1.997,1.16,3.669,2.828,4.836,4.823
			l0.978,1.672c3.423,4.3,4.44,8.651,3.023,12.934C57.961,37.455,30.427,45.35,26.638,46.378l-7.126,6.972
			c0.583,0.911,1.052,1.735,1.343,2.602c0.563,1.675,0.32,3.422-0.667,4.792C19.17,62.161,17.516,63.007,15.764,63.007z
			 M12.141,57.362l1.882,1.88c0.5,0.5,1.102,0.765,1.741,0.765c0.777,0,1.54-0.388,1.99-1.015c0.298-0.414,0.584-1.111,0.258-2.085
			c-0.273-0.811-0.872-1.716-1.631-2.864c-0.397-0.599-0.362-1.472,0.152-1.974l8.288-8.111c0.187-0.182,0.418-0.313,0.671-0.38
			c0.299-0.077,29.905-7.919,34.06-20.475c1.1-3.329,0.256-6.665-2.585-10.198c-0.047-0.058-0.089-0.12-0.126-0.183l-1.032-1.767
			c-0.906-1.548-2.205-2.843-3.754-3.743l-1.774-1.03c-0.064-0.038-0.127-0.081-0.185-0.128c-2.516-2.021-5.002-3.047-7.391-3.047
			c-11.739,0-20.801,24.932-23.302,34.538c-0.065,0.253-0.196,0.485-0.379,0.671l-8.081,8.261c-0.502,0.514-1.299,0.599-1.9,0.202
			c-1.217-0.806-2.127-1.408-2.941-1.681c-0.288-0.096-0.569-0.145-0.838-0.145c-1.084,0-1.783,0.753-2.074,1.458
			c-0.185,0.446-0.499,1.599,0.576,2.675l1.883,1.883l4.38,0.973c0.569,0.127,1.013,0.57,1.139,1.139L12.141,57.362z"/>
		<path id="path-4_55_" d="M25.671,46.223c-0.384,0-0.768-0.147-1.061-0.44l-7.488-7.487c-0.586-0.585-0.586-1.535,0-2.121
			c0.586-0.586,1.535-0.586,2.121,0l7.488,7.487c0.586,0.586,0.586,1.536,0,2.121C26.438,46.076,26.055,46.223,25.671,46.223z"/>
		<path id="path-5_55_" d="M42.762,32.033c-0.548,0-1.076-0.303-1.341-0.826c-0.372-0.739-0.075-1.641,0.665-2.014
			c6.458-3.256,8.355-6.308,8.81-8.295c0.489-2.141-0.552-3.577-0.563-3.591c-0.504-0.657-0.38-1.599,0.277-2.103
			c0.658-0.504,1.598-0.38,2.104,0.278c0.078,0.102,1.915,2.55,1.106,6.085c-0.87,3.802-4.363,7.269-10.384,10.304
			C43.22,31.981,42.989,32.033,42.762,32.033z"/>
	</g>
</g>
<g>
</g>
<g>
</g>
<g>
</g>
<g>
</g>
<g>
</g>
<g>
</g>
<g>
</g>
<g>
</g>
<g>
</g>
<g>
</g>
<g>
</g>
<g>
</g>
<g>
</g>
<g>
</g>
<g>
</g>
</svg>
