<?xml version="1.0" encoding="iso-8859-1"?>
<!-- Generator: Adobe Illustrator 19.1.0, SVG Export Plug-In . SVG Version: 6.00 Build 0)  -->
<svg version="1.1" id="Capa_1" xmlns="http://www.w3.org/2000/svg" xmlns:xlink="http://www.w3.org/1999/xlink" x="0px" y="0px"
	 viewBox="0 0 65.498 65.498" style="enable-background:new 0 0 65.498 65.498;" xml:space="preserve">
<g>
	<g id="group-46svg">
		<path id="path-1_39_" style="fill:#EDC951;" d="M44.616,13.069c0,0-34.587,16.719-34.821,27.158
			c-0.149,6.66,12.025,33.539,16.203,13.542c1.318-6.304,3.123-11.267,5.19-15.168l18.585-13.977
			c2.569,0.408,4.672,0.191,4.672,0.191c4.659,0.186,22.351-3.302,0-9.906C51.37,14,47.346,13.395,44.616,13.069L44.616,13.069z"/>
		<path id="path-2_39_" style="fill:#FF917B;" d="M35.809,8.202c-7.634,2.366-26.787,9.643-30.157,23.91
			c-1.005,4.257,3.061,7.978,7.254,6.732c6.579-1.954,17.035-3.207,28.355,2.643c3.607,1.864,7.912-0.611,8.291-4.653
			c0.729-7.802,0.039-19.116-7.908-27.146C40.12,8.147,37.879,7.56,35.809,8.202z"/>
		<path id="path-3_39_" d="M17.371,60.537c-0.277,0-0.562-0.026-0.854-0.08C10.097,59.296,3.525,43.137,4.312,38
			c0.126-0.82,0.892-1.382,1.71-1.256c0.82,0.126,1.382,0.892,1.256,1.71c-0.626,4.082,5.443,18.267,9.773,19.051
			c1.337,0.258,2.638-2.016,3.479-6.042c1.259-6.028,3.054-11.264,5.334-15.564c0.387-0.732,1.293-1.012,2.028-0.623
			c0.731,0.388,1.01,1.296,0.622,2.028c-2.147,4.051-3.846,9.021-5.047,14.772C22.292,57.697,20.244,60.537,17.371,60.537z"/>
		<path id="path-4_39_" d="M48.992,24.372c-0.906,0-2.121-0.055-3.454-0.266c-0.818-0.13-1.376-0.899-1.246-1.717
			s0.894-1.376,1.717-1.246c2.324,0.369,4.265,0.182,4.284,0.18c0.07-0.008,0.143-0.009,0.212-0.007
			c3.291,0.139,9.059-1.354,9.501-2.445l0,0c-0.027,0-0.57-1.741-9.986-4.524c-3.189-0.942-7.373-1.525-9.582-1.789
			c-0.823-0.098-1.41-0.844-1.312-1.667c0.099-0.822,0.851-1.411,1.667-1.311c2.304,0.274,6.676,0.886,10.077,1.891
			c8.953,2.645,12.569,5.011,12.09,7.913c-0.698,4.228-10.662,4.958-12.464,4.932C50.278,24.335,49.741,24.372,48.992,24.372z"/>
		<path id="path-5_39_" d="M39.827,41.618L39.827,41.618c-1.134,0-2.229-0.269-3.255-0.799c-5.27-2.723-10.854-4.104-16.597-4.104
			c-3.561,0-7.142,0.527-10.642,1.567c-2.831,0.84-5.98-0.18-7.798-2.477c-1.355-1.713-1.844-3.913-1.343-6.038
			C3.72,14.833,23.167,7.31,31.364,4.769c2.546-0.789,5.456-0.046,7.347,1.864c8.295,8.382,9.11,20.038,8.334,28.34
			C46.696,38.7,43.526,41.618,39.827,41.618z M19.975,33.715c6.227,0,12.274,1.493,17.974,4.439
			c0.596,0.308,1.228,0.464,1.878,0.464c2.167,0,4.025-1.724,4.231-3.924c0.717-7.666,0.001-18.391-7.48-25.951
			c-1.118-1.13-2.827-1.571-4.326-1.108c-7.704,2.388-25.968,9.393-29.14,22.822c-0.294,1.245-0.018,2.483,0.776,3.486
			c1.074,1.358,2.913,1.962,4.59,1.463C12.256,34.284,16.124,33.715,19.975,33.715z"/>
		<path id="path-6_34_" d="M38.62,29.52c-0.233,0-0.469-0.055-0.69-0.17c-0.735-0.382-1.021-1.288-0.64-2.023
			c-0.001,0,1.33-3.028-1.948-8.856c-2.319-4.124-15.098,1.264-20.923,4.519c-0.725,0.405-1.638,0.145-2.042-0.578
			c-0.403-0.723-0.145-1.637,0.578-2.041C15.05,19.201,33.548,9.16,37.956,17c4.084,7.26,2.222,11.277,1.997,11.711
			C39.685,29.225,39.162,29.52,38.62,29.52z"/>
	</g>
</g>
<g>
</g>
<g>
</g>
<g>
</g>
<g>
</g>
<g>
</g>
<g>
</g>
<g>
</g>
<g>
</g>
<g>
</g>
<g>
</g>
<g>
</g>
<g>
</g>
<g>
</g>
<g>
</g>
<g>
</g>
</svg>
