<?xml version="1.0" encoding="iso-8859-1"?>
<!-- Generator: Adobe Illustrator 19.1.0, SVG Export Plug-In . SVG Version: 6.00 Build 0)  -->
<svg version="1.1" id="Capa_1" xmlns="http://www.w3.org/2000/svg" xmlns:xlink="http://www.w3.org/1999/xlink" x="0px" y="0px"
	 viewBox="0 0 63.324 63.324" style="enable-background:new 0 0 63.324 63.324;" xml:space="preserve">
<g>
	<g id="group-77svg">
		<path id="path-1_73_" style="fill:#53ECF4;" d="M52.159,20.445L33.914,39.831L15.669,20.52c-1.214-1.3-0.292-3.196,1.487-3.196
			h33.517C52.451,17.324,53.373,19.145,52.159,20.445z"/>
		<path id="path-2_73_" style="fill:#E56A77;" d="M43.058,23.719l-8.144,8.655l-8.143-8.622c-0.542-0.58-0.13-1.428,0.664-1.428
			h14.96C43.189,22.324,43.6,23.139,43.058,23.719z"/>
		<path id="path-3_73_" d="M30.914,39.206c-0.415,0-0.811-0.172-1.096-0.475L11.573,19.233c-0.972-1.043-1.226-2.495-0.663-3.792
			c0.567-1.306,1.811-2.117,3.246-2.117h33.517c1.436,0,2.681,0.81,3.247,2.113c0.561,1.292,0.307,2.741-0.664,3.781L32.01,38.731
			C31.727,39.033,31.329,39.206,30.914,39.206z M14.156,16.324c-0.312,0-0.444,0.196-0.495,0.312
			c-0.058,0.136-0.089,0.341,0.105,0.548L30.914,35.51l17.149-18.34c0.191-0.204,0.163-0.405,0.105-0.537
			c-0.05-0.115-0.181-0.309-0.495-0.309H14.156z"/>
		<path id="path-4_73_" d="M31.065,61.824c-0.828,0-1.5-0.671-1.5-1.5v-23c0-0.828,0.672-1.5,1.5-1.5c0.829,0,1.5,0.672,1.5,1.5v23
			C32.565,61.153,31.894,61.824,31.065,61.824z"/>
		<path id="path-5_71_" d="M38.565,63.324h-15c-0.828,0-1.5-0.671-1.5-1.5c0-0.828,0.672-1.5,1.5-1.5h15c0.829,0,1.5,0.672,1.5,1.5
			C40.065,62.653,39.394,63.324,38.565,63.324z"/>
		<path id="path-6_64_" d="M34.48,23.848c-0.126,0-0.254-0.016-0.382-0.05c-0.801-0.211-1.28-1.031-1.069-1.833l5.085-19.321
			c0.15-0.572,0.621-1.001,1.203-1.098l9.153-1.525c0.821-0.139,1.59,0.415,1.726,1.233c0.137,0.816-0.416,1.59-1.232,1.726
			l-8.195,1.366L35.93,22.729C35.753,23.403,35.146,23.848,34.48,23.848z"/>
	</g>
</g>
<g>
</g>
<g>
</g>
<g>
</g>
<g>
</g>
<g>
</g>
<g>
</g>
<g>
</g>
<g>
</g>
<g>
</g>
<g>
</g>
<g>
</g>
<g>
</g>
<g>
</g>
<g>
</g>
<g>
</g>
</svg>
