<?xml version="1.0" encoding="iso-8859-1"?>
<!-- Generator: Adobe Illustrator 19.1.0, SVG Export Plug-In . SVG Version: 6.00 Build 0)  -->
<svg version="1.1" id="Capa_1" xmlns="http://www.w3.org/2000/svg" xmlns:xlink="http://www.w3.org/1999/xlink" x="0px" y="0px"
	 viewBox="0 0 64 64" style="enable-background:new 0 0 64 64;" xml:space="preserve">
<g>
	<g id="group-76svg">
		<path id="path-1_72_" style="fill:#99746A;" d="M35.48,14H19.773c-2.782,0-4.856,2.299-4.275,5.019l7.767,41.527
			C23.696,62.562,25.478,64,27.54,64h7.94h6.482c2.062,0,3.844-1.57,4.275-3.587l7.767-41.329C54.585,16.363,52.511,14,49.729,14
			H35.48z"/>
		<path id="path-2_72_" style="fill:#FF917B;" d="M50.874,34h-10.6c-0.748-2-2.9-3.949-5.442-3.949S30.138,32,29.391,34h-10.45
			l0.854,6h10.367c1.038,1,2.741,2.42,4.67,2.42c1.93,0,3.632-1.42,4.67-2.42H50.02L50.874,34z"/>
		<path id="path-3_72_" d="M37.962,63H23.54c-2.813,0-5.174-1.858-5.741-4.516l-7.775-41.438c-0.364-1.7,0.063-3.489,1.179-4.868
			C12.322,10.794,13.988,10,15.773,10h29.956c1.801,0,3.474,0.792,4.591,2.173c1.1,1.359,1.519,3.127,1.151,4.849l-7.76,41.417
			C43.135,61.141,40.773,63,37.962,63z M15.773,13c-0.875,0-1.691,0.389-2.238,1.064c-0.543,0.672-0.751,1.543-0.57,2.392
			l7.775,41.438C21.006,59.139,22.135,60,23.54,60h14.422c1.405,0,2.533-0.864,2.808-2.15l7.76-41.417
			c0.188-0.882-0.008-1.712-0.542-2.374C47.443,13.387,46.619,13,45.729,13H15.773z"/>
		<path id="path-4_72_" d="M30.832,41.42c-1.718,0-3.444-0.793-5.258-2.42h-9.779c-0.746,0-1.38-0.549-1.485-1.289l-0.854-6
			c-0.061-0.43,0.067-0.865,0.352-1.193C14.093,30.188,14.507,30,14.941,30h9.501c1.175-2.089,3.542-3.949,6.39-3.949
			s5.215,1.86,6.391,3.949h9.651c0.434,0,0.848,0.188,1.133,0.518c0.285,0.328,0.413,0.763,0.352,1.193l-0.854,6
			C47.4,38.451,46.766,39,46.02,39h-9.924C35.109,39.897,33.165,41.42,30.832,41.42z M17.097,36h9.066
			c0.388,0,0.762,0.15,1.041,0.42c1.395,1.346,2.582,2,3.628,2c1.046,0,2.233-0.654,3.629-2c0.28-0.27,0.653-0.42,1.041-0.42h9.216
			l0.427-3h-8.871c-0.626,0-1.186-0.389-1.405-0.975c-0.54-1.441-2.138-2.974-4.037-2.974c-1.899,0-3.497,1.533-4.036,2.974
			C26.577,32.611,26.017,33,25.391,33H16.67L17.097,36z"/>
		<path id="path-5_70_" d="M46.139,7h-33c-0.829,0-1.5-0.672-1.5-1.5S12.31,4,13.139,4h33c0.829,0,1.5,0.672,1.5,1.5
			S46.968,7,46.139,7z"/>
		<path id="path-6_63_" d="M36.139,3h-13c-0.829,0-1.5-0.672-1.5-1.5S22.31,0,23.139,0h13c0.829,0,1.5,0.672,1.5,1.5
			S36.968,3,36.139,3z"/>
	</g>
</g>
<g>
</g>
<g>
</g>
<g>
</g>
<g>
</g>
<g>
</g>
<g>
</g>
<g>
</g>
<g>
</g>
<g>
</g>
<g>
</g>
<g>
</g>
<g>
</g>
<g>
</g>
<g>
</g>
<g>
</g>
</svg>
