<?xml version="1.0" encoding="iso-8859-1"?>
<!-- Generator: Adobe Illustrator 19.1.0, SVG Export Plug-In . SVG Version: 6.00 Build 0)  -->
<svg version="1.1" id="Capa_1" xmlns="http://www.w3.org/2000/svg" xmlns:xlink="http://www.w3.org/1999/xlink" x="0px" y="0px"
	 viewBox="0 0 66.5 66.5" style="enable-background:new 0 0 66.5 66.5;" xml:space="preserve">
<g>
	<g id="group-42svg">
		<path id="path-1_35_" style="fill:#EDC951;" d="M62.844,34.915l3.656-4.631C65.532,19.024,55.836,10.25,44.076,10.25H28.924
			c-11.76,0-21.456,8.471-22.424,19.73l3.737,4.911l3.424-2.641h0.667l3.424,3.258l3.424-3.258h0.667l3.424,3.258l3.424-3.258h0.667
			l3.424,3.258l3.425-3.258h0.667l3.424,3.258l3.424-3.258h0.667l3.424,3.258l3.424-3.258h0.667l3.424,3.258l3.424-3.258h0.667
			L62.844,34.915z"/>
		<path id="path-2_35_" style="fill:#99746A;" d="M65.401,48.532l-2.507-3.01l-3.539,3.728h-0.433l-3.538-3.369l-3.539,3.369h-0.433
			l-3.538-3.369l-3.539,3.369h-0.433l-3.538-3.369l-3.539,3.369h-0.433l-3.538-3.369l-3.539,3.369h-0.433l-3.539-3.369l-3.538,3.369
			h-0.433l-3.538-3.369l-3.539,3.369h-0.433l-3.539-3.796L7.966,48.87c4.385,6.68,5.099,11.38,14.296,11.38h28.475
			C59.846,60.25,65.401,48.532,65.401,48.532z"/>
		<path id="path-3_35_" d="M20.267,34.508c-0.372,0-0.744-0.138-1.034-0.413l-2.723-2.592l-2.724,2.592
			c-0.579,0.551-1.488,0.551-2.068,0l-2.777-2.643l-2.762,2.231c-0.312,0.253-0.71,0.368-1.113,0.323
			c-0.399-0.046-0.764-0.25-1.011-0.567l-3.737-4.786c-0.234-0.299-0.345-0.674-0.313-1.052C1.052,15.429,11.335,6.25,23.924,6.25
			h15.152c12.374,0,22.88,9.457,23.918,21.531c0.032,0.373-0.077,0.745-0.305,1.042l-3.657,4.756
			c-0.25,0.326-0.623,0.535-1.031,0.578c-0.405,0.041-0.817-0.083-1.13-0.35l-2.748-2.339l-2.761,2.627
			c-0.579,0.551-1.488,0.551-2.067,0l-2.724-2.592l-2.724,2.592c-0.579,0.551-1.488,0.551-2.068,0l-2.724-2.592l-2.724,2.592
			c-0.579,0.551-1.488,0.551-2.068,0l-2.723-2.592l-2.724,2.592c-0.579,0.551-1.488,0.551-2.067,0l-2.724-2.592l-2.724,2.592
			C21.012,34.37,20.639,34.508,20.267,34.508z M23.691,28.25h0.667c0.385,0,0.755,0.148,1.034,0.413l2.39,2.274l2.391-2.274
			c0.279-0.265,0.649-0.413,1.034-0.413h0.667c0.385,0,0.755,0.148,1.034,0.413l2.39,2.274l2.39-2.274
			c0.279-0.265,0.649-0.413,1.034-0.413h0.667c0.385,0,0.755,0.148,1.034,0.413l2.39,2.274l2.39-2.274
			c0.279-0.265,0.649-0.413,1.034-0.413h0.667c0.385,0,0.755,0.148,1.034,0.413l2.39,2.274l2.39-2.274
			c0.279-0.265,0.649-0.413,1.034-0.413h0.667c0.357,0,0.701,0.127,0.972,0.358l2.224,1.893l2.333-3.034
			C58.766,17.205,49.71,9.25,39.076,9.25H23.924c-10.818,0-19.688,7.711-20.872,18.031l2.429,3.11l2.237-1.808
			c0.267-0.215,0.6-0.333,0.943-0.333h0.667c0.385,0,0.755,0.148,1.034,0.413l2.39,2.274l2.39-2.274
			c0.279-0.265,0.649-0.413,1.034-0.413h0.667c0.385,0,0.756,0.148,1.035,0.413l2.389,2.274l2.39-2.274
			C22.936,28.398,23.306,28.25,23.691,28.25z"/>
		<path id="path-4_35_" d="M45.738,59.25H17.262c-8.415,0-10.669-3.811-13.524-8.636c-0.622-1.05-1.264-2.135-2.026-3.296
			c-0.34-0.518-0.327-1.193,0.035-1.696l2.357-3.292c0.257-0.358,0.658-0.585,1.097-0.621c0.44-0.04,0.873,0.123,1.184,0.436
			l2.715,2.72l2.7-2.57c0.579-0.552,1.489-0.551,2.068,0l2.721,2.59l2.72-2.59c0.578-0.552,1.489-0.553,2.069,0l2.72,2.59
			l2.722-2.59c0.579-0.552,1.489-0.551,2.068,0l2.721,2.59l2.72-2.59c0.579-0.552,1.49-0.552,2.069,0l2.721,2.59l2.721-2.59
			c0.579-0.552,1.489-0.551,2.068,0l2.721,2.59l2.72-2.59c0.579-0.552,1.49-0.552,2.069,0l2.693,2.563l2.713-2.761
			c0.301-0.306,0.72-0.475,1.146-0.447c0.429,0.022,0.827,0.226,1.095,0.561l2.508,3.135c0.361,0.451,0.43,1.07,0.178,1.59
			C61.508,47.439,55.672,59.25,45.738,59.25z M4.779,46.541c0.568,0.903,1.078,1.764,1.54,2.545
			c2.822,4.77,4.239,7.164,10.943,7.164h28.476c6.712,0,11.453-7.315,12.872-9.805l-0.831-1.039l-2.354,2.395
			c-0.282,0.287-0.667,0.449-1.07,0.449h-0.433c-0.385,0-0.755-0.148-1.034-0.414l-2.504-2.383l-2.504,2.383
			c-0.279,0.266-0.649,0.414-1.035,0.414h-0.433c-0.385,0-0.756-0.148-1.034-0.414l-2.504-2.383l-2.505,2.383
			c-0.278,0.266-0.649,0.414-1.034,0.414h-0.433c-0.385,0-0.755-0.148-1.034-0.414l-2.505-2.383l-2.503,2.383
			c-0.279,0.266-0.649,0.414-1.035,0.414h-0.433c-0.385,0-0.756-0.148-1.034-0.414l-2.504-2.383l-2.505,2.383
			c-0.278,0.266-0.649,0.414-1.034,0.414h-0.433c-0.385,0-0.755-0.148-1.034-0.414l-2.504-2.384l-2.505,2.384
			c-0.279,0.266-0.649,0.414-1.034,0.414h-0.433c-0.385,0-0.756-0.148-1.034-0.414l-2.504-2.383l-2.505,2.383
			C10.05,48.102,9.68,48.25,9.295,48.25H8.862c-0.398,0-0.78-0.159-1.061-0.441l-2.289-2.292L4.779,46.541z"/>
		<path id="path-5_35_" d="M60.167,39.25h-58c-0.828,0-1.5-0.671-1.5-1.5s0.672-1.5,1.5-1.5h58c0.829,0,1.5,0.671,1.5,1.5
			S60.996,39.25,60.167,39.25z"/>
		<path id="path-6_30_" d="M44.036,52.41c0,0.886-0.719,1.604-1.605,1.604c-0.886,0-1.605-0.718-1.605-1.604
			c0-0.887,0.719-1.605,1.605-1.605C43.317,50.805,44.036,51.523,44.036,52.41z"/>
		<path id="path-7_23_" d="M31.198,52.41c0,0.886-0.718,1.604-1.604,1.604s-1.605-0.718-1.605-1.604
			c0-0.887,0.719-1.605,1.605-1.605S31.198,51.523,31.198,52.41z"/>
		<path id="path-8_18_" d="M46.175,17.107c0,0.887-0.718,1.605-1.604,1.605c-0.887,0-1.605-0.718-1.605-1.605
			c0-0.886,0.718-1.604,1.605-1.604C45.457,15.503,46.175,16.221,46.175,17.107z"/>
		<path id="path-9_11_" d="M49.385,22.456c0,0.886-0.719,1.604-1.605,1.604c-0.886,0-1.605-0.718-1.605-1.604
			s0.719-1.605,1.605-1.605C48.666,20.851,49.385,21.57,49.385,22.456z"/>
		<path id="path-10_7_" d="M33.338,13.898c0,0.886-0.718,1.605-1.604,1.605c-0.887,0-1.605-0.719-1.605-1.605
			c0-0.886,0.718-1.605,1.605-1.605C32.62,12.293,33.338,13.012,33.338,13.898z"/>
		<path id="path-11_6_" d="M31.198,23.526c0,0.886-0.718,1.604-1.604,1.604s-1.605-0.718-1.605-1.604
			c0-0.886,0.719-1.605,1.605-1.605S31.198,22.64,31.198,23.526z"/>
		<path id="path-12_5_" d="M19.431,18.177c0,0.886-0.718,1.605-1.605,1.605c-0.886,0-1.604-0.719-1.604-1.605
			s0.718-1.605,1.604-1.605C18.713,16.572,19.431,17.291,19.431,18.177z"/>
		<path id="path-13_5_" d="M13.012,23.526c0,0.886-0.718,1.604-1.604,1.604c-0.886,0-1.605-0.718-1.605-1.604
			c0-0.886,0.719-1.605,1.605-1.605C12.294,21.921,13.012,22.64,13.012,23.526z"/>
	</g>
</g>
<g>
</g>
<g>
</g>
<g>
</g>
<g>
</g>
<g>
</g>
<g>
</g>
<g>
</g>
<g>
</g>
<g>
</g>
<g>
</g>
<g>
</g>
<g>
</g>
<g>
</g>
<g>
</g>
<g>
</g>
</svg>
