<?xml version="1.0" encoding="iso-8859-1"?>
<!-- Generator: Adobe Illustrator 19.1.0, SVG Export Plug-In . SVG Version: 6.00 Build 0)  -->
<svg version="1.1" id="Capa_1" xmlns="http://www.w3.org/2000/svg" xmlns:xlink="http://www.w3.org/1999/xlink" x="0px" y="0px"
	 viewBox="0 0 65.5 65.5" style="enable-background:new 0 0 65.5 65.5;" xml:space="preserve">
<g>
	<g id="group-40svg">
		<path id="path-1_33_" style="fill:#53ECF4;" d="M65,35.5c0-4.389-2.684-8.148-6.499-9.734c1.576-3.819,0.815-8.376-2.288-11.479
			c-3.104-3.104-7.66-3.864-11.479-2.288C43.148,8.184,39.389,5.5,35,5.5s-8.148,2.684-9.734,6.499
			c-3.819-1.576-8.375-0.816-11.479,2.288c-3.103,3.103-3.864,7.66-2.288,11.479C7.684,27.352,5,31.111,5,35.5
			s2.684,8.149,6.499,9.735c-1.576,3.818-0.815,8.375,2.288,11.479c3.104,3.103,7.66,3.863,11.479,2.287
			C26.852,62.816,30.611,65.5,35,65.5s8.148-2.684,9.734-6.499c3.819,1.576,8.375,0.816,11.479-2.287
			c3.103-3.104,3.864-7.661,2.288-11.479C62.316,43.649,65,39.889,65,35.5z M33.03,44.606c-1.195,0.227-2.391-0.268-3.076-1.275
			c-0.365-0.537-0.785-1.047-1.262-1.523c-0.475-0.476-0.986-0.897-1.523-1.262c-1.007-0.684-1.502-1.881-1.274-3.076
			c0.121-0.638,0.185-1.296,0.185-1.97c0-0.673-0.064-1.331-0.185-1.97c-0.228-1.195,0.267-2.391,1.274-3.076
			c0.537-0.365,1.048-0.785,1.523-1.261c0.477-0.476,0.897-0.987,1.262-1.524c0.685-1.006,1.881-1.502,3.076-1.274
			c0.638,0.121,1.296,0.185,1.97,0.185s1.332-0.064,1.97-0.185c1.195-0.228,2.391,0.268,3.076,1.274
			c0.365,0.537,0.786,1.048,1.262,1.524c0.475,0.476,0.986,0.896,1.523,1.261c1.006,0.685,1.502,1.881,1.274,3.077
			c-0.121,0.638-0.185,1.296-0.185,1.969c0,0.674,0.064,1.332,0.185,1.97c0.228,1.195-0.267,2.392-1.274,3.076
			c-0.537,0.365-1.048,0.786-1.523,1.262c-0.476,0.476-0.897,0.986-1.262,1.523c-0.685,1.007-1.881,1.502-3.076,1.275
			c-0.638-0.122-1.296-0.186-1.97-0.186S33.668,44.484,33.03,44.606z"/>
		<path id="path-2_33_" d="M32,63c-4.403,0-8.388-2.373-10.501-6.149c-1.058,0.297-2.15,0.447-3.263,0.447
			c-3.215,0-6.237-1.251-8.509-3.524c-3.115-3.114-4.254-7.608-3.079-11.773C2.872,39.888,0.5,35.904,0.5,31.5
			s2.372-8.388,6.148-10.501C5.473,16.835,6.612,12.34,9.727,9.226c2.272-2.272,5.294-3.524,8.509-3.524
			c1.113,0,2.205,0.15,3.263,0.448C23.612,2.373,27.597,0,32,0c4.404,0,8.388,2.373,10.501,6.15c1.058-0.298,2.15-0.448,3.264-0.448
			c3.215,0,6.236,1.252,8.508,3.524c3.115,3.114,4.254,7.609,3.079,11.773C61.127,23.112,63.5,27.096,63.5,31.5
			s-2.372,8.388-6.148,10.501c1.175,4.165,0.036,8.659-3.079,11.773c-2.272,2.273-5.293,3.524-8.508,3.524l0,0
			c-1.114,0-2.206-0.15-3.264-0.447C40.388,60.628,36.404,63,32,63z M23.076,53.044l0.574,1.381C25.059,57.812,28.336,60,32,60
			s6.941-2.188,8.35-5.575l0.574-1.381l1.383,0.57c1.099,0.454,2.262,0.685,3.458,0.685c2.413,0,4.681-0.94,6.387-2.646
			c2.591-2.591,3.362-6.456,1.962-9.846l-0.57-1.384l1.381-0.574c3.387-1.407,5.575-4.684,5.575-8.349
			c0-3.664-2.188-6.942-5.574-8.349l-1.382-0.574l0.57-1.383c1.4-3.391,0.629-7.255-1.962-9.847
			c-1.706-1.706-3.974-2.645-6.387-2.645c-1.196,0-2.359,0.23-3.458,0.684l-1.383,0.571L40.35,8.575C38.941,5.189,35.664,3,32,3
			s-6.941,2.189-8.35,5.575l-0.574,1.382l-1.383-0.571c-1.099-0.454-2.262-0.684-3.457-0.684c-2.414,0-4.682,0.939-6.388,2.645
			c-2.591,2.592-3.362,6.456-1.962,9.847l0.57,1.383l-1.381,0.574C5.688,24.558,3.5,27.836,3.5,31.5
			c0,3.665,2.188,6.942,5.575,8.349l1.381,0.574l-0.57,1.384c-1.4,3.39-0.629,7.255,1.962,9.846
			c1.706,1.706,3.974,2.646,6.388,2.646c1.195,0,2.358-0.23,3.457-0.685L23.076,53.044z M34.546,42.16
			c-0.286,0-0.574-0.027-0.857-0.081c-1.105-0.21-2.267-0.21-3.378,0c-1.755,0.336-3.589-0.423-4.597-1.904
			c-0.318-0.467-0.682-0.907-1.082-1.306c-0.401-0.401-0.84-0.765-1.307-1.083c-1.495-1.016-2.242-2.821-1.904-4.596
			c0.105-0.556,0.159-1.125,0.159-1.69c0-0.564-0.054-1.133-0.159-1.689c-0.338-1.776,0.409-3.58,1.904-4.597
			c0.467-0.317,0.906-0.681,1.306-1.081c0.402-0.402,0.765-0.841,1.083-1.307c1.008-1.482,2.841-2.239,4.597-1.905
			c1.107,0.211,2.272,0.211,3.377,0c1.765-0.333,3.59,0.423,4.598,1.904c0.318,0.467,0.681,0.906,1.082,1.307
			c0.401,0.401,0.84,0.765,1.307,1.082c1.495,1.017,2.242,2.821,1.904,4.597c-0.105,0.556-0.159,1.125-0.159,1.689
			c0,0.565,0.054,1.134,0.159,1.69c0.338,1.776-0.409,3.581-1.905,4.597c-0.466,0.317-0.905,0.681-1.305,1.081
			c-0.401,0.4-0.764,0.84-1.083,1.307C37.44,41.418,36.042,42.16,34.546,42.16z M32,38.92c0.755,0,1.513,0.071,2.251,0.212
			c0.604,0.119,1.207-0.134,1.555-0.645c0.423-0.623,0.909-1.209,1.441-1.74c0.532-0.533,1.118-1.018,1.74-1.441
			c0.514-0.349,0.761-0.945,0.645-1.556c-0.141-0.742-0.212-1.498-0.212-2.25s0.071-1.509,0.212-2.249
			c0.116-0.611-0.131-1.207-0.645-1.557c-0.622-0.422-1.208-0.908-1.741-1.441c-0.532-0.533-1.018-1.118-1.44-1.741
			c-0.347-0.509-0.943-0.763-1.556-0.644c-1.475,0.282-3.024,0.282-4.501,0c-0.598-0.114-1.213,0.142-1.555,0.645
			c-0.422,0.622-0.908,1.207-1.441,1.741c-0.532,0.532-1.118,1.018-1.74,1.44c-0.514,0.35-0.761,0.946-0.645,1.557
			c0.141,0.74,0.212,1.497,0.212,2.249s-0.071,1.508-0.212,2.25c-0.116,0.611,0.131,1.206,0.645,1.556
			c0.622,0.423,1.208,0.908,1.741,1.442c0.531,0.53,1.017,1.116,1.44,1.739c0.347,0.51,0.942,0.764,1.556,0.645
			C30.488,38.991,31.246,38.92,32,38.92z"/>
		<path id="path-3_33_" d="M34.404,13.779c0,1.378-1.117,2.495-2.495,2.495s-2.495-1.117-2.495-2.495s1.117-2.495,2.495-2.495
			S34.404,12.401,34.404,13.779z"/>
		<path id="path-4_33_" d="M21.431,17.771c0,1.378-1.118,2.495-2.495,2.495c-1.378,0-2.495-1.117-2.495-2.495
			s1.117-2.495,2.495-2.495C20.313,15.276,21.431,16.393,21.431,17.771z"/>
		<path id="path-5_33_" d="M48.375,43.717c0,1.378-1.116,2.496-2.494,2.496c-1.378,0-2.495-1.118-2.495-2.496
			c0-1.378,1.117-2.494,2.495-2.494C47.259,41.223,48.375,42.339,48.375,43.717z"/>
		<path id="path-6_29_" d="M34.404,49.705c0,1.378-1.117,2.495-2.495,2.495s-2.495-1.117-2.495-2.495
			c0-1.378,1.117-2.495,2.495-2.495S34.404,48.327,34.404,49.705z"/>
		<path id="path-7_22_" d="M47.378,18.769c0,1.378-1.117,2.495-2.495,2.495c-1.378,0-2.495-1.117-2.495-2.495
			c0-1.378,1.117-2.495,2.495-2.495C46.261,16.274,47.378,17.391,47.378,18.769z"/>
		<path id="path-8_17_" d="M20.433,43.717c0,1.378-1.118,2.496-2.495,2.496c-1.377,0-2.495-1.118-2.495-2.496
			c0-1.378,1.118-2.494,2.495-2.494C19.315,41.223,20.433,42.339,20.433,43.717z"/>
		<path id="path-9_10_" d="M14.445,30.744c0,1.378-1.117,2.495-2.495,2.495s-2.495-1.117-2.495-2.495s1.117-2.495,2.495-2.495
			S14.445,29.366,14.445,30.744z"/>
		<path id="path-10_6_" d="M52.367,30.744c0,1.378-1.117,2.495-2.494,2.495c-1.379,0-2.495-1.117-2.495-2.495
			s1.116-2.495,2.495-2.495C51.25,28.249,52.367,29.366,52.367,30.744z"/>
	</g>
</g>
<g>
</g>
<g>
</g>
<g>
</g>
<g>
</g>
<g>
</g>
<g>
</g>
<g>
</g>
<g>
</g>
<g>
</g>
<g>
</g>
<g>
</g>
<g>
</g>
<g>
</g>
<g>
</g>
<g>
</g>
</svg>
