<?xml version="1.0" encoding="iso-8859-1"?>
<!-- Generator: Adobe Illustrator 19.1.0, SVG Export Plug-In . SVG Version: 6.00 Build 0)  -->
<svg version="1.1" id="Capa_1" xmlns="http://www.w3.org/2000/svg" xmlns:xlink="http://www.w3.org/1999/xlink" x="0px" y="0px"
	 viewBox="0 0 63.5 63.5" style="enable-background:new 0 0 63.5 63.5;" xml:space="preserve">
<g>
	<g id="group-26svg">
		<path id="path-1_17_" style="fill:#81BDA4;" d="M56.105,18.717c-8.695,3.334-10.29,12.963-10.29,12.963
			c-1.66,8.389-2.851,17.745-2.851,17.745s-0.734,3.768-8.598,3.768s-8.33-3.768-8.33-3.768s-1.191-9.356-2.852-17.745
			c0,0-1.594-9.67-10.29-13.003c0,0,4.493,4.54,3.043,14.106c-1.449,9.565,1.45,19.207,11.45,21.207h1.304l-1.304,1.567l2.817,2.015
			c0,0-1.871,5.72,3.129,5.919V63.5v-0.004V63.5v-0.009c5-0.199,4.296-6.078,4.296-6.078l3.659-1.856l-0.98-1.567h1.305
			c10-2,12.898-11.622,11.449-21.187S56.105,18.717,56.105,18.717z"/>
		<path id="path-2_17_" style="fill:#EDC951;" d="M34.366,3.5c0,0-10.724,2.057-10.145,22.926c0.58,20.869-0.29,26.564,7.247,27.564
			h2.898h2.899c7.536-1,6.666-6.695,7.246-27.564C45.091,5.557,34.366,3.5,34.366,3.5z"/>
		<path id="path-3_17_" d="M33.265,52.99h-5.797c-0.066,0-0.132-0.005-0.198-0.014c-7.936-1.052-8.05-6.357-8.39-22.106
			c-0.044-2.021-0.091-4.233-0.158-6.652C18.113,2.296,29.626,0.103,30.117,0.021c0.165-0.028,0.333-0.028,0.498,0
			c0.491,0.082,12.005,2.275,11.396,24.197c-0.068,2.42-0.116,4.631-0.159,6.653c-0.34,15.748-0.455,21.053-8.39,22.105
			C33.396,52.985,33.331,52.99,33.265,52.99z M27.569,49.99h5.595c4.962-0.688,5.342-3.127,5.688-19.183
			c0.044-2.028,0.092-4.246,0.16-6.672c0.487-17.556-7.16-20.658-8.647-21.094c-1.522,0.438-9.133,3.515-8.644,21.094
			c0.067,2.425,0.115,4.644,0.158,6.671C22.226,46.863,22.605,49.301,27.569,49.99z"/>
		<path id="path-4_17_" d="M29.833,62.998c-0.076,0-0.15-0.006-0.224-0.017c-2.127-0.13-3.282-1.12-3.879-1.938
			c-1.161-1.591-1.11-3.67-0.935-4.925l-2.267-1.581c-0.329-0.23-0.552-0.582-0.62-0.978c-0.049-0.289-0.013-0.583,0.102-0.849
			c-8.899-2.342-13.311-10.814-11.555-22.402c1.316-8.694-2.558-12.509-2.597-12.546c-0.517-0.494-0.613-1.284-0.232-1.888
			c0.383-0.603,1.136-0.855,1.805-0.598c9.391,3.6,11.162,13.731,11.233,14.16c1.643,8.296,2.848,17.705,2.859,17.799l0,0
			c0.005,0,0.654,2.458,6.843,2.458c5.908,0,7.001-2.257,7.125-2.574c0.144-1.112,1.301-9.892,2.853-17.73
			c0.062-0.382,1.834-10.473,11.224-14.072c0.67-0.256,1.424-0.005,1.806,0.599c0.382,0.605,0.283,1.396-0.235,1.889
			c-0.151,0.148-3.894,3.946-2.594,12.523c1.766,11.654-2.718,20.155-11.737,22.429c0.114,0.288,0.136,0.607,0.06,0.911
			c-0.096,0.389-0.344,0.722-0.687,0.927l-2.729,1.627c0.038,1.236-0.129,3.29-1.404,4.85c-0.659,0.806-1.882,1.78-3.991,1.909
			C29.984,62.992,29.909,62.998,29.833,62.998z M25.492,52.946l1.82,1.271c0.522,0.364,0.757,1.017,0.587,1.631
			c-0.156,0.581-0.448,2.47,0.258,3.431c0.118,0.161,0.476,0.647,1.676,0.71c0.861-0.045,1.48-0.312,1.892-0.816
			c0.848-1.037,0.769-2.936,0.674-3.52c-0.099-0.607,0.183-1.213,0.712-1.528l2.234-1.332l-0.319-0.524
			c-0.017-0.029-0.034-0.059-0.05-0.089c-1.238,0.316-2.754,0.513-4.61,0.513c-1.75,0-3.189-0.175-4.371-0.461
			c-0.026,0.046-0.055,0.09-0.085,0.133L25.492,52.946z M48.1,21.019c-3.876,3.739-4.794,8.842-4.805,8.909
			c-1.64,8.286-2.831,17.593-2.843,17.686c-0.041,0.217-0.212,0.93-0.819,1.755c9.411-3.499,8.497-14.953,7.946-18.592
			C46.954,26.65,47.369,23.419,48.1,21.019z M12.896,20.982c0.733,2.404,1.151,5.642,0.524,9.775
			c-0.549,3.627-1.459,15.009,7.821,18.564c-0.552-0.825-0.671-1.526-0.694-1.712c-0.011-0.088-1.203-9.398-2.835-17.637
			C17.695,29.871,16.775,24.733,12.896,20.982z"/>
		<path id="path-5_17_" d="M36.031,10.654c0,0.576-0.467,1.043-1.043,1.043c-0.577,0-1.044-0.467-1.044-1.043
			c0-0.577,0.467-1.044,1.044-1.044C35.564,9.61,36.031,10.077,36.031,10.654z"/>
		<path id="path-6_14_" d="M36.031,13.993c0,0.576-0.467,1.043-1.043,1.043c-0.577,0-1.044-0.467-1.044-1.043
			c0-0.577,0.467-1.044,1.044-1.044C35.564,12.949,36.031,13.416,36.031,13.993z"/>
		<path id="path-7_10_" d="M36.031,17.332c0,0.576-0.467,1.043-1.043,1.043c-0.577,0-1.044-0.467-1.044-1.043
			c0-0.576,0.467-1.043,1.044-1.043C35.564,16.289,36.031,16.756,36.031,17.332z"/>
		<path id="path-8_8_" d="M36.031,20.671c0,0.576-0.467,1.043-1.043,1.043c-0.577,0-1.044-0.467-1.044-1.043
			s0.467-1.044,1.044-1.044C35.564,19.627,36.031,20.095,36.031,20.671z"/>
		<path id="path-9_5_" d="M36.031,24.01c0,0.576-0.467,1.044-1.043,1.044c-0.577,0-1.044-0.468-1.044-1.044s0.467-1.043,1.044-1.043
			C35.564,22.967,36.031,23.434,36.031,24.01z"/>
		<path id="path-10_3_" d="M36.031,27.349c0,0.577-0.467,1.043-1.043,1.043c-0.577,0-1.044-0.466-1.044-1.043
			c0-0.576,0.467-1.043,1.044-1.043C35.564,26.306,36.031,26.773,36.031,27.349z"/>
		<path id="path-11_3_" d="M36.031,30.688c0,0.577-0.467,1.044-1.043,1.044c-0.577,0-1.044-0.467-1.044-1.044
			c0-0.576,0.467-1.043,1.044-1.043C35.564,29.645,36.031,30.112,36.031,30.688z"/>
		<path id="path-12_3_" d="M36.031,34.027c0,0.577-0.467,1.044-1.043,1.044c-0.577,0-1.044-0.467-1.044-1.044
			c0-0.576,0.467-1.043,1.044-1.043C35.564,32.984,36.031,33.451,36.031,34.027z"/>
		<path id="path-13_3_" d="M36.031,37.367c0,0.576-0.467,1.043-1.043,1.043c-0.577,0-1.044-0.467-1.044-1.043
			c0-0.577,0.467-1.044,1.044-1.044C35.564,36.323,36.031,36.79,36.031,37.367z"/>
		<path id="path-14_3_" d="M36.031,40.706c0,0.576-0.467,1.043-1.043,1.043c-0.577,0-1.044-0.467-1.044-1.043
			c0-0.577,0.467-1.044,1.044-1.044C35.564,39.662,36.031,40.129,36.031,40.706z"/>
		<path id="path-15_3_" d="M36.031,44.045c0,0.576-0.467,1.043-1.043,1.043c-0.577,0-1.044-0.467-1.044-1.043
			c0-0.576,0.467-1.044,1.044-1.044C35.564,43.001,36.031,43.469,36.031,44.045z"/>
		<path id="path-16_3_" d="M31.335,10.654c0,0.576-0.467,1.043-1.043,1.043c-0.577,0-1.044-0.467-1.044-1.043
			c0-0.577,0.467-1.044,1.044-1.044C30.868,9.61,31.335,10.077,31.335,10.654z"/>
		<path id="path-17_3_" d="M31.335,13.993c0,0.576-0.467,1.043-1.043,1.043c-0.577,0-1.044-0.467-1.044-1.043
			c0-0.577,0.467-1.044,1.044-1.044C30.868,12.949,31.335,13.416,31.335,13.993z"/>
		<path id="path-18_1_" d="M31.335,17.332c0,0.576-0.467,1.043-1.043,1.043c-0.577,0-1.044-0.467-1.044-1.043
			c0-0.576,0.467-1.043,1.044-1.043C30.868,16.289,31.335,16.756,31.335,17.332z"/>
		<path id="path-19_1_" d="M31.335,20.671c0,0.576-0.467,1.043-1.043,1.043c-0.577,0-1.044-0.467-1.044-1.043
			s0.467-1.044,1.044-1.044C30.868,19.627,31.335,20.095,31.335,20.671z"/>
		<path id="path-20" d="M31.335,24.01c0,0.576-0.467,1.044-1.043,1.044c-0.577,0-1.044-0.468-1.044-1.044s0.467-1.043,1.044-1.043
			C30.868,22.967,31.335,23.434,31.335,24.01z"/>
		<path id="path-21" d="M31.335,27.349c0,0.577-0.467,1.043-1.043,1.043c-0.577,0-1.044-0.466-1.044-1.043
			c0-0.576,0.467-1.043,1.044-1.043C30.868,26.306,31.335,26.773,31.335,27.349z"/>
		<path id="path-22" d="M31.335,30.688c0,0.577-0.467,1.044-1.043,1.044c-0.577,0-1.044-0.467-1.044-1.044
			c0-0.576,0.467-1.043,1.044-1.043C30.868,29.645,31.335,30.112,31.335,30.688z"/>
		<path id="path-23" d="M31.335,34.027c0,0.577-0.467,1.044-1.043,1.044c-0.577,0-1.044-0.467-1.044-1.044
			c0-0.576,0.467-1.043,1.044-1.043C30.868,32.984,31.335,33.451,31.335,34.027z"/>
		<path id="path-24" d="M31.335,37.367c0,0.576-0.467,1.043-1.043,1.043c-0.577,0-1.044-0.467-1.044-1.043
			c0-0.577,0.467-1.044,1.044-1.044C30.868,36.323,31.335,36.79,31.335,37.367z"/>
		<path id="path-25" d="M31.335,40.706c0,0.576-0.467,1.043-1.043,1.043c-0.577,0-1.044-0.467-1.044-1.043
			c0-0.577,0.467-1.044,1.044-1.044C30.868,39.662,31.335,40.129,31.335,40.706z"/>
		<path id="path-26" d="M31.335,44.045c0,0.576-0.467,1.043-1.043,1.043c-0.577,0-1.044-0.467-1.044-1.043
			c0-0.576,0.467-1.044,1.044-1.044C30.868,43.001,31.335,43.469,31.335,44.045z"/>
		<path id="path-27" d="M26.64,10.654c0,0.576-0.468,1.043-1.044,1.043c-0.576,0-1.043-0.467-1.043-1.043
			c0-0.577,0.467-1.044,1.043-1.044C26.172,9.61,26.64,10.077,26.64,10.654z"/>
		<path id="path-28" d="M26.64,13.993c0,0.576-0.468,1.043-1.044,1.043c-0.576,0-1.043-0.467-1.043-1.043
			c0-0.577,0.467-1.044,1.043-1.044C26.172,12.949,26.64,13.416,26.64,13.993z"/>
		<path id="path-29" d="M26.64,17.332c0,0.576-0.468,1.043-1.044,1.043c-0.576,0-1.043-0.467-1.043-1.043
			c0-0.576,0.467-1.043,1.043-1.043C26.172,16.289,26.64,16.756,26.64,17.332z"/>
		<path id="path-30" d="M26.64,20.671c0,0.576-0.468,1.043-1.044,1.043c-0.576,0-1.043-0.467-1.043-1.043s0.467-1.044,1.043-1.044
			C26.172,19.627,26.64,20.095,26.64,20.671z"/>
		<path id="path-31" d="M26.64,24.01c0,0.576-0.468,1.044-1.044,1.044c-0.576,0-1.043-0.468-1.043-1.044s0.467-1.043,1.043-1.043
			C26.172,22.967,26.64,23.434,26.64,24.01z"/>
		<path id="path-32" d="M26.64,27.349c0,0.577-0.468,1.043-1.044,1.043c-0.576,0-1.043-0.466-1.043-1.043
			c0-0.576,0.467-1.043,1.043-1.043C26.172,26.306,26.64,26.773,26.64,27.349z"/>
		<path id="path-33" d="M26.64,30.688c0,0.577-0.468,1.044-1.044,1.044c-0.576,0-1.043-0.467-1.043-1.044
			c0-0.576,0.467-1.043,1.043-1.043C26.172,29.645,26.64,30.112,26.64,30.688z"/>
		<path id="path-34" d="M26.64,34.027c0,0.577-0.468,1.044-1.044,1.044c-0.576,0-1.043-0.467-1.043-1.044
			c0-0.576,0.467-1.043,1.043-1.043C26.172,32.984,26.64,33.451,26.64,34.027z"/>
		<path id="path-35" d="M26.64,37.367c0,0.576-0.468,1.043-1.044,1.043c-0.576,0-1.043-0.467-1.043-1.043
			c0-0.577,0.467-1.044,1.043-1.044C26.172,36.323,26.64,36.79,26.64,37.367z"/>
		<path id="path-36" d="M26.64,40.706c0,0.576-0.468,1.043-1.044,1.043c-0.576,0-1.043-0.467-1.043-1.043
			c0-0.577,0.467-1.044,1.043-1.044C26.172,39.662,26.64,40.129,26.64,40.706z"/>
		<path id="path-37" d="M26.64,44.045c0,0.576-0.468,1.043-1.044,1.043c-0.576,0-1.043-0.467-1.043-1.043
			c0-0.576,0.467-1.044,1.043-1.044C26.172,43.001,26.64,43.469,26.64,44.045z"/>
	</g>
</g>
<g>
</g>
<g>
</g>
<g>
</g>
<g>
</g>
<g>
</g>
<g>
</g>
<g>
</g>
<g>
</g>
<g>
</g>
<g>
</g>
<g>
</g>
<g>
</g>
<g>
</g>
<g>
</g>
<g>
</g>
</svg>
