<?xml version="1.0" encoding="iso-8859-1"?>
<!-- Generator: Adobe Illustrator 19.1.0, SVG Export Plug-In . SVG Version: 6.00 Build 0)  -->
<svg version="1.1" id="Capa_1" xmlns="http://www.w3.org/2000/svg" xmlns:xlink="http://www.w3.org/1999/xlink" x="0px" y="0px"
	 viewBox="0 0 63.5 63.5" style="enable-background:new 0 0 63.5 63.5;" xml:space="preserve">
<g>
	<g id="group-36svg">
		<path id="path-1_28_" style="fill:#8B71B5;" d="M7.234,38.68c0,0,7.095-1.359,8.278-12.239c0,0-2.365-16.319,15.609-13.48
			c0,0,12.062,2.364,5.676-9.461c0,0,14.663,0.946,15.846,16.556c0,0,9.697,3.311,6.386,11.588c0,0,5.948-1.157,2.838,7.036
			c0,0-5.374,11.815-31.624,10.372C3.993,47.61,7.234,38.68,7.234,38.68z"/>
		<path id="path-2_28_" style="fill:#99746A;" d="M51.638,42.021c0,0-7.893-4.006-11.204,2.617c0,0-1.745-3.595-6.002-2.868
			c-4.257-0.727-5.765,2.868-5.765,2.868c-3.311-6.623-10.968-2.617-10.968-2.617C14.388,35.635,7.234,38.68,7.234,38.68
			c8.514,28.618,27.198,24.631,27.198,24.631s18.921,3.987,27.435-24.631C61.867,38.68,54.949,35.635,51.638,42.021z"/>
		<path id="path-3_28_" d="M31.824,63L31.824,63c-1.137,0-1.967-0.1-2.39-0.166C29.012,62.9,28.193,63,27.069,63
			c-5.583,0-19.32-2.523-26.273-25.892c-0.217-0.731,0.148-1.509,0.851-1.808c0.081-0.034,2.013-0.845,4.422-0.845
			c2.211,0,5.15,0.673,7.243,3.679c1.043-0.38,2.606-0.813,4.303-0.813c2.516,0,4.595,0.924,6.116,2.698
			c0.958-0.939,2.443-1.846,4.597-1.846c0.36,0,0.73,0.027,1.104,0.079c0.375-0.052,0.747-0.079,1.11-0.079
			c2.216,0,3.776,0.952,4.783,1.905c1.537-1.812,3.667-2.757,6.262-2.757c1.749,0,3.363,0.441,4.43,0.822
			c2.081-3.014,4.965-3.688,7.129-3.688c2.36,0,4.246,0.818,4.325,0.852c0.692,0.305,1.049,1.077,0.833,1.801
			C51.352,60.476,37.471,63,31.824,63z M29.434,59.811c0.103,0,0.207,0.011,0.307,0.032C29.743,59.844,30.533,60,31.824,60
			c4.862,0,16.681-2.212,23.167-22.333c-0.518-0.115-1.157-0.212-1.845-0.212c-2.347,0-4.041,1.065-5.177,3.257
			c-0.379,0.731-1.277,1.018-2.01,0.647c-0.018-0.009-2.099-1.038-4.372-1.038c-2.233,0-3.807,0.977-4.812,2.987
			c-0.255,0.511-0.796,0.811-1.35,0.829c-0.571-0.003-1.091-0.331-1.341-0.845c-0.038-0.074-1.107-2.119-3.542-2.119
			c-0.275,0-0.563,0.025-0.857,0.075c-0.167,0.029-0.338,0.029-0.505,0c-0.294-0.05-0.581-0.075-0.852-0.075
			c-2.341,0-3.246,1.975-3.284,2.059c-0.235,0.53-0.759,0.884-1.34,0.897c-0.582,0.031-1.119-0.302-1.379-0.821
			c-1.005-2.01-2.546-2.987-4.71-2.987c-2.191,0-4.2,1.019-4.22,1.029c-0.353,0.185-0.765,0.223-1.146,0.102
			c-0.381-0.12-0.698-0.386-0.881-0.74c-1.137-2.192-2.87-3.257-5.299-3.257c-0.732,0-1.41,0.102-1.956,0.223
			C10.593,57.788,22.27,60,27.069,60c1.272,0,2.048-0.156,2.056-0.157C29.226,59.822,29.33,59.811,29.434,59.811z"/>
		<path id="path-4_28_" d="M56.866,38.181c-0.176,0-0.356-0.032-0.532-0.098c-0.774-0.294-1.164-1.16-0.87-1.935
			c1.273-3.351,0.7-4.408,0.495-4.653c-0.468-0.555-1.633-0.381-1.644-0.378c-0.54,0.103-1.091-0.093-1.442-0.517
			c-0.35-0.422-0.441-1.003-0.237-1.513c0.748-1.869,0.778-3.508,0.093-5.009c-1.432-3.137-5.533-4.59-5.574-4.604
			c-0.565-0.196-0.963-0.71-1.008-1.305C45.37,7.909,38.344,4.566,34.376,3.492c1.118,2.93,1.059,5.185-0.166,6.85
			c-2.335,3.171-7.766,2.21-8.377,2.091c-5.048-0.796-8.809-0.05-11.126,2.227c-3.522,3.462-2.719,9.509-2.71,9.569
			c0.017,0.123,0.019,0.251,0.006,0.374C10.715,36.449,2.851,38.09,2.516,38.154c-0.816,0.157-1.599-0.378-1.755-1.191
			c-0.155-0.81,0.372-1.592,1.179-1.753c0.275-0.06,5.977-1.402,7.062-10.76c-0.144-1.259-0.641-7.74,3.585-11.913
			c3.032-2.994,7.665-4.022,13.768-3.058c1.124,0.214,4.411,0.486,5.44-0.919c0.784-1.068,0.315-3.322-1.318-6.347
			c-0.259-0.48-0.237-1.063,0.057-1.522c0.295-0.459,0.81-0.72,1.36-0.688c0.156,0.011,15.385,1.179,17.158,17.008
			c1.614,0.728,4.902,2.546,6.397,5.802c0.776,1.689,0.967,3.504,0.573,5.416c0.763,0.18,1.582,0.563,2.231,1.333
			c1.354,1.608,1.36,4.111,0.016,7.651C58.041,37.812,57.472,38.181,56.866,38.181z"/>
		<path id="path-5_28_" d="M43.283,26.21c-0.146,0-0.294-0.022-0.441-0.067c-0.792-0.244-1.237-1.083-0.993-1.875
			c1.701-5.529-3.623-8.877-3.85-9.016c-0.705-0.433-0.928-1.355-0.498-2.061c0.43-0.704,1.346-0.933,2.055-0.503
			c2.623,1.587,7.076,6.235,5.16,12.462C44.518,25.795,43.924,26.21,43.283,26.21z"/>
		<path id="path-6_24_" d="M22.022,35.893c-4.678,0-7.011-3.021-7.132-3.183c-0.497-0.662-0.363-1.603,0.3-2.1
			c0.658-0.493,1.593-0.364,2.092,0.29c0.123,0.156,2.645,3.238,8.021,1.396c0.787-0.267,1.637,0.151,1.906,0.934
			c0.268,0.784-0.15,1.637-0.934,1.905C24.688,35.677,23.272,35.893,22.022,35.893z"/>
		<path id="path-7_19_" d="M29.484,57.625c-0.573,0-1.107-0.026-1.589-0.073c-0.824-0.081-1.427-0.814-1.347-1.639
			c0.08-0.824,0.814-1.429,1.637-1.347c0.466,0.045,11.254,0.947,14.073-7.966c0.25-0.79,1.093-1.228,1.883-0.978
			c0.79,0.249,1.228,1.093,0.978,1.882C42.564,55.584,34.513,57.625,29.484,57.625z"/>
	</g>
</g>
<g>
</g>
<g>
</g>
<g>
</g>
<g>
</g>
<g>
</g>
<g>
</g>
<g>
</g>
<g>
</g>
<g>
</g>
<g>
</g>
<g>
</g>
<g>
</g>
<g>
</g>
<g>
</g>
<g>
</g>
</svg>
