<?xml version="1.0" encoding="iso-8859-1"?>
<!-- Generator: Adobe Illustrator 19.1.0, SVG Export Plug-In . SVG Version: 6.00 Build 0)  -->
<svg version="1.1" id="Capa_1" xmlns="http://www.w3.org/2000/svg" xmlns:xlink="http://www.w3.org/1999/xlink" x="0px" y="0px"
	 viewBox="0 0 62.597 62.597" style="enable-background:new 0 0 62.597 62.597;" xml:space="preserve">
<g>
	<g id="group-86svg">
		<path id="path-1_83_" style="fill:#53ECF4;" d="M16.923,3.597h-6.374v21.595l3,8.887v28.518h3.374h1.626V34.079l4-8.887V3.597
			H16.923z"/>
		<path id="path-2_83_" style="fill:#FF917B;" d="M56.048,11.539c0-7.225-3.116-9.039-7.16-9.039s-7.567,1.797-7.567,9.022
			c0,6.302,4.228,16.575,4.228,16.575v34.5h5v-34.5C50.549,28.097,56.048,17.843,56.048,11.539z"/>
		<path id="path-3_83_" d="M16.049,62.597h-5c-0.829,0-1.5-0.672-1.5-1.5V33.326l-2.921-8.653c-0.053-0.155-0.079-0.318-0.079-0.481
			V2.097c0-0.828,0.671-1.5,1.5-1.5h12c0.829,0,1.5,0.672,1.5,1.5v22.095c0,0.213-0.045,0.422-0.132,0.616l-3.868,8.593v27.696
			C17.549,61.925,16.878,62.597,16.049,62.597z M12.549,59.597h2V33.079c0-0.212,0.045-0.422,0.132-0.615l3.868-8.594V3.597h-9
			v20.349L12.47,32.6c0.053,0.155,0.079,0.317,0.079,0.479V59.597z"/>
		<path id="path-4_83_" d="M48.049,62.597h-5c-0.829,0-1.5-0.672-1.5-1.5V27.4c-0.738-1.765-4.415-10.87-4.415-16.879
			C37.134,3.54,40.121,0,46.013,0c5.829,0,8.785,3.546,8.785,10.539c0,6.015-4.326,15.053-5.249,16.913v33.645
			C49.549,61.925,48.878,62.597,48.049,62.597z M44.549,59.597h2v-32.5c0-0.238,0.057-0.472,0.164-0.684
			c0.051-0.1,5.085-10.008,5.085-15.874c0-6.626-2.78-7.539-5.785-7.539c-3.053,0-5.879,0.911-5.879,7.521
			c0,5.926,4.25,15.883,4.293,15.984c0.08,0.186,0.122,0.388,0.122,0.592V59.597z"/>
	</g>
</g>
<g>
</g>
<g>
</g>
<g>
</g>
<g>
</g>
<g>
</g>
<g>
</g>
<g>
</g>
<g>
</g>
<g>
</g>
<g>
</g>
<g>
</g>
<g>
</g>
<g>
</g>
<g>
</g>
<g>
</g>
</svg>
