<?xml version="1.0" encoding="iso-8859-1"?>
<!-- Generator: Adobe Illustrator 19.1.0, SVG Export Plug-In . SVG Version: 6.00 Build 0)  -->
<svg version="1.1" id="Capa_1" xmlns="http://www.w3.org/2000/svg" xmlns:xlink="http://www.w3.org/1999/xlink" x="0px" y="0px"
	 viewBox="0 0 65.137 65.137" style="enable-background:new 0 0 65.137 65.137;" xml:space="preserve">
<g>
	<g id="group-29svg">
		<path id="path-1_20_" style="fill:#E56A77;" d="M5.698,30.024c0-12.838,12.514-23.245,29.358-23.245s29.193,10.407,29.193,23.245
			v7.089c0,12.838-12.349,23.245-29.193,23.245S5.375,49.951,5.375,37.113L5.698,30.024z"/>
		<path id="path-2_20_" style="fill:#FF917B;" d="M7.375,22.38c0.167-0.253,0.468-0.342,0.688-0.47
			c4.521-2.623,5.219,6.63,5.219,6.63s-1.978,24.729,8.407,14.837c10.387-9.891,12.365-0.494,12.365-0.494s1.978,17.475,7.254,3.791
			c5.275-13.683,10.55-3.462,10.55-3.462s7.254,4.946,7.089-4.616c-0.164-9.561,5.771-13.765,5.771-13.765s1.448,14.27-1.042,18.989
			c-2.49,4.718-5.959,14.12-25.792,16.538c-19.834,2.417-31.5-16.583-31.5-16.583S3.034,28.986,7.375,22.38z"/>
		<path id="path-3_20_" style="fill:#FF917B;" d="M47.407,25.078c0,3.551-5.018,6.429-11.21,6.429c-6.191,0-11.21-2.878-11.21-6.429
			s5.019-6.43,11.21-6.43C42.389,18.648,47.407,21.527,47.407,25.078z"/>
		<path id="path-4_20_" d="M33.622,52.409c-0.111,0-0.225-0.007-0.34-0.022c-3.107-0.399-4.282-6.546-4.709-10.244
			c-0.086-0.331-0.642-2.237-2.128-2.688c-1.716-0.52-4.458,0.902-7.721,4.009c-2.641,2.515-4.986,3.311-6.963,2.369
			c-4.922-2.347-4.208-15.371-3.984-18.291c-0.199-2.323-1.053-5.143-1.993-5.557c-0.434-0.196-1.183,0.341-1.485,0.578
			c-0.653,0.508-1.595,0.395-2.106-0.259c-0.51-0.653-0.394-1.595,0.258-2.106c2.002-1.565,3.578-1.384,4.546-0.957
			c3.115,1.377,3.696,7.061,3.781,8.186c0.006,0.077,0.005,0.155-0.001,0.232c-0.53,6.664,0.189,14.471,2.275,15.466
			c0.712,0.34,2.025-0.33,3.603-1.834c4.212-4.011,7.809-5.596,10.693-4.698c3.306,1.027,4.139,4.82,4.173,4.981
			c0.01,0.046,0.018,0.093,0.023,0.14c0.383,3.361,1.347,6.817,2.096,7.612c0.309-0.261,1.104-1.172,2.268-4.191
			c2.039-5.289,4.384-7.933,7.168-8.084c3.127-0.159,5.231,2.942,5.906,4.096c0.863,0.503,2.441,1.153,3.307,0.684
			c0.775-0.421,1.197-1.956,1.158-4.209c-0.176-10.236,6.135-14.825,6.403-15.015c0.677-0.479,1.613-0.319,2.091,0.357
			c0.478,0.674,0.321,1.607-0.35,2.087c-0.225,0.162-5.291,3.94-5.144,12.519c0.062,3.567-0.859,5.889-2.737,6.903
			c-2.821,1.522-6.309-0.756-6.696-1.021c-0.206-0.141-0.374-0.33-0.489-0.552c-0.503-0.961-1.989-2.925-3.29-2.853
			c-0.661,0.038-2.425,0.714-4.528,6.167C37.585,49.125,36.003,52.409,33.622,52.409z"/>
		<path id="path-5_20_" d="M33.622,52.409c-0.111,0-0.225-0.007-0.34-0.022c-3.107-0.399-4.282-6.546-4.709-10.244
			c-0.086-0.331-0.642-2.237-2.128-2.688c-1.716-0.52-4.458,0.902-7.721,4.009c-2.641,2.515-4.986,3.311-6.963,2.369
			c-4.922-2.347-4.208-15.371-3.984-18.291c-0.199-2.323-1.053-5.143-1.993-5.557c-0.434-0.196-1.183,0.341-1.485,0.578
			c-0.653,0.508-1.595,0.395-2.106-0.259c-0.51-0.653-0.394-1.595,0.258-2.106c2.002-1.565,3.578-1.384,4.546-0.957
			c3.115,1.377,3.696,7.061,3.781,8.186c0.006,0.077,0.005,0.155-0.001,0.232c-0.53,6.664,0.189,14.471,2.275,15.466
			c0.712,0.34,2.025-0.33,3.603-1.834c4.212-4.011,7.809-5.596,10.693-4.698c3.306,1.027,4.139,4.82,4.173,4.981
			c0.01,0.046,0.018,0.093,0.023,0.14c0.383,3.361,1.347,6.817,2.096,7.612c0.309-0.261,1.104-1.172,2.268-4.191
			c2.039-5.289,4.384-7.933,7.168-8.084c3.127-0.159,5.231,2.942,5.906,4.096c0.863,0.503,2.441,1.153,3.307,0.684
			c0.775-0.421,1.197-1.956,1.158-4.209c-0.176-10.236,6.135-14.825,6.403-15.015c0.677-0.479,1.613-0.319,2.091,0.357
			c0.478,0.674,0.321,1.607-0.35,2.087c-0.225,0.162-5.291,3.94-5.144,12.519c0.062,3.567-0.859,5.889-2.737,6.903
			c-2.821,1.522-6.309-0.756-6.696-1.021c-0.206-0.141-0.374-0.33-0.489-0.552c-0.503-0.961-1.989-2.925-3.29-2.853
			c-0.661,0.038-2.425,0.714-4.528,6.167C37.585,49.125,36.003,52.409,33.622,52.409z"/>
		<path id="path-6_17_" d="M31.306,60.858C13.751,60.858,0,49.989,0,36.113l0.199-7.131C0.198,15.148,13.862,4.279,31.306,4.279
			c17.351,0,30.943,10.869,30.943,24.745v7.089C62.249,49.989,48.657,60.858,31.306,60.858z M31.306,7.279
			c-15.761,0-28.108,9.552-28.108,21.745l-0.199,7.131C3,48.306,15.434,57.858,31.306,57.858c15.669,0,27.943-9.552,27.943-21.745
			v-7.089C59.249,16.831,46.975,7.279,31.306,7.279z"/>
		<path id="path-7_13_" d="M31.306,60.858C13.751,60.858,0,49.989,0,36.113l0.199-7.131C0.198,15.148,13.862,4.279,31.306,4.279
			c17.351,0,30.943,10.869,30.943,24.745v7.089C62.249,49.989,48.657,60.858,31.306,60.858z M31.306,7.279
			c-15.761,0-28.108,9.552-28.108,21.745l-0.199,7.131C3,48.306,15.434,57.858,31.306,57.858c15.669,0,27.943-9.552,27.943-21.745
			v-7.089C59.249,16.831,46.975,7.279,31.306,7.279z"/>
		<path id="path-8_11_" d="M32.197,32.007c-7.127,0-12.71-3.483-12.71-7.929c0-4.447,5.583-7.93,12.71-7.93s12.71,3.483,12.71,7.93
			C44.907,28.524,39.324,32.007,32.197,32.007z M32.197,19.148c-5.722,0-9.71,2.599-9.71,4.93c0,2.332,3.988,4.929,9.71,4.929
			c5.723,0,9.71-2.597,9.71-4.929C41.907,21.747,37.92,19.148,32.197,19.148z"/>
		<path id="path-9_7_" d="M42.678,27.842c-0.24,0-0.483-0.057-0.708-0.178c-0.162-0.085-9.987-5.166-19.541-0.002
			c-0.728,0.393-1.639,0.123-2.033-0.607c-0.394-0.729-0.123-1.639,0.607-2.033c11.04-5.965,21.928-0.248,22.386-0.001
			c0.73,0.392,1.003,1.301,0.611,2.031C43.729,27.556,43.212,27.842,42.678,27.842z"/>
	</g>
</g>
<g>
</g>
<g>
</g>
<g>
</g>
<g>
</g>
<g>
</g>
<g>
</g>
<g>
</g>
<g>
</g>
<g>
</g>
<g>
</g>
<g>
</g>
<g>
</g>
<g>
</g>
<g>
</g>
<g>
</g>
</svg>
