<?xml version="1.0" encoding="iso-8859-1"?>
<!-- Generator: Adobe Illustrator 19.1.0, SVG Export Plug-In . SVG Version: 6.00 Build 0)  -->
<svg version="1.1" id="Capa_1" xmlns="http://www.w3.org/2000/svg" xmlns:xlink="http://www.w3.org/1999/xlink" x="0px" y="0px"
	 viewBox="0 0 66.5 66.5" style="enable-background:new 0 0 66.5 66.5;" xml:space="preserve">
<g>
	<g id="group-17svg">
		<path id="path-1_7_" style="fill:#99746A;" d="M66.5,34.285c0,11.423-13.431,20.684-30,20.684c-16.568,0-30-9.261-30-20.684
			c0-9.974,4.584-16.364,18.099-18.987c8.739-1.696,15.765,5.217,20.363,7.192C53.46,26.141,66.5,26.872,66.5,34.285z"/>
		<path id="path-2_7_" d="M31.5,54.468C14.131,54.468,0,44.516,0,32.285c0-11.557,5.956-17.868,19.313-20.46
			c1.001-0.194,2.026-0.293,3.047-0.293c5.708,0,10.476,2.977,14.308,5.368c1.497,0.934,2.789,1.741,3.886,2.212
			c2.363,1.015,5.17,1.82,7.885,2.597C55.597,23.758,63,25.878,63,32.285C63,44.516,48.869,54.468,31.5,54.468z M22.36,14.531
			c-0.829,0-1.662,0.08-2.476,0.238C8.049,17.066,3,22.306,3,32.285c0,10.578,12.785,19.184,28.5,19.184S60,42.862,60,32.285
			c0-4.144-6.017-5.868-12.387-7.692c-2.805-0.803-5.705-1.634-8.244-2.725c-1.306-0.561-2.755-1.465-4.289-2.423
			C31.573,17.255,27.208,14.531,22.36,14.531z"/>
		<path id="path-3_7_" d="M38.267,29.092c-0.226,0-0.455-0.052-0.67-0.159l-5.657-2.829c-0.74-0.37-1.041-1.271-0.671-2.012
			c0.371-0.741,1.274-1.039,2.013-0.671l5.657,2.828c0.741,0.371,1.041,1.272,0.671,2.013
			C39.347,28.788,38.817,29.092,38.267,29.092z"/>
		<path id="path-4_7_" d="M33.806,45.409c-0.312,0-0.628-0.097-0.897-0.299c-0.664-0.497-0.799-1.437-0.302-2.1l4.025-5.376
			c0.497-0.663,1.438-0.798,2.1-0.302c0.663,0.497,0.798,1.437,0.302,2.1l-4.026,5.376C34.714,45.201,34.263,45.409,33.806,45.409z"
			/>
		<path id="path-5_7_" d="M15.78,32.676c-0.587,0-1.144-0.347-1.385-0.922l-2.575-6.159c-0.32-0.764,0.041-1.643,0.805-1.962
			s1.643,0.041,1.963,0.805l2.575,6.159c0.32,0.764-0.041,1.643-0.805,1.962C16.169,32.639,15.973,32.676,15.78,32.676z"/>
	</g>
</g>
<g>
</g>
<g>
</g>
<g>
</g>
<g>
</g>
<g>
</g>
<g>
</g>
<g>
</g>
<g>
</g>
<g>
</g>
<g>
</g>
<g>
</g>
<g>
</g>
<g>
</g>
<g>
</g>
<g>
</g>
</svg>
