<?xml version="1.0" encoding="iso-8859-1"?>
<!-- Generator: Adobe Illustrator 19.1.0, SVG Export Plug-In . SVG Version: 6.00 Build 0)  -->
<svg version="1.1" id="Capa_1" xmlns="http://www.w3.org/2000/svg" xmlns:xlink="http://www.w3.org/1999/xlink" x="0px" y="0px"
	 viewBox="0 0 64.613 64.613" style="enable-background:new 0 0 64.613 64.613;" xml:space="preserve">
<g>
	<g id="group-65svg">
		<path id="path-1_60_" style="fill:#99746A;" d="M35.106,4.499c0,0-37.238,6.422-21.093,30.057s8.358,30.057,8.358,30.057h8.183
			V38.092c-1-0.928-2.268-2.726-2.268-4.821c0-3.036,2.862-5.497,5.899-5.497c0.16,0,0.746,0.034,0.746,0.048
			c0.156-0.014,0.395-0.048,0.555-0.048c3.036,0,4.359,2.461,4.359,5.497c0,2.193-2.291,4.072-4.291,4.953v26.389h12.08
			c0,0-7.685-6.422,8.461-30.057C72.24,10.921,35.106,4.499,35.106,4.499z"/>
		<path id="path-2_60_" d="M43.634,62.613h-11.58c-0.829,0-1.5-0.672-1.5-1.5V35.224c0-0.594,0.351-1.132,0.895-1.372
			c1.571-0.692,3.161-2.146,3.161-3.581c0-0.938-0.223-3.997-3.093-3.997c-0.049,0.002-0.112,0.011-0.172,0.018l-0.226,0.024
			c-0.133,0.011-0.264,0.005-0.39-0.018c-0.118-0.012-0.331-0.024-0.421-0.024c-2.275,0-4.272,1.867-4.272,3.997
			c0,1.652,1.425,3.153,2.038,3.722c0.306,0.284,0.48,0.682,0.48,1.099v26.021c0,0.828-0.672,1.5-1.5,1.5h-8.683
			c-0.639,0-1.207-0.405-1.417-1.007c-0.21-0.603-0.016-1.273,0.485-1.669c0.031-0.03,6.229-5.983-8.665-27.785
			c-4.32-6.325-5.409-12.114-3.235-17.203C10.416,3.531,30.028,0.158,30.86,0.019c0.163-0.025,0.329-0.026,0.492,0.001
			c0.829,0.138,20.36,3.506,25.226,14.905c2.174,5.096,1.083,10.892-3.245,17.227c-14.894,21.802-8.79,27.762-8.727,27.819
			c0.459,0.417,0.632,1.089,0.409,1.667S44.253,62.613,43.634,62.613z M33.554,59.613h7.386c-1.434-3.842-1.571-12.337,9.916-29.153
			c3.711-5.433,4.708-10.262,2.964-14.353C49.87,6.839,33.329,3.441,31.105,3.024c-2.228,0.417-18.847,3.82-22.809,13.107
			c-1.743,4.086-0.748,8.906,2.956,14.329c11.484,16.812,11.304,25.308,9.837,29.153h4.465V35.72
			c-1.106-1.148-2.518-3.08-2.518-5.449c0-3.793,3.331-6.997,7.274-6.997c0.157,0,0.409,0,0.687,0.038
			c0.176-0.021,0.363-0.038,0.52-0.038c3.645,0,6.093,2.811,6.093,6.997c0,2.664-2.025,4.724-4.056,5.875V59.613z"/>
		<path id="path-3_60_" d="M31.054,26.113c-0.829,0-1.5-0.672-1.5-1.5v-23c0-0.828,0.671-1.5,1.5-1.5c0.828,0,1.5,0.672,1.5,1.5v23
			C32.554,25.441,31.882,26.113,31.054,26.113z"/>
		<path id="path-4_60_" d="M51.554,12.613h-41c-0.829,0-1.5-0.672-1.5-1.5s0.671-1.5,1.5-1.5h41c0.828,0,1.5,0.672,1.5,1.5
			S52.382,12.613,51.554,12.613z"/>
		<path id="path-5_60_" d="M54.554,18.613h-48c-0.829,0-1.5-0.672-1.5-1.5c0-0.828,0.671-1.5,1.5-1.5h48c0.828,0,1.5,0.672,1.5,1.5
			C56.054,17.941,55.382,18.613,54.554,18.613z"/>
		<path id="path-6_53_" d="M41.554,51.613h-9c-0.829,0-1.5-0.672-1.5-1.5c0-0.828,0.671-1.5,1.5-1.5h9c0.828,0,1.5,0.672,1.5,1.5
			C43.054,50.941,42.382,51.613,41.554,51.613z"/>
		<path id="path-7_44_" d="M43.554,45.613h-11c-0.829,0-1.5-0.672-1.5-1.5c0-0.828,0.671-1.5,1.5-1.5h11c0.828,0,1.5,0.672,1.5,1.5
			C45.054,44.941,44.382,45.613,43.554,45.613z"/>
		<path id="path-8_38_" d="M26.554,51.613h-7c-0.829,0-1.5-0.672-1.5-1.5c0-0.828,0.671-1.5,1.5-1.5h7c0.828,0,1.5,0.672,1.5,1.5
			C28.054,50.941,27.382,51.613,26.554,51.613z"/>
		<path id="path-9_26_" d="M26.554,45.613h-9c-0.829,0-1.5-0.672-1.5-1.5c0-0.828,0.671-1.5,1.5-1.5h9c0.828,0,1.5,0.672,1.5,1.5
			C28.054,44.941,27.382,45.613,26.554,45.613z"/>
	</g>
</g>
<g>
</g>
<g>
</g>
<g>
</g>
<g>
</g>
<g>
</g>
<g>
</g>
<g>
</g>
<g>
</g>
<g>
</g>
<g>
</g>
<g>
</g>
<g>
</g>
<g>
</g>
<g>
</g>
<g>
</g>
</svg>
