<?xml version="1.0" encoding="iso-8859-1"?>
<!-- Generator: Adobe Illustrator 19.1.0, SVG Export Plug-In . SVG Version: 6.00 Build 0)  -->
<svg version="1.1" id="Capa_1" xmlns="http://www.w3.org/2000/svg" xmlns:xlink="http://www.w3.org/1999/xlink" x="0px" y="0px"
	 viewBox="0 0 67.5 67.5" style="enable-background:new 0 0 67.5 67.5;" xml:space="preserve">
<g>
	<g id="group-44svg">
		<path id="path-1_37_" style="fill:#FF917B;" d="M12.519,49.778l5.888,5.102c2.206,1.93,5.038,2.944,7.971,2.944h21.117
			c2.932,0,4.764-1.014,6.97-2.944l5.889-5.128l0,0"/>
		<path id="path-2_37_" style="fill:#99746A;" d="M57.639,35.902c-2.596,0-4.952,0.74-6.713,1.939
			c-1.761-1.199-4.116-1.939-6.713-1.939s-4.952,0.74-6.713,1.939c-1.762-1.199-4.117-1.939-6.714-1.939
			c-2.596,0-4.952,0.74-6.713,1.939c-1.761-1.199-4.116-1.939-6.714-1.939c-5.445,0-9.859,3.227-9.859,7.208
			c0,3.98,4.414,7.207,9.859,7.207c2.598,0,37.684-0.306,40.28-0.306c5.446,0,9.861-3.074,9.861-7.054
			C67.5,38.976,63.085,35.902,57.639,35.902z"/>
		<path id="path-3_37_" d="M11.36,48.817C5.096,48.817,0,44.911,0,40.11s5.096-8.708,11.36-8.708c2.428,0,4.774,0.591,6.713,1.678
			c1.94-1.087,4.286-1.678,6.713-1.678c2.428,0,4.774,0.591,6.714,1.678c1.94-1.087,4.285-1.678,6.713-1.678
			c2.427,0,4.773,0.591,6.713,1.678c1.939-1.087,4.285-1.678,6.713-1.678c6.37,0,11.361,3.758,11.361,8.554
			c0,4.797-4.991,8.555-11.361,8.555c-1.292,0-10.867,0.078-20.127,0.153C22.246,48.739,12.665,48.817,11.36,48.817z M11.36,34.402
			C6.828,34.402,3,37.016,3,40.11c0,3.094,3.828,5.707,8.36,5.707c1.292,0,10.868-0.078,20.127-0.153
			c9.266-0.075,18.847-0.153,20.152-0.153c4.61,0,8.361-2.492,8.361-5.555c0-3.062-3.751-5.554-8.361-5.554
			c-2.196,0-4.28,0.596-5.868,1.679l-0.845,0.575l-0.844-0.575c-1.589-1.083-3.674-1.679-5.869-1.679s-4.28,0.596-5.869,1.679
			L31.5,36.656l-0.845-0.575c-1.589-1.083-3.673-1.679-5.869-1.679c-2.195,0-4.28,0.596-5.869,1.679l-0.844,0.575l-0.845-0.575
			C15.64,34.998,13.556,34.402,11.36,34.402z"/>
		<path id="path-4_37_" d="M39.525,41.61c-0.091,0-0.183-0.008-0.276-0.026c-0.814-0.151-1.351-0.934-1.2-1.749
			c0.492-2.647,4.787-5.469,6.092-6.272c0.707-0.431,1.628-0.213,2.063,0.492c0.434,0.706,0.213,1.63-0.492,2.064
			c-2.094,1.29-4.545,3.359-4.714,4.265C40.864,41.106,40.234,41.61,39.525,41.61z"/>
		<path id="path-5_37_" d="M26.286,41.61c-0.091,0-0.183-0.008-0.276-0.026c-0.815-0.151-1.352-0.934-1.2-1.749
			c0.492-2.647,4.787-5.469,6.091-6.272c0.706-0.431,1.629-0.213,2.063,0.492c0.434,0.706,0.214,1.63-0.491,2.064
			c-2.094,1.29-4.545,3.359-4.714,4.265C27.625,41.106,26.994,41.61,26.286,41.61z"/>
		<path id="path-6_32_" d="M13.047,41.61c-0.091,0-0.183-0.008-0.276-0.026c-0.814-0.151-1.352-0.934-1.2-1.749
			c0.492-2.647,4.786-5.469,6.091-6.272c0.706-0.431,1.629-0.213,2.063,0.492c0.434,0.706,0.214,1.63-0.491,2.064
			c-2.094,1.29-4.545,3.359-4.714,4.265C14.386,41.106,13.756,41.61,13.047,41.61z"/>
		<path id="path-7_25_" d="M41.495,55.824H21.377c-3.568,0-6.666-1.06-8.958-3.065l-5.855-4.823
			c-0.639-0.527-0.73-1.473-0.203-2.112c0.527-0.64,1.471-0.73,2.112-0.204l5.888,4.852c1.795,1.57,4.145,2.352,7.016,2.352h20.118
			c2.871,0,5.221-0.782,6.983-2.323l5.904-5.017c0.632-0.535,1.578-0.459,2.115,0.172c0.536,0.632,0.459,1.578-0.172,2.114
			l-5.888,5.003C48.161,54.764,45.064,55.824,41.495,55.824z"/>
		<path id="path-8_20_" d="M55.655,37.412c0,0.843-0.683,1.527-1.527,1.527S52.6,38.255,52.6,37.412
			c0-0.844,0.684-1.528,1.528-1.528S55.655,36.568,55.655,37.412z"/>
		<path id="path-9_12_" d="M34.27,40.467c0,0.844-0.685,1.527-1.528,1.527c-0.844,0-1.528-0.683-1.528-1.527
			c0-0.844,0.684-1.528,1.528-1.528C33.585,38.939,34.27,39.623,34.27,40.467z"/>
		<path id="path-10_8_" d="M8.81,39.448c0,0.844-0.684,1.528-1.528,1.528c-0.844,0-1.528-0.684-1.528-1.528
			c0-0.843,0.684-1.527,1.528-1.527C8.126,37.921,8.81,38.605,8.81,39.448z"/>
		<path id="path-11_7_" d="M44.188,31.178c-0.135,0-0.271-0.019-0.408-0.057c-2.303-0.649-6.469-3.455-5.746-9.432
			c0.114-0.941,0.233-1.818,0.343-2.632c0.651-4.8,0.663-6.061-0.479-6.467c-0.781-0.277-1.19-1.134-0.912-1.915
			c0.277-0.781,1.136-1.19,1.915-0.912c3.591,1.275,3.112,4.807,2.449,9.697c-0.108,0.801-0.225,1.663-0.337,2.59
			c-0.599,4.948,3.41,6.135,3.581,6.183c0.797,0.225,1.261,1.054,1.037,1.851C45.444,30.745,44.843,31.178,44.188,31.178z"/>
		<path id="path-12_6_" d="M30.949,31.178c-0.135,0-0.272-0.019-0.408-0.057c-2.304-0.649-6.469-3.455-5.746-9.432
			c0.114-0.941,0.233-1.818,0.343-2.632c0.651-4.8,0.662-6.061-0.479-6.467c-0.781-0.277-1.189-1.135-0.912-1.915
			c0.277-0.781,1.135-1.19,1.915-0.912c3.591,1.275,3.112,4.807,2.449,9.696c-0.109,0.802-0.226,1.664-0.338,2.591
			c-0.598,4.948,3.411,6.135,3.582,6.183c0.797,0.225,1.261,1.054,1.037,1.851C32.205,30.745,31.604,31.178,30.949,31.178z"/>
	</g>
</g>
<g>
</g>
<g>
</g>
<g>
</g>
<g>
</g>
<g>
</g>
<g>
</g>
<g>
</g>
<g>
</g>
<g>
</g>
<g>
</g>
<g>
</g>
<g>
</g>
<g>
</g>
<g>
</g>
<g>
</g>
</svg>
