<?xml version="1.0" encoding="iso-8859-1"?>
<!-- Generator: Adobe Illustrator 19.1.0, SVG Export Plug-In . SVG Version: 6.00 Build 0)  -->
<svg version="1.1" id="Capa_1" xmlns="http://www.w3.org/2000/svg" xmlns:xlink="http://www.w3.org/1999/xlink" x="0px" y="0px"
	 viewBox="0 0 64.5 64.5" style="enable-background:new 0 0 64.5 64.5;" xml:space="preserve">
<g>
	<g id="group-62svg">
		<path id="path-1_57_" style="fill:#FFFFFF;" d="M27.226,14.66c-8.211,1.972-13.837,5.999-13.837,10.648
			c0,2.202,1.268,4.263,3.472,6.035C9.372,33.919,4.5,38.09,4.5,42.8c0,7.823,13.431,14.166,30,14.166s30-6.343,30-14.166
			c0-3.571-2.803-6.829-7.417-9.321c4.252-2.136,6.862-5.009,6.862-8.171c0-3.643-3.455-6.905-8.901-9.094l0,0"/>
		<path id="path-2_57_" d="M31.5,56.466C13.836,56.466,0,49.585,0,40.799c0-4.773,4.015-9.079,11.111-12.02
			c-1.461-1.696-2.222-3.556-2.222-5.472c0-5.247,5.743-9.886,14.987-12.105c0.804-0.193,1.616,0.303,1.809,1.108
			c0.193,0.805-0.303,1.615-1.109,1.808c-7.707,1.851-12.687,5.457-12.687,9.189c0,2.088,1.583,3.799,2.912,4.867
			c0.426,0.343,0.632,0.889,0.538,1.428c-0.094,0.538-0.474,0.982-0.99,1.16C7.242,33.206,3,36.958,3,40.799
			c0,6.866,13.051,12.667,28.5,12.667c15.448,0,28.5-5.801,28.5-12.667c0-2.851-2.355-5.692-6.63-8
			c-0.492-0.265-0.796-0.782-0.787-1.342c0.008-0.559,0.327-1.067,0.826-1.317c3.892-1.956,6.036-4.383,6.036-6.833
			c0-2.818-2.977-5.697-7.961-7.701c-0.768-0.309-1.141-1.183-0.832-1.951c0.31-0.769,1.184-1.14,1.951-0.832
			c6.255,2.514,9.842,6.335,9.842,10.484c0,3.042-1.903,5.898-5.416,8.208C60.9,34.163,63,37.399,63,40.799
			C63,49.585,49.163,56.466,31.5,56.466z"/>
		<path id="path-3_57_" style="fill:#EDC951;" d="M45.934,40.277c0,2.441-5.119,4.418-11.434,4.418s-11.434-1.977-11.434-4.418
			c0-2.439,7.198-6.496,13.513-6.496S45.934,37.838,45.934,40.277z"/>
		<path id="path-4_57_" style="fill:#EDC951;" d="M50.256,15.879c0,1.82-3.818,3.295-8.527,3.295c-4.71,0-8.528-1.475-8.528-3.295
			c0-1.819,5.369-4.845,10.078-4.845S50.256,14.06,50.256,15.879z"/>
		<path id="path-5_57_" d="M31.5,44.196c-6.428,0-12.935-2.033-12.935-5.919c0-3.966,8.735-7.997,15.014-7.997
			c7.083,0,10.855,4.645,10.855,7.997C44.434,42.163,37.927,44.196,31.5,44.196z M33.579,33.28c-6.01,0-11.811,3.828-12.015,5.022
			c0.001,0.822,3.483,2.894,9.936,2.894s9.934-2.072,9.934-2.919C41.434,36.807,39.174,33.28,33.579,33.28z"/>
		<path id="path-6_50_" d="M38.729,18.674c-4.83,0-10.028-1.501-10.028-4.794c0-3.209,6.63-6.346,11.578-6.346
			c5.531,0,8.477,3.686,8.477,6.346C48.756,17.173,43.558,18.674,38.729,18.674z M31.72,13.919c0.298,0.504,2.67,1.755,7.009,1.755
			c4.457,0,6.838-1.32,7.034-1.845c-0.007-0.934-1.583-3.295-5.484-3.295C36.294,10.534,32.251,12.895,31.72,13.919z"/>
		<path id="path-7_41_" d="M42.167,14.825h-5c-0.828,0-1.5-0.672-1.5-1.5s0.672-1.5,1.5-1.5h5c0.829,0,1.5,0.672,1.5,1.5
			S42.996,14.825,42.167,14.825z"/>
		<path id="path-8_35_" d="M35.167,38.825h-6c-0.828,0-1.5-0.672-1.5-1.5c0-0.828,0.672-1.5,1.5-1.5h6c0.829,0,1.5,0.672,1.5,1.5
			C36.667,38.153,35.996,38.825,35.167,38.825z"/>
	</g>
</g>
<g>
</g>
<g>
</g>
<g>
</g>
<g>
</g>
<g>
</g>
<g>
</g>
<g>
</g>
<g>
</g>
<g>
</g>
<g>
</g>
<g>
</g>
<g>
</g>
<g>
</g>
<g>
</g>
<g>
</g>
</svg>
