<?xml version="1.0" encoding="iso-8859-1"?>
<!-- Generator: Adobe Illustrator 19.1.0, SVG Export Plug-In . SVG Version: 6.00 Build 0)  -->
<svg version="1.1" id="Capa_1" xmlns="http://www.w3.org/2000/svg" xmlns:xlink="http://www.w3.org/1999/xlink" x="0px" y="0px"
	 viewBox="0 0 63.001 63.001" style="enable-background:new 0 0 63.001 63.001;" xml:space="preserve">
<g>
	<g id="group-9svg">
		<path id="path-1_87_" style="fill:#8B71B5;" d="M57.109,39.4c0,12.624-10.235,20.622-22.858,20.622
			c-12.624,0-22.858-7.998-22.858-20.622c0-12.623,10.234-25.093,22.858-25.093C46.874,14.307,57.109,26.777,57.109,39.4z"/>
		<path id="path-2_87_" style="fill:#E56A77;" d="M42.228,7.14c-3.42,0.587-4.972,2.663-4.972,2.663
			c0-1.075-3.444-6.303-3.444-6.303s-3.342,5.228-3.342,6.303c0,0-1.499-2.076-4.919-2.663c0,0,4.272,4.962,2.563,8.191
			c0,0,3.352-1.638,5.698-1.266c2.344-0.372,5.773,1.266,5.773,1.266C37.875,12.102,42.228,7.14,42.228,7.14z"/>
		<path id="path-3_87_" d="M30.25,59.522c-14.113,0-24.357-9.304-24.357-22.122c0-14.166,11.382-26.593,24.357-26.593
			c12.976,0,24.359,12.427,24.359,26.593C54.609,50.218,44.364,59.522,30.25,59.522z M30.25,13.807
			c-11.178,0-21.357,11.246-21.357,23.593c0,11.259,8.782,19.122,21.357,19.122S51.609,48.659,51.609,37.4
			C51.609,25.053,41.429,13.807,30.25,13.807z"/>
		<path id="path-4_87_" d="M24.114,14.831c-0.396,0-0.788-0.157-1.077-0.456c-0.452-0.466-0.552-1.171-0.249-1.745
			c0.998-1.886-1.441-5.423-2.375-6.513c-0.411-0.48-0.478-1.167-0.166-1.717c0.313-0.548,0.934-0.843,1.558-0.738
			c1.764,0.302,3.104,0.958,4.057,1.603c0.526-1.038,1.36-2.499,2.685-4.572C28.82,0.265,29.292,0.004,29.799,0
			c0.525,0,0.983,0.25,1.264,0.675c1.383,2.1,2.249,3.573,2.79,4.616c0.965-0.652,2.33-1.322,4.12-1.629
			c0.626-0.109,1.251,0.191,1.561,0.744c0.311,0.553,0.239,1.243-0.178,1.721c-1.196,1.371-3.366,4.764-2.446,6.503
			c0.302,0.572,0.203,1.272-0.244,1.739c-0.447,0.467-1.144,0.594-1.727,0.316c-0.765-0.363-3.264-1.393-4.895-1.139
			c-0.154,0.025-0.314,0.025-0.469,0c-1.631-0.259-4.063,0.771-4.802,1.133C24.563,14.782,24.337,14.831,24.114,14.831z
			 M30.556,10.51c1.059,0,2.188,0.239,3.158,0.524c0.066-0.7,0.241-1.395,0.48-2.06c-0.391,0.313-0.923,0.415-1.412,0.253
			c-0.58-0.193-0.981-0.716-1.023-1.319c-0.132-0.504-0.96-1.994-1.93-3.578c-0.939,1.585-1.74,3.072-1.863,3.57
			c-0.04,0.611-0.447,1.14-1.036,1.33c-0.487,0.158-1.016,0.054-1.402-0.259c0.231,0.661,0.401,1.353,0.463,2.048
			c1.178-0.347,2.616-0.605,3.819-0.468C30.049,10.524,30.299,10.51,30.556,10.51z"/>
		<path id="path-5_84_" d="M38.705,63.001c-0.188,0-0.38-0.036-0.565-0.112l-7.954-3.245l-7.816,3.242
			c-0.768,0.316-1.644-0.046-1.961-0.811c-0.317-0.765,0.046-1.642,0.811-1.96l8.386-3.479c0.366-0.151,0.775-0.153,1.141-0.003
			l8.526,3.479c0.767,0.313,1.135,1.188,0.822,1.955C39.858,62.648,39.297,63.001,38.705,63.001z"/>
		<path id="path-6_76_" d="M45.759,34.854c0,0.926-0.75,1.677-1.677,1.677c-0.926,0-1.676-0.751-1.676-1.677
			c0-0.926,0.75-1.677,1.676-1.677C45.009,33.177,45.759,33.928,45.759,34.854z"/>
		<path id="path-7_61_" d="M33.461,43.798c0,0.926-0.751,1.677-1.677,1.677c-0.926,0-1.677-0.751-1.677-1.677
			c0-0.926,0.751-1.677,1.677-1.677C32.709,42.121,33.461,42.872,33.461,43.798z"/>
		<path id="path-8_50_" d="M23.399,29.264c0,0.926-0.751,1.677-1.677,1.677c-0.927,0-1.677-0.751-1.677-1.677
			c0-0.927,0.75-1.678,1.677-1.678C22.647,27.586,23.399,28.337,23.399,29.264z"/>
		<path id="path-9_33_" d="M21.163,47.152c0,0.927-0.751,1.677-1.677,1.677s-1.677-0.75-1.677-1.677
			c0-0.926,0.751-1.677,1.677-1.677S21.163,46.226,21.163,47.152z"/>
	</g>
</g>
<g>
</g>
<g>
</g>
<g>
</g>
<g>
</g>
<g>
</g>
<g>
</g>
<g>
</g>
<g>
</g>
<g>
</g>
<g>
</g>
<g>
</g>
<g>
</g>
<g>
</g>
<g>
</g>
<g>
</g>
</svg>
