<?xml version="1.0" encoding="iso-8859-1"?>
<!-- Generator: Adobe Illustrator 19.1.0, SVG Export Plug-In . SVG Version: 6.00 Build 0)  -->
<svg version="1.1" id="Capa_1" xmlns="http://www.w3.org/2000/svg" xmlns:xlink="http://www.w3.org/1999/xlink" x="0px" y="0px"
	 viewBox="0 0 63.001 63.001" style="enable-background:new 0 0 63.001 63.001;" xml:space="preserve">
<g>
	<g id="group-6svg">
		<path id="path-1_54_" style="fill:#E56A77;" d="M27.442,34.939c0,3.302-2.677,5.979-5.979,5.979s-5.98-2.677-5.98-5.979
			c0-3.303,2.678-5.98,5.98-5.98S27.442,31.636,27.442,34.939z"/>
		<path id="path-2_54_" style="fill:#E56A77;" d="M39.731,34.939c0,3.302-2.677,5.979-5.979,5.979c-3.303,0-5.98-2.677-5.98-5.979
			c0-3.303,2.677-5.98,5.98-5.98C37.054,28.959,39.731,31.636,39.731,34.939z"/>
		<path id="path-3_54_" style="fill:#E56A77;" d="M52.019,34.939c0,3.302-2.677,5.979-5.979,5.979c-3.303,0-5.98-2.677-5.98-5.979
			c0-3.303,2.677-5.98,5.98-5.98C49.342,28.959,52.019,31.636,52.019,34.939z"/>
		<path id="path-4_54_" style="fill:#E56A77;" d="M33.586,45.691c0,3.302-2.676,5.979-5.979,5.979c-3.302,0-5.979-2.677-5.979-5.979
			c0-3.302,2.677-5.98,5.979-5.98C30.91,39.711,33.586,42.389,33.586,45.691z"/>
		<path id="path-5_54_" style="fill:#E56A77;" d="M45.875,45.691c0,3.302-2.677,5.979-5.979,5.979c-3.303,0-5.98-2.677-5.98-5.979
			c0-3.302,2.677-5.98,5.98-5.98C43.198,39.711,45.875,42.389,45.875,45.691z"/>
		<path id="path-6_48_" style="fill:#E56A77;" d="M33.586,22.947c0,3.303-2.676,5.98-5.979,5.98c-3.302,0-5.979-2.677-5.979-5.98
			c0-3.302,2.677-5.979,5.979-5.979C30.91,16.968,33.586,19.645,33.586,22.947z"/>
		<path id="path-7_39_" style="fill:#E56A77;" d="M45.875,22.947c0,3.303-2.677,5.98-5.979,5.98c-3.303,0-5.98-2.677-5.98-5.98
			c0-3.302,2.677-5.979,5.98-5.979C43.198,16.968,45.875,19.645,45.875,22.947z"/>
		<path id="path-8_33_" style="fill:#E56A77;" d="M39.377,56.521c0,3.303-2.677,5.98-5.98,5.98c-3.302,0-5.979-2.677-5.979-5.98
			c0-3.302,2.677-5.979,5.979-5.979C36.7,50.542,39.377,53.219,39.377,56.521z"/>
		<path id="path-9_22_" d="M18.463,41.418c-4.124,0-7.48-3.355-7.48-7.479c0-4.124,3.356-7.48,7.48-7.48s7.479,3.356,7.479,7.48
			C25.942,38.063,22.587,41.418,18.463,41.418z M18.463,29.459c-2.47,0-4.48,2.009-4.48,4.48c0,2.47,2.01,4.479,4.48,4.479
			s4.479-2.009,4.479-4.479C22.942,31.468,20.933,29.459,18.463,29.459z"/>
		<path id="path-10_17_" d="M30.751,41.418c-4.124,0-7.479-3.355-7.479-7.479c0-4.124,3.355-7.48,7.479-7.48
			c4.125,0,7.48,3.356,7.48,7.48C38.231,38.063,34.876,41.418,30.751,41.418z M30.751,29.459c-2.47,0-4.479,2.009-4.479,4.48
			c0,2.47,2.009,4.479,4.479,4.479c2.471,0,4.48-2.009,4.48-4.479C35.231,31.468,33.222,29.459,30.751,29.459z"/>
		<path id="path-11_15_" d="M43.04,41.418c-4.124,0-7.48-3.355-7.48-7.479c0-4.124,3.356-7.48,7.48-7.48s7.479,3.356,7.479,7.48
			C50.519,38.063,47.164,41.418,43.04,41.418z M43.04,29.459c-2.471,0-4.48,2.009-4.48,4.48c0,2.47,2.009,4.479,4.48,4.479
			c2.47,0,4.479-2.009,4.479-4.479C47.519,31.468,45.51,29.459,43.04,29.459z"/>
		<path id="path-12_14_" d="M24.607,52.17c-4.124,0-7.479-3.355-7.479-7.479s3.355-7.48,7.479-7.48s7.48,3.356,7.48,7.48
			S28.731,52.17,24.607,52.17z M24.607,40.212c-2.47,0-4.479,2.009-4.479,4.479c0,2.47,2.009,4.479,4.479,4.479
			s4.479-2.009,4.479-4.479C29.086,42.221,27.077,40.212,24.607,40.212z"/>
		<path id="path-13_11_" d="M36.896,52.17c-4.124,0-7.48-3.355-7.48-7.479s3.356-7.48,7.48-7.48s7.479,3.356,7.479,7.48
			S41.02,52.17,36.896,52.17z M36.896,40.212c-2.471,0-4.48,2.009-4.48,4.479c0,2.47,2.009,4.479,4.48,4.479
			c2.47,0,4.479-2.009,4.479-4.479C41.375,42.221,39.366,40.212,36.896,40.212z"/>
		<path id="path-14_7_" d="M24.607,29.427c-4.124,0-7.479-3.356-7.479-7.48s3.355-7.479,7.479-7.479s7.48,3.355,7.48,7.479
			S28.731,29.427,24.607,29.427z M24.607,17.468c-2.47,0-4.479,2.009-4.479,4.479s2.009,4.48,4.479,4.48s4.479-2.01,4.479-4.48
			S27.077,17.468,24.607,17.468z"/>
		<path id="path-15_6_" d="M36.896,29.427c-4.124,0-7.48-3.356-7.48-7.48s3.356-7.479,7.48-7.479s7.479,3.355,7.479,7.479
			S41.02,29.427,36.896,29.427z M36.896,17.468c-2.471,0-4.48,2.009-4.48,4.479s2.009,4.48,4.48,4.48c2.47,0,4.479-2.01,4.479-4.48
			S39.366,17.468,36.896,17.468z"/>
		<path id="path-16_5_" d="M30.398,63.001c-4.125,0-7.48-3.356-7.48-7.48s3.355-7.479,7.48-7.479c4.124,0,7.479,3.355,7.479,7.479
			S34.522,63.001,30.398,63.001z M30.398,51.042c-2.471,0-4.48,2.009-4.48,4.479c0,2.47,2.009,4.48,4.48,4.48
			c2.47,0,4.479-2.01,4.479-4.48C34.877,53.051,32.868,51.042,30.398,51.042z"/>
		<path id="path-17_5_" d="M30.915,23.448c-0.692,0-1.314-0.482-1.465-1.185c-0.168-0.781-3.989-19.158,7.046-22.208
			c0.796-0.222,1.625,0.247,1.845,1.046c0.221,0.798-0.247,1.625-1.046,1.845c-8.336,2.304-4.948,18.522-4.913,18.686
			c0.175,0.809-0.34,1.607-1.15,1.782C31.126,23.437,31.019,23.448,30.915,23.448z"/>
	</g>
</g>
<g>
</g>
<g>
</g>
<g>
</g>
<g>
</g>
<g>
</g>
<g>
</g>
<g>
</g>
<g>
</g>
<g>
</g>
<g>
</g>
<g>
</g>
<g>
</g>
<g>
</g>
<g>
</g>
<g>
</g>
</svg>
