<?xml version="1.0" encoding="iso-8859-1"?>
<!-- Generator: Adobe Illustrator 19.1.0, SVG Export Plug-In . SVG Version: 6.00 Build 0)  -->
<svg version="1.1" id="Capa_1" xmlns="http://www.w3.org/2000/svg" xmlns:xlink="http://www.w3.org/1999/xlink" x="0px" y="0px"
	 viewBox="0 0 63.698 63.698" style="enable-background:new 0 0 63.698 63.698;" xml:space="preserve">
<g>
	<g id="group-53svg">
		<path id="path-1_47_" style="fill:#FF917B;" d="M9.762,53.698h49.674c1.255,0,2.132,1.249,1.711,2.431l-2.692,7.569H11.714
			l-3.585-7.384C7.543,55.108,8.422,53.698,9.762,53.698z"/>
		<path id="path-2_47_" style="fill:#E56A77;" d="M17.469,46.698h25.25c0.464,0,2.798-0.772,3.203-1
			c1.128-0.633,1.836-1.216,5.616-4.313c0.94-0.771,2.275-0.785,3.282-0.106l1.076,1.099c1.143,0.771,2.082,0.599,3.082-0.436v0.002
			c1-0.987,1.424-2.449,0.62-3.488l-0.487-0.958c-0.339-0.438-0.411-0.969-0.442-1.523l-0.183-4.543
			c-0.083-1.451-1.22-2.734-2.674-2.734h-0.67c-0.984,0-1.893,0.675-2.381,1.53l-1.598,2.875c-0.832,1.46-2.771,1.871-4.087,0.825
			L27.263,18.197c-1.875-1.49-4.433-1.807-6.604-0.794c-6.199,2.892-17.074,10.284-8.861,26.041
			C12.904,45.566,15.077,46.698,17.469,46.698z"/>
		<path id="path-3_47_" style="fill:#99746A;" d="M25.229,34.167c-1.543,5.313-4.886,9.013-7.467,8.263
			c-2.58-0.749-5.007-6.457-3.464-11.77s6.472-8.219,9.052-7.47C25.93,23.94,26.772,28.854,25.229,34.167z"/>
		<path id="path-4_47_" d="M38.719,45.698h-25.25c-3.231,0-5.717-1.355-7.001-3.818c-3.139-6.022-3.916-11.478-2.31-16.217
			c1.63-4.807,5.623-8.722,11.867-11.635c2.641-1.231,5.896-0.845,8.171,0.964l19.812,15.697c0.566,0.45,1.479,0.199,1.852-0.454
			l1.578-2.962c0.72-1.265,2.055-2.575,3.704-2.575h0.67c2.366,0,4.083,2.275,4.202,4.4l0.216,4.809
			c0.017,0.303,0.08,0.529,0.192,0.673c0.028,0.036,0.054,0.073,0.078,0.111l0.58,0.907c1.215,1.632,0.99,3.897-0.549,5.414
			c-1.445,1.493-3.496,1.745-5.224,0.577c-0.046-0.03-0.091-0.064-0.133-0.1l-1.253-1.067c-0.476-0.293-1.066-0.302-1.432-0.003
			c-3.784,3.1-4.565,3.626-5.834,4.338C41.988,45.131,39.374,45.698,38.719,45.698z M19.331,16.295
			c-0.709,0-1.394,0.152-2.037,0.452C11.82,19.3,8.357,22.624,7,26.627c-1.334,3.933-0.618,8.599,2.128,13.866
			c0.95,1.823,2.885,2.205,4.341,2.205h25.227c0.415-0.033,2.167-0.426,2.556-0.59c0.964-0.544,1.576-0.929,5.336-4.009
			c1.393-1.141,3.503-1.184,5.071-0.125c0.046,0.031,0.09,0.064,0.133,0.101l1.254,1.068c0.506,0.316,0.88,0.246,1.354-0.243
			c0.492-0.487,0.589-1.103,0.261-1.526c-0.027-0.036-0.053-0.072-0.077-0.111l-0.58-0.908c-0.46-0.621-0.719-1.393-0.77-2.295
			l-0.216-4.81c-0.042-0.745-0.662-1.552-1.206-1.552h-0.67c-0.172,0-0.695,0.352-1.078,1.023l-1.577,2.962
			c-0.797,1.4-2.242,2.246-3.791,2.246c-0.938,0.001-1.82-0.308-2.553-0.89L22.331,17.342
			C21.481,16.666,20.416,16.295,19.331,16.295z"/>
		<path id="path-5_47_" d="M14.448,42.027c-0.376,0-0.748-0.053-1.104-0.157c-3.433-0.996-6.234-7.613-4.486-13.628
			c1.762-6.072,7.504-9.48,10.911-8.492c3.485,1.012,4.731,6.53,2.9,12.836C21.055,38.144,17.674,42.027,14.448,42.027z
			 M18.472,22.573c-1.98,0-5.517,2.317-6.734,6.506c-1.423,4.902,0.979,9.486,2.443,9.91c0.085,0.026,0.173,0.038,0.267,0.038
			c1.353,0,3.961-2.53,5.34-7.278c1.45-4.993,0.462-8.736-0.856-9.118C18.801,22.593,18.647,22.573,18.472,22.573z"/>
		<path id="path-6_41_" d="M54.455,62.698H7.714c-0.575,0-1.099-0.328-1.35-0.844l-3.585-7.385
			c-0.502-1.036-0.438-2.237,0.174-3.214c0.611-0.975,1.661-1.557,2.81-1.557h49.673c1.075,0,2.087,0.526,2.708,1.405
			c0.622,0.882,0.777,2.013,0.416,3.029L55.868,61.7C55.655,62.299,55.09,62.698,54.455,62.698z M8.653,59.698h44.743l2.338-6.572
			c0.045-0.13,0.002-0.23-0.041-0.293c-0.044-0.061-0.124-0.135-0.257-0.135H5.763c-0.144,0-0.225,0.081-0.267,0.149
			c-0.043,0.07-0.082,0.18-0.018,0.311L8.653,59.698z"/>
		<path id="path-7_33_" d="M39.721,45.654c-0.544,0-1.067-0.295-1.334-0.811c-0.38-0.735-0.092-1.641,0.643-2.022
			c5.64-2.915,4.15-9.87,4.135-9.94c-0.182-0.808,0.326-1.61,1.135-1.792c0.806-0.182,1.61,0.327,1.791,1.135
			c0.719,3.199,0.457,10.089-5.683,13.263C40.188,45.601,39.953,45.654,39.721,45.654z"/>
		<path id="path-8_28_" d="M49.978,57.698h-17c-0.828,0-1.5-0.671-1.5-1.5c0-0.828,0.672-1.5,1.5-1.5h17c0.829,0,1.5,0.672,1.5,1.5
			C51.478,57.027,50.807,57.698,49.978,57.698z"/>
		<path id="path-9_19_" d="M41.081,23.417c-0.131,0-0.264-0.017-0.397-0.054c-0.162-0.044-4-1.127-5.407-4.334
			c-0.835-1.904-0.644-4.06,0.569-6.407c2.88-5.572-0.851-9.945-1.011-10.129c-0.543-0.621-0.484-1.568,0.135-2.114
			c0.62-0.546,1.561-0.492,2.11,0.125c0.218,0.244,5.275,6.059,1.431,13.495c-0.776,1.504-0.941,2.79-0.487,3.825
			c0.825,1.881,3.426,2.639,3.452,2.646c0.799,0.219,1.27,1.043,1.051,1.843C42.345,22.979,41.74,23.417,41.081,23.417z"/>
		<path id="path-10_15_" d="M48.279,23.417c-0.132,0-0.265-0.017-0.397-0.054c-0.163-0.044-4.001-1.127-5.408-4.334
			c-0.835-1.904-0.644-4.06,0.57-6.407c2.906-5.625-0.968-10.079-1.007-10.123c-0.551-0.619-0.496-1.567,0.122-2.118
			c0.619-0.552,1.567-0.497,2.118,0.123c0.217,0.244,5.274,6.059,1.432,13.495c-0.777,1.504-0.941,2.79-0.488,3.825
			c0.826,1.881,3.426,2.639,3.453,2.646c0.798,0.219,1.269,1.043,1.05,1.843C49.542,22.979,48.938,23.417,48.279,23.417z"/>
	</g>
</g>
<g>
</g>
<g>
</g>
<g>
</g>
<g>
</g>
<g>
</g>
<g>
</g>
<g>
</g>
<g>
</g>
<g>
</g>
<g>
</g>
<g>
</g>
<g>
</g>
<g>
</g>
<g>
</g>
<g>
</g>
</svg>
