<?xml version="1.0" encoding="iso-8859-1"?>
<!-- Generator: Adobe Illustrator 19.1.0, SVG Export Plug-In . SVG Version: 6.00 Build 0)  -->
<svg version="1.1" id="Capa_1" xmlns="http://www.w3.org/2000/svg" xmlns:xlink="http://www.w3.org/1999/xlink" x="0px" y="0px"
	 viewBox="0 0 65.689 65.689" style="enable-background:new 0 0 65.689 65.689;" xml:space="preserve">
<g>
	<g id="group-54svg">
		<path id="path-1_48_" style="fill:#E56A77;" d="M19.54,55.606c0,0-26.543-10.618-6.636-24.552
			c19.907-13.935,30.524,8.626,30.524,8.626s9.108,28.434-5.309,24.552C32.047,62.596,19.54,55.606,19.54,55.606z"/>
		<path id="path-2_48_" style="fill:#E56A77;" d="M43.282,40.643c29.293-13.311,21.454-22.792,21.454-22.792s0-19.937-26.775-10.909
			C11.186,15.971,16.409,28.76,16.409,28.76l0,0"/>
		<path id="path-3_48_" style="fill:#EDC951;" d="M21.828,50.776c0,0-18.156-7.263-4.539-16.796
			c13.618-9.532,20.88,5.901,20.88,5.901s6.23,19.451-3.631,16.795C30.384,55.558,21.828,50.776,21.828,50.776z"/>
		<path id="path-4_48_" style="fill:#E56A77;" d="M24,47.334c0,0-9.07-3.629-2.268-8.39c6.803-4.762,10.431,2.948,10.431,2.948
			s3.112,9.717-1.814,8.389C28.274,49.723,24,47.334,24,47.334z"/>
		<path id="path-5_48_" d="M27.198,49.906c-0.389,0-0.805-0.058-1.239-0.175c-2.095-0.566-5.883-2.639-6.61-3.043
			c-0.855-0.356-5.232-2.334-5.62-5.68c-0.219-1.899,0.838-3.68,3.143-5.293c1.729-1.21,3.458-1.824,5.14-1.824
			c4.929,0,7.405,5.143,7.508,5.362c0.028,0.059,0.052,0.12,0.072,0.181c0.493,1.543,1.967,6.764,0.195,9.194
			C29.185,49.452,28.266,49.906,27.198,49.906z M22.012,36.891c-1.054,0-2.204,0.431-3.419,1.282
			c-0.75,0.524-1.992,1.546-1.883,2.491c0.158,1.364,2.708,2.821,3.847,3.277c0.06,0.024,0.118,0.051,0.175,0.083
			c1.144,0.64,4.454,2.391,6.007,2.81c0.494,0.133,0.599,0.055,0.599,0.055c0.533-0.395,0.371-3.424-0.57-6.432
			C26.5,39.944,24.786,36.891,22.012,36.891z"/>
		<path id="path-6_42_" d="M32.238,56.425c-0.646,0-1.349-0.102-2.09-0.301c-4.113-1.107-12.028-5.471-12.971-5.995
			C16.114,49.69,7.461,45.93,6.769,39.944c-0.371-3.211,1.533-6.304,5.66-9.193c3.203-2.242,6.375-3.379,9.426-3.379
			c8.925,0,13.482,9.468,13.672,9.87c0.027,0.06,0.051,0.119,0.071,0.182c0.407,1.272,3.887,12.565,0.607,17.059
			C35.278,55.753,33.906,56.425,32.238,56.425z M21.855,30.372c-2.423,0-5.016,0.954-7.706,2.837c-3.154,2.208-4.634,4.357-4.4,6.39
			c0.431,3.723,6.38,6.882,8.636,7.784c0.06,0.023,0.118,0.051,0.175,0.082c0.084,0.047,8.441,4.705,12.368,5.763
			c0.487,0.131,0.927,0.197,1.31,0.197c0.909,0,1.303-0.38,1.544-0.71c1.789-2.451,0.342-10.005-1.008-14.272
			C32.355,37.614,28.495,30.372,21.855,30.372z"/>
		<path id="path-7_34_" d="M36.603,64.096c-0.882,0-1.849-0.14-2.874-0.416c-5.988-1.612-17.648-8.057-18.839-8.719
			C13.574,54.42,1.038,49.059,0.061,40.614c-0.511-4.42,2.175-8.723,7.983-12.789c4.564-3.195,9.067-4.815,13.382-4.815
			c12.613,0,19.09,13.459,19.359,14.031c0.027,0.06,0.051,0.119,0.071,0.182c0.585,1.826,5.581,18.025,0.989,24.318
			C40.625,63.213,38.813,64.096,36.603,64.096z M21.426,26.01c-3.688,0-7.611,1.437-11.661,4.273
			c-4.836,3.385-7.098,6.744-6.724,9.988c0.669,5.78,9.651,10.581,13.056,11.942c0.06,0.023,0.118,0.052,0.175,0.083
			c0.123,0.069,12.414,6.919,18.237,8.487c2.343,0.631,3.93,0.334,4.912-1.009c3.113-4.264,0.083-16.885-1.389-21.534
			C37.501,37.18,31.664,26.01,21.426,26.01z"/>
		<path id="path-8_29_" d="M39.283,40.144c-0.571,0-1.116-0.327-1.367-0.88c-0.343-0.754-0.009-1.644,0.745-1.986
			c16.83-7.648,20.594-13.782,21.34-16.757c0.59-2.355-0.396-3.68-0.438-3.735c-0.2-0.261-0.327-0.605-0.327-0.935
			c0-0.056-0.09-6.145-4.767-9.483C50.202,3.323,43.463,3.321,34.44,6.364c-13.348,4.501-18.215,9.843-19.948,13.532
			c-1.694,3.606-0.731,6.202-0.689,6.311c0.295,0.767-0.08,1.637-0.845,1.94c-0.764,0.301-1.627-0.059-1.938-0.82
			c-0.062-0.152-1.497-3.781,0.692-8.569C14.546,12.564,21.87,7.437,33.481,3.521c10.01-3.374,17.667-3.231,22.763,0.428
			c5.117,3.675,5.865,9.65,5.974,11.41c0.659,1.083,1.332,3.127,0.737,5.71c-1.448,6.274-9.204,12.646-23.053,18.94
			C39.701,40.1,39.49,40.144,39.283,40.144z"/>
		<path id="path-9_20_" d="M47.275,36.114c-0.163,0-0.329-0.026-0.492-0.083c-0.783-0.272-1.197-1.127-0.924-1.909
			c1.23-3.537-1.049-7.869-1.072-7.912c-0.033-0.061-0.062-0.124-0.087-0.189C39.868,13.23,17.816,15.154,17.592,15.174
			c-0.816,0.086-1.556-0.527-1.634-1.353c-0.078-0.824,0.528-1.556,1.353-1.633c0.997-0.096,24.468-2.128,30.162,12.683
			c0.404,0.78,2.796,5.701,1.219,10.236C48.476,35.727,47.896,36.114,47.275,36.114z"/>
	</g>
</g>
<g>
</g>
<g>
</g>
<g>
</g>
<g>
</g>
<g>
</g>
<g>
</g>
<g>
</g>
<g>
</g>
<g>
</g>
<g>
</g>
<g>
</g>
<g>
</g>
<g>
</g>
<g>
</g>
<g>
</g>
</svg>
