<?xml version="1.0" encoding="iso-8859-1"?>
<!-- Generator: Adobe Illustrator 19.1.0, SVG Export Plug-In . SVG Version: 6.00 Build 0)  -->
<svg version="1.1" id="Capa_1" xmlns="http://www.w3.org/2000/svg" xmlns:xlink="http://www.w3.org/1999/xlink" x="0px" y="0px"
	 viewBox="0 0 63 63" style="enable-background:new 0 0 63 63;" xml:space="preserve">
<g>
	<g id="group-20svg">
		<path id="path-1_11_" style="fill:#81BDA4;" d="M50.777,37.71c0,11.726-6.356,24.79-16.527,24.79S17.723,50.066,17.723,37.71
			s6.356-18.18,16.527-18.18S50.777,25.983,50.777,37.71z"/>
		<path id="path-2_11_" style="fill:#EDC951;" d="M36.621,17.31c0,0,2.017-8.654,10.779-3.351c0,0-6.975,1.41-6.975,5.41h-3.689
			L36.621,17.31z"/>
		<path id="path-3_11_" style="fill:#EDC951;" d="M38.948,12.812c0,0-2.558-10.127-14.778-5.977c0,0,10.837,4.612,10.837,11.528
			L38.948,12.812z"/>
		<path id="path-4_11_" style="fill:#EDC951;" d="M32.585,12.733c0,0-3.573-0.752-7.377,2.209c0,0,4.035,0.655,4.957,2.845
			l4.842,0.576C35.007,18.363,34.456,14.565,32.585,12.733z"/>
		<path id="path-5_11_" style="fill:#EDC951;" d="M35.007,7.377c0,0,2.767-6.306,13.257-4.576c0,0-8.6,3.779-10.294,7.769
			C37.97,10.57,36.275,7.343,35.007,7.377z"/>
		<path id="path-6_10_" d="M36.425,19.369h-3.689c-0.791,0-1.447-0.615-1.497-1.405l-0.115-1.809
			c-0.009-0.144,0.003-0.29,0.035-0.431c0.504-2.194,2.653-6.343,7.173-6.343c1.774,0,3.741,0.646,5.845,1.92
			c0.532,0.322,0.81,0.94,0.698,1.553s-0.591,1.092-1.203,1.205c-1.49,0.279-5.747,1.578-5.747,3.81
			C37.925,18.698,37.254,19.369,36.425,19.369z M34.144,16.369h1.018c0.61-1.849,2.303-3.103,3.974-3.921
			c-0.278-0.044-0.546-0.067-0.804-0.067c-2.876,0-3.964,3.04-4.198,3.83L34.144,16.369z"/>
		<path id="path-7_6_" d="M31.007,18.864c-0.152,0-0.306-0.023-0.456-0.071c-0.622-0.198-1.044-0.777-1.044-1.429
			c0-4.861-7.164-8.974-9.924-10.148c-0.572-0.244-0.935-0.815-0.912-1.437c0.024-0.621,0.428-1.164,1.017-1.364
			c2.107-0.716,4.096-1.078,5.913-1.078c6.923,0,10.093,5.303,10.801,8.108c0.108,0.426,0.024,0.878-0.231,1.235l-3.941,5.552
			C31.943,18.636,31.483,18.864,31.007,18.864z M24.416,6.398c2.576,1.597,5.814,4.124,7.29,7.389l1.579-2.223
			c-0.591-1.508-2.568-5.227-7.684-5.227C25.218,6.337,24.822,6.357,24.416,6.398z"/>
		<path id="path-8_5_" d="M31.007,18.864c-0.059,0-0.119-0.004-0.178-0.011l-4.841-0.576c-0.536-0.064-0.996-0.41-1.205-0.908
			c-0.45-1.065-2.809-1.783-3.815-1.947c-0.59-0.096-1.066-0.531-1.213-1.109c-0.148-0.578,0.061-1.189,0.531-1.555
			c2.918-2.271,5.77-2.61,7.21-2.61c0.799,0,1.305,0.098,1.398,0.117c0.28,0.059,0.537,0.197,0.741,0.396
			c2.17,2.125,2.793,6.047,2.856,6.487c0.067,0.462-0.084,0.928-0.41,1.262C31.797,18.702,31.408,18.864,31.007,18.864z
			 M27.083,15.386l1.964,0.234c-0.277-0.859-0.672-1.789-1.198-2.462c-0.559-0.034-1.623-0.014-2.952,0.446
			C25.722,14.035,26.523,14.615,27.083,15.386z"/>
		<path id="path-9_3_" d="M33.969,11.069c-0.555,0-1.066-0.307-1.327-0.801c-0.542-1.027-1.379-2.154-1.775-2.4
			c-0.446-0.047-0.858-0.292-1.106-0.67c-0.277-0.425-0.332-0.96-0.128-1.424C29.737,5.539,32.265,0,40.798,0
			c1.173,0,2.422,0.108,3.711,0.321c0.654,0.108,1.16,0.633,1.243,1.292c0.084,0.658-0.276,1.293-0.884,1.561
			c-3.116,1.372-8.455,4.481-9.518,6.982c-0.226,0.533-0.739,0.888-1.318,0.912C34.011,11.069,33.99,11.069,33.969,11.069z
			 M33.144,5.886c0.309,0.284,0.598,0.608,0.862,0.948c1.22-1.381,2.902-2.635,4.525-3.662C35.635,3.634,33.99,4.933,33.144,5.886z"
			/>
		<path id="path-10_1_" d="M30.25,63c-11.284,0-18.027-13.367-18.027-26.29c0-12.691,6.402-19.68,18.027-19.68
			c11.288,0,18.027,7.357,18.027,19.68C48.277,49.353,41.385,63,30.25,63z M30.25,20.03c-9.831,0-15.027,5.768-15.027,16.68
			C15.223,47.911,20.968,60,30.25,60c8.989,0,15.027-12.043,15.027-23.29C45.277,26.11,39.8,20.03,30.25,20.03z"/>
		<path id="path-11_1_" d="M40.953,40.177c-0.407,0-0.814-0.166-1.11-0.491l-2.09-2.299l-2.35,2.351
			c-0.586,0.586-1.536,0.586-2.121,0c-0.586-0.586-0.586-1.536,0-2.121l3.462-3.463c0.291-0.29,0.68-0.464,1.097-0.439
			c0.41,0.01,0.798,0.187,1.074,0.49l3.148,3.463c0.557,0.613,0.512,1.562-0.101,2.119C41.675,40.048,41.313,40.177,40.953,40.177z"
			/>
		<path id="path-12_1_" d="M25.843,40.177c-0.408,0-0.814-0.166-1.11-0.491l-2.09-2.299l-2.351,2.351
			c-0.586,0.586-1.536,0.586-2.121,0c-0.586-0.586-0.586-1.536,0-2.121l3.463-3.463c0.29-0.29,0.684-0.464,1.096-0.439
			c0.41,0.01,0.799,0.187,1.074,0.49l3.148,3.463c0.558,0.613,0.513,1.562-0.1,2.119C26.564,40.048,26.203,40.177,25.843,40.177z"/>
		<path id="path-13_1_" d="M33.398,44.899c-0.408,0-0.814-0.165-1.11-0.491l-2.09-2.299l-2.351,2.351
			c-0.585,0.586-1.535,0.586-2.121,0s-0.586-1.536,0-2.121l3.463-3.463c0.29-0.29,0.682-0.464,1.096-0.439
			c0.411,0.01,0.799,0.187,1.075,0.491l3.148,3.462c0.557,0.613,0.512,1.562-0.101,2.119C34.119,44.77,33.758,44.899,33.398,44.899z
			"/>
		<path id="path-14_1_" d="M40.953,29.789c-0.408,0-0.814-0.166-1.11-0.491l-2.09-2.299l-2.35,2.35
			c-0.586,0.586-1.535,0.586-2.121,0c-0.586-0.585-0.586-1.535,0-2.121l3.462-3.463c0.291-0.29,0.68-0.458,1.097-0.439
			c0.41,0.01,0.798,0.187,1.074,0.491l3.148,3.463c0.557,0.613,0.512,1.562-0.101,2.119C41.675,29.66,41.313,29.789,40.953,29.789z"
			/>
		<path id="path-15_1_" d="M25.843,29.789c-0.408,0-0.814-0.166-1.11-0.491l-2.09-2.299l-2.351,2.35
			c-0.586,0.586-1.535,0.586-2.121,0c-0.586-0.585-0.586-1.535,0-2.121l3.463-3.463c0.29-0.29,0.684-0.458,1.096-0.439
			c0.41,0.01,0.799,0.187,1.074,0.491l3.148,3.463c0.558,0.613,0.513,1.562-0.101,2.119C26.564,29.66,26.203,29.789,25.843,29.789z"
			/>
		<path id="path-16_1_" d="M33.398,34.511c-0.408,0-0.814-0.166-1.11-0.491l-2.09-2.299l-2.351,2.351
			c-0.585,0.585-1.535,0.585-2.121,0c-0.586-0.586-0.586-1.536,0-2.122l3.463-3.462c0.29-0.29,0.682-0.458,1.096-0.439
			c0.411,0.009,0.799,0.187,1.075,0.49l3.148,3.463c0.557,0.613,0.512,1.562-0.101,2.119C34.119,34.382,33.758,34.511,33.398,34.511
			z"/>
		<path id="path-17_1_" d="M40.953,50.566c-0.408,0-0.814-0.166-1.11-0.491l-2.09-2.299l-2.35,2.35
			c-0.586,0.586-1.535,0.586-2.121,0c-0.586-0.585-0.586-1.535,0-2.121l3.462-3.463c0.291-0.29,0.68-0.452,1.097-0.439
			c0.41,0.01,0.798,0.187,1.074,0.491l3.148,3.463c0.557,0.613,0.512,1.561-0.101,2.119C41.675,50.437,41.313,50.566,40.953,50.566z
			"/>
		<path id="path-18" d="M25.843,50.566c-0.408,0-0.814-0.166-1.11-0.491l-2.09-2.299l-2.351,2.35c-0.586,0.586-1.535,0.586-2.121,0
			c-0.586-0.585-0.586-1.535,0-2.121l3.463-3.463c0.29-0.29,0.684-0.452,1.096-0.439c0.41,0.01,0.799,0.187,1.074,0.491l3.148,3.463
			c0.558,0.613,0.513,1.561-0.101,2.119C26.564,50.437,26.203,50.566,25.843,50.566z"/>
		<path id="path-19" d="M33.398,55.287c-0.408,0-0.814-0.165-1.11-0.49l-2.09-2.299l-2.351,2.35c-0.585,0.586-1.536,0.586-2.121,0
			c-0.586-0.586-0.586-1.536,0-2.121l3.463-3.463c0.29-0.29,0.682-0.452,1.096-0.438c0.411,0.009,0.799,0.186,1.075,0.49
			l3.148,3.462c0.557,0.613,0.512,1.562-0.101,2.119C34.119,55.159,33.758,55.287,33.398,55.287z"/>
	</g>
</g>
<g>
</g>
<g>
</g>
<g>
</g>
<g>
</g>
<g>
</g>
<g>
</g>
<g>
</g>
<g>
</g>
<g>
</g>
<g>
</g>
<g>
</g>
<g>
</g>
<g>
</g>
<g>
</g>
<g>
</g>
</svg>
