<?xml version="1.0" encoding="iso-8859-1"?>
<!-- Generator: Adobe Illustrator 19.1.0, SVG Export Plug-In . SVG Version: 6.00 Build 0)  -->
<svg version="1.1" id="Capa_1" xmlns="http://www.w3.org/2000/svg" xmlns:xlink="http://www.w3.org/1999/xlink" x="0px" y="0px"
	 viewBox="0 0 66 66" style="enable-background:new 0 0 66 66;" xml:space="preserve">
<g>
	<g id="group-45svg">
		<path id="path-1_38_" style="fill:#EDC951;" d="M19.717,23.5h35.156c3.569,0,5.127,2.665,5.127,6.234v-0.028
			c0,1.109,0.455,1.794-0.654,1.794h-44.54C14.045,31.5,12,31.294,12,30.533v-0.829C12,26.243,16.255,23.5,19.717,23.5z"/>
		<path id="path-2_38_" style="fill:#EDC951;" d="M55.042,47.5H20.985C17.251,47.5,14,44.854,14,41.12v0.24
			c0-1.004,1.018-1.86,2.022-1.86h43.982c0.99,0-0.004,0.603-0.004,1.593v0.055C60,44.867,58.761,47.5,55.042,47.5z"/>
		<path id="path-3_38_" style="fill:#E56A77;" d="M66,35.5c0-2.209-1.791-4-4-4H10c-2.209,0-4,1.791-4,4l0,0c0,2.209,1.791,4,4,4h52
			C64.209,39.5,66,37.709,66,35.5L66,35.5z"/>
		<path id="path-4_38_" d="M8.557,29.556C6.123,29.556,6,27.871,6,27.533v-0.828c0-4.141,4.318-8.205,8.717-8.205h35.156
			c4.115,0,7.108,3.442,7.127,8.19c0,0.005,0,0.011,0,0.016c0,0.003,0,0.006,0,0.009s0,0.006,0,0.009
			c-0.001,1.442-0.323,2.776-2.654,2.776H9.806c-0.127,0-0.28,0.011-0.444,0.022C9.102,29.539,8.822,29.556,8.557,29.556z
			 M14.717,21.5c-2.718,0-5.589,2.56-5.713,5.038c0.056-0.003,0.11-0.006,0.164-0.01C9.403,26.513,9.623,26.5,9.806,26.5h44.191
			c-0.078-2.449-1.376-5-4.124-5H14.717z"/>
		<path id="path-5_38_" d="M50.042,45.5H15.985c-4.606,0-7.782-2.791-7.976-6.971C8.003,38.474,8,38.417,8,38.36v-0.24
			c0-0.13,0.017-0.256,0.048-0.376c0.229-1.685,1.273-3.244,2.974-3.244h43.982c0.834,0,1.333,0.368,1.605,0.677
			c0.648,0.736,0.531,1.653,0.446,2.323C57.03,37.693,57,37.896,57,38.093C57,42.82,54.464,45.5,50.042,45.5z M11.213,37.5
			c-0.089,0.153-0.202,0.468-0.213,0.814c0.054,2.593,1.917,4.186,4.985,4.186h34.057c2.774,0,3.958-1.302,3.958-4.352
			c0-0.231,0.014-0.444,0.035-0.648H11.213z"/>
		<path id="path-6_33_" d="M57.5,37.5h-52C2.467,37.5,0,35.033,0,32s2.467-5.5,5.5-5.5h52c3.033,0,5.5,2.467,5.5,5.5
			S60.533,37.5,57.5,37.5z M5.5,29.5C4.122,29.5,3,30.622,3,32c0,1.378,1.122,2.5,2.5,2.5h52c1.378,0,2.5-1.122,2.5-2.5
			c0-1.378-1.122-2.5-2.5-2.5H5.5z"/>
		<path id="path-7_26_" d="M9.124,34.944c-0.149,0-0.297-0.067-0.395-0.194C8.56,34.532,8.6,34.217,8.818,34.048
			c5.227-4.045,11.594-2.056,11.863-1.969c0.035,0.011,0.07,0.026,0.102,0.045c0.044,0.027,4.473,2.596,9.357,0.924
			c5.251-1.799,10.317-0.629,10.531-0.578c0.047,0.011,0.094,0.03,0.137,0.054c0.029,0.018,3.003,1.7,8.189,0.789
			c5.416-0.947,6.953-0.605,7.112-0.562c0.266,0.071,0.425,0.346,0.353,0.612c-0.07,0.264-0.339,0.423-0.605,0.356
			c-0.043-0.01-1.552-0.319-6.687,0.58c-5.179,0.906-8.273-0.59-8.794-0.87c-0.597-0.128-5.251-1.033-9.912,0.565
			c-5.087,1.743-9.565-0.652-10.137-0.978c-0.579-0.169-6.319-1.72-10.897,1.823C9.339,34.91,9.231,34.944,9.124,34.944z"/>
		<path id="path-8_21_" d="M48.914,25.359c0,0.704-0.571,1.275-1.275,1.275s-1.275-0.571-1.275-1.275
			c0-0.704,0.571-1.275,1.275-1.275S48.914,24.655,48.914,25.359z"/>
		<path id="path-9_13_" d="M34.57,25.359c0,0.704-0.571,1.275-1.275,1.275c-0.704,0-1.274-0.571-1.274-1.275
			c0-0.704,0.57-1.275,1.274-1.275C33.999,24.084,34.57,24.655,34.57,25.359z"/>
		<path id="path-10_9_" d="M20.227,25.359c0,0.704-0.571,1.275-1.275,1.275s-1.275-0.571-1.275-1.275
			c0-0.704,0.571-1.275,1.275-1.275S20.227,24.655,20.227,25.359z"/>
		<path id="path-11_8_" d="M48.914,41.296c0,0.705-0.571,1.276-1.275,1.276s-1.275-0.571-1.275-1.276
			c0-0.704,0.571-1.275,1.275-1.275S48.914,40.592,48.914,41.296z"/>
		<path id="path-12_7_" d="M34.57,41.296c0,0.705-0.571,1.276-1.275,1.276c-0.704,0-1.274-0.571-1.274-1.276
			c0-0.704,0.57-1.275,1.274-1.275C33.999,40.021,34.57,40.592,34.57,41.296z"/>
		<path id="path-13_6_" d="M20.227,41.296c0,0.705-0.571,1.276-1.275,1.276s-1.275-0.571-1.275-1.276
			c0-0.704,0.571-1.275,1.275-1.275S20.227,40.592,20.227,41.296z"/>
	</g>
</g>
<g>
</g>
<g>
</g>
<g>
</g>
<g>
</g>
<g>
</g>
<g>
</g>
<g>
</g>
<g>
</g>
<g>
</g>
<g>
</g>
<g>
</g>
<g>
</g>
<g>
</g>
<g>
</g>
<g>
</g>
</svg>
