<?xml version="1.0" encoding="iso-8859-1"?>
<!-- Generator: Adobe Illustrator 19.1.0, SVG Export Plug-In . SVG Version: 6.00 Build 0)  -->
<svg version="1.1" id="Capa_1" xmlns="http://www.w3.org/2000/svg" xmlns:xlink="http://www.w3.org/1999/xlink" x="0px" y="0px"
	 viewBox="0 0 64.767 64.767" style="enable-background:new 0 0 64.767 64.767;" xml:space="preserve">
<g>
	<g id="group-38svg">
		<path id="path-1_30_" style="fill:#E56A77;" d="M43.832,64.767H27.247l-2.602-23h21.789L43.832,64.767z"/>
		<path id="path-2_30_" style="fill:#EDC951;" d="M49.446,33.248c1.42-1.018,2.354-2.672,2.354-4.553c0-3.098-2.512-5.61-5.611-5.61
			c0,0,1.545-14.471-11.626-16.585c0,0,3.578,4.39,0.651,8.293c-2.927,3.902-12.747,0.345-12.708,11.12l0.032,0.014
			c-2.345,0.672-4.072,2.808-4.072,5.37c0,1.643,0.719,3.106,1.844,4.132c-0.339,0.723-0.543,1.521-0.543,2.372
			c0,3.098,2.511,5.609,5.61,5.609c1.802,0,3.388-0.865,4.414-2.185c1.4,1.327,3.59,2.185,6.057,2.185
			c2.424,0,4.582-0.827,5.985-2.115c1.028,1.28,2.588,2.115,4.356,2.115c3.099,0,5.611-2.511,5.611-5.609
			C51.8,35.92,50.866,34.266,49.446,33.248z"/>
		<path id="path-3_30_" d="M42.189,39.91c-1.655,0-3.231-0.58-4.493-1.626c-1.628,1.045-3.687,1.626-5.848,1.626
			c-2.198,0-4.282-0.598-5.918-1.672c-1.269,1.076-2.867,1.672-4.553,1.672c-3.921,0-7.11-3.189-7.11-7.109
			c0-0.686,0.102-1.366,0.306-2.03c-1.031-1.263-1.607-2.846-1.607-4.474c0-2.748,1.624-5.236,4.064-6.398
			c0.391-7.248,5.284-8.407,8.9-9.263c1.736-0.412,3.377-0.8,4.084-1.743c2.198-2.931-0.585-6.411-0.614-6.446
			c-0.392-0.482-0.447-1.157-0.136-1.697c0.311-0.538,0.922-0.829,1.537-0.731c10.566,1.696,13.076,10.975,12.97,16.743
			c3.162,0.722,5.529,3.556,5.529,6.933c0,1.675-0.604,3.286-1.665,4.553c1.061,1.267,1.665,2.878,1.665,4.553
			C49.3,36.721,46.11,39.91,42.189,39.91z M37.833,34.795c0.038,0,0.075,0.002,0.113,0.005c0.414,0.031,0.796,0.232,1.056,0.556
			c0.794,0.988,1.956,1.554,3.187,1.554c2.267,0,4.111-1.843,4.111-4.109c0-1.332-0.63-2.547-1.728-3.334
			c-0.392-0.282-0.626-0.736-0.626-1.219c0-0.484,0.234-0.938,0.626-1.219c1.098-0.787,1.728-2.002,1.728-3.334
			c0-2.266-1.844-4.11-4.111-4.11c-0.425,0-0.831-0.18-1.115-0.497c-0.285-0.316-0.422-0.739-0.376-1.162
			c0.049-0.477,0.991-10.68-7.247-14.081c0.632,2.046,0.677,4.563-1.037,6.848c-1.359,1.812-3.613,2.345-5.793,2.862
			c-3.665,0.868-6.569,1.555-6.615,7.156c0.014,0.098,0.019,0.199,0.014,0.301c-0.04,0.634-0.458,1.182-1.069,1.357
			c-1.758,0.504-2.985,2.119-2.985,3.928c0,1.153,0.481,2.227,1.354,3.024c0.486,0.443,0.626,1.15,0.348,1.745
			c-0.267,0.568-0.401,1.151-0.401,1.735c0,2.266,1.843,4.109,4.11,4.109c1.259,0,2.436-0.585,3.229-1.606
			c0.26-0.334,0.65-0.543,1.072-0.575c0.423-0.031,0.837,0.116,1.145,0.408c1.172,1.11,3.05,1.773,5.025,1.773
			c1.967,0,3.779-0.626,4.971-1.72C37.097,34.935,37.459,34.795,37.833,34.795z"/>
		<path id="path-4_30_" d="M39.832,62.767H23.247c-0.763,0-1.404-0.573-1.49-1.332l-2.603-23c-0.048-0.424,0.087-0.849,0.371-1.167
			c0.286-0.319,0.693-0.501,1.12-0.501h21.789c0.426,0,0.833,0.182,1.119,0.5c0.284,0.319,0.419,0.744,0.371,1.168l-2.602,23
			C41.236,62.194,40.596,62.767,39.832,62.767z M24.587,59.767h13.905l2.262-20h-18.43L24.587,59.767z"/>
		<path id="path-5_30_" d="M34.871,54.959c-0.092,0-0.184-0.009-0.276-0.026c-0.815-0.151-1.352-0.935-1.201-1.749l1.825-9.786
			c0.152-0.815,0.943-1.349,1.749-1.199c0.814,0.151,1.351,0.935,1.2,1.749l-1.824,9.786C36.209,54.455,35.579,54.959,34.871,54.959
			z"/>
		<path id="path-6_26_" d="M28.412,57.646c-0.113,0-0.227-0.013-0.343-0.04c-0.806-0.189-1.307-0.996-1.119-1.802l1.825-7.796
			c0.19-0.807,0.992-1.307,1.803-1.119c0.807,0.189,1.308,0.996,1.119,1.803l-1.825,7.795C29.71,57.179,29.094,57.646,28.412,57.646
			z"/>
		<path id="path-7_20_" d="M36.693,22.616c-0.401,0-0.801-0.16-1.096-0.477c-0.566-0.605-0.533-1.555,0.073-2.12
			c1.187-1.108,0.48-4.818-0.372-6.977c-0.304-0.77,0.074-1.641,0.845-1.945c0.769-0.305,1.641,0.073,1.946,0.844
			c0.293,0.742,2.772,7.338-0.372,10.272C37.428,22.483,37.06,22.616,36.693,22.616z"/>
		<path id="path-8_15_" d="M26.269,32.902c-3.252,0-5.4-0.895-6.385-2.663c-1.518-2.72,0.547-6.078,0.787-6.451
			c0.448-0.697,1.377-0.899,2.073-0.451c0.695,0.447,0.898,1.373,0.452,2.07c-0.447,0.708-1.204,2.461-0.691,3.374
			c0.422,0.75,1.883,1.143,4.044,1.119c0.801-0.031,1.511,0.643,1.527,1.472c0.015,0.828-0.644,1.512-1.472,1.527
			C26.491,32.901,26.38,32.902,26.269,32.902z"/>
	</g>
</g>
<g>
</g>
<g>
</g>
<g>
</g>
<g>
</g>
<g>
</g>
<g>
</g>
<g>
</g>
<g>
</g>
<g>
</g>
<g>
</g>
<g>
</g>
<g>
</g>
<g>
</g>
<g>
</g>
<g>
</g>
</svg>
