<?xml version="1.0" encoding="iso-8859-1"?>
<!-- Generator: Adobe Illustrator 19.1.0, SVG Export Plug-In . SVG Version: 6.00 Build 0)  -->
<svg version="1.1" id="Capa_1" xmlns="http://www.w3.org/2000/svg" xmlns:xlink="http://www.w3.org/1999/xlink" x="0px" y="0px"
	 viewBox="0 0 64.635 64.635" style="enable-background:new 0 0 64.635 64.635;" xml:space="preserve">
<g>
	<g id="group-37svg">
		<path id="path-1_29_" style="fill:#81BDA4;" d="M53.061,30.468c-5.812-1.102-7.543-7.227-7.543-7.227
			c-2.068,8.153-9.586,8.015-9.586,8.015s-7.764,0.134-9.831-8.019c0,0-1.977,6.13-7.789,7.232c0,0,21.994,17.166,8.321,34.166
			h9.299h8.809C31.067,47.635,53.061,30.468,53.061,30.468z"/>
		<path id="path-2_29_" style="fill:#EDC951;" d="M54.32,14.059c0.067-0.423,0.13-0.847,0.13-1.288c0-4.568-3.704-8.271-8.271-8.271
			c-4.569,0-8.273,3.703-8.273,8.271c0,0.108,0.028,0.208,0.032,0.314c-0.758-0.198-1.55-0.314-2.371-0.314
			c-1.103,0-2.157,0.2-3.14,0.55c0.012-0.185,0.055-0.361,0.055-0.55c0-4.568-3.704-8.271-8.271-8.271
			c-4.569,0-8.273,3.703-8.273,8.271c0,0.518,0.062,1.021,0.153,1.511c-3.395,1.031-5.882,4.149-5.882,7.88
			c0,4.568,3.704,8.272,8.272,8.272c3.819,0,7.001-2.602,7.954-6.119c0.973,4.147,4.688,7.237,9.132,7.237
			c4.445,0,8.159-3.09,9.133-7.237c0.952,3.517,4.134,6.119,7.953,6.119c4.569,0,8.272-3.704,8.272-8.272
			C60.926,18.165,58.09,14.83,54.32,14.059z"/>
		<path id="path-3_29_" d="M30.567,30.052c-3.856,0-7.298-1.992-9.237-5.117c-1.8,2.455-4.689,3.999-7.849,3.999
			c-5.388,0-9.772-4.384-9.772-9.772c0-3.881,2.263-7.302,5.746-8.866c-0.011-0.178-0.017-0.353-0.017-0.525
			C9.438,4.383,13.822,0,19.212,0c4.925,0,9.01,3.661,9.677,8.405c0.867-0.139,1.739-0.171,2.627-0.09
			C32.221,3.615,36.285,0,41.18,0c5.387,0,9.771,4.383,9.771,9.771c0,0.064-0.001,0.127-0.003,0.19
			c3.823,1.37,6.478,5.045,6.478,9.201c0,5.388-4.384,9.772-9.772,9.772c-3.159,0-6.05-1.544-7.848-3.999
			C37.865,28.06,34.424,30.052,30.567,30.052z M21.434,19.635c0.008,0,0.017,0,0.026,0c0.686,0,1.278,0.578,1.434,1.247
			c0.841,3.58,3.997,6.125,7.673,6.125s6.831-2.567,7.673-6.148c0.157-0.668,0.748-1.224,1.435-1.224c0.008,0,0.017,0,0.025,0
			c0.677,0,1.271,0.543,1.448,1.198c0.798,2.95,3.474,5.056,6.505,5.056c3.734,0,6.772-3.015,6.772-6.749
			c0-3.204-2.274-5.982-5.406-6.623c-0.785-0.16-1.305-0.905-1.18-1.697c0.062-0.402,0.111-0.733,0.111-1.052
			c0-3.734-3.038-6.77-6.771-6.77c-3.735,0-6.773,3.038-6.773,6.773c0.015,0.052,0.027,0.147,0.03,0.245
			c0.023,0.476-0.183,0.934-0.553,1.234c-0.371,0.3-0.862,0.405-1.323,0.287c-1.603-0.417-3.135-0.334-4.63,0.198
			c-0.478,0.169-1.006,0.087-1.41-0.219c-0.403-0.305-0.625-0.793-0.589-1.298c0.006-0.111,0.021-0.221,0.036-0.33
			c0.006-0.041,0.013-0.082,0.015-0.124C25.982,6.037,22.944,3,19.212,3c-3.735,0-6.773,3.037-6.773,6.771
			c0,0.376,0.04,0.769,0.127,1.238c0.14,0.751-0.307,1.487-1.039,1.708c-2.881,0.875-4.817,3.466-4.817,6.445
			c0,3.734,3.038,6.772,6.772,6.772c3.032,0,5.707-2.151,6.505-5.101C20.164,20.178,20.758,19.635,21.434,19.635z"/>
		<path id="path-4_29_" d="M39.741,62.635H21.632c-0.577,0-1.104-0.332-1.353-0.852c-0.25-0.521-0.177-1.138,0.184-1.588
			c3.213-3.995,4.569-8.323,4.031-12.864c-1.237-10.444-11.99-18.856-12.099-18.94c-0.466-0.361-0.679-0.963-0.542-1.537
			s0.599-1.014,1.179-1.124c4.848-0.92,6.576-5.799,6.647-6.006c0.215-0.628,0.826-1.036,1.481-1.014
			c0.663,0.027,1.231,0.484,1.394,1.127c1.689,6.665,7.667,6.857,8.342,6.857c0.302,0,6.426-0.082,8.166-6.946
			c0.167-0.657,0.752-1.12,1.43-1.132c0.677,0.022,1.278,0.434,1.466,1.084c0.06,0.204,1.575,5.133,6.382,6.044
			c0.58,0.11,1.042,0.551,1.178,1.125c0.138,0.574-0.075,1.177-0.542,1.537c-0.109,0.084-10.859,8.487-12.098,18.925
			c-0.539,4.54,0.817,8.868,4.031,12.864c0.361,0.45,0.434,1.067,0.184,1.588C40.845,62.303,40.318,62.635,39.741,62.635z
			 M24.54,59.635h12.292c-2.478-3.971-3.463-8.221-2.932-12.671c1.05-8.789,7.724-15.977,11.185-19.167
			c-2.055-1.012-3.472-2.564-4.411-3.976c-3.211,5.795-9.431,5.872-9.736,5.872c-2.797,0.001-7.493-1.329-10.044-5.921
			c-0.985,1.411-2.472,2.993-4.6,4.018c3.464,3.197,10.13,10.388,11.178,19.174C28.003,51.414,27.017,55.665,24.54,59.635z"/>
		<path id="path-5_29_" d="M42.534,11.026c-0.549,0-1.078-0.304-1.342-0.828l-1.534-3.057c-0.371-0.741-0.072-1.642,0.668-2.014
			c0.738-0.37,1.642-0.073,2.014,0.668l1.534,3.057c0.371,0.741,0.072,1.642-0.668,2.014C42.99,10.974,42.761,11.026,42.534,11.026z
			"/>
		<path id="path-6_25_" d="M16.72,15.702c-0.613,0-1.188-0.379-1.41-0.988c-0.073-0.2-1.75-4.945,1.49-7.836
			c0.618-0.553,1.566-0.498,2.118,0.12s0.498,1.566-0.12,2.118c-1.713,1.528-0.68,4.542-0.669,4.573
			c0.283,0.778-0.118,1.639-0.897,1.922C17.063,15.673,16.89,15.702,16.72,15.702z"/>
	</g>
</g>
<g>
</g>
<g>
</g>
<g>
</g>
<g>
</g>
<g>
</g>
<g>
</g>
<g>
</g>
<g>
</g>
<g>
</g>
<g>
</g>
<g>
</g>
<g>
</g>
<g>
</g>
<g>
</g>
<g>
</g>
</svg>
