<?xml version="1.0" encoding="iso-8859-1"?>
<!-- Generator: Adobe Illustrator 19.1.0, SVG Export Plug-In . SVG Version: 6.00 Build 0)  -->
<svg version="1.1" id="Capa_1" xmlns="http://www.w3.org/2000/svg" xmlns:xlink="http://www.w3.org/1999/xlink" x="0px" y="0px"
	 viewBox="0 0 64 64" style="enable-background:new 0 0 64 64;" xml:space="preserve">
<g>
	<g id="group-72svg">
		<path id="path-1_68_" style="fill:#FF917B;" d="M49.092,29H19.943l-4.632,7.229c-3.837,5.653-3.558,13.05,0.214,18.745L21.832,64
			h28.189l5.419-9.172c3.354-5.607,2.962-12.456-0.692-17.873L49.092,29z"/>
		<path id="path-2_68_" d="M45.021,63H16.832c-0.492,0-0.952-0.24-1.232-0.645l-6.182-8.9c-4.175-6.303-4.206-14.267-0.099-20.318
			l6.694-10.419v-12.34L11.226,6.74c-0.15-0.114-0.276-0.254-0.374-0.415c-0.69-1.134-0.626-2.714,0.168-4.126
			C11.793,0.822,13.028,0,14.324,0h34.607c0.236,0,0.468,0.056,0.678,0.162l6.582,3.333c0.504,0.256,0.822,0.773,0.822,1.339v16.369
			c0,2.711-1.537,3.733-3.012,3.794C53.97,24.999,53.939,25,53.907,25h-0.051c-0.046,0-0.093-0.002-0.138-0.006
			c-2.04-0.117-3.705-1.814-3.705-3.791v-10.19l-2.481-1.611l-3.519,1.156v12.467l7.228,10.716
			c3.993,5.919,4.18,13.433,0.486,19.607l-5.424,8.931C46.03,62.726,45.544,63,45.021,63z M17.616,60h26.561l4.981-8.201
			c3.084-5.157,2.932-11.436-0.404-16.38L41.27,24.322c-0.167-0.248-0.257-0.539-0.257-0.838V9.471c0-0.649,0.417-1.223,1.032-1.425
			l5.234-1.718c0.431-0.141,0.902-0.08,1.284,0.168l3.767,2.443c0.426,0.277,0.683,0.75,0.683,1.258v11.006
			c0,0.404,0.43,0.792,0.885,0.797l0,0c0,0,0,0,0.001,0c0.019,0,0.114-0.26,0.114-0.797V5.756L48.573,3H14.324
			c-0.093,0-0.422,0.192-0.689,0.668c-0.218,0.389-0.272,0.736-0.258,0.938l5.044,3.833c0.373,0.284,0.592,0.726,0.592,1.195v13.524
			c0,0.287-0.082,0.569-0.238,0.811l-6.952,10.822C8.38,39.861,8.419,46.516,11.9,51.772L17.616,60z"/>
		<path id="path-3_68_" d="M36.513,24.5c-0.828,0-1.5-0.672-1.5-1.5V11h-11c-0.828,0-1.5-0.672-1.5-1.5s0.672-1.5,1.5-1.5h12.5
			c0.829,0,1.5,0.672,1.5,1.5V23C38.013,23.828,37.342,24.5,36.513,24.5z"/>
		<path id="path-4_68_" d="M36.437,57.367c-0.636,0-1.227-0.408-1.429-1.047c-0.251-0.79,0.186-1.633,0.976-1.883
			c3.511-1.113,5.764-2.941,6.696-5.433c1.874-5.006-1.871-11.241-1.909-11.304c-0.431-0.707-0.208-1.63,0.5-2.061
			c0.706-0.432,1.63-0.209,2.062,0.5c0.186,0.305,4.537,7.558,2.157,13.918c-1.272,3.398-4.165,5.834-8.599,7.24
			C36.74,57.344,36.587,57.367,36.437,57.367z"/>
	</g>
</g>
<g>
</g>
<g>
</g>
<g>
</g>
<g>
</g>
<g>
</g>
<g>
</g>
<g>
</g>
<g>
</g>
<g>
</g>
<g>
</g>
<g>
</g>
<g>
</g>
<g>
</g>
<g>
</g>
<g>
</g>
</svg>
