<?xml version="1.0" encoding="iso-8859-1"?>
<!-- Generator: Adobe Illustrator 19.1.0, SVG Export Plug-In . SVG Version: 6.00 Build 0)  -->
<svg version="1.1" id="Capa_1" xmlns="http://www.w3.org/2000/svg" xmlns:xlink="http://www.w3.org/1999/xlink" x="0px" y="0px"
	 viewBox="0 0 64.5 64.5" style="enable-background:new 0 0 64.5 64.5;" xml:space="preserve">
<g>
	<g id="group-80svg">
		<path id="path-1_77_" style="fill:#E56A77;" d="M36.143,11.475l-6.386,1.619c-1.745,0.84-3.507,2.605-3.507,4.543V20.5h9.893
			h7.107v-2.871c0-1.933-0.382-3.695-2.121-4.538L36.143,11.475z"/>
		<path id="path-2_77_" style="fill:#E56A77;" d="M30.75,64.5h9c2.209,0,3.5-2.606,3.5-4.815V25.5h-17v34.185
			C26.25,61.894,28.541,64.5,30.75,64.5z"/>
		<path id="path-3_77_" d="M39.75,18.5h-17c-0.828,0-1.5-0.672-1.5-1.5v-2.363c0-2.706,2.062-4.911,4.106-5.895
			c0.086-0.041,0.176-0.074,0.268-0.098l6.136-1.62c0.271-0.071,0.557-0.065,0.825,0.017l5.236,1.617
			c0.073,0.022,0.144,0.049,0.211,0.082c2.075,1.006,3.218,3.097,3.218,5.889V17C41.25,17.828,40.578,18.5,39.75,18.5z M24.25,15.5
			h14v-0.871c0-1.576-0.482-2.633-1.435-3.143l-4.705-1.451l-5.571,1.47c-1.156,0.601-2.289,1.842-2.289,3.132V15.5z"/>
		<path id="path-4_77_" d="M35.75,62.5h-9c-2.981,0-5.5-2.663-5.5-5.815V22c0-0.828,0.672-1.5,1.5-1.5h17c0.828,0,1.5,0.672,1.5,1.5
			v34.685C41.25,59.837,38.731,62.5,35.75,62.5z M24.25,23.5v33.185c0,1.473,1.191,2.815,2.5,2.815h9c1.309,0,2.5-1.342,2.5-2.815
			V23.5H24.25z"/>
		<path id="path-5_75_" d="M31.75,10c-0.828,0-1.5-0.672-1.5-1.5v-7c0-0.828,0.672-1.5,1.5-1.5s1.5,0.672,1.5,1.5v7
			C33.25,9.328,32.578,10,31.75,10z"/>
		<path id="path-6_67_" d="M32.244,56.703c-0.178,0-0.305-0.016-0.365-0.026c-0.817-0.136-1.369-0.91-1.233-1.726
			c0.129-0.776,0.819-1.313,1.603-1.249c0.17-0.048,2.321-0.868,2.075-9.386c-0.024-0.828,0.628-1.519,1.456-1.543
			c0.851-0.038,1.518,0.628,1.542,1.456c0.172,5.917-0.749,9.795-2.735,11.529C33.657,56.568,32.748,56.703,32.244,56.703z"/>
	</g>
</g>
<g>
</g>
<g>
</g>
<g>
</g>
<g>
</g>
<g>
</g>
<g>
</g>
<g>
</g>
<g>
</g>
<g>
</g>
<g>
</g>
<g>
</g>
<g>
</g>
<g>
</g>
<g>
</g>
<g>
</g>
</svg>
