<?xml version="1.0" encoding="iso-8859-1"?>
<!-- Generator: Adobe Illustrator 19.1.0, SVG Export Plug-In . SVG Version: 6.00 Build 0)  -->
<svg version="1.1" id="Capa_1" xmlns="http://www.w3.org/2000/svg" xmlns:xlink="http://www.w3.org/1999/xlink" x="0px" y="0px"
	 viewBox="0 0 66.5 66.5" style="enable-background:new 0 0 66.5 66.5;" xml:space="preserve">
<g>
	<g id="group-7svg">
		<path id="path-1_65_" style="fill:#FF917B;" d="M66.5,20.65c0,16.568-13.431,30-30,30c-16.568,0-30-13.432-30-30l0,0"/>
		<path id="path-2_65_" style="fill:#EDC951;" d="M41.129,20.563c-0.002,0-1.348-1.439-2.283-0.369
			c-0.559,0.64-1.361,0.745-2.21,0.745h-0.004c-0.99,0-1.927-0.162-2.506-0.966c-0.763-1.059-1.722,0.347-1.724,0.347
			c0,0-19.122-0.048-19.122,0.05c0,3.093,1.473,5.715,3.75,7.464c-0.02,0.254-0.038,0.448-0.038,0.707
			c0,5.284,4.283,9.538,9.567,9.538c0.356,0,0.707-0.037,1.053-0.075c1.666,2.81,4.721,4.692,8.226,4.692
			c3.558,0,6.656-1.951,8.305-4.833c0.614,0.124,1.25,0.188,1.901,0.188c5.284,0,9.569-4.285,9.569-9.569
			c0-0.053-0.008-0.104-0.008-0.157c2.78-1.673,4.646-4.351,4.646-7.833C60.251,20.394,41.129,20.563,41.129,20.563z"/>
		<path id="path-3_65_" d="M30.838,42.194c-3.563,0-6.928-1.751-8.993-4.628c-0.094,0.003-0.286,0.006-0.384,0.006
			c-6.102,0-11.166-4.956-11.166-11.047c0-0.016,0-0.032,0-0.048c-2-2.098-3.614-5.033-3.614-8.169c0-1.49,1.485-1.517,2.344-1.533
			c0.526-0.01,1.302-0.018,2.206-0.026c1.794-0.015,4.199-0.027,6.592-0.034c3.681-0.013,7.369-0.018,8.869-0.02
			c0.426-0.424,1.047-0.845,1.824-0.845c0.413,0,1.2,0.129,1.825,0.995c0.06,0.051,0.211,0.097,0.764,0.097l0.527-0.003
			c0.152,0,0.299,0.004,0.444,0.007l0.334,0.007c0.265,0,0.342-0.024,0.355-0.028c0.44-0.528,1.098-0.836,1.803-0.836
			c0.908,0,1.677,0.506,2.189,0.968c2.476-0.021,11.629-0.096,16.041-0.096c3.116,0,3.953,0,3.953,1.53
			c0,3.526-1.646,6.571-4.658,8.658c-0.347,5.794-5.17,10.401-11.049,10.401c-0.387,0-0.776-0.019-1.161-0.06
			C37.821,40.415,34.443,42.194,30.838,42.194z M22.612,34.5c0.525,0,1.017,0.276,1.29,0.735c1.47,2.479,4.064,3.959,6.936,3.959
			c2.881,0,5.565-1.562,7.003-4.077c0.32-0.56,0.961-0.854,1.598-0.726c0.524,0.106,1.064,0.159,1.605,0.159
			c4.449,0,8.069-3.619,8.069-8.068c-0.005-0.03-0.008-0.093-0.008-0.157c0-0.525,0.275-1.025,0.726-1.296
			c1.519-0.915,3.285-2.09,3.783-5.09c-0.234,0-0.503,0-0.816,0c-5.095,0-16.541,0.111-16.655,0.112
			c-0.45-0.003-0.882-0.193-1.17-0.539c-0.09-0.107-0.197-0.208-0.294-0.289c-0.848,0.727-1.859,0.728-2.269,0.728
			c-0.135,0-0.275-0.003-0.417-0.006l-0.357-0.007l-0.53,0.004c-0.589,0-1.697,0-2.609-0.724c-0.282,0.3-0.678,0.477-1.095,0.477
			C21.588,19.699,13.28,19.72,9.91,19.762c0.352,1.907,1.398,3.595,3.034,4.852c0.401,0.308,0.62,0.799,0.581,1.304
			c-0.02,0.257-0.034,0.415-0.034,0.607c0,4.437,3.62,8.047,8.069,8.047c0.3,0,0.596-0.031,0.888-0.064
			C22.502,34.503,22.557,34.5,22.612,34.5z"/>
		<path id="path-4_65_" d="M50.604,27.826c-0.191,0-0.385-0.037-0.572-0.114l-15.514-6.413c-0.766-0.317-1.13-1.194-0.813-1.96
			c0.316-0.765,1.192-1.131,1.959-0.813l15.514,6.413c0.766,0.317,1.13,1.194,0.813,1.96C51.752,27.477,51.194,27.826,50.604,27.826
			z"/>
		<path id="path-5_65_" d="M39.143,37.363c-0.617,0-1.196-0.384-1.414-0.999l-5.297-14.948c-0.276-0.781,0.132-1.638,0.913-1.915
			c0.782-0.276,1.64,0.132,1.915,0.913l5.297,14.948c0.276,0.78-0.132,1.638-0.913,1.915C39.478,37.335,39.309,37.363,39.143,37.363
			z"/>
		<path id="path-6_58_" d="M22.611,37.504c-0.221,0-0.445-0.049-0.656-0.152c-0.745-0.363-1.054-1.261-0.692-2.006l7.452-15.309
			c0.362-0.745,1.263-1.055,2.005-0.692c0.745,0.363,1.055,1.261,0.692,2.006L23.96,36.66
			C23.701,37.193,23.166,37.504,22.611,37.504z"/>
		<path id="path-7_49_" d="M12.03,27.331c-0.632,0-1.22-0.403-1.426-1.036c-0.257-0.788,0.174-1.634,0.961-1.891l16.838-5.487
			c0.791-0.258,1.634,0.175,1.89,0.962c0.257,0.787-0.174,1.634-0.961,1.891l-16.838,5.487C12.34,27.307,12.183,27.331,12.03,27.331
			z"/>
		<path id="path-8_40_" d="M31.5,49.15C14.131,49.15,0,35.019,0,17.65c0-0.828,0.672-1.5,1.5-1.5S3,16.822,3,17.65
			c0,15.715,12.785,28.5,28.5,28.5S60,33.365,60,17.65c0-0.828,0.672-1.5,1.5-1.5s1.5,0.672,1.5,1.5
			C63,35.019,48.869,49.15,31.5,49.15z"/>
	</g>
</g>
<g>
</g>
<g>
</g>
<g>
</g>
<g>
</g>
<g>
</g>
<g>
</g>
<g>
</g>
<g>
</g>
<g>
</g>
<g>
</g>
<g>
</g>
<g>
</g>
<g>
</g>
<g>
</g>
<g>
</g>
</svg>
