<?xml version="1.0" encoding="iso-8859-1"?>
<!-- Generator: Adobe Illustrator 19.1.0, SVG Export Plug-In . SVG Version: 6.00 Build 0)  -->
<svg version="1.1" id="Capa_1" xmlns="http://www.w3.org/2000/svg" xmlns:xlink="http://www.w3.org/1999/xlink" x="0px" y="0px"
	 viewBox="0 0 64.5 64.5" style="enable-background:new 0 0 64.5 64.5;" xml:space="preserve">
<g>
	<g id="group-24svg">
		<path id="path-1_15_" style="fill:#81BDA4;" d="M36.6,59.143c0,0-9.875-19.113,14.972-19.431c0,0,0.318-4.779-5.416-6.371
			c0,0,17.208-3.823,5.419-17.52c0,0,1.271-8.92-8.285-6.053c0,0,0.267-8.601-8.627-3.822c0,0-6.982-3.186-6.982,4.459
			c0,0-8.601,0.956-6.371,7.327c0,0-7.964,4.459-5.415,11.149c0,0-4.46,5.096,1.592,10.512c0,0-0.956,14.334,11.787,23.891
			C29.274,63.284,38.512,67.901,36.6,59.143z"/>
		<path id="path-2_15_" d="M29.819,63C29.818,63,29.818,63,29.819,63c-2.397,0-4.935-1.234-5.216-1.374
			c-0.08-0.04-0.158-0.088-0.229-0.142c-11.73-8.797-12.428-21.292-12.406-24.459c-4.512-4.431-3.349-9.032-1.744-11.423
			c-1.476-5.249,2.368-9.508,5.348-11.552c-0.379-1.961,0.15-3.394,0.72-4.3c1.438-2.283,4.278-3.237,5.952-3.614
			c0.504-4.798,3.884-5.349,5.403-5.349c1.171,0,2.249,0.287,2.926,0.517C32.343,0.427,33.882,0,35.262,0
			c1.474,0,2.754,0.516,3.701,1.493c0.983,1.014,1.44,2.334,1.651,3.409C41.342,4.768,42.029,4.7,42.668,4.7
			c2.548,0,4.019,1.078,4.804,1.983c1.611,1.856,1.713,4.406,1.651,5.646c3.58,4.334,4.814,8.276,3.669,11.723
			c-1.114,3.352-4.241,5.387-6.763,6.526c2.525,1.949,3.142,4.703,3.04,6.233c-0.052,0.781-0.696,1.39-1.478,1.401
			c-7.394,0.094-12.188,1.883-14.249,5.318c-2.959,4.93,0.555,11.855,0.591,11.924c0.06,0.117,0.105,0.241,0.133,0.369
			c0.556,2.55,0.332,4.404-0.687,5.669C32.825,62.18,31.758,63,29.819,63z M26.059,58.997C26.748,59.322,28.472,60,29.818,60
			c0,0,0,0,0.001,0c0.604,0,1.015-0.131,1.224-0.39c0.179-0.222,0.541-0.952,0.129-2.972c-0.637-1.317-3.938-8.761-0.402-14.652
			c2.454-4.09,7.53-6.348,15.098-6.723c-0.37-1.15-1.38-2.718-4.113-3.477c-0.664-0.184-1.116-0.797-1.098-1.484
			c0.018-0.689,0.502-1.276,1.174-1.426c0.065-0.014,6.722-1.559,8.116-5.777c0.828-2.504-0.353-5.633-3.509-9.3
			c-0.282-0.328-0.409-0.762-0.348-1.19c0.095-0.707,0.122-2.809-0.891-3.968c-0.958-1.096-2.834-1.23-5.478-0.437
			c-0.463,0.139-0.963,0.047-1.345-0.247c-0.383-0.294-0.6-0.754-0.585-1.236c0.013-0.576-0.139-2.277-0.988-3.146
			c-0.965-0.988-2.836-0.701-5.43,0.692c-0.412,0.222-0.905,0.238-1.332,0.043c-0.007-0.003-1.183-0.523-2.394-0.523
			c-0.801,0-2.466,0-2.466,3.618c0,0.764-0.575,1.406-1.335,1.491c-1.041,0.12-3.978,0.797-5.018,2.457
			c-0.48,0.766-0.513,1.709-0.102,2.883c0.24,0.688-0.048,1.449-0.683,1.804c-0.276,0.156-6.798,3.921-4.746,9.306
			c0.197,0.519,0.092,1.104-0.273,1.522c-0.345,0.406-3.288,4.155,1.463,8.407c0.345,0.308,0.528,0.757,0.497,1.217
			C14.976,36.625,14.275,50.069,26.059,58.997z"/>
		<path id="path-3_15_" d="M31.889,62.366c-0.38,0-0.759-0.143-1.051-0.431c-0.213-0.209-21.022-21.32,3.163-50.08
			c0.532-0.634,1.478-0.717,2.113-0.182c0.634,0.533,0.716,1.479,0.183,2.113C13.938,40.375,32.158,59.02,32.945,59.8
			c0.587,0.583,0.593,1.532,0.011,2.121C32.662,62.217,32.276,62.366,31.889,62.366z"/>
		<path id="path-4_15_" d="M37.697,24.036c-0.616,0-1.193-0.382-1.413-0.996c-0.468-0.551-3.761-0.958-6.738-0.771
			c-0.832,0.043-1.54-0.577-1.591-1.403c-0.052-0.827,0.576-1.539,1.403-1.591c2.583-0.159,8.69-0.215,9.752,2.757
			c0.278,0.779-0.128,1.638-0.909,1.916C38.035,24.008,37.864,24.036,37.697,24.036z"/>
		<path id="path-5_15_" d="M41.519,18.302c-0.616,0-1.193-0.382-1.412-0.996c-0.469-0.551-3.76-0.958-6.739-0.771
			c-0.837,0.046-1.539-0.576-1.591-1.403c-0.052-0.827,0.577-1.539,1.403-1.591c2.583-0.158,8.69-0.215,9.752,2.757
			c0.279,0.779-0.128,1.638-0.908,1.917C41.857,18.274,41.687,18.302,41.519,18.302z"/>
		<path id="path-6_12_" d="M25.422,31.082c-0.578,0-1.128-0.335-1.375-0.897l-3.492-7.947c-0.333-0.759,0.012-1.644,0.77-1.978
			c0.761-0.331,1.644,0.013,1.977,0.771l3.492,7.947c0.333,0.759-0.012,1.644-0.77,1.977C25.828,31.041,25.623,31.082,25.422,31.082
			z"/>
		<path id="path-7_8_" d="M24.478,38.343c-0.413,0-0.825-0.169-1.121-0.501c-0.551-0.619-0.496-1.567,0.122-2.119l4.975-4.432
			c0.619-0.551,1.566-0.497,2.118,0.122c0.551,0.618,0.496,1.567-0.122,2.118l-4.975,4.433
			C25.189,38.218,24.833,38.343,24.478,38.343z"/>
		<path id="path-8_7_" d="M24.477,47.97c-0.386,0-0.772-0.149-1.066-0.444l-4.46-4.503c-0.582-0.588-0.578-1.538,0.011-2.121
			c0.587-0.584,1.537-0.579,2.121,0.01l4.46,4.502c0.583,0.589,0.578,1.539-0.01,2.122C25.24,47.825,24.859,47.97,24.477,47.97z"/>
	</g>
</g>
<g>
</g>
<g>
</g>
<g>
</g>
<g>
</g>
<g>
</g>
<g>
</g>
<g>
</g>
<g>
</g>
<g>
</g>
<g>
</g>
<g>
</g>
<g>
</g>
<g>
</g>
<g>
</g>
<g>
</g>
</svg>
