<?xml version="1.0" encoding="iso-8859-1"?>
<!-- Generator: Adobe Illustrator 19.1.0, SVG Export Plug-In . SVG Version: 6.00 Build 0)  -->
<svg version="1.1" id="Capa_1" xmlns="http://www.w3.org/2000/svg" xmlns:xlink="http://www.w3.org/1999/xlink" x="0px" y="0px"
	 viewBox="0 0 65.503 65.503" style="enable-background:new 0 0 65.503 65.503;" xml:space="preserve">
<g>
	<g id="group-58svg">
		<path id="path-1_52_" style="fill:#E56A77;" d="M8.263,56.728c0,0,10.835-3.13,8.908-27.448
			C15.246,4.963,55.935-2.742,64.122,17.965c8.185,20.705-21.91,45.745-40.45,45.023C5.133,62.266,2.402,62.489,8.263,56.728z"/>
		<path id="path-2_52_" style="fill:#FFFFFF;" d="M21.782,45.231c0,0,6.841-1.977,5.625-17.331S51.882,7.681,57.05,20.755
			c5.169,13.074-13.833,28.884-25.539,28.428C19.806,48.727,18.081,48.868,21.782,45.231z"/>
		<path id="path-3_52_" style="fill:#E56A77;" d="M32.07,36.835c0,0,2.749-0.794,2.261-6.963c-0.49-6.17,9.834-8.124,11.911-2.871
			c2.076,5.253-5.559,11.606-10.262,11.422C31.276,38.24,30.583,38.297,32.07,36.835z"/>
		<path id="path-4_52_" d="M20.465,62.503c-0.287,0-0.569-0.005-0.851-0.016l-2.757-0.106c-12.109-0.46-15.765-0.599-16.691-2.994
			c-0.71-1.831,0.96-3.678,3.045-5.729c0.178-0.174,0.397-0.301,0.636-0.371c0.077-0.025,9.616-3.329,7.829-25.888
			c-0.469-5.929,1.421-11.379,5.469-15.759c5.209-5.638,13.85-9.141,22.548-9.141c10.468,0,18.627,4.827,21.823,12.914
			c3.003,7.596,1.488,16.172-4.38,24.802C48.638,52.713,32.53,62.503,20.465,62.503z M3.121,58.281
			c1.476,0.632,6.995,0.842,13.85,1.102l2.76,0.105c11.229,0.437,26.75-8.938,34.924-20.959c3.685-5.419,7.383-13.637,4.072-22.013
			C56,9.617,48.883,5.499,39.693,5.499c-7.889,0-15.685,3.133-20.345,8.177c-3.464,3.75-5.083,8.413-4.681,13.486
			c1.813,22.88-7.46,27.996-9.58,28.861C3.841,57.265,3.326,57.929,3.121,58.281z"/>
		<path id="path-5_52_" d="M28.012,48.693c-0.188,0-0.374-0.004-0.559-0.011l-1.743-0.067c-8.129-0.309-10.315-0.392-11.032-2.244
			c-0.615-1.59,0.864-3.043,2.052-4.211c0.178-0.173,0.397-0.302,0.636-0.371c0.025-0.009,5.631-2.067,4.546-15.77
			c-0.31-3.902,0.934-7.488,3.597-10.37C28.9,11.98,34.51,9.7,40.153,9.7c6.845,0,12.187,3.179,14.292,8.504
			c1.938,4.903,0.936,10.647-2.822,16.174C46.166,42.405,35.794,48.693,28.012,48.693z M18.021,45.14
			c1.457,0.236,4.45,0.349,7.803,0.476l1.746,0.068c6.768,0.262,16.591-5.666,21.572-12.993c2.252-3.311,4.516-8.321,2.514-13.385
			C50.02,15.17,45.72,12.7,40.153,12.7c-4.832,0-9.599,1.91-12.441,4.985c-2.109,2.283-3.054,5.008-2.81,8.097
			c1.138,14.369-4.624,17.991-6.279,18.728C18.37,44.763,18.173,44.971,18.021,45.14z"/>
		<path id="path-6_46_" d="M32.18,37.928c-0.088,0-0.174-0.002-0.259-0.006l-0.698-0.026c-3.637-0.138-4.736-0.18-5.237-1.475
			c-0.46-1.188,0.511-2.143,1.032-2.656c0.225-0.22,0.323-0.323,0.633-0.371c-0.005-0.01,1.545-0.853,1.185-5.404
			c-0.145-1.823,0.436-3.5,1.68-4.846c1.55-1.677,3.995-2.679,6.543-2.679c3.132,0,5.591,1.489,6.577,3.984
			c0.892,2.255,0.456,4.859-1.225,7.333C40.029,35.285,35.63,37.928,32.18,37.928z M30.376,34.86
			c0.309,0.013,0.632,0.025,0.962,0.038l0.842,0.03c2.42,0,5.969-2.213,7.749-4.832c0.783-1.151,1.578-2.874,0.918-4.544
			c-0.766-1.937-3.093-2.087-3.788-2.087c-1.7,0-3.362,0.657-4.34,1.715c-0.671,0.726-0.971,1.592-0.893,2.573
			C32.126,31.545,31.291,33.676,30.376,34.86z"/>
	</g>
</g>
<g>
</g>
<g>
</g>
<g>
</g>
<g>
</g>
<g>
</g>
<g>
</g>
<g>
</g>
<g>
</g>
<g>
</g>
<g>
</g>
<g>
</g>
<g>
</g>
<g>
</g>
<g>
</g>
<g>
</g>
</svg>
