<?xml version="1.0" encoding="iso-8859-1"?>
<!-- Generator: Adobe Illustrator 19.1.0, SVG Export Plug-In . SVG Version: 6.00 Build 0)  -->
<svg version="1.1" id="Capa_1" xmlns="http://www.w3.org/2000/svg" xmlns:xlink="http://www.w3.org/1999/xlink" x="0px" y="0px"
	 viewBox="0 0 65.118 65.118" style="enable-background:new 0 0 65.118 65.118;" xml:space="preserve">
<g>
	<g id="group-87svg">
		<path id="path-1_84_" style="fill:#FF917B;" d="M32.727,15.536C32.727,4.503,25.5,3.5,21.424,3.5
			c-4.078,0-11.689,1.003-11.689,12.036c0,9.901,5.836,24.505,9.836,27.401v20.598h3v-20.73
			C25.57,39.621,32.727,25.294,32.727,15.536z"/>
		<path id="path-2_84_" style="fill:#EDC951;" d="M50.57,50.535h10v-31h-10V50.535z"/>
		<path id="path-3_84_" style="fill:#FF917B;" d="M58.459,10.363c0,2.898-1.33,5.245-2.972,5.245c-1.641,0-2.972-2.347-2.972-5.245
			c0-2.896,1.331-5.245,2.972-5.245C57.13,5.118,58.459,7.467,58.459,10.363z"/>
		<path id="path-4_84_" style="fill:#FF917B;" d="M52.516,59.873c0-2.896,1.331-5.245,2.972-5.245c1.642,0,2.972,2.349,2.972,5.245
			c0,2.898-1.33,5.245-2.972,5.245C53.847,65.118,52.516,62.771,52.516,59.873z"/>
		<path id="path-5_81_" d="M19.07,62.535h-3c-0.828,0-1.5-0.672-1.5-1.5V41.638C10.186,37.566,4.548,23.436,4.548,13.536
			C4.548,7.361,6.804,0,17.549,0c10.685,0,12.928,7.361,12.928,13.536c0,9.476-6.359,23.525-9.906,27.831v19.668
			C20.57,61.863,19.899,62.535,19.07,62.535z M17.549,3C13.255,3,7.548,4.093,7.548,13.536c0,9.803,5.949,23.686,9.403,26.186
			c0.39,0.282,0.62,0.733,0.62,1.215v-0.132c0-0.383,0.147-0.751,0.408-1.03c2.833-3.005,9.498-16.902,9.498-26.239
			C27.476,4.093,21.81,3,17.549,3z"/>
		<path id="path-6_73_" d="M18.062,42.305c-0.305,0-0.613-0.094-0.88-0.286c-0.67-0.488-0.819-1.425-0.332-2.095
			C27.212,25.639,18.809,3.63,18.722,3.409c-0.301-0.771,0.08-1.641,0.851-1.942c0.774-0.302,1.641,0.078,1.943,0.849
			c0.376,0.963,9.094,23.747-2.239,39.37C18.984,42.09,18.527,42.305,18.062,42.305z"/>
		<path id="path-7_58_" d="M17.396,42.305c-0.472,0-0.938-0.224-1.23-0.641C4.554,25.045,12.878,2.789,13.239,1.85
			c0.296-0.773,1.158-1.162,1.937-0.864c0.773,0.296,1.16,1.163,0.865,1.937c-0.083,0.216-8.106,21.723,2.585,37.022
			c0.474,0.679,0.309,1.614-0.37,2.088C17.993,42.217,17.694,42.305,17.396,42.305z"/>
		<path id="path-8_47_" d="M52.07,19.035c-0.828,0-1.5-0.672-1.5-1.5v-4c0-0.828,0.672-1.5,1.5-1.5c0.828,0,1.5,0.672,1.5,1.5v4
			C53.57,18.363,52.899,19.035,52.07,19.035z"/>
		<path id="path-9_31_" d="M52.488,15.109c-2.55,0-4.472-2.9-4.472-6.746c0-3.844,1.922-6.744,4.472-6.744
			c2.549,0,4.472,2.9,4.472,6.744C56.959,12.209,55.037,15.109,52.488,15.109z M52.488,4.619c-0.427,0-1.472,1.313-1.472,3.744
			c0,2.434,1.045,3.746,1.472,3.746c0.427,0,1.472-1.312,1.472-3.746C53.959,5.932,52.915,4.619,52.488,4.619z"/>
		<path id="path-10_23_" d="M52.488,64.619c-2.55,0-4.472-2.9-4.472-6.746c0-3.845,1.922-6.744,4.472-6.744
			c2.549,0,4.472,2.899,4.472,6.744C56.959,61.719,55.037,64.619,52.488,64.619z M52.488,54.129c-0.427,0-1.472,1.312-1.472,3.744
			c0,2.434,1.045,3.746,1.472,3.746c0.427,0,1.472-1.312,1.472-3.746C53.959,55.441,52.915,54.129,52.488,54.129z"/>
		<path id="path-11_19_" d="M52.07,53.035c-0.828,0-1.5-0.672-1.5-1.5v-2c0-0.828,0.672-1.5,1.5-1.5c0.828,0,1.5,0.672,1.5,1.5v2
			C53.57,52.363,52.899,53.035,52.07,53.035z"/>
		<path id="path-12_16_" d="M58.07,50.535h-11c-0.828,0-1.5-0.672-1.5-1.5v-31c0-0.828,0.672-1.5,1.5-1.5h11
			c0.828,0,1.5,0.672,1.5,1.5v31C59.57,49.863,58.899,50.535,58.07,50.535z M48.57,47.535h8v-28h-8V47.535z"/>
	</g>
</g>
<g>
</g>
<g>
</g>
<g>
</g>
<g>
</g>
<g>
</g>
<g>
</g>
<g>
</g>
<g>
</g>
<g>
</g>
<g>
</g>
<g>
</g>
<g>
</g>
<g>
</g>
<g>
</g>
<g>
</g>
</svg>
