<?xml version="1.0" encoding="iso-8859-1"?>
<!-- Generator: Adobe Illustrator 19.1.0, SVG Export Plug-In . SVG Version: 6.00 Build 0)  -->
<svg version="1.1" id="Capa_1" xmlns="http://www.w3.org/2000/svg" xmlns:xlink="http://www.w3.org/1999/xlink" x="0px" y="0px"
	 viewBox="0 0 66.5 66.5" style="enable-background:new 0 0 66.5 66.5;" xml:space="preserve">
<g>
	<g id="group-22svg">
		<path id="path-1_13_" style="fill:#81BDA4;" d="M42.566,47.776c-2.05-4.453-0.998-12.805-0.67-14.987
			c0.052-0.348-9.006-0.412-8.956-0.069c0.314,2.169,1.324,10.628-0.728,15.087c-2.377,5.163-8.834,14.487-0.145,14.487h5.417h5.164
			C51.336,62.294,44.943,52.94,42.566,47.776z"/>
		<path id="path-2_13_" style="fill:#99746A;" d="M54.205,34.262c0,0-10.205-2.089-17.705-2.089s-17.705,2.089-17.705,2.089
			c-6.79,0-12.295-1.57-12.295-8.36l0,0c0-6.79,6.762-14.262,15.246-16.229c0,0,9.467-1.968,14.754-1.968s15.405,2.273,15.405,2.273
			C62.033,13.238,66.5,19.112,66.5,25.902l0,0C66.5,32.692,60.995,34.262,54.205,34.262z"/>
		<path id="path-3_13_" d="M49.205,33.762c-0.101,0-0.202-0.01-0.301-0.03c-0.101-0.021-10.146-2.059-17.404-2.059
			c-7.264,0-17.303,2.038-17.404,2.059c-0.099,0.02-0.2,0.03-0.301,0.03c-3.412,0-13.795,0-13.795-9.86
			C0,16.245,7.36,8.309,16.407,6.211c0.426-0.089,9.714-2.006,15.093-2.006c5.391,0,15.314,2.215,15.734,2.309
			c0.044,0.01,0.088,0.022,0.13,0.036C57.447,9.796,63,15.958,63,23.902C63,33.762,52.617,33.762,49.205,33.762z M31.5,28.673
			c7.154,0,16.501,1.818,17.854,2.089C56.813,30.735,60,28.679,60,23.902c0-6.613-4.664-11.617-13.489-14.475
			C45.638,9.234,36.343,7.205,31.5,7.205c-5.07,0-14.356,1.917-14.449,1.936C9.45,10.904,3,17.667,3,23.902
			c0,4.777,3.186,6.833,10.646,6.86C14.999,30.491,24.346,28.673,31.5,28.673z"/>
		<path id="path-4_13_" d="M37.648,61.294H27.067c-2.597,0-4.371-0.757-5.275-2.25c-1.769-2.925,0.6-7.449,2.691-11.439
			c0.512-0.978,0.996-1.902,1.367-2.707c1.478-3.212,1.282-9.352,0.606-14.026c-0.063-0.43,0.072-0.886,0.357-1.215
			c0.435-0.503,0.653-0.755,5.563-0.755c4.993,0,5.213,0.255,5.651,0.765c0.285,0.331,0.418,0.79,0.352,1.222
			c-0.702,4.668-0.928,10.801,0.549,14.01c0.364,0.791,0.836,1.696,1.336,2.655c2.087,4.007,4.453,8.548,2.672,11.484
			C42.028,60.535,40.249,61.294,37.648,61.294z M29.619,31.953c0.393,3.45,0.825,10.138-1.044,14.2
			c-0.403,0.874-0.904,1.831-1.435,2.844c-1.464,2.794-3.675,7.016-2.781,8.494c0.422,0.698,1.878,0.803,2.708,0.803h10.581
			c0.833,0,2.295-0.106,2.723-0.812c0.905-1.492-1.305-5.734-2.768-8.541c-0.517-0.993-1.005-1.93-1.4-2.788
			c-1.87-4.062-1.405-10.747-0.993-14.198c-0.69-0.03-1.648-0.053-2.834-0.053C31.226,31.902,30.294,31.924,29.619,31.953z"/>
		<path id="path-5_13_" d="M9.613,26.14c-0.789,0-1.45-0.616-1.496-1.414c-0.174-3.023,0.776-5.68,2.824-7.898
			c6.076-6.578,19.939-6.954,20.526-6.966c0.869-0.024,1.513,0.638,1.532,1.466c0.018,0.828-0.638,1.514-1.466,1.533
			c-0.131,0.002-13.183,0.362-18.391,6.006c-1.493,1.618-2.157,3.478-2.03,5.686c0.048,0.828-0.584,1.537-1.411,1.584
			C9.672,26.139,9.642,26.14,9.613,26.14z"/>
	</g>
</g>
<g>
</g>
<g>
</g>
<g>
</g>
<g>
</g>
<g>
</g>
<g>
</g>
<g>
</g>
<g>
</g>
<g>
</g>
<g>
</g>
<g>
</g>
<g>
</g>
<g>
</g>
<g>
</g>
<g>
</g>
</svg>
