<?xml version="1.0" encoding="iso-8859-1"?>
<!-- Generator: Adobe Illustrator 19.1.0, SVG Export Plug-In . SVG Version: 6.00 Build 0)  -->
<svg version="1.1" id="Capa_1" xmlns="http://www.w3.org/2000/svg" xmlns:xlink="http://www.w3.org/1999/xlink" x="0px" y="0px"
	 viewBox="0 0 65.5 65.5" style="enable-background:new 0 0 65.5 65.5;" xml:space="preserve">
<g>
	<g id="group-89svg">
		<path id="path-1_86_" style="fill:#99746A;" d="M35.5,58.032c16.568,0,30-14,30-30h-60C5.5,44.032,18.932,58.032,35.5,58.032z"/>
		<path id="path-2_86_" style="fill:#E56A77;" d="M40.414,28.032V42.36c0,1.362,2.659,2.672,4.021,2.672h-0.286
			c1.362,0,1.265-1.31,1.265-2.672v-7.328h6v-7H40.414z"/>
		<path id="path-3_86_" d="M31.5,57.032c-17.075,0-31.5-14.425-31.5-31.5c0-0.828,0.672-1.5,1.5-1.5h60c0.828,0,1.5,0.672,1.5,1.5
			C63,42.607,48.575,57.032,31.5,57.032z M3.041,27.032c0.811,14.785,13.513,27,28.459,27s27.649-12.215,28.459-27H3.041z"/>
		<path id="path-4_86_" d="M35.414,34.032h-33c-0.828,0-1.5-0.671-1.5-1.5c0-0.828,0.672-1.5,1.5-1.5h33c0.828,0,1.5,0.672,1.5,1.5
			C36.914,33.361,36.242,34.032,35.414,34.032z"/>
		<path id="path-5_83_" d="M40.435,44.032h-0.286c-0.11,0-0.216-0.011-0.319-0.033c-1.954-0.211-4.416-1.397-4.416-3.638V25.532
			c0-0.828,0.672-1.5,1.5-1.5h11c0.828,0,1.5,0.672,1.5,1.5v7c0,0.829-0.672,1.5-1.5,1.5h-4.5v6.329
			c0,2.675-1.452,3.433-2.582,3.619C40.705,44.014,40.572,44.032,40.435,44.032z M38.414,27.032v13.329
			c0.105,0.148,0.972,0.61,1.866,0.666c0.028-0.002,0.05-0.005,0.068-0.008c0.027-0.089,0.066-0.284,0.066-0.658v-7.829
			c0-0.828,0.672-1.5,1.5-1.5h4.5v-4H38.414z"/>
		<path id="path-6_75_" d="M31.741,50.899c-7.228,0-12.254-2.84-12.529-2.999c-0.718-0.414-0.963-1.332-0.549-2.049
			c0.413-0.717,1.331-0.961,2.046-0.551l0,0c0.079,0.045,7.993,4.473,17.831,1.635c0.799-0.231,1.628,0.229,1.858,1.025
			c0.229,0.797-0.23,1.628-1.026,1.858C36.655,50.601,34.083,50.899,31.741,50.899z"/>
		<path id="path-7_60_" d="M33.632,26.977c-0.443,0-0.883-0.197-1.179-0.572c-0.512-0.65-0.401-1.593,0.249-2.107L53.649,7.79
			c0.65-0.513,1.592-0.401,2.106,0.249c0.513,0.652,0.401,1.595-0.249,2.107L34.56,26.655
			C34.284,26.872,33.957,26.977,33.632,26.977z"/>
		<path id="path-8_49_" d="M21.915,26.977c-0.443,0-0.883-0.197-1.179-0.572c-0.512-0.65-0.401-1.593,0.249-2.107l14.557-11.472
			c0.652-0.512,1.594-0.401,2.107,0.249c0.512,0.652,0.401,1.595-0.249,2.108L22.843,26.655
			C22.568,26.872,22.24,26.977,21.915,26.977z"/>
	</g>
</g>
<g>
</g>
<g>
</g>
<g>
</g>
<g>
</g>
<g>
</g>
<g>
</g>
<g>
</g>
<g>
</g>
<g>
</g>
<g>
</g>
<g>
</g>
<g>
</g>
<g>
</g>
<g>
</g>
<g>
</g>
</svg>
