<?xml version="1.0" encoding="iso-8859-1"?>
<!-- Generator: Adobe Illustrator 19.1.0, SVG Export Plug-In . SVG Version: 6.00 Build 0)  -->
<svg version="1.1" id="Capa_1" xmlns="http://www.w3.org/2000/svg" xmlns:xlink="http://www.w3.org/1999/xlink" x="0px" y="0px"
	 viewBox="0 0 63.98 63.98" style="enable-background:new 0 0 63.98 63.98;" xml:space="preserve">
<g>
	<g id="group-69svg">
		<path id="path-1_64_" style="fill:#99746A;" d="M6.572,17.709c2.426,11.796,18.25,24.6,18.25,24.6
			c1.264,1.149,2.91,1.506,4.619,1.506h11.67c1.708,0,3.356-0.357,4.619-1.506c0,0,15.825-12.943,18.25-24.74l0,0"/>
		<path id="path-2_64_" style="fill:#EDC951;" d="M63.98,17.709c0,5.804-12.867,10.509-28.74,10.509
			c-15.872,0-28.74-4.705-28.74-10.509S19.368,7.2,35.24,7.2C51.113,7.2,63.98,11.905,63.98,17.709z"/>
		<path id="path-3_64_" d="M30.24,28.718C15.58,28.718,0,24.509,0,16.709S15.58,4.7,30.24,4.7s30.24,4.209,30.24,12.009
			S44.9,28.718,30.24,28.718z M30.24,7.7C14.187,7.7,3,12.448,3,16.709c0,4.262,11.187,9.009,27.24,9.009s27.24-4.747,27.24-9.009
			C57.48,12.448,46.293,7.7,30.24,7.7z"/>
		<path id="path-4_64_" style="fill:#8B71B5;" d="M39.51,11.075c-2.275-0.526-4.924-0.804-7.662-0.804
			c-4.982,0-10.775,0.966-12.851,3.068l-0.09-0.115l-0.031,0.243c-0.185,0.206-0.333,0.422-0.444,0.649
			c-0.367,0.751-0.327,1.555,0.105,2.301c0.016,0.656,0.239,1.295,0.658,1.876l0.114,0.161l0.162,0.111
			c1.568,1.09,4.914,1.921,8.353,2.128c-0.576,0.017-1.16,0.026-1.75,0.026c-2.262,0-4.408-0.142-6.398-0.426
			c-0.618-0.087-1.194,0.308-1.317,0.918l-0.002,0.011c-0.13,0.643,0.292,1.265,0.937,1.384c2.015,0.372,4.203,0.542,6.92,0.542
			c1.314,0,2.629-0.038,3.943-0.076c1.293-0.037,2.585-0.075,3.977-0.079c7.485-0.651,11.943-2.804,12.23-5.91
			C46.597,14.579,44.052,12.336,39.51,11.075z M28.696,12.743l-0.04,0.294c-0.042,0.302-0.057,0.6-0.046,0.892
			c-0.926,0.252-1.622,0.556-2.183,0.945l-0.173,0.148c-0.821,0.854-0.703,1.649-0.561,2.046c0.089,0.248,0.225,0.471,0.412,0.671
			c-1.3-0.306-2.534-0.732-3.801-1.172c-0.626-0.309-1.037-0.577-1.306-0.791C21.655,14.63,24.185,13.159,28.696,12.743z
			 M35.122,16.524c0.013,0.203-0.145,0.449-0.424,0.677c-0.018-0.007-0.037-0.015-0.056-0.023c-0.766-0.299-1.988-0.778-2.827-1.543
			c0.68-0.108,1.327-0.213,1.903-0.353C34.719,15.739,35.104,16.226,35.122,16.524z M34.812,19.874c0,0,0.868-0.302,1.033-0.5
			l1.454-1.515c0.232-0.442,0.304-0.862,0.303-1.216c0-0.598-0.211-1.378-1-2.201c0,0-1.387-1.088-1.498-1.154
			c4.714,0.867,7.73,2.541,8.165,3.507c-0.965,1.271-4.434,2.588-9.192,3.327C34.314,20.041,34.812,19.874,34.812,19.874z"/>
		<path id="path-5_64_" d="M36.111,44.815h-11.67c-2.108,0-4.106-0.762-5.629-2.146c-0.607-0.5-16.206-13.483-18.71-25.658
			C-0.064,16.2,0.459,15.407,1.27,15.24c0.805-0.168,1.604,0.354,1.772,1.167c2.29,11.136,17.581,23.868,17.735,23.996
			c1.023,0.927,2.305,1.412,3.664,1.412h11.67c1.36,0,2.642-0.485,3.61-1.365c0.209-0.175,15.5-12.922,17.79-24.059
			c0.168-0.811,0.964-1.334,1.771-1.166c0.812,0.166,1.334,0.959,1.168,1.772C57.946,29.17,42.349,42.168,41.685,42.715
			C40.218,44.053,38.22,44.815,36.111,44.815z"/>
		<path id="path-6_57_" d="M14.725,55.457c-0.726,0-1.364-0.528-1.48-1.267c-0.129-0.818,0.43-1.586,1.248-1.715l38.103-6.004
			c0.812-0.125,1.586,0.429,1.714,1.248c0.129,0.819-0.429,1.586-1.248,1.715L14.96,55.439
			C14.881,55.451,14.803,55.457,14.725,55.457z"/>
		<path id="path-7_48_" d="M23.396,59.28c-0.725,0-1.363-0.528-1.479-1.267c-0.129-0.818,0.43-1.586,1.248-1.716l38.102-6.004
			c0.811-0.124,1.585,0.43,1.714,1.248c0.129,0.819-0.429,1.587-1.248,1.716l-38.101,6.005C23.553,59.274,23.475,59.28,23.396,59.28
			z"/>
	</g>
</g>
<g>
</g>
<g>
</g>
<g>
</g>
<g>
</g>
<g>
</g>
<g>
</g>
<g>
</g>
<g>
</g>
<g>
</g>
<g>
</g>
<g>
</g>
<g>
</g>
<g>
</g>
<g>
</g>
<g>
</g>
</svg>
