<?xml version="1.0" encoding="iso-8859-1"?>
<!-- Generator: Adobe Illustrator 19.1.0, SVG Export Plug-In . SVG Version: 6.00 Build 0)  -->
<svg version="1.1" id="Capa_1" xmlns="http://www.w3.org/2000/svg" xmlns:xlink="http://www.w3.org/1999/xlink" x="0px" y="0px"
	 viewBox="0 0 63.5 63.5" style="enable-background:new 0 0 63.5 63.5;" xml:space="preserve">
<g>
	<g id="group-10svg">
		<path id="path-1" style="fill:#81BDA4;" d="M40.85,18.404c-2.212,0-4.345,0.357-6.35,1.02c-2.006-0.663-4.138-1.02-6.35-1.02
			c-11.754,0-21.284,10.095-21.284,22.548S16.396,63.5,28.15,63.5c2.212,0,4.344-0.358,6.35-1.02c2.005,0.662,4.138,1.02,6.35,1.02
			c11.755,0,21.284-10.095,21.284-22.548S52.605,18.404,40.85,18.404z"/>
		<path id="path-2" style="fill:#EDC951;" d="M38.786,25.73c-1.493,0-2.933,0.241-4.286,0.689c-1.353-0.448-2.793-0.689-4.286-0.689
			c-7.937,0-14.369,6.815-14.369,15.222s6.432,15.222,14.369,15.222c1.493,0,2.933-0.242,4.286-0.689
			c1.353,0.447,2.793,0.689,4.286,0.689c7.937,0,14.369-6.815,14.369-15.222S46.723,25.73,38.786,25.73z"/>
		<path id="path-3" style="fill:#E56A77;" d="M39.102,40.626c0,4.092-2.187,7.408-4.885,7.408c-2.697,0-4.884-3.316-4.884-7.408
			c0-4.091,2.187-7.407,4.884-7.407C36.915,33.219,39.102,36.535,39.102,40.626z"/>
		<path id="path-4" style="fill:#81BDA4;" d="M36.131,8.398c0,0,0.383-6.794,7.517-4.378C50.783,6.436,57.245,9,57.245,9
			s-5.361,7.02-15.407,2.414C41.838,11.414,38.68,9.876,36.131,8.398z"/>
		<path id="path-5" d="M34.786,55.674c-1.456,0-2.895-0.207-4.286-0.618c-1.391,0.411-2.83,0.618-4.286,0.618
			c-8.75,0-15.869-7.501-15.869-16.722S17.464,22.23,26.214,22.23c1.457,0,2.896,0.207,4.286,0.617
			c1.39-0.41,2.829-0.617,4.286-0.617c8.75,0,15.869,7.501,15.869,16.722S43.536,55.674,34.786,55.674z M30.5,51.985
			c0.159,0,0.317,0.026,0.471,0.076c1.231,0.407,2.514,0.613,3.815,0.613c7.096,0,12.869-6.156,12.869-13.722
			S41.882,25.23,34.786,25.23c-1.302,0-2.585,0.206-3.815,0.613c-0.305,0.101-0.637,0.101-0.942,0
			c-1.23-0.407-2.513-0.613-3.815-0.613c-7.096,0-12.869,6.156-12.869,13.722s5.773,13.722,12.869,13.722
			c1.301,0,2.584-0.206,3.815-0.613C30.183,52.011,30.341,51.985,30.5,51.985z"/>
		<path id="path-6" d="M36.85,63c-2.161,0-4.294-0.318-6.35-0.946C28.444,62.682,26.311,63,24.15,63
			C11.587,63,1.366,52.212,1.366,38.952c0-13.261,10.221-24.049,22.784-24.049c2.161,0,4.293,0.318,6.35,0.947
			c2.057-0.629,4.189-0.947,6.35-0.947c12.563,0,22.784,10.788,22.784,24.049C59.634,52.212,49.413,63,36.85,63z M30.5,58.98
			c0.159,0,0.318,0.025,0.471,0.075C32.866,59.682,34.844,60,36.85,60c10.909,0,19.784-9.442,19.784-21.048
			c0-11.607-8.875-21.049-19.784-21.049c-2.005,0-3.983,0.318-5.879,0.945c-0.305,0.101-0.637,0.101-0.942,0
			c-1.896-0.627-3.874-0.945-5.879-0.945c-10.909,0-19.784,9.442-19.784,21.049C4.366,50.558,13.241,60,24.15,60
			c2.006,0,3.984-0.318,5.879-0.945C30.182,59.005,30.341,58.98,30.5,58.98z"/>
		<path id="path-7" d="M30.218,47.534c-3.58,0-6.385-3.913-6.385-8.908s2.805-8.907,6.385-8.907s6.384,3.912,6.384,8.907
			S33.798,47.534,30.218,47.534z M30.218,32.718c-1.601,0-3.385,2.427-3.385,5.908c0,3.482,1.784,5.908,3.385,5.908
			c1.6,0,3.384-2.426,3.384-5.908C33.602,35.145,31.818,32.718,30.218,32.718z"/>
		<path id="path-8" d="M45.415,12.48c-2.314,0-4.738-0.573-7.202-1.703c-0.162-0.078-3.269-1.593-5.835-3.082
			c-0.488-0.283-0.776-0.818-0.745-1.382C31.757,4.13,33.216,0,37.856,0c0.999,0,2.1,0.202,3.274,0.599
			C48.219,3,54.733,5.58,54.799,5.606c0.436,0.173,0.766,0.541,0.891,0.994c0.126,0.452,0.033,0.937-0.252,1.311
			C55.295,8.097,51.873,12.48,45.415,12.48z M34.771,5.605c2.271,1.264,4.696,2.447,4.723,2.46c2.038,0.934,4.041,1.415,5.921,1.415
			c2.756,0,4.788-1.023,6.062-1.945c-2.492-0.954-6.783-2.562-11.31-4.094C39.305,3.148,38.527,3,37.856,3
			C35.784,3,35.039,4.541,34.771,5.605z"/>
		<path id="path-9" d="M30.498,17.903c-0.783,0-1.442-0.608-1.495-1.401c-0.126-1.927,1.022-9.015,1.153-9.817
			c0.007-0.039,0.015-0.077,0.024-0.116c0.04-0.159,1.009-3.929,5.175-6.192c0.727-0.395,1.638-0.126,2.035,0.602
			c0.395,0.728,0.125,1.639-0.603,2.034c-2.776,1.508-3.571,3.859-3.682,4.236c-0.476,2.91-1.186,7.872-1.108,9.055
			c0.054,0.827-0.572,1.542-1.398,1.596C30.565,17.902,30.531,17.903,30.498,17.903z"/>
	</g>
</g>
<g>
</g>
<g>
</g>
<g>
</g>
<g>
</g>
<g>
</g>
<g>
</g>
<g>
</g>
<g>
</g>
<g>
</g>
<g>
</g>
<g>
</g>
<g>
</g>
<g>
</g>
<g>
</g>
<g>
</g>
</svg>
