<?xml version="1.0" encoding="iso-8859-1"?>
<!-- Generator: Adobe Illustrator 19.1.0, SVG Export Plug-In . SVG Version: 6.00 Build 0)  -->
<svg version="1.1" id="Capa_1" xmlns="http://www.w3.org/2000/svg" xmlns:xlink="http://www.w3.org/1999/xlink" x="0px" y="0px"
	 viewBox="0 0 63.5 63.5" style="enable-background:new 0 0 63.5 63.5;" xml:space="preserve">
<g>
	<g id="group-3svg">
		<path id="path-1_21_" style="fill:#EDC951;" d="M47.427,39.837c-0.922-0.755-3.176-2.617-3.176-2.617
			c-3.677-2.299-4.143-6.395-4.143-11.052c0,0,1.467-12.524-7.23-12.524c-8.95,0-7.231,12.524-7.231,12.524
			c0,4.657-0.465,8.753-4.142,11.052c0,0-2.254,1.862-3.176,2.617c-3.066,2.51-5.235,6.154-5.235,10.421
			c0,7.173,3.982,11.553,11.01,12.989c5.108,1.043,8.774-1.471,8.774-1.471s3.666,2.514,8.774,1.471
			c7.028-1.436,11.01-5.816,11.01-12.989C52.662,45.991,50.492,42.347,47.427,39.837z"/>
		<path id="path-2_21_" style="fill:#81BDA4;" d="M35.317,8.276c0,0,0.374-6.625,7.331-4.269s13.258,4.856,13.258,4.856
			s-5.228,6.845-15.023,2.354C40.883,11.217,37.803,9.717,35.317,8.276z"/>
		<path id="path-3_21_" d="M35.158,63L35.158,63c-2.888,0-5.13-0.908-6.28-1.498c-1.15,0.59-3.392,1.498-6.28,1.498
			c-0.932,0-1.872-0.095-2.794-0.283c-7.874-1.609-12.21-6.744-12.21-14.459c0-4.414,2.054-8.528,5.785-11.582
			c0.92-0.754,3.171-2.612,3.171-2.612c0.051-0.042,0.104-0.08,0.16-0.115c2.856-1.787,3.43-4.908,3.437-9.687
			c-0.118-0.975-0.784-7.663,2.547-11.483c1.525-1.748,3.605-2.635,6.184-2.635c2.477,0,4.496,0.859,6.002,2.552
			c3.393,3.813,2.823,10.63,2.728,11.552c0.007,4.787,0.579,7.912,3.438,9.701c0.056,0.035,0.109,0.073,0.16,0.115
			c0,0,2.25,1.859,3.171,2.612c3.73,3.055,5.785,7.168,5.785,11.582c0,7.715-4.337,12.85-12.21,14.459
			C37.03,62.905,36.09,63,35.158,63z M28.878,58.276c0.296,0,0.593,0.088,0.848,0.263C29.741,58.549,31.944,60,35.158,60l0,0
			c0.73,0,1.468-0.074,2.193-0.223c6.51-1.33,9.811-5.205,9.811-11.519c0-3.498-1.664-6.787-4.686-9.261
			c-0.824-0.675-2.713-2.234-3.107-2.56c-4.391-2.808-4.761-7.802-4.761-12.269c0-0.057,0.004-0.116,0.01-0.173
			c0.007-0.063,0.689-6.314-1.983-9.31c-0.925-1.037-2.154-1.541-3.757-1.541c-1.697,0-2.98,0.526-3.923,1.607
			c-2.188,2.508-2.057,7.501-1.822,9.213c0.009,0.068,0.014,0.135,0.014,0.204c0,4.467-0.369,9.462-4.76,12.269
			c-0.394,0.326-2.283,1.885-3.108,2.56c-3.021,2.474-4.685,5.763-4.685,9.261c0,6.314,3.301,10.189,9.811,11.519
			C21.13,59.926,21.868,60,22.598,60c3.211,0,5.41-1.446,5.432-1.461C28.285,58.364,28.581,58.276,28.878,58.276z"/>
		<path id="path-4_21_" d="M31.901,48.629l-0.055-7.473l3.901,6.374c0.599,0.978,0.291,2.256-0.687,2.854
			c-0.978,0.599-2.255,0.291-2.854-0.687C32.003,49.366,31.905,48.991,31.901,48.629z"/>
		<path id="path-5_21_" d="M22.998,47.53l3.902-6.374l-0.056,7.473c-0.008,1.147-0.944,2.069-2.091,2.06
			c-1.146-0.008-2.069-0.944-2.06-2.091C22.696,48.21,22.81,47.84,22.998,47.53z"/>
		<path id="path-6_18_" d="M43.296,12.244c-2.263,0-4.631-0.56-7.039-1.664c-0.159-0.077-3.189-1.555-5.692-3.007
			c-0.489-0.283-0.777-0.818-0.745-1.382C29.941,4.05,31.372,0,35.926,0c0.977,0,2.055,0.198,3.203,0.586
			c6.914,2.342,13.266,4.858,13.33,4.883c0.436,0.173,0.766,0.541,0.892,0.994c0.125,0.452,0.032,0.937-0.254,1.311
			C52.958,7.956,49.61,12.244,43.296,12.244z M32.961,5.484c2.203,1.226,4.551,2.371,4.578,2.384
			c1.981,0.908,3.929,1.376,5.757,1.376c2.641,0,4.595-0.963,5.834-1.849c-2.437-0.932-6.587-2.485-10.963-3.967
			C37.329,3.144,36.575,3,35.926,3C33.949,3,33.225,4.459,32.961,5.484z"/>
		<path id="path-7_14_" d="M28.876,13.144c-0.783,0-1.443-0.608-1.495-1.401c-0.127-1.938,0.86-4.864,1.048-5.4
			c0.171-0.604,1.265-3.921,5.041-5.971c0.729-0.396,1.638-0.126,2.034,0.602c0.395,0.728,0.125,1.639-0.603,2.035
			c-2.873,1.559-3.559,4.048-3.587,4.154c-0.01,0.04-0.026,0.093-0.04,0.132c-0.385,1.083-0.969,3.195-0.9,4.251
			c0.055,0.826-0.571,1.541-1.398,1.595C28.943,13.143,28.91,13.144,28.876,13.144z"/>
	</g>
</g>
<g>
</g>
<g>
</g>
<g>
</g>
<g>
</g>
<g>
</g>
<g>
</g>
<g>
</g>
<g>
</g>
<g>
</g>
<g>
</g>
<g>
</g>
<g>
</g>
<g>
</g>
<g>
</g>
<g>
</g>
</svg>
