<?xml version="1.0" encoding="iso-8859-1"?>
<!-- Generator: Adobe Illustrator 19.1.0, SVG Export Plug-In . SVG Version: 6.00 Build 0)  -->
<svg version="1.1" id="Capa_1" xmlns="http://www.w3.org/2000/svg" xmlns:xlink="http://www.w3.org/1999/xlink" x="0px" y="0px"
	 viewBox="0 0 63.5 63.5" style="enable-background:new 0 0 63.5 63.5;" xml:space="preserve">
<g>
	<g id="group-21svg">
		<path id="path-1_12_" style="fill:#FF917B;" d="M56.467,41.533c0,12.132-9.835,21.967-21.968,21.967
			c-12.131,0-21.966-9.835-21.966-21.967s9.835-21.967,21.966-21.967C46.632,19.566,56.467,29.401,56.467,41.533z"/>
		<path id="path-2_12_" style="fill:#81BDA4;" d="M34.965,12.242c0,0-0.317-7.723,8.017-5.779s8.227-2.196,8.227-2.196
			s2.409,14.855-9.458,10.756C41.751,15.023,38.01,13.633,34.965,12.242z"/>
		<path id="path-3_12_" style="fill:#81BDA4;" d="M35.125,12.986c0,0,1.052-7.658-7.43-6.517C19.214,7.611,19.714,3.5,19.714,3.5
			s-3.811,14.558,8.391,11.608C28.105,15.108,31.962,14.08,35.125,12.986z"/>
		<path id="path-4_12_" d="M30.499,63C17.56,63,7.033,52.472,7.033,39.533S17.56,16.066,30.499,16.066
			c12.94,0,23.468,10.528,23.468,23.467S43.439,63,30.499,63z M30.499,19.066c-11.285,0-20.466,9.181-20.466,20.467
			S19.214,60,30.499,60c11.286,0,20.468-9.181,20.468-20.467S41.785,19.066,30.499,19.066z"/>
		<path id="path-5_12_" d="M30.965,11.743c-0.639,0-1.231-0.411-1.432-1.053c-0.246-0.791,0.194-1.632,0.986-1.879
			c0.232-0.073,5.745-1.771,9.742-0.998c0.813,0.157,1.345,0.944,1.188,1.757c-0.157,0.813-0.946,1.346-1.757,1.188
			c-2.708-0.523-6.895,0.484-8.28,0.917C31.264,11.721,31.113,11.743,30.965,11.743z"/>
		<path id="path-6_11_" d="M41.468,15.238c-1.259,0-2.674-0.268-4.206-0.797c-0.188-0.07-3.86-1.437-6.92-2.833
			c-0.514-0.235-0.852-0.739-0.875-1.304c-0.006-0.14-0.117-3.468,2.033-5.708c1.759-1.832,4.419-2.388,7.823-1.594
			c1.366,0.319,2.562,0.48,3.556,0.48c2.029,0,2.793-0.665,2.831-1.235c-0.021-0.789,0.574-1.429,1.36-1.503
			c0.788-0.076,1.494,0.504,1.62,1.283c0.048,0.293,1.131,7.241-2.015,10.937C45.409,14.452,43.608,15.238,41.468,15.238z
			 M32.528,9.298c2.745,1.201,5.713,2.306,5.746,2.318c2.805,0.968,4.907,0.821,6.114-0.593c1.041-1.221,1.419-3.224,1.504-5.039
			c-1.728,0.679-4.15,0.663-7.25-0.06c-2.293-0.535-3.964-0.295-4.967,0.738C32.921,7.44,32.636,8.535,32.528,9.298z"/>
		<path id="path-7_7_" d="M21.129,15.002L21.129,15.002c-3.097,0-4.816-1.385-5.712-2.546C12.374,8.515,14.185,1.42,14.263,1.12
			c0.2-0.763,0.96-1.239,1.733-1.094c0.775,0.148,1.303,0.872,1.207,1.655c0.001-0.001,0.001-0.001,0.001-0.001
			c0.004,0,0.015,0.299,0.309,0.601c0.322,0.332,1.201,0.889,3.464,0.889c0.75,0,1.597-0.063,2.518-0.187
			c3.329-0.45,5.849,0.271,7.451,2.108c2.137,2.451,1.686,5.951,1.665,6.099c-0.076,0.56-0.461,1.029-0.995,1.214
			c-3.178,1.099-6.965,2.11-7.124,2.153C23.259,14.855,22.139,15.002,21.129,15.002z M16.671,5.324
			c-0.091,1.884,0.112,3.996,1.123,5.302c0.717,0.926,1.807,1.376,3.334,1.376h0.001c0.773,0,1.656-0.119,2.624-0.352
			c0.004-0.002,3.06-0.818,5.907-1.753c-0.036-0.804-0.231-1.989-0.985-2.846c-0.904-1.026-2.538-1.397-4.779-1.095
			C20.742,6.38,18.33,6.168,16.671,5.324z"/>
		<path id="path-8_6_" d="M31.124,12.486c-0.193,0-0.39-0.038-0.579-0.117c-0.048-0.021-4.857-2.013-8.156-1.7
			c-0.819,0.084-1.557-0.526-1.636-1.351s0.526-1.557,1.351-1.636c4.055-0.385,9.378,1.827,9.602,1.921
			c0.764,0.321,1.123,1.199,0.802,1.963C32.268,12.14,31.71,12.486,31.124,12.486z"/>
		<path id="path-9_4_" d="M30.498,17.947c-0.652,0-1.252-0.429-1.441-1.088c-0.807-2.825,0.416-7.746,0.558-8.299
			c0.206-0.802,1.027-1.283,1.825-1.078c0.803,0.206,1.286,1.023,1.08,1.825c-0.457,1.784-1.019,5.187-0.578,6.728
			c0.227,0.797-0.234,1.627-1.03,1.854C30.774,17.928,30.635,17.947,30.498,17.947z"/>
		<path id="path-10_2_" d="M39.732,24.856c0,1.046-0.848,1.894-1.894,1.894c-1.046,0-1.893-0.848-1.893-1.894
			s0.847-1.893,1.893-1.893C38.884,22.963,39.732,23.81,39.732,24.856z"/>
		<path id="path-11_2_" d="M31.896,30.453c0,1.046-0.848,1.894-1.894,1.894c-1.045,0-1.893-0.848-1.893-1.894
			s0.848-1.893,1.893-1.893C31.048,28.56,31.896,29.407,31.896,30.453z"/>
		<path id="path-12_2_" d="M31.896,39.409c0,1.045-0.848,1.893-1.894,1.893c-1.045,0-1.893-0.848-1.893-1.893
			c0-1.046,0.848-1.894,1.893-1.894C31.048,37.515,31.896,38.363,31.896,39.409z"/>
		<path id="path-13_2_" d="M47.568,40.528c0,1.046-0.848,1.894-1.894,1.894s-1.893-0.848-1.893-1.894
			c0-1.046,0.847-1.894,1.893-1.894S47.568,39.482,47.568,40.528z"/>
		<path id="path-14_2_" d="M17.343,40.528c0,1.046-0.847,1.894-1.893,1.894s-1.894-0.848-1.894-1.894
			c0-1.046,0.848-1.894,1.894-1.894S17.343,39.482,17.343,40.528z"/>
		<path id="path-15_2_" d="M44.21,32.692c0,1.046-0.848,1.894-1.894,1.894c-1.045,0-1.894-0.848-1.894-1.894
			c0-1.046,0.849-1.893,1.894-1.893C43.362,30.799,44.21,31.646,44.21,32.692z"/>
		<path id="path-16_2_" d="M22.512,24.856c0,1.046,0.847,1.894,1.893,1.894c1.046,0,1.894-0.848,1.894-1.894
			s-0.848-1.893-1.894-1.893C23.359,22.963,22.512,23.81,22.512,24.856z"/>
		<path id="path-17_2_" d="M18.034,32.692c0,1.046,0.848,1.894,1.893,1.894c1.046,0,1.894-0.848,1.894-1.894
			c0-1.046-0.848-1.893-1.894-1.893C18.882,30.799,18.034,31.646,18.034,32.692z"/>
	</g>
</g>
<g>
</g>
<g>
</g>
<g>
</g>
<g>
</g>
<g>
</g>
<g>
</g>
<g>
</g>
<g>
</g>
<g>
</g>
<g>
</g>
<g>
</g>
<g>
</g>
<g>
</g>
<g>
</g>
<g>
</g>
</svg>
