<?xml version="1.0" encoding="iso-8859-1"?>
<!-- Generator: Adobe Illustrator 19.1.0, SVG Export Plug-In . SVG Version: 6.00 Build 0)  -->
<svg version="1.1" id="Capa_1" xmlns="http://www.w3.org/2000/svg" xmlns:xlink="http://www.w3.org/1999/xlink" x="0px" y="0px"
	 viewBox="0 0 66.505 66.505" style="enable-background:new 0 0 66.505 66.505;" xml:space="preserve">
<g>
	<g id="group-27svg">
		<path id="path-1_18_" style="fill:#81BDA4;" d="M66.383,28.296c-21.953,6.04-37.805,6.04-59.757,0c0,0-1.374,7.94,5.104,13.447
			c6.479,5.507,43.07,5.507,49.548,0C67.757,36.236,66.383,28.296,66.383,28.296z"/>
		<path id="path-2_18_" style="fill:#81BDA4;" d="M45.525,32.112c-0.206-0.677-0.317-1.395-0.317-2.14
			c0-4.054,3.287-7.34,7.342-7.34c4.053,0,7.34,3.286,7.34,7.34l0,0"/>
		<path id="path-3_18_" style="fill:#81BDA4;" d="M28.662,32.112c0.206-0.677,0.316-1.395,0.316-2.14c0-4.054-3.286-7.34-7.341-7.34
			c-4.053,0-7.34,3.286-7.34,7.34l0,0"/>
		<path id="path-4_18_" style="fill:#81BDA4;" d="M29.659,32.14c-0.143-0.692-0.186-1.419-0.117-2.159
			c0.378-4.037,3.956-7.004,7.992-6.627c4.037,0.378,7.004,3.956,6.627,7.992l0,0"/>
		<path id="path-5_18_" d="M31.505,46.373c-9.895,0-21.854-1.179-25.746-4.487c-7.05-5.993-5.673-14.487-5.612-14.846
			c0.072-0.417,0.318-0.783,0.675-1.01c0.356-0.227,0.791-0.294,1.201-0.18c11.1,3.054,20.468,4.476,29.482,4.476
			c9.012,0,18.38-1.422,29.48-4.476c0.409-0.114,0.845-0.046,1.201,0.18c0.358,0.227,0.603,0.593,0.675,1.01
			c0.062,0.359,1.439,8.853-5.611,14.846C53.357,45.194,41.398,46.373,31.505,46.373z M2.994,29.219
			c0.005,2.4,0.626,6.911,4.708,10.381c2.613,2.222,12.401,3.773,23.803,3.773c11.4,0,21.188-1.551,23.801-3.773
			c4.081-3.469,4.703-7.978,4.707-10.381c-10.602,2.798-19.705,4.107-28.508,4.107C22.7,33.326,13.597,32.017,2.994,29.219z"/>
		<path id="path-6_15_" d="M40.524,32.613c-0.642,0-1.237-0.417-1.433-1.064c-0.254-0.833-0.383-1.7-0.383-2.577
			c0-4.875,3.966-8.84,8.841-8.84s8.841,3.965,8.841,8.84c0,0.829-0.672,1.5-1.5,1.5c-0.828,0-1.5-0.671-1.5-1.5
			c0-3.22-2.621-5.84-5.841-5.84c-3.221,0-5.841,2.62-5.841,5.84c0,0.581,0.085,1.153,0.252,1.703
			c0.241,0.793-0.205,1.631-0.998,1.872C40.816,32.592,40.67,32.613,40.524,32.613z"/>
		<path id="path-7_11_" d="M23.663,32.613c-0.146,0-0.292-0.021-0.438-0.066c-0.793-0.241-1.239-1.079-0.998-1.872
			c0.166-0.548,0.251-1.121,0.251-1.703c0-3.22-2.62-5.84-5.841-5.84c-3.22,0-5.84,2.62-5.84,5.84c0,0.829-0.672,1.5-1.5,1.5
			c-0.829,0-1.5-0.671-1.5-1.5c0-4.875,3.965-8.84,8.84-8.84s8.841,3.965,8.841,8.84c0,0.879-0.128,1.746-0.382,2.577
			C24.9,32.196,24.305,32.613,23.663,32.613z"/>
		<path id="path-8_9_" d="M24.657,32.641c-0.696,0-1.321-0.489-1.467-1.198c-0.176-0.851-0.222-1.727-0.14-2.602
			c0.218-2.351,1.34-4.476,3.159-5.983c1.817-1.508,4.117-2.214,6.465-1.997c4.853,0.454,8.433,4.772,7.98,9.625
			c-0.077,0.825-0.804,1.429-1.633,1.354c-0.824-0.077-1.43-0.808-1.353-1.633c0.299-3.207-2.067-6.059-5.274-6.359
			c-1.554-0.146-3.069,0.323-4.27,1.319c-1.201,0.996-1.943,2.4-2.088,3.953c-0.054,0.58-0.024,1.158,0.092,1.718
			c0.167,0.812-0.356,1.605-1.166,1.772C24.859,32.631,24.758,32.641,24.657,32.641z"/>
		<path id="path-9_6_" d="M40.437,40.668c-1.689,0-3.541-0.063-5.576-0.2c-0.826-0.056-1.451-0.771-1.395-1.598
			c0.055-0.826,0.756-1.459,1.598-1.395c15.314,1.034,19.408-2.47,19.696-3.908c0.062-0.825,0.775-1.395,1.604-1.341
			c0.826,0.062,1.44,0.824,1.378,1.65C57.649,35.098,56.343,40.668,40.437,40.668z"/>
	</g>
</g>
<g>
</g>
<g>
</g>
<g>
</g>
<g>
</g>
<g>
</g>
<g>
</g>
<g>
</g>
<g>
</g>
<g>
</g>
<g>
</g>
<g>
</g>
<g>
</g>
<g>
</g>
<g>
</g>
<g>
</g>
</svg>
