<?xml version="1.0" encoding="iso-8859-1"?>
<!-- Generator: Adobe Illustrator 19.1.0, SVG Export Plug-In . SVG Version: 6.00 Build 0)  -->
<svg version="1.1" id="Capa_1" xmlns="http://www.w3.org/2000/svg" xmlns:xlink="http://www.w3.org/1999/xlink" x="0px" y="0px"
	 viewBox="0 0 62.429 62.429" style="enable-background:new 0 0 62.429 62.429;" xml:space="preserve">
<g>
	<g id="group-15svg">
		<path id="path-1_5_" style="fill:#81BDA4;" d="M47.77,5.885c-5.187-7.071-9.842-0.039-9.842-0.039
			c-0.118-4.321-3.89-3.221-3.89-3.221s-3.86-1.1-3.978,3.221c0,0-4.7-7.032-9.887,0.039c-5.185,7.072-20.264,1.906-9.892,23.122
			c0,0-0.497,9.203,11.053,4.252c0,0,4.218,7.082,12.704,4.253c8.487,2.829,12.626-4.253,12.626-4.253
			c11.551,4.951,10.977-4.252,10.977-4.252C68.013,7.791,52.955,12.957,47.77,5.885z"/>
		<path id="path-2_5_" style="fill:#EDC951;" d="M34.25,37.748c-7.248,2.77-12.763-4.371-12.763-4.371
			c-0.27,0.344-2.295,1.17-2.295,1.17l9.813,27.882h10.019l7.823-28.379C43.208,40.64,34.25,37.748,34.25,37.748z M35.763,53.015
			l-4.872-9.586h7.387L35.763,53.015z"/>
		<path id="path-3_5_" d="M33.916,38.679c-1.256,0-2.558-0.199-3.878-0.594c-1.319,0.395-2.624,0.594-3.883,0.594
			c-4.918,0-8.007-2.951-9.344-4.591c-4.63,1.746-8.066,1.449-10.155-0.756c-1.629-1.719-1.859-4.024-1.878-4.986
			c-3.326-6.887-4.283-11.647-3.012-14.961c1.262-3.287,4.33-4.524,7.298-5.721c2.346-0.946,4.56-1.84,5.899-3.666
			c1.833-2.499,3.884-3.766,6.095-3.766c1.738,0,3.205,0.809,4.28,1.679C26.2,0.541,27.644,0,29.012,0
			c0.41,0,0.767,0.044,1.024,0.09C30.289,0.044,30.639,0,31.041,0c1.343,0,2.761,0.538,3.611,1.898
			c1.067-0.865,2.521-1.666,4.245-1.666c2.203,0,4.25,1.267,6.083,3.766c1.339,1.826,3.551,2.719,5.893,3.665
			c2.963,1.197,6.027,2.433,7.287,5.717c1.269,3.313,0.312,8.073-3.013,14.961c-0.013,0.967-0.225,3.273-1.84,4.993
			c-1.177,1.253-2.796,1.888-4.811,1.888h-0.001c-1.528,0-3.306-0.38-5.299-1.131C41.871,35.737,38.816,38.679,33.916,38.679z
			 M30.038,35.012c0.161,0,0.321,0.026,0.475,0.078c1.175,0.391,2.319,0.589,3.403,0.589c4.954,0,7.429-4.135,7.453-4.176
			c0.381-0.653,1.191-0.921,1.886-0.622c2.076,0.89,3.84,1.341,5.24,1.341h0.001c1.17,0,2.029-0.308,2.624-0.942
			c1.097-1.167,1.025-3.16,1.024-3.18c-0.017-0.259,0.035-0.519,0.149-0.752c3.021-6.178,4.023-10.395,3.065-12.894
			c-0.791-2.064-3.024-2.965-5.608-4.009c-2.506-1.012-5.346-2.159-7.19-4.672c-1.235-1.686-2.469-2.541-3.663-2.541
			c-1.716,0-3.299,1.809-3.718,2.443c-0.362,0.545-1.036,0.795-1.664,0.613c-0.629-0.179-1.068-0.746-1.086-1.401
			C32.377,3,31.54,3,31.041,3c-0.335,0-0.594,0.068-0.597,0.069c-0.26,0.07-0.555,0.073-0.817-0.002v0.001
			C29.626,3.068,29.358,3,29.012,3c-0.678,0-1.405,0.145-1.453,1.887c-0.018,0.653-0.456,1.22-1.083,1.401
			c-0.627,0.179-1.3-0.065-1.663-0.608c-0.46-0.677-2.039-2.448-3.755-2.448c-1.202,0-2.44,0.855-3.675,2.541
			c-1.845,2.514-4.688,3.661-7.197,4.673c-2.589,1.044-4.825,1.946-5.618,4.014c-0.959,2.498,0.042,6.714,3.06,12.888
			c0.113,0.229,0.164,0.484,0.151,0.739c-0.001,0.012-0.073,2.006,1.065,3.193c1.335,1.392,4.086,1.235,7.899-0.399
			c0.692-0.297,1.495-0.035,1.88,0.611c0.101,0.165,2.603,4.187,7.532,4.187c1.088,0,2.234-0.198,3.409-0.589
			C29.718,35.038,29.878,35.012,30.038,35.012z"/>
		<path id="path-4_5_" d="M36.011,16.955c-0.142,0-0.286-0.021-0.43-0.063c-0.794-0.237-1.245-1.072-1.008-1.866
			c0.045-0.152,1.146-3.739,4.473-5.383c2.172-1.073,4.714-1.07,7.555,0.009c0.774,0.294,1.163,1.16,0.869,1.935
			c-0.294,0.776-1.162,1.162-1.935,0.869c-2.03-0.772-3.764-0.813-5.16-0.124c-2.133,1.055-2.92,3.526-2.927,3.551
			C37.253,16.533,36.657,16.955,36.011,16.955z"/>
		<path id="path-5_5_" d="M16.21,16.012c-0.142,0-0.286-0.021-0.429-0.063c-0.794-0.236-1.245-1.072-1.009-1.866
			c0.045-0.152,1.146-3.738,4.473-5.383c2.173-1.073,4.714-1.07,7.555,0.009c0.775,0.294,1.163,1.16,0.869,1.935
			c-0.294,0.775-1.161,1.161-1.935,0.869c-2.03-0.771-3.764-0.813-5.159-0.124c-2.134,1.055-2.92,3.526-2.928,3.551
			C17.452,15.591,16.856,16.012,16.21,16.012z"/>
		<path id="path-6_5_" d="M19.982,32.041c-0.143,0-0.286-0.02-0.43-0.063c-0.794-0.236-1.245-1.072-1.009-1.865
			c0.045-0.152,1.147-3.739,4.474-5.384c2.173-1.074,4.714-1.07,7.555,0.009c0.774,0.294,1.163,1.161,0.869,1.935
			c-0.294,0.776-1.161,1.164-1.936,0.87c-2.03-0.772-3.763-0.814-5.159-0.124c-2.134,1.054-2.92,3.525-2.928,3.55
			C21.224,31.62,20.627,32.041,19.982,32.041z"/>
		<path id="path-7_4_" d="M38.84,29.213c-0.142,0-0.286-0.021-0.429-0.063c-0.794-0.237-1.246-1.072-1.009-1.866
			c0.045-0.152,1.146-3.739,4.473-5.383c2.172-1.074,4.714-1.07,7.555,0.008c0.774,0.295,1.163,1.161,0.869,1.935
			c-0.294,0.776-1.16,1.163-1.935,0.87c-2.03-0.771-3.764-0.813-5.16-0.124c-2.133,1.055-2.919,3.525-2.927,3.55
			C40.082,28.791,39.486,29.213,38.84,29.213z"/>
		<path id="path-8_4_" d="M11.495,25.441c-0.142,0-0.286-0.021-0.429-0.063c-0.794-0.237-1.245-1.072-1.009-1.866
			c0.045-0.152,1.146-3.738,4.474-5.383c2.173-1.074,4.714-1.07,7.554,0.009c0.775,0.294,1.163,1.161,0.869,1.935
			c-0.294,0.776-1.161,1.162-1.935,0.87c-2.029-0.772-3.766-0.814-5.159-0.124c-2.134,1.054-2.92,3.525-2.928,3.549
			C12.738,25.019,12.141,25.441,11.495,25.441z"/>
		<path id="path-9_2_" d="M35.024,62.429H25.005c-0.635,0-1.201-0.399-1.413-0.998l-9.813-27.632
			c-0.139-0.391-0.111-0.821,0.08-1.189c0.189-0.369,0.523-0.642,0.922-0.756c0.683-0.194,1.445-0.462,1.711-0.598
			c0.273-0.244,0.647-0.37,1.002-0.379c0.462,0.002,0.898,0.218,1.181,0.583c0.032,0.042,3.507,4.426,8.196,4.426
			c0.951,0,1.908-0.181,2.844-0.539c0.307-0.116,0.644-0.129,0.96-0.038c0.013,0.004,1.613,0.462,3.638,0.462
			c3.437,0,5.866-1.243,7.221-3.697c0.368-0.666,1.174-0.951,1.88-0.663c0.705,0.288,1.082,1.057,0.878,1.79l-7.823,28.13
			C36.288,61.98,35.698,62.429,35.024,62.429z M26.064,59.429h7.82l6.078-21.856c-1.6,0.792-3.497,1.198-5.649,1.198
			c-1.764,0-3.25-0.284-3.988-0.456c-1.134,0.38-2.293,0.572-3.454,0.572c-4.658,0-8.199-3.047-9.736-4.647
			c-0.005,0.002-0.01,0.004-0.015,0.006L26.064,59.429z M31.762,53.015c-0.559,0-1.078-0.313-1.336-0.82l-4.872-9.586
			c-0.236-0.465-0.215-1.019,0.059-1.464c0.272-0.445,0.757-0.716,1.278-0.716h7.387c0.465,0,0.903,0.216,1.187,0.584
			c0.284,0.368,0.382,0.847,0.264,1.297l-2.515,9.586c-0.158,0.602-0.672,1.044-1.291,1.111
			C31.869,53.012,31.816,53.015,31.762,53.015z M29.336,43.429l1.977,3.891l1.02-3.891H29.336z"/>
	</g>
</g>
<g>
</g>
<g>
</g>
<g>
</g>
<g>
</g>
<g>
</g>
<g>
</g>
<g>
</g>
<g>
</g>
<g>
</g>
<g>
</g>
<g>
</g>
<g>
</g>
<g>
</g>
<g>
</g>
<g>
</g>
</svg>
