<?xml version="1.0" encoding="iso-8859-1"?>
<!-- Generator: Adobe Illustrator 19.1.0, SVG Export Plug-In . SVG Version: 6.00 Build 0)  -->
<svg version="1.1" id="Capa_1" xmlns="http://www.w3.org/2000/svg" xmlns:xlink="http://www.w3.org/1999/xlink" x="0px" y="0px"
	 viewBox="0 0 67.5 67.5" style="enable-background:new 0 0 67.5 67.5;" xml:space="preserve">
<g>
	<g id="group-31svg">
		<path id="path-1_23_" style="fill:#99746A;" d="M15.656,45.922l13.75,12.965h17.688l12.25-12.699l-7.183-5.881
			c0,0-1.248,5.181-7.161,5.286s-7.051-5.024-7.051-5.024S35.747,45.502,30,45.607c-5.746,0.106-7.609-6.304-7.609-6.304
			S21.726,44.542,15.656,45.922z"/>
		<path id="path-2_23_" style="fill:#E56A77;" d="M61.133,30.728c0.72-1.376,1.117-2.841,1.117-4.364
			c0-7.87-10.381-14.25-23.187-14.25s-23.188,6.38-23.188,14.25c0,1.61,0.455,3.151,1.255,4.594
			c-0.679-0.202-1.385-0.344-2.13-0.344c-4.142,0-7.5,3.357-7.5,7.5c0,4.142,3.358,7.5,7.5,7.5c4.143,0,7.5-3.358,7.5-7.5
			c0-0.694,0-0.572,0,0c0,4.142,3.358,7.5,7.5,7.5c3.284,0,6.045-2.124,7.061-5.063c0.292,0.016,0.591,0.019,0.888,0.028
			c1.024,2.924,3.778,5.035,7.051,5.035c4.143,0,7.5-3.358,7.5-7.5c0-0.05-0.013-0.095-0.015-0.145
			c0.011-0.005,0.021-0.009,0.032-0.013c-0.002,0.053-0.017,0.104-0.017,0.158c0,4.142,3.358,7.5,7.5,7.5c4.143,0,7.5-3.358,7.5-7.5
			C67.5,34.359,64.733,31.277,61.133,30.728z"/>
		<path id="path-3_23_" d="M54,45.113c-3.127,0-5.887-1.603-7.5-4.03c-1.613,2.427-4.373,4.03-7.5,4.03
			c-3.062,0-5.864-1.575-7.5-4.076c-1.634,2.502-4.436,4.076-7.5,4.076c-3.127,0-5.887-1.603-7.5-4.03
			c-1.613,2.427-4.373,4.03-7.5,4.03c-4.963,0-9-4.038-9-9c0-4.881,3.905-8.866,8.755-8.997c-0.253-0.91-0.38-1.83-0.38-2.753
			c0-8.832,10.845-15.75,24.688-15.75s24.687,6.918,24.687,15.75c0,1.132-0.188,2.256-0.559,3.357
			C60.646,29.011,63,32.292,63,36.113C63,41.076,58.963,45.113,54,45.113z M48,36.183c0.038,3.276,2.715,5.93,6,5.93
			c3.309,0,6-2.692,6-6c0-2.971-2.142-5.453-5.094-5.903c-0.478-0.073-0.892-0.373-1.111-0.805
			c-0.219-0.432-0.216-0.944,0.009-1.373c0.628-1.201,0.946-2.435,0.946-3.669c0-7.031-9.728-12.75-21.687-12.75
			c-11.958,0-21.688,5.719-21.688,12.75c0,1.289,0.359,2.59,1.066,3.867c0.296,0.533,0.24,1.192-0.142,1.667
			c-0.381,0.474-1.014,0.672-1.597,0.498C10.056,30.203,9.516,30.114,9,30.114c-3.309,0-6,2.691-6,6c0,3.308,2.489,6,5.797,6
			s5.798-2.692,5.798-6v-0.476c0-0.828,0.672-1.5,1.5-1.5c0.828,0,1.5,0.672,1.5,1.5v0.476c0,3.308,2.894,6,6.202,6
			c2.537,0,4.906-1.629,5.744-4.053c0.219-0.632,0.888-1.041,1.549-1.008c0.188,0.01,0.406,0.015,0.598,0.019l0.292,0.008
			c0.622,0.018,1.173,0.417,1.378,1.003c0.844,2.411,3.113,4.031,5.639,4.031c3.284,0,5.962-2.653,6.001-5.927
			c-0.007-0.054-0.011-0.106-0.013-0.159c-0.023-0.609,0.325-1.172,0.879-1.425c0.473-0.214,1.04-0.176,1.472,0.113
			s0.698,0.775,0.68,1.294C48.015,36.049,48.007,36.124,48,36.183z"/>
		<path id="path-4_23_" d="M41.094,57.886H23.406c-0.38,0-0.746-0.144-1.023-0.404L8.633,44.643
			c-0.606-0.566-0.639-1.515-0.073-2.121c0.567-0.605,1.516-0.636,2.12-0.072l13.318,12.436h16.466l11.808-12.041
			c0.581-0.591,1.532-0.601,2.122-0.02c0.591,0.58,0.601,1.529,0.021,2.121l-12.25,12.491
			C41.883,57.724,41.497,57.886,41.094,57.886z"/>
		<path id="path-5_23_" d="M49.951,26.887c-0.805,0-1.471-0.421-1.498-1.231c-0.205-6.008-10.688-6.512-10.795-6.518
			c-0.827-0.042-1.463-0.694-1.42-1.521s0.711-1.448,1.576-1.393c0.544,0.028,13.34,0.588,13.637,9.316
			c0.028,0.828-0.62,1.347-1.448,1.347C49.986,26.887,49.969,26.887,49.951,26.887z"/>
		<path id="path-6_20_" d="M36.595,52.886h-6c-0.828,0-1.5-0.671-1.5-1.5c0-0.828,0.672-1.5,1.5-1.5h6c0.828,0,1.5,0.672,1.5,1.5
			C38.095,52.215,37.423,52.886,36.595,52.886z"/>
	</g>
</g>
<g>
</g>
<g>
</g>
<g>
</g>
<g>
</g>
<g>
</g>
<g>
</g>
<g>
</g>
<g>
</g>
<g>
</g>
<g>
</g>
<g>
</g>
<g>
</g>
<g>
</g>
<g>
</g>
<g>
</g>
</svg>
