<?xml version="1.0" encoding="iso-8859-1"?>
<!-- Generator: Adobe Illustrator 19.1.0, SVG Export Plug-In . SVG Version: 6.00 Build 0)  -->
<svg version="1.1" id="Capa_1" xmlns="http://www.w3.org/2000/svg" xmlns:xlink="http://www.w3.org/1999/xlink" x="0px" y="0px"
	 viewBox="0 0 63.001 63.001" style="enable-background:new 0 0 63.001 63.001;" xml:space="preserve">
<g>
	<g id="group-13svg">
		<path id="path-1_3_" style="fill:#E56A77;" d="M6.226,61.027c0,0,31.112-9.855,37.607-41.308c0,0,5.129-8.548,12.65-4.787
			s7.179,10.941,2.051,20.855C53.406,45.702,33.919,68.488,6.226,61.027z"/>
		<path id="path-2_3_" style="fill:#81BDA4;" d="M44.044,20.299c0,0,6.125,2.032,7.179-1.172c1.054-3.204,0,5.157,0,5.157
			l4.688-2.944c0,0,3.956,5.758,3.502,8.571c0,0,4.61-3.641,1.294-11.515S46.67,16.455,46.67,16.455S45.082,17.454,44.044,20.299z"
			/>
		<path id="path-3_3_" d="M13.103,63.001c-3.718,0-7.509-0.513-11.268-1.526c-0.642-0.173-1.094-0.749-1.108-1.414
			c-0.015-0.666,0.411-1.262,1.045-1.464c0.302-0.096,30.357-9.99,36.592-40.181c0.035-0.166,0.096-0.324,0.183-0.469
			c0.158-0.264,3.954-6.471,10.117-6.471c1.5,0,3.011,0.375,4.491,1.114c3.123,1.562,5.166,3.765,6.072,6.548
			c1.324,4.063,0.224,9.407-3.361,16.338C51.908,43.132,36.506,63.001,13.103,63.001z M7.311,59.563
			c1.942,0.291,3.879,0.438,5.792,0.438c21.905,0,36.373-18.698,40.099-25.903c3.197-6.181,4.235-10.771,3.172-14.031
			c-0.657-2.02-2.149-3.588-4.561-4.793c-1.059-0.529-2.118-0.798-3.149-0.798c-3.97,0-6.802,3.894-7.419,4.819
			C36.097,43.6,16.393,55.35,7.311,59.563z"/>
		<path id="path-4_3_" d="M55.415,30.411c-0.079,0-0.16-0.006-0.241-0.019c-0.817-0.133-1.374-0.903-1.241-1.721
			c0.202-1.257-1.172-4.121-2.48-6.272l-3.432,2.156c-0.49,0.308-1.115,0.307-1.605-0.006c-0.488-0.311-0.754-0.877-0.681-1.452
			c0.079-0.631,0.157-1.306,0.224-1.956c-2.57,0.796-5.972-0.281-6.387-0.418c-0.787-0.261-1.212-1.11-0.952-1.896
			c0.261-0.786,1.109-1.213,1.895-0.952c1.642,0.54,4.875,1.029,5.283-0.217c0.167-0.507,0.671-2.047,2.12-1.725
			c1.197,0.27,1.494,0.914,1.154,4.42l2.042-1.283c0.682-0.426,1.579-0.242,2.034,0.421c0.717,1.044,4.269,6.417,3.746,9.659
			C56.776,29.887,56.138,30.411,55.415,30.411z"/>
		<path id="path-5_3_" d="M27.029,54.449c-0.494,0-0.977-0.243-1.263-0.689c-0.448-0.697-0.246-1.625,0.451-2.073
			c11.232-7.217,13.687-16.455,13.71-16.547c0.204-0.804,1.018-1.291,1.823-1.085c0.803,0.204,1.289,1.02,1.085,1.823
			c-0.108,0.424-2.78,10.483-14.997,18.333C27.587,54.373,27.307,54.449,27.029,54.449z"/>
		<path id="path-6_3_" d="M53.627,14.72c-0.596,0-1.162-0.359-1.394-0.949c-0.303-0.765,0.067-1.629,0.827-1.939
			C53.28,11.736,57.514,9.781,56,1.78c-0.154-0.814,0.381-1.599,1.195-1.753c0.813-0.156,1.599,0.381,1.752,1.195
			c2.003,10.584-4.491,13.283-4.768,13.393C53.998,14.686,53.811,14.72,53.627,14.72z"/>
	</g>
</g>
<g>
</g>
<g>
</g>
<g>
</g>
<g>
</g>
<g>
</g>
<g>
</g>
<g>
</g>
<g>
</g>
<g>
</g>
<g>
</g>
<g>
</g>
<g>
</g>
<g>
</g>
<g>
</g>
<g>
</g>
</svg>
