<?xml version="1.0" encoding="iso-8859-1"?>
<!-- Generator: Adobe Illustrator 19.1.0, SVG Export Plug-In . SVG Version: 6.00 Build 0)  -->
<svg version="1.1" id="Capa_1" xmlns="http://www.w3.org/2000/svg" xmlns:xlink="http://www.w3.org/1999/xlink" x="0px" y="0px"
	 viewBox="0 0 66.501 66.501" style="enable-background:new 0 0 66.501 66.501;" xml:space="preserve">
<g>
	<g id="group-48svg">
		<path id="path-1_41_" style="fill:#EDC951;" d="M33.022,35.001l23.596-12.103c-4.399-8.559-13.31-14.419-23.596-14.419
			C18.374,8.479,6.5,20.353,6.5,35.001c0,14.647,11.874,26.521,26.522,26.521c9.49,0,17.812-4.989,22.498-12.483L33.022,35.001z"/>
		<path id="path-2_41_" style="fill:#EDC951;" d="M43.765,35.017L63.92,24.68c0,0,6.389,10.337-0.939,22.327L43.765,35.017z"/>
		<path id="path-3_41_" style="fill:#E56A77;" d="M32.07,35.001l8.238-4.225c-1.536-2.989-4.648-5.034-8.238-5.034
			c-5.114,0-9.259,4.145-9.259,9.259c0,5.113,4.145,9.259,9.259,9.259c3.313,0,6.218-1.742,7.854-4.358L32.07,35.001z"/>
		<path id="path-4_41_" d="M10.042,29.247c-0.094,0-0.191-0.009-0.288-0.027c-0.813-0.159-1.345-0.946-1.186-1.759
			c0.621-3.199,3.955-3.853,5.629-3.757c0.827,0.049,1.458,0.759,1.408,1.586c-0.049,0.825-0.772,1.446-1.578,1.409
			c-0.108-0.009-2.24-0.082-2.514,1.334C11.373,28.749,10.745,29.247,10.042,29.247z"/>
		<path id="path-5_41_" d="M20.912,18.017c-0.38,0-0.762-0.144-1.054-0.433l-2.697-2.667c-0.588-0.583-0.594-1.532-0.011-2.121
			c0.581-0.59,1.532-0.595,2.121-0.012l2.696,2.667c0.589,0.583,0.595,1.532,0.012,2.121C21.686,17.869,21.299,18.017,20.912,18.017
			z"/>
		<path id="path-6_36_" d="M27.468,14.519c-0.147,0.761-0.884,1.258-1.645,1.11c-0.76-0.148-1.257-0.884-1.109-1.645
			c0.148-0.761,0.884-1.257,1.645-1.11C27.119,13.022,27.616,13.758,27.468,14.519z"/>
		<path id="path-7_28_" d="M14.846,20.644c-0.147,0.761-0.884,1.258-1.645,1.111c-0.76-0.148-1.257-0.884-1.11-1.645
			c0.148-0.761,0.884-1.258,1.645-1.11C14.496,19.148,14.993,19.884,14.846,20.644z"/>
		<path id="path-8_23_" d="M30.138,54.773c-2.878,0-4.347-2.735-4.733-4.269c-0.203-0.803,0.286-1.618,1.088-1.82
			c0.805-0.201,1.615,0.282,1.82,1.081c0.028,0.108,0.58,2.156,2.027,1.996c0.843-0.096,1.567,0.497,1.661,1.32
			c0.094,0.823-0.497,1.566-1.319,1.661C30.495,54.763,30.314,54.773,30.138,54.773z"/>
		<path id="path-9_15_" d="M14.797,51.136c-0.23,0-0.465-0.054-0.684-0.166c-0.737-0.379-1.028-1.283-0.649-2.02l1.733-3.374
			c0.377-0.736,1.281-1.026,2.019-0.649c0.736,0.378,1.027,1.283,0.649,2.02l-1.733,3.373
			C15.866,50.838,15.341,51.136,14.797,51.136z"/>
		<path id="path-10_11_" d="M12.653,40.611c0.769-0.089,1.464,0.464,1.552,1.234c0.089,0.77-0.464,1.465-1.234,1.553
			c-0.77,0.088-1.465-0.464-1.553-1.234C11.329,41.394,11.882,40.699,12.653,40.611z"/>
		<path id="path-11_10_" d="M9.47,34.245c0.77-0.088,1.465,0.465,1.553,1.235c0.089,0.77-0.464,1.465-1.235,1.553
			c-0.769,0.088-1.464-0.464-1.552-1.234C8.148,35.029,8.7,34.333,9.47,34.245z"/>
		<path id="path-12_9_" d="M22.291,50.805c0.771-0.088,1.466,0.465,1.554,1.235c0.088,0.769-0.465,1.465-1.234,1.553
			c-0.77,0.088-1.466-0.464-1.554-1.234C20.969,51.589,21.522,50.893,22.291,50.805z"/>
		<path id="path-13_8_" d="M28.022,61.022C12.571,61.022,0,48.452,0,33.001S12.571,4.979,28.022,4.979
			c10.548,0,20.1,5.837,24.93,15.234c0.182,0.354,0.216,0.765,0.094,1.144c-0.121,0.379-0.389,0.694-0.743,0.876L31.06,33.128
			l20.254,12.638c0.338,0.211,0.578,0.547,0.668,0.935c0.089,0.388,0.02,0.795-0.191,1.133
			C46.629,56.092,37.742,61.022,28.022,61.022z M28.022,7.979C14.225,7.979,3,19.204,3,33.001s11.225,25.021,25.022,25.021
			c8.177,0,15.694-3.908,20.393-10.529l-21.187-13.22c-0.458-0.285-0.728-0.796-0.705-1.335c0.023-0.54,0.334-1.026,0.814-1.272
			l22.222-11.397C45.059,12.651,36.938,7.979,28.022,7.979z"/>
		<path id="path-14_5_" d="M27.07,43.76c-5.933,0-10.759-4.827-10.759-10.759c0-5.933,4.826-10.759,10.759-10.759
			c4.049,0,7.717,2.241,9.572,5.848c0.181,0.354,0.216,0.766,0.094,1.145c-0.121,0.379-0.389,0.693-0.744,0.875l-5.884,3.018
			l5.61,3.501c0.338,0.211,0.578,0.547,0.668,0.935c0.089,0.388,0.021,0.795-0.19,1.133C34.214,41.867,30.802,43.76,27.07,43.76z
			 M27.07,25.242c-4.279,0-7.759,3.48-7.759,7.759c0,4.278,3.48,7.759,7.759,7.759c2.181,0,4.212-0.898,5.665-2.457l-6.459-4.03
			c-0.458-0.285-0.728-0.796-0.705-1.335c0.023-0.54,0.334-1.026,0.814-1.272l6.774-3.474C31.704,26.344,29.481,25.242,27.07,25.242
			z"/>
		<path id="path-15_4_" d="M57.981,46.507c-0.279,0-0.554-0.078-0.794-0.228L37.971,34.29c-0.458-0.286-0.728-0.796-0.705-1.336
			c0.023-0.539,0.334-1.025,0.814-1.271l20.156-10.337c0.695-0.358,1.548-0.12,1.961,0.545c0.28,0.454,6.784,11.267-0.936,23.898
			c-0.209,0.341-0.546,0.585-0.936,0.678C58.212,46.493,58.096,46.507,57.981,46.507z M41.803,33.145l15.649,9.764
			c4.401-8.281,2.081-15.426,0.822-18.211L41.803,33.145z"/>
	</g>
</g>
<g>
</g>
<g>
</g>
<g>
</g>
<g>
</g>
<g>
</g>
<g>
</g>
<g>
</g>
<g>
</g>
<g>
</g>
<g>
</g>
<g>
</g>
<g>
</g>
<g>
</g>
<g>
</g>
<g>
</g>
</svg>
