<?xml version="1.0" encoding="iso-8859-1"?>
<!-- Generator: Adobe Illustrator 19.1.0, SVG Export Plug-In . SVG Version: 6.00 Build 0)  -->
<svg version="1.1" id="Capa_1" xmlns="http://www.w3.org/2000/svg" xmlns:xlink="http://www.w3.org/1999/xlink" x="0px" y="0px"
	 viewBox="0 0 66.892 66.892" style="enable-background:new 0 0 66.892 66.892;" xml:space="preserve">
<g>
	<g id="group-49svg">
		<path id="path-1_42_" style="fill:#E56A77;" d="M6.893,32.861l53.19-24.869c0,0,16.86,24.869-2.48,52.104L6.893,32.861z"/>
		<path id="path-2_42_" d="M52.603,58.596c-0.241,0-0.484-0.057-0.709-0.178L1.183,31.183c-0.5-0.268-0.806-0.796-0.789-1.363
			c0.015-0.568,0.349-1.077,0.863-1.317l53.19-24.87C55.118,3.32,55.91,3.54,56.324,4.15c0.175,0.257,17.217,26.052-2.498,53.815
			C53.536,58.373,53.075,58.596,52.603,58.596z M5.235,29.954l46.899,25.187c15.405-22.779,5.255-43.307,2.378-48.226L5.235,29.954z
			"/>
		<path id="path-3_42_" d="M51.327,63.401c-0.233,0-0.47-0.054-0.691-0.169L15.101,44.746c-0.735-0.382-1.021-1.288-0.639-2.023
			c0.383-0.735,1.288-1.02,2.023-0.638L52.02,60.57c0.735,0.383,1.021,1.288,0.639,2.023C52.392,63.107,51.868,63.401,51.327,63.401
			z"/>
		<path id="path-4_42_" d="M49.748,21.705c-0.528,0-1.04-0.28-1.313-0.775c-0.401-0.723-0.14-1.634,0.583-2.036
			c0.159-0.09,3.736-2.145,2.608-4.957c-0.308-0.77,0.065-1.643,0.834-1.951c0.767-0.308,1.642,0.064,1.951,0.834
			c1.693,4.221-1.836,7.535-3.938,8.697C50.243,21.644,49.994,21.705,49.748,21.705z"/>
		<path id="path-5_42_" d="M53.977,40.243c-0.104,0-0.208-0.011-0.313-0.034l-5.905-1.25c-0.811-0.171-1.328-0.967-1.157-1.777
			c0.171-0.811,0.972-1.329,1.778-1.157l5.905,1.25c0.811,0.171,1.328,0.967,1.157,1.778C55.293,39.758,54.67,40.243,53.977,40.243z
			"/>
		<path id="path-6_37_" d="M40.99,45.703c-0.454-1.134,0.108-2.417,1.254-2.867c1.148-0.449,2.445,0.106,2.901,1.24
			c0.454,1.134-0.108,2.417-1.254,2.867C42.743,47.392,41.445,46.837,40.99,45.703z"/>
		<path id="path-7_29_" d="M52.666,26.873c-0.454-1.134,0.107-2.417,1.254-2.867c1.147-0.449,2.445,0.106,2.899,1.24
			c0.455,1.134-0.106,2.418-1.253,2.867C54.419,28.562,53.121,28.007,52.666,26.873z"/>
		<path id="path-8_24_" d="M32.853,24.873c-0.529,0-1.041-0.28-1.314-0.775c-0.4-0.724-0.14-1.634,0.582-2.036l0,0
			c0.153-0.086,3.737-2.142,2.609-4.957c-0.307-0.77,0.066-1.643,0.835-1.951c0.765-0.308,1.642,0.065,1.951,0.834
			c1.691,4.221-1.837,7.535-3.939,8.697C33.348,24.812,33.099,24.873,32.853,24.873z"/>
		<path id="path-9_16_" d="M37.08,43.411c-0.103,0-0.208-0.011-0.312-0.033l-5.905-1.251c-0.81-0.171-1.328-0.967-1.157-1.777
			c0.172-0.812,0.973-1.332,1.778-1.157l5.905,1.25c0.81,0.171,1.328,0.967,1.157,1.778C38.396,42.927,37.773,43.411,37.08,43.411z"
			/>
		<path id="path-10_12_" d="M35.77,30.041c-0.455-1.134,0.107-2.417,1.254-2.867c1.147-0.449,2.445,0.106,2.9,1.24
			c0.454,1.134-0.107,2.418-1.254,2.867C37.523,31.73,36.225,31.175,35.77,30.041z"/>
		<path id="path-11_11_" d="M1.5,51.078c-0.828,0-1.5-0.672-1.5-1.5v-20c0-0.829,0.672-1.5,1.5-1.5s1.5,0.671,1.5,1.5v20
			C3,50.406,2.328,51.078,1.5,51.078z"/>
		<path id="path-12_10_" d="M8.5,55.078c-0.828,0-1.5-0.672-1.5-1.5v-20c0-0.829,0.672-1.5,1.5-1.5s1.5,0.671,1.5,1.5v20
			C10,54.406,9.328,55.078,8.5,55.078z"/>
		<path id="path-13_9_" d="M19.93,30.041c-0.454-1.134,0.107-2.417,1.254-2.867c1.147-0.449,2.445,0.106,2.9,1.24
			c0.454,1.134-0.107,2.418-1.254,2.867C21.683,31.73,20.385,31.175,19.93,30.041z"/>
	</g>
</g>
<g>
</g>
<g>
</g>
<g>
</g>
<g>
</g>
<g>
</g>
<g>
</g>
<g>
</g>
<g>
</g>
<g>
</g>
<g>
</g>
<g>
</g>
<g>
</g>
<g>
</g>
<g>
</g>
<g>
</g>
</svg>
