<?xml version="1.0" encoding="iso-8859-1"?>
<!-- Generator: Adobe Illustrator 19.1.0, SVG Export Plug-In . SVG Version: 6.00 Build 0)  -->
<svg version="1.1" id="Capa_1" xmlns="http://www.w3.org/2000/svg" xmlns:xlink="http://www.w3.org/1999/xlink" x="0px" y="0px"
	 viewBox="0 0 64 64" style="enable-background:new 0 0 64 64;" xml:space="preserve">
<g>
	<g id="group-32svg">
		<path id="path-1_24_" style="fill:#53ECF4;" d="M23.944,42h21.613l-3.61-32.043C41.541,6.308,38.457,4,34.786,4h-0.071
			c-3.671,0-6.755,2.308-7.161,5.957L23.944,42z"/>
		<path id="path-2_24_" style="fill:#FF917B;" d="M32.75,64h4.477c1.132,0,0.691-1.411,0.691-2.543V42h-8v19.756
			C29.918,62.723,31.784,64,32.75,64z"/>
		<path id="path-3_24_" d="M41.557,41H19.944c-0.428,0-0.834-0.182-1.119-0.501c-0.284-0.318-0.42-0.743-0.372-1.167l3.611-32.043
			C22.54,2.998,26.098,0,30.715,0c4.688,0,8.246,2.998,8.722,7.291l3.611,32.041c0.047,0.424-0.088,0.849-0.373,1.167
			C42.391,40.818,41.984,41,41.557,41z M21.622,38h18.256L36.456,7.625C36.149,4.858,33.87,3,30.786,3
			c-3.155,0-5.434,1.858-5.741,4.622L21.622,38z"/>
		<path id="path-4_24_" d="M33.227,63H28.75c-1.6,0-3.832-1.234-3.832-3.244V39.5c0-0.829,0.671-1.5,1.5-1.5h8
			c0.828,0,1.5,0.671,1.5,1.5v19.957C35.918,60.333,35.918,63,33.227,63z M27.918,59.632C28.068,59.795,28.485,60,28.75,60h4.156
			c0.012-0.204,0.012-0.438,0.012-0.543V41h-5V59.632z"/>
		<path id="path-5_24_" d="M35.277,22.144c-0.444,0-0.884-0.197-1.181-0.573l-2.844-3.621c-0.512-0.651-0.399-1.594,0.253-2.106
			c0.651-0.512,1.593-0.399,2.106,0.253l2.845,3.62c0.511,0.652,0.398,1.594-0.253,2.107C35.928,22.04,35.601,22.144,35.277,22.144z
			"/>
		<path id="path-6_21_" d="M27.776,36.239c-0.395,0-0.789-0.156-1.084-0.464c-0.573-0.598-0.551-1.548,0.047-2.12l2.975-2.845
			c0.598-0.572,1.547-0.552,2.12,0.047c0.573,0.599,0.552,1.548-0.047,2.121l-2.974,2.845C28.522,36.1,28.149,36.239,27.776,36.239z
			"/>
		<path id="path-7_16_" d="M29.264,12.705c-0.604,0-1.173-0.367-1.401-0.965c-0.568-1.483-0.304-2.513,0.018-3.117
			c0.596-1.119,1.675-1.418,1.885-1.466l0.675,2.922c0,0,0.031-0.002,0.077-0.021c0.009-0.023-0.039,0.125,0.146,0.611
			c0.296,0.774-0.091,1.641-0.865,1.936C29.623,12.673,29.442,12.705,29.264,12.705z"/>
		<path id="path-8_13_" d="M28.294,27.575c-0.404,0-0.807-0.162-1.102-0.482c-0.562-0.609-0.524-1.558,0.084-2.12
			c0.022-0.02,0.043-0.04,0.062-0.059c-0.522-0.42-0.708-1.158-0.414-1.796c0.347-0.752,1.246-1.079,1.999-0.732
			c0.228,0.105,1.38,0.699,1.588,2.017c0.105,0.663-0.019,1.683-1.2,2.774C29.023,27.443,28.658,27.575,28.294,27.575z"/>
	</g>
</g>
<g>
</g>
<g>
</g>
<g>
</g>
<g>
</g>
<g>
</g>
<g>
</g>
<g>
</g>
<g>
</g>
<g>
</g>
<g>
</g>
<g>
</g>
<g>
</g>
<g>
</g>
<g>
</g>
<g>
</g>
</svg>
