<?xml version="1.0" encoding="iso-8859-1"?>
<!-- Generator: Adobe Illustrator 19.1.0, SVG Export Plug-In . SVG Version: 6.00 Build 0)  -->
<svg version="1.1" id="Capa_1" xmlns="http://www.w3.org/2000/svg" xmlns:xlink="http://www.w3.org/1999/xlink" x="0px" y="0px"
	 viewBox="0 0 64 64" style="enable-background:new 0 0 64 64;" xml:space="preserve">
<g>
	<g id="group-34svg">
		<path id="path-1_26_" style="fill:#EDC951;" d="M36.132,64h0.555c2.115,0,3.114-1.734,3.114-3.849V43h-8v17.151
			C31.802,62.266,34.018,64,36.132,64z"/>
		<path id="path-2_26_" style="fill:#8B71B5;" d="M44.472,22.552c0-1.265,0.853-2.402,1.699-3.214
			c-0.846-0.812-1.216-1.949-1.216-3.215c0-2.009,1.417-3.501,3.244-4.061C46.403,7.247,41.855,4,36.413,4h-0.007
			c-7,0-14.605,5.298-14.605,12.299v24.468c0,1.183,2.89,2.233,4.073,2.233h21.071c1.184,0,0.856-1.05,0.856-2.233v-13.8
			C45.801,26.72,44.472,24.849,44.472,22.552z"/>
		<path id="path-3_26_" d="M31.688,63h-0.554c-3.09,0-5.332-2.04-5.332-4.849V40.5c0-0.829,0.671-1.5,1.5-1.5h8
			c0.829,0,1.5,0.671,1.5,1.5v17.651C36.801,61.006,34.699,63,31.688,63z M28.802,42v16.151c0,1.76,1.942,1.849,2.332,1.849h0.554
			c0.789,0,2.114-0.24,2.114-1.849V42H28.802z"/>
		<path id="path-4_26_" d="M41.945,42H20.875c-1.961,0-5.073-0.878-5.073-3.233V14.299C15.802,6.815,23.24,0,31.406,0
			c5.842,0,11.156,3.732,13.229,9.288c0.144,0.387,0.123,0.817-0.06,1.188s-0.511,0.649-0.906,0.771
			c-1.247,0.382-2.153,1.591-2.153,2.876c0,0.615,0.142,1.484,0.818,2.133c0.295,0.282,0.461,0.673,0.461,1.082
			c0,0.408-0.166,0.799-0.461,1.081c-0.707,0.681-1.113,1.458-1.113,2.133c0,1.508,0.974,2.767,2.264,2.926
			c0.752,0.094,1.316,0.732,1.316,1.489v13.8C44.801,39.566,44.801,42,41.945,42z M18.802,38.501C19.177,38.736,20.145,39,20.875,39
			h20.924c0.001-0.065,0.003-0.143,0.003-0.233V26.115c-2.111-0.853-3.58-3.039-3.58-5.563c0-1.117,0.396-2.244,1.134-3.265
			c-0.547-0.915-0.839-2-0.839-3.164c0-2.045,1.079-3.939,2.756-5.033C39.364,5.399,35.554,3,31.414,3
			c-6.486,0-12.612,5.491-12.612,11.299V38.501z"/>
		<path id="path-5_26_" d="M24.468,27.856c-0.828,0-1.5-0.672-1.5-1.5c0-8.459,1.791-14.359,5.321-17.535
			c2.895-2.603,5.904-2.316,6.031-2.305c0.823,0.087,1.42,0.826,1.333,1.65c-0.086,0.818-0.823,1.408-1.632,1.335
			c-0.113-0.013-1.935-0.108-3.802,1.621c-1.939,1.794-4.251,5.895-4.251,15.234C25.968,27.184,25.297,27.856,24.468,27.856z"/>
	</g>
</g>
<g>
</g>
<g>
</g>
<g>
</g>
<g>
</g>
<g>
</g>
<g>
</g>
<g>
</g>
<g>
</g>
<g>
</g>
<g>
</g>
<g>
</g>
<g>
</g>
<g>
</g>
<g>
</g>
<g>
</g>
</svg>
