<?xml version="1.0" encoding="iso-8859-1"?>
<!-- Generator: Adobe Illustrator 19.1.0, SVG Export Plug-In . SVG Version: 6.00 Build 0)  -->
<svg version="1.1" id="Capa_1" xmlns="http://www.w3.org/2000/svg" xmlns:xlink="http://www.w3.org/1999/xlink" x="0px" y="0px"
	 viewBox="0 0 64 64" style="enable-background:new 0 0 64 64;" xml:space="preserve">
<g>
	<g id="group-33svg">
		<path id="path-1_25_" style="fill:#53ECF4;" d="M32.75,64h4.477c1.131,0,0.902-1.411,0.902-2.543V42h-8v19.756
			C30.129,62.723,31.784,64,32.75,64z"/>
		<path id="path-2_25_" style="fill:#E56A77;" d="M39.793,24.368c0-2.645,1.194-5.01,3.07-6.591l-0.917-7.929
			C41.541,6.199,38.457,4,34.786,4h-0.072c-3.671,0-6.754,2.309-7.16,5.957L23.943,42h21.614l-1.095-9.867
			C41.691,30.7,39.793,27.704,39.793,24.368z"/>
		<path id="path-3_25_" d="M33.227,63H28.75c-1.712,0-3.621-1.332-3.621-3.244V39.5c0-0.829,0.672-1.5,1.5-1.5h8
			c0.829,0,1.5,0.671,1.5,1.5v19.957C36.129,62.745,33.908,63,33.227,63z M28.129,41v18.756C28.175,59.794,28.506,60,28.75,60h4.341
			c0.02-0.109,0.038-0.282,0.038-0.543V41H28.129z"/>
		<path id="path-4_25_" d="M41.557,41H19.943c-0.427,0-0.834-0.182-1.118-0.501c-0.284-0.318-0.42-0.743-0.372-1.167l3.61-32.043
			C22.541,2.998,26.098,0,30.714,0c4.606,0,8.244,3.125,8.723,7.432l0.917,8.178c0.056,0.498-0.141,0.99-0.524,1.314
			c-1.612,1.359-2.537,3.344-2.537,5.444c0,2.622,1.442,4.933,3.858,6.183c0.444,0.23,0.745,0.666,0.801,1.163l1.095,9.617
			c0.048,0.424-0.087,0.849-0.371,1.168C42.391,40.818,41.984,41,41.557,41z M21.622,38h18.254l-0.818-7.189
			c-2.999-1.846-4.765-4.947-4.765-8.443c0-2.711,1.082-5.286,2.995-7.182l-0.832-7.421C36.144,4.959,33.812,3,30.786,3
			c-3.156,0-5.434,1.858-5.742,4.623L21.622,38z"/>
		<path id="path-5_25_" d="M40.629,45.5c-0.828,0-1.5-0.671-1.5-1.5v-4c0-0.829,0.672-1.5,1.5-1.5c0.829,0,1.5,0.671,1.5,1.5v4
			C42.129,44.829,41.458,45.5,40.629,45.5z"/>
		<path id="path-6_22_" d="M31.138,9.989c-0.629,0-1.214-0.397-1.423-1.026l-0.388-1.164c-0.262-0.786,0.163-1.635,0.949-1.897
			c0.788-0.263,1.635,0.163,1.897,0.949l0.388,1.164c0.262,0.786-0.163,1.635-0.949,1.897C31.455,9.964,31.295,9.989,31.138,9.989z"
			/>
		<path id="path-7_17_" d="M28.035,18.265c-0.628,0-1.214-0.397-1.423-1.026l-0.388-1.163c-0.263-0.786,0.162-1.636,0.948-1.898
			c0.785-0.264,1.636,0.163,1.897,0.948l0.389,1.164c0.262,0.786-0.163,1.635-0.949,1.897C28.352,18.24,28.192,18.265,28.035,18.265
			z"/>
		<path id="path-8_14_" d="M34.241,17.231c-0.628,0-1.214-0.398-1.423-1.026L32.43,15.04c-0.261-0.786,0.164-1.635,0.949-1.897
			c0.789-0.262,1.636,0.164,1.898,0.949l0.388,1.164c0.261,0.786-0.164,1.636-0.95,1.898C34.558,17.206,34.398,17.231,34.241,17.231
			z"/>
		<path id="path-9_9_" d="M25.965,26.541c-0.628,0-1.213-0.397-1.422-1.026l-0.388-1.164c-0.262-0.786,0.162-1.635,0.949-1.897
			c0.786-0.264,1.635,0.163,1.897,0.949l0.387,1.163c0.262,0.786-0.162,1.636-0.948,1.897
			C26.282,26.516,26.122,26.541,25.965,26.541z"/>
		<path id="path-10_5_" d="M32.172,25.507c-0.628,0-1.213-0.398-1.423-1.027l-0.388-1.164c-0.261-0.786,0.164-1.635,0.95-1.897
			c0.787-0.261,1.635,0.164,1.897,0.949l0.388,1.164c0.262,0.786-0.164,1.635-0.949,1.898
			C32.489,25.482,32.329,25.507,32.172,25.507z"/>
		<path id="path-11_5_" d="M25.965,34.817c-0.628,0-1.213-0.398-1.422-1.027l-0.388-1.163c-0.262-0.786,0.162-1.635,0.949-1.897
			c0.786-0.265,1.635,0.163,1.897,0.949l0.387,1.163c0.262,0.786-0.162,1.635-0.948,1.897
			C26.282,34.792,26.122,34.817,25.965,34.817z"/>
		<path id="path-12_4_" d="M32.172,33.783c-0.628,0-1.213-0.398-1.423-1.027l-0.388-1.164c-0.261-0.786,0.164-1.635,0.95-1.897
			c0.787-0.262,1.635,0.164,1.897,0.949l0.388,1.164c0.262,0.786-0.164,1.635-0.949,1.898
			C32.489,33.758,32.329,33.783,32.172,33.783z"/>
		<path id="path-13_4_" d="M37.345,36.886c-0.629,0-1.214-0.398-1.424-1.026l-0.387-1.164c-0.262-0.786,0.163-1.636,0.949-1.898
			c0.789-0.261,1.636,0.164,1.897,0.95l0.388,1.164c0.262,0.786-0.163,1.635-0.949,1.897C37.662,36.861,37.502,36.886,37.345,36.886
			z"/>
	</g>
</g>
<g>
</g>
<g>
</g>
<g>
</g>
<g>
</g>
<g>
</g>
<g>
</g>
<g>
</g>
<g>
</g>
<g>
</g>
<g>
</g>
<g>
</g>
<g>
</g>
<g>
</g>
<g>
</g>
<g>
</g>
</svg>
