<?xml version="1.0" encoding="iso-8859-1"?>
<!-- Generator: Adobe Illustrator 19.1.0, SVG Export Plug-In . SVG Version: 6.00 Build 0)  -->
<svg version="1.1" id="Capa_1" xmlns="http://www.w3.org/2000/svg" xmlns:xlink="http://www.w3.org/1999/xlink" x="0px" y="0px"
	 viewBox="0 0 63 63" style="enable-background:new 0 0 63 63;" xml:space="preserve">
<g>
	<g id="group-35svg">
		<path id="path-1_27_" style="fill:#53ECF4;" d="M34.06,63h2.166C37.883,63,40,61.971,40,60.314V42h-9v18.314
			C31,61.971,32.403,63,34.06,63z"/>
		<path id="path-2_27_" style="fill:#EDC951;" d="M45.747,42H24.54C23.435,42,23,41.472,23,40.367V15.144C23,8.61,27.836,3,34.37,3
			h1.546C42.45,3,48,8.61,48,15.144v25.223C48,41.472,46.851,42,45.747,42z"/>
		<path id="path-3_27_" d="M39.747,42H18.539C16.621,42,15,40.336,15,38.367V13.144C15,5.896,20.997,0,28.37,0h1.546
			C37.551,0,44,6.019,44,13.144v25.223C44,40.551,41.44,42,39.747,42z M28.37,3C22.555,3,18,7.456,18,13.144v25.223
			C18,38.663,18.288,39,18.539,39h21.208c0.419,0,1.157-0.456,1.266-0.725L41,13.144C41,7.645,35.924,3,29.916,3H28.37z"/>
		<path id="path-4_27_" d="M30.226,63H28.06C25.707,63,24,61.029,24,58.314V40.5c0-0.829,0.671-1.5,1.5-1.5h8
			c0.829,0,1.5,0.671,1.5,1.5v17.814C35,60.767,32.725,63,30.226,63z M27,42v16.314C27,58.897,27.222,60,28.06,60h2.166
			C31.072,60,32,59.118,32,58.314V42H27z"/>
		<path id="path-5_27_" d="M41,23H17c-0.829,0-1.5-0.672-1.5-1.5c0-0.829,0.671-1.5,1.5-1.5h24c0.829,0,1.5,0.671,1.5,1.5
			C42.5,22.328,41.829,23,41,23z"/>
		<path id="path-6_23_" d="M41,30H17c-0.829,0-1.5-0.672-1.5-1.5c0-0.829,0.671-1.5,1.5-1.5h24c0.829,0,1.5,0.671,1.5,1.5
			C42.5,29.328,41.829,30,41,30z"/>
		<path id="path-7_18_" d="M41,35H17c-0.829,0-1.5-0.671-1.5-1.5S16.171,32,17,32h24c0.829,0,1.5,0.671,1.5,1.5S41.829,35,41,35z"/>
	</g>
</g>
<g>
</g>
<g>
</g>
<g>
</g>
<g>
</g>
<g>
</g>
<g>
</g>
<g>
</g>
<g>
</g>
<g>
</g>
<g>
</g>
<g>
</g>
<g>
</g>
<g>
</g>
<g>
</g>
<g>
</g>
</svg>
