<?xml version="1.0" encoding="iso-8859-1"?>
<!-- Generator: Adobe Illustrator 19.1.0, SVG Export Plug-In . SVG Version: 6.00 Build 0)  -->
<svg version="1.1" id="Capa_1" xmlns="http://www.w3.org/2000/svg" xmlns:xlink="http://www.w3.org/1999/xlink" x="0px" y="0px"
	 viewBox="0 0 65 65" style="enable-background:new 0 0 65 65;" xml:space="preserve">
<g>
	<g id="group-82svg">
		<path id="path-1_79_" style="fill:#FF917B;" d="M21.009,51.9c0,3.913,6.588,7.027,14.672,7.027s14.654-3.201,14.654-7.114
			l8.747-25.734l0.123-1.156c0,6.281-10.585,11.369-23.561,11.369s-23.562-5.096-23.562-11.376L21.009,51.9z"/>
		<path id="path-2_79_" style="fill:#8B71B5;" d="M59.209,19.827c0,6.28-10.518,11.372-23.494,11.372
			c-12.975,0-23.493-5.092-23.493-11.372c0-6.281,10.518-6.288,23.493-6.288C48.691,13.539,59.209,13.546,59.209,19.827z"/>
		<path id="path-3_79_" style="fill:#EDC951;" d="M65,29.073h-6.915l1.499-4H65V29.073z"/>
		<path id="path-4_79_" style="fill:#EDC951;" d="M5,29.073h8.346l-1.499-4H5V29.073z"/>
		<rect id="rect-1_1_" x="33" y="11.073" style="fill:#EDC951;" width="5" height="8"/>
		<path id="path-5_77_" d="M31.715,29.698c-14.015,0-24.993-5.654-24.993-12.871c0-7.787,11.029-7.787,24.993-7.787
			c13.965,0,24.994,0,24.994,7.787C56.709,24.044,45.731,29.698,31.715,29.698z M31.715,12.04c-11.801,0-21.993,0-21.993,4.787
			c0,4.767,8.837,9.871,21.993,9.871c13.157,0,21.994-5.104,21.994-9.871C53.709,12.04,43.517,12.04,31.715,12.04z"/>
		<path id="path-6_69_" d="M31.681,57.426c-9.053,0-15.92-3.534-16.165-8.263L7.896,26.13c-0.872-1.343-1.314-2.76-1.314-4.214
			c0-0.737,0.535-1.365,1.262-1.482c0.729-0.112,1.431,0.312,1.663,1.01l1.105,3.342c2.991,4.134,11.585,7.006,21.032,7.006
			c11.622,0,19.623-3.955,21.573-7.887l0.391-1.15l0.105-0.991c0.085-0.793,0.777-1.381,1.572-1.34
			c0.796,0.043,1.42,0.702,1.42,1.499c0,1.058-0.237,2.105-0.705,3.115l-8.172,24.045C47.57,53.784,40.57,57.426,31.681,57.426z
			 M12.421,30.256l6.013,18.173c0.05,0.152,0.075,0.311,0.075,0.471c0,2.614,5.409,5.526,13.172,5.526
			c7.528,0,13.154-2.962,13.154-5.613c0-0.164,0.027-0.327,0.08-0.482l6.193-18.221c-4.625,2.895-11.684,4.682-19.464,4.682
			C24.062,34.792,17.073,33.071,12.421,30.256z"/>
		<path id="path-7_55_" d="M61.5,27.073h-7.415c-0.492,0-0.953-0.241-1.233-0.646c-0.28-0.404-0.344-0.92-0.172-1.38l1.5-4
			c0.219-0.586,0.779-0.974,1.404-0.974H61.5c0.829,0,1.5,0.672,1.5,1.5v4C63,26.401,62.329,27.073,61.5,27.073z M56.249,24.073H60
			v-1h-3.376L56.249,24.073z"/>
		<path id="path-8_44_" d="M9.346,27.073H1.5c-0.829,0-1.5-0.672-1.5-1.5v-4c0-0.828,0.671-1.5,1.5-1.5h6.347
			c0.625,0,1.185,0.388,1.404,0.974l1.5,4c0.172,0.46,0.108,0.976-0.172,1.38C10.299,26.832,9.838,27.073,9.346,27.073z M3,24.073
			h4.182l-0.375-1H3V24.073z"/>
		<path id="path-9_29_" d="M34.5,17.073h-5c-0.829,0-1.5-0.672-1.5-1.5v-8c0-0.828,0.671-1.5,1.5-1.5h5c0.829,0,1.5,0.672,1.5,1.5v8
			C36,16.401,35.329,17.073,34.5,17.073z M31,14.073h2v-5h-2V14.073z"/>
		<path id="path-10_21_" d="M32.8,51.103c-1.242,0-2.558-0.179-3.884-0.643c-0.781-0.274-1.193-1.129-0.919-1.911
			c0.273-0.781,1.129-1.193,1.911-0.92c3.614,1.266,7.356-0.354,8.53-0.945l4.873-10.233c0.357-0.748,1.251-1.066,2-0.71
			c0.748,0.357,1.065,1.252,0.709,2l-5.084,10.678c-0.127,0.265-0.33,0.489-0.583,0.64C40.175,49.167,36.887,51.103,32.8,51.103z"/>
		<path id="path-11_18_" d="M41.876,22.325c-0.676,0-1.291-0.461-1.457-1.149c-0.194-0.804,0.301-1.615,1.106-1.81
			c3.032-0.733,4.544-1.323,5.287-1.701c-1.098-0.447-3.171-0.948-5.127-1.2c-0.821-0.107-1.401-0.859-1.295-1.68
			c0.107-0.821,0.855-1.401,1.679-1.296c8.153,1.052,8.275,3.277,8.315,4.008c0.11,2.025-2.1,3.322-8.154,4.785
			C42.111,22.311,41.993,22.325,41.876,22.325z"/>
	</g>
</g>
<g>
</g>
<g>
</g>
<g>
</g>
<g>
</g>
<g>
</g>
<g>
</g>
<g>
</g>
<g>
</g>
<g>
</g>
<g>
</g>
<g>
</g>
<g>
</g>
<g>
</g>
<g>
</g>
<g>
</g>
</svg>
