<?xml version="1.0" encoding="iso-8859-1"?>
<!-- Generator: Adobe Illustrator 19.1.0, SVG Export Plug-In . SVG Version: 6.00 Build 0)  -->
<svg version="1.1" id="Capa_1" xmlns="http://www.w3.org/2000/svg" xmlns:xlink="http://www.w3.org/1999/xlink" x="0px" y="0px"
	 viewBox="0 0 63.5 63.5" style="enable-background:new 0 0 63.5 63.5;" xml:space="preserve">
<g>
	<g id="group-16svg">
		<path id="path-1_6_" style="fill:#8B71B5;" d="M42.329,17.333c0,0-7.726,12.223-22.905,16.603
			c-15.18,4.379-7.803,29.948,5.567,29.559c13.371-0.387,30.49-9.194,29.575-40.1L42.329,17.333z"/>
		<path id="path-2_6_" style="fill:#81BDA4;" d="M57.339,24.182c1.978-4.712-0.427-9.702-5.078-11.844
			c-4.653-2.143-9.79-0.627-11.769,4.084L57.339,24.182z"/>
		<path id="path-3_6_" d="M20.693,62.762c-0.001,0-0.002,0-0.002,0c-8.275,0-13.912-8.174-15.014-15.975
			c-1.149-8.132,2.427-14.36,9.331-16.352c14.464-4.174,21.979-15.816,22.054-15.933c0.41-0.65,1.244-0.869,1.933-0.528
			l12.237,6.069c0.497,0.246,0.818,0.75,0.833,1.303c0.424,14.329-2.888,25.291-9.844,32.577
			c-5.354,5.608-12.877,8.711-21.185,8.952C20.921,62.879,20.808,62.762,20.693,62.762z M38.824,17.252
			c-2.35,3.212-9.99,12.376-22.984,16.125c-8.064,2.326-7.544,10.622-7.193,13.109C9.586,53.128,14.348,59.999,20.691,60
			l0.257-0.004c4.352-0.126,12.619-1.352,19.103-8.142c6.24-6.536,9.278-16.464,9.038-29.517L38.824,17.252z"/>
		<path id="path-4_6_" d="M53.339,23.682c-0.215,0-0.429-0.046-0.628-0.138l-16.847-7.76c-0.734-0.338-1.068-1.198-0.755-1.943
			c1.567-3.73,4.913-5.957,8.953-5.957c1.631,0,3.254,0.367,4.827,1.091c5.551,2.558,8.059,8.485,5.833,13.787
			c-0.158,0.375-0.46,0.67-0.839,0.818C53.707,23.648,53.523,23.682,53.339,23.682z M38.567,13.726L52.404,20.1
			c0.615-3.35-1.25-6.778-4.771-8.4c-1.175-0.541-2.376-0.815-3.571-0.815C41.769,10.885,39.798,11.924,38.567,13.726z"/>
		<path id="path-5_6_" d="M48.262,11.838c-0.435,0-0.866-0.188-1.162-0.55c-0.524-0.64-0.431-1.581,0.206-2.107
			c0.374-0.313,3.539-3.131,1.18-6.883c-0.441-0.702-0.23-1.627,0.472-2.068c0.699-0.44,1.627-0.231,2.067,0.471
			c3.058,4.865,0.15,9.19-1.814,10.797C48.932,11.727,48.596,11.838,48.262,11.838z"/>
		<path id="path-6_6_" d="M13.894,51.313c-0.532,0-1.046-0.283-1.318-0.782c-3.285-6.022,0.86-11.411,3.509-13.418
			c0.66-0.501,1.601-0.372,2.102,0.289c0.499,0.659,0.371,1.599-0.288,2.099c-0.242,0.186-5.547,4.354-2.69,9.593
			c0.397,0.728,0.129,1.639-0.598,2.036C14.383,51.254,14.137,51.313,13.894,51.313z"/>
	</g>
</g>
<g>
</g>
<g>
</g>
<g>
</g>
<g>
</g>
<g>
</g>
<g>
</g>
<g>
</g>
<g>
</g>
<g>
</g>
<g>
</g>
<g>
</g>
<g>
</g>
<g>
</g>
<g>
</g>
<g>
</g>
</svg>
