<?xml version="1.0" encoding="iso-8859-1"?>
<!-- Generator: Adobe Illustrator 19.1.0, SVG Export Plug-In . SVG Version: 6.00 Build 0)  -->
<svg version="1.1" id="Capa_1" xmlns="http://www.w3.org/2000/svg" xmlns:xlink="http://www.w3.org/1999/xlink" x="0px" y="0px"
	 viewBox="0 0 60 60" style="enable-background:new 0 0 60 60;" xml:space="preserve">
<g>
	<g id="group-55svg">
		<path id="path-1_49_" d="M3.62,2.94l-2.701,2.7c-0.55,0.551-0.08,1.485,0.69,1.371l4.704-0.697
			c0.353-0.052,0.629-0.328,0.681-0.681L7.691,0.93c0.114-0.771-0.82-1.241-1.371-0.69L3.62,2.94z"/>
		<path id="path-2_49_" d="M56.143,57.907l2.744-1.956c0.559-0.399,0.286-1.281-0.401-1.294l-4.195-0.079
			c-0.315-0.006-0.596,0.194-0.693,0.494l-1.291,3.992c-0.212,0.654,0.533,1.2,1.092,0.8L56.143,57.907z"/>
		<path id="path-3_49_" style="fill:#99746A;" d="M47.13,41.052c1.794-1.281,5.437-1.084,7.052,1.18l4.326,6.066
			c1.615,2.264,0.614,5.772-1.18,7.052c-1.795,1.28-5.438,1.083-7.053-1.18l-4.326-6.067C44.335,45.84,45.336,42.331,47.13,41.052z"
			/>
		<path id="path-4_49_" style="fill:#99746A;" d="M28.255,36.321c-2.175,0.35-5.352-1.444-5.794-4.19l-1.181-7.357
			c-0.441-2.745,2.014-5.444,4.191-5.793c2.175-0.35,5.353,1.444,5.794,4.19l1.181,7.356C32.887,33.273,30.432,35.971,28.255,36.321
			z"/>
		<path id="path-5_49_" style="fill:#EDC951;" d="M23.498,19.818c-1.559,1.558-5.185,1.966-7.151,0l-5.268-5.269
			c-1.967-1.966-1.559-5.592,0-7.15c1.558-1.559,5.184-1.967,7.15,0l5.269,5.268C25.464,14.634,25.056,18.259,23.498,19.818z"/>
		<path id="path-6_43_" style="fill:#EDC951;" d="M46.665,40.175c0.349-2.176-1.445-5.353-4.191-5.794l-7.356-1.182
			c-2.746-0.44-5.444,2.015-5.794,4.19c-0.349,2.177,1.445,5.354,4.191,5.794l7.356,1.182C43.616,44.806,46.315,42.35,46.665,40.175
			z"/>
		<path id="path-7_35_" d="M50.525,56.639c-2.265,0-4.31-0.971-5.471-2.598l-4.326-6.067c-0.992-1.39-1.324-3.19-0.936-5.069
			c0.352-1.7,1.274-3.224,2.467-4.074c0.966-0.69,2.27-1.069,3.674-1.069c2.265,0,4.31,0.972,5.47,2.599l4.326,6.066
			c2.109,2.957,0.887,7.42-1.53,9.145C53.233,56.26,51.928,56.639,50.525,56.639z M45.933,40.762c-0.762,0-1.484,0.191-1.932,0.511
			c-0.576,0.41-1.075,1.289-1.271,2.239c-0.214,1.037-0.053,2.028,0.44,2.72l4.327,6.067c0.705,0.989,2.026,1.34,3.028,1.34
			c0.762,0,1.484-0.191,1.932-0.51c1.117-0.797,1.95-3.39,0.83-4.96l-4.326-6.066C48.256,41.115,46.934,40.762,45.933,40.762z"/>
		<path id="path-8_30_" d="M23.692,36.865c-2.815,0-6.184-2.209-6.712-5.496l-1.181-7.356c-0.271-1.687,0.231-3.448,1.414-4.959
			c1.07-1.367,2.573-2.322,4.02-2.554c2.9-0.467,6.934,1.825,7.513,5.433l1.181,7.356c0.575,3.586-2.502,7.042-5.434,7.514
			C24.235,36.844,23.967,36.865,23.692,36.865z M22.035,19.437c-0.112,0-0.221,0.008-0.326,0.025
			c-0.699,0.112-1.536,0.677-2.134,1.441c-0.652,0.834-0.949,1.794-0.814,2.634l1.181,7.356c0.289,1.796,2.539,3.188,4.076,2.947
			c1.354-0.217,3.253-2.171,2.947-4.075l-1.181-7.356C25.515,20.736,23.548,19.437,22.035,19.437z"/>
		<path id="path-9_21_" d="M15.843,21.644c-1.8,0-3.418-0.627-4.556-1.766L6.018,14.61c-2.568-2.568-2.1-7.172,0-9.272
			c1.106-1.105,2.868-1.765,4.715-1.765c1.8,0,3.418,0.627,4.557,1.765l5.268,5.269c1.208,1.207,1.833,2.928,1.76,4.845
			c-0.066,1.735-0.723,3.39-1.76,4.426C19.452,20.984,17.69,21.644,15.843,21.644z M10.733,6.573c-1.021,0-2.063,0.356-2.594,0.886
			c-0.97,0.97-1.363,3.666,0,5.03l5.269,5.268c0.771,0.772,1.857,0.887,2.435,0.887c1.021,0,2.063-0.357,2.594-0.887
			c0.5-0.5,0.847-1.449,0.883-2.418c0.04-1.058-0.281-2.01-0.883-2.611l-5.269-5.269C12.396,6.688,11.311,6.573,10.733,6.573z"/>
		<path id="path-10_16_" d="M37.524,44.917L37.524,44.917c-0.298,0-0.599-0.025-0.891-0.071l-7.356-1.181
			c-1.686-0.272-3.201-1.3-4.266-2.896c-0.964-1.443-1.4-3.17-1.168-4.617c0.418-2.603,3.24-5.504,6.621-5.504
			c0.299,0,0.599,0.024,0.892,0.071l7.356,1.181c1.686,0.27,3.201,1.298,4.266,2.894c0.963,1.445,1.4,3.171,1.168,4.619
			C43.728,42.015,40.906,44.917,37.524,44.917z M30.464,33.648c-1.713,0-3.444,1.639-3.659,2.98
			c-0.112,0.698,0.163,1.67,0.701,2.477c0.588,0.88,1.407,1.463,2.246,1.598l7.356,1.182c1.861,0.296,3.843-1.498,4.076-2.949
			c0.112-0.698-0.163-1.671-0.702-2.477c-0.587-0.88-1.406-1.462-2.246-1.598l-7.356-1.18
			C30.741,33.658,30.602,33.648,30.464,33.648z"/>
		<path id="path-11_14_" d="M49.789,50.734c-0.185,0-0.373-0.034-0.555-0.107c-0.341-0.135-1.139-0.453-3.92-4.454
			c-0.472-0.68-0.304-1.615,0.376-2.087c0.681-0.474,1.615-0.305,2.088,0.375c0.968,1.392,2.264,3.076,2.708,3.445
			c0.673,0.351,0.984,1.162,0.697,1.883C50.949,50.377,50.385,50.734,49.789,50.734z"/>
		<path id="path-12_13_" d="M22.874,31.045c-0.471,0-0.934-0.22-1.226-0.634c-0.212-0.299-0.708-1-0.863-5.869
			c-0.026-0.828,0.623-1.52,1.451-1.547c0.835-0.015,1.521,0.624,1.547,1.452c0.054,1.694,0.225,3.813,0.397,4.363
			c0.372,0.662,0.192,1.511-0.441,1.959C23.476,30.955,23.173,31.045,22.874,31.045z"/>
	</g>
</g>
<g>
</g>
<g>
</g>
<g>
</g>
<g>
</g>
<g>
</g>
<g>
</g>
<g>
</g>
<g>
</g>
<g>
</g>
<g>
</g>
<g>
</g>
<g>
</g>
<g>
</g>
<g>
</g>
<g>
</g>
</svg>
