<?xml version="1.0" encoding="iso-8859-1"?>
<!-- Generator: Adobe Illustrator 19.1.0, SVG Export Plug-In . SVG Version: 6.00 Build 0)  -->
<svg version="1.1" id="Capa_1" xmlns="http://www.w3.org/2000/svg" xmlns:xlink="http://www.w3.org/1999/xlink" x="0px" y="0px"
	 viewBox="0 0 64.498 64.498" style="enable-background:new 0 0 64.498 64.498;" xml:space="preserve">
<g>
	<g id="group-57svg">
		<path id="path-1_51_" style="fill:#99746A;" d="M15.566,53.594c-4.645-4.645-5.311-14.902,0.551-20.764l15.704-15.704
			c5.861-5.861,16.119-5.196,20.765-0.551c4.645,4.646,5.31,14.903-0.551,20.765L36.331,53.044
			C30.468,58.905,20.212,58.24,15.566,53.594z"/>
		<path id="path-2_51_" style="fill:#FF917B;" d="M59.786,8.687l-4.353-4.353c-0.888-0.889-2.545,0.02-2.361,1.262l0.076,8.63
			c0.084,0.568,0.493,1.052,1.061,1.136l8.686,0.02c1.242,0.184,2.132-1.454,1.244-2.342L59.786,8.687z"/>
		<path id="path-3_51_" style="fill:#FF917B;" d="M9.253,59.219l4.353,4.354c0.888,0.888,2.315,0.209,2.132-1.033l-0.192-8.515
			c-0.083-0.568-0.549-0.995-1.118-1.079l-8.485-0.221c-1.242-0.183-1.931,1.253-1.043,2.142L9.253,59.219z"/>
		<path id="path-4_51_" d="M22.555,56.758c-4.349,0-8.48-1.534-11.05-4.103c-5.164-5.164-6.048-16.286,0.551-22.885L27.76,14.065
			c3.002-3.001,7.206-4.654,11.836-4.654c4.35,0,8.481,1.534,11.05,4.104C55.81,18.679,56.695,29.8,50.095,36.4L34.391,52.104
			C31.389,55.106,27.185,56.758,22.555,56.758z M39.596,12.411c-3.829,0-7.279,1.341-9.715,3.776L14.177,31.891
			c-5.315,5.316-4.647,14.546-0.55,18.643c2.019,2.019,5.357,3.224,8.928,3.224c3.829,0,7.28-1.34,9.715-3.775l15.704-15.704
			c5.316-5.316,4.648-14.546,0.551-18.643C46.505,13.616,43.168,12.411,39.596,12.411z"/>
		<path id="path-5_51_" d="M60.088,14.896L60.088,14.896c-0.094,0-0.189-0.004-0.285-0.014l-8.814-0.036
			c-1.204-0.178-2.139-1.143-2.324-2.401l-0.017-0.206l-0.075-8.545c-0.081-0.776,0.16-1.533,0.687-2.145
			c1.068-1.236,3.114-1.396,4.234-0.276L62.2,9.979c0.803,0.803,1.02,1.977,0.569,3.066C62.303,14.17,61.251,14.896,60.088,14.896z
			 M51.645,11.863l8.215,0.019l-8.288-8.288L51.645,11.863z"/>
		<path id="path-6_45_" d="M11.539,63.477L11.539,63.477c-0.742,0-1.45-0.3-1.994-0.844l-8.706-8.706
			c-0.812-0.812-1.06-2.007-0.631-3.042c0.463-1.116,1.577-1.799,2.849-1.657l8.591,0.235c1.245,0.183,2.202,1.124,2.382,2.342
			l0.016,0.186l0.19,8.436c0.088,0.785-0.137,1.531-0.637,2.11C13.084,63.134,12.333,63.477,11.539,63.477z M3.392,52.237
			l7.835,7.835l-0.172-7.635L3.392,52.237z"/>
		<path id="path-7_37_" d="M29.758,47.693c-0.383,0-0.767-0.146-1.06-0.438c-0.586-0.585-0.586-1.536-0.001-2.122l10.487-10.487
			c8.725-8.725,3.822-14.139,3.772-14.192c-0.569-0.603-0.54-1.553,0.063-2.12c0.604-0.568,1.552-0.541,2.12,0.063
			c0.071,0.075,6.926,7.611-3.834,18.37L30.82,47.254C30.527,47.547,30.142,47.693,29.758,47.693z"/>
		<path id="path-8_32_" d="M52.876,45.762c-0.64,0-1.233-0.411-1.433-1.054c-0.587-1.887,0.479-3.597,1.955-5.964
			c1.038-1.664,2.33-3.736,3.656-6.652c3.366-7.4-6.797-17.561-6.899-17.663c-0.59-0.582-0.596-1.532-0.014-2.121
			c0.583-0.59,1.532-0.595,2.121-0.013c0.482,0.475,11.745,11.754,7.523,21.039c-1.407,3.095-2.814,5.351-3.841,6.998
			c-1.014,1.626-1.815,2.91-1.636,3.484c0.246,0.791-0.195,1.633-0.986,1.879C53.173,45.741,53.023,45.762,52.876,45.762z"/>
	</g>
</g>
<g>
</g>
<g>
</g>
<g>
</g>
<g>
</g>
<g>
</g>
<g>
</g>
<g>
</g>
<g>
</g>
<g>
</g>
<g>
</g>
<g>
</g>
<g>
</g>
<g>
</g>
<g>
</g>
<g>
</g>
</svg>
