<?xml version="1.0" encoding="iso-8859-1"?>
<!-- Generator: Adobe Illustrator 19.1.0, SVG Export Plug-In . SVG Version: 6.00 Build 0)  -->
<svg version="1.1" id="Capa_1" xmlns="http://www.w3.org/2000/svg" xmlns:xlink="http://www.w3.org/1999/xlink" x="0px" y="0px"
	 viewBox="0 0 64.5 64.5" style="enable-background:new 0 0 64.5 64.5;" xml:space="preserve">
<g>
	<g id="group-66svg">
		<path id="path-1_61_" style="fill:#FF917B;" d="M16.818,38.848c0,0-11.199,18.79,6.733,9.61l0,0"/>
		<path id="path-2_61_" style="fill:#FF917B;" d="M17.862,17.556c0,0-19.375,3.326-2.632,10.213l0,0"/>
		<path id="path-3_61_" style="fill:#FF917B;" d="M29.917,53.629c0,0,2.201,21.762,11.133,3.706l0,0"/>
		<path id="path-4_61_" style="fill:#FF917B;" d="M35.678,36.975c0,0,9.76-19.575-7.434-9.079l0,0"/>
		<path id="path-5_61_" style="fill:#EDC951;" d="M51.99,57.457C-9.478,52.414,25.827,4.5,25.827,4.5
			c-7.25,47.914,29.001,33.413,29.001,33.413s3.257,3.364,3.257,9.773S51.99,57.457,51.99,57.457z"/>
		<path id="path-6_54_" d="M50.99,55.957c-0.041,0-0.081-0.001-0.122-0.005c-19.088-1.566-31.07-7.423-35.613-17.41
			C7.864,22.295,22.973,1.488,23.62,0.611c0.409-0.555,1.145-0.76,1.781-0.497c0.637,0.264,1.013,0.928,0.909,1.611
			c-2.063,13.634-0.749,23.29,3.905,28.701c2.882,3.351,7.062,5.05,12.427,5.05c5.678,0,10.58-1.936,10.629-1.955
			c0.565-0.226,1.21-0.088,1.634,0.348c0.15,0.156,3.68,3.879,3.68,10.817c0,7.212-6.589,10.93-6.87,11.085
			C51.492,55.894,51.243,55.957,50.99,55.957z M22.574,7.964c-3.887,7.043-9.096,19.438-4.585,29.343
			c4.024,8.837,15.001,14.089,32.632,15.614c1.196-0.793,4.964-3.654,4.964-8.235c0-4.108-1.439-6.793-2.267-7.997
			c-1.877,0.623-6.003,1.787-10.676,1.787c-6.278,0-11.224-2.051-14.702-6.094C23.534,27.259,21.737,19.062,22.574,7.964z"/>
		<path id="path-7_45_" d="M50.989,55.957c-0.332,0-0.667-0.109-0.945-0.336c-3.335-2.711-4.985-5.826-4.905-9.258
			c0.161-6.936,7.486-12.425,7.798-12.656c0.665-0.492,1.602-0.35,2.095,0.315c0.493,0.665,0.353,1.604-0.312,2.097
			c-0.064,0.048-6.462,4.86-6.582,10.323c-0.054,2.453,1.224,4.758,3.799,6.852c0.642,0.523,0.74,1.467,0.217,2.11
			C51.857,55.769,51.425,55.957,50.989,55.957z"/>
		<path id="path-8_39_" d="M15.023,49.484c-1.336,0-2.36-0.399-3.104-1.193c-2.986-3.184,1.243-10.917,2.61-13.212
			c0.425-0.711,1.345-0.943,2.056-0.519c0.712,0.423,0.945,1.343,0.521,2.056c-2.203,3.703-3.954,8.606-2.999,9.623
			c0.05,0.052,1.254,1.216,7.761-2.116c0.736-0.376,1.641-0.086,2.019,0.652c0.377,0.738,0.085,1.641-0.652,2.019
			C19.722,48.592,17.022,49.484,15.023,49.484z"/>
		<path id="path-9_27_" d="M14.23,26.269c-0.19,0-0.383-0.036-0.57-0.113c-3.491-1.436-8.089-3.724-7.725-7.012
			c0.442-4.004,8.281-5.657,10.673-6.067c0.815-0.141,1.592,0.408,1.732,1.225c0.14,0.816-0.408,1.592-1.224,1.732
			c-4.098,0.707-8.083,2.379-8.199,3.44c-0.002,0.015-0.088,1.451,5.884,3.908c0.766,0.314,1.132,1.191,0.817,1.957
			C15.379,25.919,14.82,26.269,14.23,26.269z"/>
		<path id="path-10_19_" d="M33.839,63.003c-0.213,0-0.426-0.019-0.64-0.059c-4.295-0.778-5.506-9.507-5.775-12.165
			c-0.083-0.823,0.517-1.559,1.341-1.643c0.818-0.078,1.56,0.518,1.644,1.342c0.437,4.287,1.952,9.266,3.325,9.515
			c0.075,0.013,1.731,0.229,4.972-6.323c0.368-0.743,1.269-1.046,2.009-0.68c0.743,0.368,1.047,1.267,0.68,2.01
			C38.708,60.432,36.289,63.003,33.839,63.003z"/>
		<path id="path-11_16_" d="M34.677,35.476c-0.225,0-0.453-0.052-0.668-0.158c-0.741-0.37-1.043-1.27-0.674-2.011
			c1.92-3.859,3.299-8.878,2.27-9.822c-0.053-0.046-1.338-1.12-7.58,2.691c-0.709,0.431-1.63,0.208-2.062-0.499
			c-0.431-0.707-0.208-1.63,0.499-2.062c5.623-3.432,9.174-4.174,11.172-2.34c3.216,2.952-0.422,10.98-1.614,13.37
			C35.758,35.171,35.228,35.476,34.677,35.476z"/>
		<path id="path-12_15_" d="M31.957,42.689c-6.02,0-8.477-4.007-8.581-4.182c-0.424-0.712-0.191-1.632,0.521-2.056
			c0.708-0.422,1.623-0.193,2.049,0.509c0.09,0.143,1.866,2.879,6.347,2.724c0.843-0.016,1.521,0.624,1.547,1.452
			c0.025,0.828-0.625,1.52-1.453,1.547C32.242,42.687,32.098,42.689,31.957,42.689z"/>
	</g>
</g>
<g>
</g>
<g>
</g>
<g>
</g>
<g>
</g>
<g>
</g>
<g>
</g>
<g>
</g>
<g>
</g>
<g>
</g>
<g>
</g>
<g>
</g>
<g>
</g>
<g>
</g>
<g>
</g>
<g>
</g>
</svg>
