<?xml version="1.0" encoding="iso-8859-1"?>
<!-- Generator: Adobe Illustrator 19.1.0, SVG Export Plug-In . SVG Version: 6.00 Build 0)  -->
<svg version="1.1" id="Capa_1" xmlns="http://www.w3.org/2000/svg" xmlns:xlink="http://www.w3.org/1999/xlink" x="0px" y="0px"
	 viewBox="0 0 65.85 65.85" style="enable-background:new 0 0 65.85 65.85;" xml:space="preserve">
<g>
	<g id="group-64svg">
		<path id="path-1_59_" style="fill:#FF917B;" d="M64.756,33.62c4.309-5.506-5.495-8.658-5.495-8.658l-1.457,1.394
			c0.524-1.129,0.96-2.285,1.293-3.417c1.969-6.708-14.42-6.132-14.42-6.132l-0.053,0.106c-4.81-5.221-20.983,4.191-20.983,4.191
			c1.494,7.397,8.512,10.254,14.287,9.14l-0.074,0.146c0,0-0.096,2.213,6.823,4.511c1.149,0.381,2.259,0.487,3.321,0.374
			c-0.445,0.226-0.501,1.058,2.864,3.944l-0.205,0.072c-2.939,3.067,0.337,6.683,0.449,6.802l-0.67,0.011v1.549
			c0,0.934,1.052,1.763,1.86,2.229c0.123,0.071,0.322,0.148,0.466,0.224l-5.559,2.929c-1.205,0.632-0.761,2.452,0.599,2.476
			l4.066,0.072l-1.107,6.35c-0.236,1.344,1.484,2.111,2.327,1.039l7.485-9.522l-3.134-1.496c0.748,0.23,1.521,0.437,2.292,0.604
			c4.231,0.906,4.006-5.528,3.943-6.557c4.364-0.918,0.676-7.968-0.625-10.212C63.611,35.09,64.178,34.359,64.756,33.62z
			 M48.55,35.197c0.003-0.001,0.007-0.001,0.011-0.003l-0.003,0.004C48.558,35.198,48.551,35.197,48.55,35.197z"/>
		<path id="path-2_59_" d="M30.473,30.628c-5.557,0-11.826-3.273-13.302-10.582c-0.128-0.629,0.16-1.27,0.715-1.594
			c0.42-0.244,10.352-5.98,17.291-5.98c4.7,0,7.288,2.584,7.288,7.277C42.465,26.892,36.432,30.628,30.473,30.628z M20.374,20.503
			c1.572,5.234,6.324,7.125,10.099,7.125c4.331,0,8.992-2.466,8.992-7.879c0-2.998-1.282-4.277-4.288-4.277
			C30.198,15.472,22.975,19.102,20.374,20.503z"/>
		<path id="path-3_59_" d="M42.196,35.817c-0.999,0-2.002-0.164-2.991-0.492c-7.216-2.396-7.893-4.995-7.849-6
			c0.036-0.827,0.73-1.455,1.564-1.434c0.749,0.034,1.347,0.611,1.426,1.334c0.103,0.218,0.945,1.638,5.804,3.253
			c1.733,0.576,3.457,0.422,5.128-0.452c3.082-1.614,5.979-5.739,7.379-10.509c0.242-0.823,0.01-1.266-0.219-1.562
			c-1.704-2.195-8.703-2.79-12.708-2.649c-0.84,0.015-1.523-0.619-1.552-1.447c-0.029-0.828,0.619-1.522,1.446-1.552
			c1.217-0.044,11.995-0.298,15.184,3.809c0.937,1.207,1.189,2.676,0.728,4.246c-1.288,4.387-4.294,9.927-8.867,12.322
			C45.229,35.437,43.717,35.817,42.196,35.817z"/>
		<path id="path-4_59_" d="M50.449,41.848c-1.733,0-3.489-0.739-5.23-2.203c-3.413-2.869-4.403-4.385-3.781-5.793
			c0.446-1.01,1.528-1.247,2.318-1.14c0.821,0.109,1.398,0.863,1.288,1.684c-0.035,0.267-0.139,0.507-0.29,0.707
			c0.405,0.46,1.124,1.177,2.395,2.247c1.326,1.114,2.51,1.597,3.621,1.482c2.428-0.254,4.859-3.366,7.434-6.661l0.371-0.475
			c1.016-1.299,0.774-2.092,0.694-2.352c-0.604-1.976-4.242-3.556-5.469-3.954c-0.787-0.256-1.22-1.101-0.965-1.888
			c0.254-0.788,1.097-1.221,1.885-0.968c0.636,0.204,6.243,2.108,7.416,5.927c0.357,1.164,0.439,2.991-1.199,5.085l-0.37,0.472
			c-2.977,3.811-5.789,7.411-9.484,7.797C50.872,41.838,50.661,41.848,50.449,41.848z"/>
		<path id="path-5_59_" d="M57.936,46.249H46.218c-0.402,0-0.786-0.16-1.068-0.446c-1.53-1.551-3.589-5.355-0.427-8.655
			c0.573-0.599,1.523-0.619,2.121-0.045c0.598,0.573,0.618,1.523,0.045,2.121c-1.476,1.541-0.6,3.203,0.019,4.025h11.028
			c0.555,0,1.261-0.083,1.473-0.478c0.699-1.306-1.131-5.305-2.721-7.69c-0.459-0.689-0.273-1.621,0.416-2.08
			c0.69-0.461,1.62-0.274,2.081,0.416c0.799,1.199,4.696,7.355,2.869,10.769C61.55,45.127,60.427,46.249,57.936,46.249z"/>
		<path id="path-6_52_" d="M55.585,53.181c-0.337,0-0.701-0.038-1.093-0.122c-2.968-0.634-5.984-1.894-7.658-2.859
			c-1.159-0.669-2.398-1.951-2.398-3.547v-1.404c0-0.828,0.672-1.5,1.5-1.5c0.829,0,1.5,0.672,1.5,1.5v1.404
			c0,0.151,0.309,0.609,0.897,0.948c1.423,0.821,4.153,1.961,6.788,2.525c0.664,0.143,0.963-0.023,1.148-0.183
			c0.915-0.797,1.164-3.35,1.049-4.909c-0.061-0.825,0.557-1.546,1.383-1.607c0.825-0.061,1.545,0.553,1.608,1.379
			c0.041,0.537,0.334,5.299-2.064,7.395C57.696,52.681,56.826,53.181,55.585,53.181z"/>
		<path id="path-7_43_" d="M47.077,63.98c-0.39,0-0.786-0.082-1.167-0.252c-1.198-0.535-1.85-1.761-1.624-3.053l0.808-4.623
			l-2.307-0.041c-1.306-0.024-2.386-0.893-2.687-2.164c-0.301-1.272,0.274-2.534,1.431-3.14l5.942-3.117
			c0.736-0.384,1.64-0.102,2.025,0.632c0.385,0.733,0.102,1.64-0.631,2.025l-5.296,2.777l3.33,0.059
			c0.438,0.008,0.851,0.207,1.13,0.546c0.279,0.338,0.396,0.781,0.321,1.213l-0.983,5.619l7.026-8.939
			c0.511-0.65,1.456-0.764,2.106-0.252c0.651,0.512,0.765,1.456,0.252,2.106l-7.484,9.521C48.716,63.601,47.912,63.98,47.077,63.98z
			"/>
		<path id="path-8_37_" d="M18.64,21.284c-0.267,0-0.536-0.07-0.78-0.22c-0.108-0.065-10.694-6.688-6.368-18.221
			c0.291-0.776,1.157-1.168,1.931-0.877c0.775,0.29,1.168,1.155,0.877,1.93c-3.464,9.239,4.77,14.393,5.122,14.609
			c0.707,0.43,0.931,1.353,0.499,2.06C19.639,21.029,19.145,21.284,18.64,21.284z"/>
		<path id="path-9_25_" d="M9.666,27.634c-2.82,0-5.972-0.861-9.113-3.42c-0.642-0.524-0.739-1.469-0.215-2.111
			c0.523-0.642,1.468-0.739,2.11-0.215c7.648,6.232,15.161,0.075,15.478-0.19c0.634-0.532,1.581-0.45,2.114,0.186
			c0.532,0.634,0.449,1.58-0.186,2.113C19.789,24.051,15.419,27.634,9.666,27.634z"/>
		<path id="path-10_18_" d="M35,20.66c0,1.208-0.98,2.188-2.188,2.188c-1.209,0-2.188-0.98-2.188-2.188
			c0-1.209,0.979-2.188,2.188-2.188C34.02,18.472,35,19.451,35,20.66z"/>
	</g>
</g>
<g>
</g>
<g>
</g>
<g>
</g>
<g>
</g>
<g>
</g>
<g>
</g>
<g>
</g>
<g>
</g>
<g>
</g>
<g>
</g>
<g>
</g>
<g>
</g>
<g>
</g>
<g>
</g>
<g>
</g>
</svg>
