<?xml version="1.0" encoding="iso-8859-1"?>
<!-- Generator: Adobe Illustrator 19.1.0, SVG Export Plug-In . SVG Version: 6.00 Build 0)  -->
<svg version="1.1" id="Capa_1" xmlns="http://www.w3.org/2000/svg" xmlns:xlink="http://www.w3.org/1999/xlink" x="0px" y="0px"
	 viewBox="0 0 63.581 63.581" style="enable-background:new 0 0 63.581 63.581;" xml:space="preserve">
<g>
	<g id="group-73svg">
		<path id="path-1_69_" style="fill:#53ECF4;" d="M44.112,18H25.376l-2.335,2.439c-1.114,1.303-2.751,3.327-2.751,5.042v33.315
			c0,0,2.673,6.745,9.868,1.649c0,0-0.537,3.508,4.409,3.103c4.946,0.405,3.888-3.103,3.888-3.103
			c7.195,5.096,8.835-1.649,8.835-1.649V25.481c0-1.715-0.348-3.739-1.462-5.042L44.112,18z"/>
		<rect id="rect-1" x="27.29" y="4" style="fill:#EDC951;" width="13" height="8"/>
		<path id="path-2_69_" d="M32.451,63.081c-0.238,0-0.492-0.009-0.759-0.028c-0.268,0.019-0.521,0.028-0.761,0.028
			c-1.863,0-3.257-0.542-4.143-1.61c-0.173-0.209-0.314-0.423-0.429-0.639c-1.343,0.676-2.629,1.018-3.841,1.018
			c-4.455,0-6.073-4.362-6.14-4.547c-0.058-0.163-0.088-0.334-0.088-0.507V23.481c0-2.592,2.189-5.356,2.861-6.141l7.914-8.84
			C27.35,8.182,27.756,8,28.183,8h7.793c0.454,0,0.884,0.205,1.168,0.559l7.102,8.814c1.501,1.755,2.044,4.393,2.044,6.108v33.315
			c0,0.132-0.018,0.264-0.052,0.392c-0.437,1.613-2.188,4.662-5.69,4.662l0,0c-1.135,0-2.358-0.327-3.651-0.971
			c-0.1,0.194-0.221,0.389-0.369,0.576C35.685,62.534,34.313,63.081,32.451,63.081z M31.692,60.049c0.041,0,0.081,0.001,0.122,0.004
			c1.188,0.098,2.047-0.073,2.344-0.436c0.249-0.307,0.149-0.832,0.148-0.836c-0.125-0.603,0.128-1.238,0.644-1.576
			c0.515-0.337,1.182-0.341,1.685,0.016c1.504,1.065,2.857,1.629,3.913,1.629c1.776,0,2.542-1.733,2.742-2.29V23.481
			c0-1.538-0.556-3.261-1.352-4.192L35.259,11h-6.406l-7.444,8.314c-1.239,1.45-2.119,3.174-2.119,4.167v33.013
			c0.285,0.612,1.269,2.356,3.228,2.356c1.144,0,2.497-0.549,4.022-1.629c0.499-0.354,1.163-0.369,1.678-0.039
			c0.514,0.33,0.777,0.939,0.664,1.541v-0.001c0.001,0-0.063,0.512,0.226,0.846c0.35,0.405,1.222,0.584,2.461,0.485
			C31.61,60.05,31.651,60.049,31.692,60.049z"/>
		<path id="path-3_69_" d="M44.79,42h-27c-0.829,0-1.5-0.672-1.5-1.5v-11c0-0.828,0.671-1.5,1.5-1.5h27c0.829,0,1.5,0.672,1.5,1.5
			v11C46.29,41.328,45.619,42,44.79,42z M19.29,39h24v-8h-24V39z"/>
		<path id="path-4_69_" d="M37.79,11h-13c-0.829,0-1.5-0.672-1.5-1.5v-8c0-0.828,0.671-1.5,1.5-1.5h13c0.829,0,1.5,0.672,1.5,1.5v8
			C39.29,10.328,38.619,11,37.79,11z M26.29,8h10V3h-10V8z"/>
	</g>
</g>
<g>
</g>
<g>
</g>
<g>
</g>
<g>
</g>
<g>
</g>
<g>
</g>
<g>
</g>
<g>
</g>
<g>
</g>
<g>
</g>
<g>
</g>
<g>
</g>
<g>
</g>
<g>
</g>
<g>
</g>
</svg>
