<?xml version="1.0" encoding="iso-8859-1"?>
<!-- Generator: Adobe Illustrator 19.1.0, SVG Export Plug-In . SVG Version: 6.00 Build 0)  -->
<svg version="1.1" id="Capa_1" xmlns="http://www.w3.org/2000/svg" xmlns:xlink="http://www.w3.org/1999/xlink" x="0px" y="0px"
	 viewBox="0 0 65.5 65.5" style="enable-background:new 0 0 65.5 65.5;" xml:space="preserve">
<g>
	<g id="group-47svg">
		<path id="path-1_40_" style="fill:#81BDA4;" d="M65.5,35c0,16.568-13.432,30-30,30c-16.569,0-30-13.432-30-30
			c0-16.569,13.431-30,30-30C52.068,5,65.5,18.431,65.5,35z"/>
		<path id="path-2_40_" style="fill:#E56A77;" d="M56.841,35c0,11.785-9.555,21.34-21.341,21.34c-11.785,0-21.34-9.555-21.34-21.34
			c0-11.786,9.555-21.341,21.34-21.341C47.286,13.659,56.841,23.214,56.841,35z"/>
		<path id="path-3_40_" d="M31.5,54.84C18.906,54.84,8.66,44.594,8.66,32S18.906,9.159,31.5,9.159
			c12.595,0,22.841,10.247,22.841,22.841S44.095,54.84,31.5,54.84z M31.5,12.159c-10.94,0-19.84,8.901-19.84,19.841
			s8.9,19.84,19.84,19.84S51.341,42.94,51.341,32S42.44,12.159,31.5,12.159z"/>
		<path id="path-4_40_" d="M31.5,63.5C14.131,63.5,0,49.369,0,32S14.131,0.5,31.5,0.5S63,14.631,63,32S48.869,63.5,31.5,63.5z
			 M31.5,3.5C15.785,3.5,3,16.285,3,32s12.785,28.5,28.5,28.5S60,47.715,60,32S47.215,3.5,31.5,3.5z"/>
		<path id="path-5_40_" d="M39.529,25.294c-0.828,0-1.5-0.672-1.5-1.5c0-1.813-2.567-2.204-2.677-2.22
			c-0.816-0.118-1.388-0.874-1.275-1.691c0.112-0.818,0.863-1.39,1.68-1.282c1.823,0.244,5.272,1.641,5.272,5.193
			C41.029,24.622,40.357,25.294,39.529,25.294z"/>
		<path id="path-6_35_" d="M16.5,38c-0.828,0-1.5-0.672-1.5-1.5c0-3.552,3.449-4.95,5.272-5.193
			c0.819-0.106,1.576,0.467,1.686,1.288c0.108,0.82-0.465,1.572-1.283,1.685C20.547,34.299,18,34.694,18,36.5
			C18,37.328,17.328,38,16.5,38z"/>
		<path id="path-7_27_" d="M34.633,46.603c-0.828,0-1.5-0.672-1.5-1.5c0-0.829,0.672-1.5,1.5-1.5c1.841,0,2.215-2.643,2.219-2.67
			c0.11-0.821,0.863-1.393,1.685-1.288c0.821,0.11,1.398,0.865,1.288,1.686C39.582,43.154,38.183,46.603,34.633,46.603z"/>
		<path id="path-8_22_" d="M43.1,35.882c-0.286,0-0.575-0.081-0.831-0.252l-3.572-2.382c-0.689-0.46-0.876-1.391-0.416-2.08
			c0.459-0.69,1.391-0.875,2.08-0.416l3.572,2.382c0.69,0.46,0.876,1.391,0.416,2.08C44.06,35.648,43.585,35.882,43.1,35.882z"/>
		<path id="path-9_14_" d="M26.159,23.176c-0.286,0-0.575-0.082-0.831-0.252l-3.571-2.382c-0.69-0.46-0.876-1.391-0.416-2.081
			c0.46-0.689,1.391-0.874,2.08-0.415l3.571,2.382c0.689,0.46,0.876,1.391,0.416,2.081C27.119,22.942,26.643,23.176,26.159,23.176z"
			/>
		<path id="path-10_10_" d="M32.512,34.823c-0.287,0-0.576-0.082-0.832-0.252l-3.571-2.382c-0.689-0.46-0.876-1.391-0.416-2.081
			c0.46-0.689,1.391-0.874,2.08-0.415l3.572,2.382c0.689,0.46,0.876,1.391,0.416,2.081C33.471,34.589,32.996,34.823,32.512,34.823z"
			/>
		<path id="path-11_9_" d="M28.779,40.277c0,0.877-0.711,1.588-1.588,1.588c-0.878,0-1.589-0.711-1.589-1.588
			s0.711-1.589,1.589-1.589C28.068,38.688,28.779,39.4,28.779,40.277z"/>
		<path id="path-12_8_" d="M33.014,18.041c0,0.878-0.71,1.589-1.588,1.589c-0.877,0-1.588-0.711-1.588-1.589
			c0-0.877,0.711-1.588,1.588-1.588C32.304,16.453,33.014,17.164,33.014,18.041z"/>
		<path id="path-13_7_" d="M48.896,29.688c0,0.878-0.711,1.589-1.588,1.589c-0.877,0-1.588-0.711-1.588-1.589
			c0-0.877,0.711-1.588,1.588-1.588C48.185,28.1,48.896,28.811,48.896,29.688z"/>
		<path id="path-14_4_" d="M20.308,27.571c0,0.877-0.711,1.588-1.587,1.588c-0.878,0-1.589-0.711-1.589-1.588
			c0-0.877,0.711-1.588,1.589-1.588C19.597,25.983,20.308,26.694,20.308,27.571z"/>
	</g>
</g>
<g>
</g>
<g>
</g>
<g>
</g>
<g>
</g>
<g>
</g>
<g>
</g>
<g>
</g>
<g>
</g>
<g>
</g>
<g>
</g>
<g>
</g>
<g>
</g>
<g>
</g>
<g>
</g>
<g>
</g>
</svg>
