<?xml version="1.0" encoding="iso-8859-1"?>
<!-- Generator: Adobe Illustrator 19.1.0, SVG Export Plug-In . SVG Version: 6.00 Build 0)  -->
<svg version="1.1" id="Capa_1" xmlns="http://www.w3.org/2000/svg" xmlns:xlink="http://www.w3.org/1999/xlink" x="0px" y="0px"
	 viewBox="0 0 64.06 64.06" style="enable-background:new 0 0 64.06 64.06;" xml:space="preserve">
<g>
	<g id="group-71svg">
		<path id="path-1_67_" style="fill:#53ECF4;" d="M63.685,29.753H34.731H5.777c0,0-3.98,21.469,14.02,21.469v6.531h14.934h14.066
			v-6.531C67.797,51.222,63.685,29.753,63.685,29.753z"/>
		<path id="path-2_67_" style="fill:#FF917B;" d="M33.128,16.587c0,3.138-2.847,6.781-9.072,6.781
			c-6.223,0-13.468-3.643-13.468-6.781c0-3.136,7.245-6.78,13.468-6.78C30.281,9.807,33.128,13.451,33.128,16.587z"/>
		<path id="path-3_67_" d="M46.797,56.753h-32v-6.081c-4.414-0.297-7.922-1.94-10.445-4.894c-5.861-6.862-4.133-18.276-4.056-18.76
			l0.2-1.265h60.407l0.25,1.192c0.1,0.472,2.359,11.625-3.263,18.551c-2.556,3.148-6.283,4.887-11.093,5.181V56.753z M17.797,53.753
			h26v-6h1.5c4.588,0,8.039-1.398,10.257-4.125c3.761-4.623,3.235-12.009,2.853-14.875H3.121c-0.247,2.973-0.415,10.501,3.518,15.1
			c2.206,2.578,5.456,3.9,9.658,3.9h1.5V53.753z"/>
		<path id="path-4_67_" d="M61.797,15.753h-32c-0.828,0-1.5-0.671-1.5-1.5c0-0.828,0.672-1.5,1.5-1.5h32c0.829,0,1.5,0.672,1.5,1.5
			C63.297,15.082,62.626,15.753,61.797,15.753z"/>
		<path id="path-5_67_" d="M20.056,22.868c-6.597,0-14.969-3.899-14.969-8.281c0-4.381,8.372-8.28,14.969-8.28
			c6.941,0,10.572,4.165,10.572,8.28C30.628,18.703,26.997,22.868,20.056,22.868z M20.056,9.307c-6.182,0-11.968,3.632-11.968,5.28
			c0,1.651,5.786,5.281,11.968,5.281c5.555,0,7.572-3.158,7.572-5.281C27.628,12.465,25.611,9.307,20.056,9.307z"/>
		<path id="path-6_60_" d="M43.617,42.451c-0.828,0-1.5-0.672-1.5-1.5c0-0.829,0.672-1.5,1.5-1.5c2.862,0,4.952-0.703,6.212-2.09
			c0.77-0.848,1.114-1.832,1.265-2.608H35.797c-0.828,0-1.5-0.671-1.5-1.5c0-0.828,0.672-1.5,1.5-1.5h18.262l0.13,1.357
			c0.014,0.145,0.311,3.572-2.141,6.268C50.197,41.418,47.36,42.451,43.617,42.451z"/>
	</g>
</g>
<g>
</g>
<g>
</g>
<g>
</g>
<g>
</g>
<g>
</g>
<g>
</g>
<g>
</g>
<g>
</g>
<g>
</g>
<g>
</g>
<g>
</g>
<g>
</g>
<g>
</g>
<g>
</g>
<g>
</g>
</svg>
