<?xml version="1.0" encoding="iso-8859-1"?>
<!-- Generator: Adobe Illustrator 19.1.0, SVG Export Plug-In . SVG Version: 6.00 Build 0)  -->
<svg version="1.1" id="Capa_1" xmlns="http://www.w3.org/2000/svg" xmlns:xlink="http://www.w3.org/1999/xlink" x="0px" y="0px"
	 viewBox="0 0 64 64" style="enable-background:new 0 0 64 64;" xml:space="preserve">
<g>
	<g id="group-88svg">
		<path id="path-1_85_" style="fill:#53ECF4;" d="M57,33h2.841c0-6-7.966-5.254-7.966-5.254S43.909,27,43.909,33H47v6.273l-3,1.187
			v16.919C44,58.502,44.858,59,45.981,59h12.204C59.309,59,60,58.502,60,57.379V40.46l-3-1.187V33z"/>
		<path id="path-2_85_" style="fill:#EDC951;" d="M15,64h6V36h-6V64z"/>
		<path id="path-3_85_" style="fill:#E56A77;" d="M18.975,4H8v13.699l10,9.891l10-9.891V4H18.975z"/>
		<path id="path-4_85_" d="M15.5,27.09c-0.381,0-0.763-0.145-1.055-0.434l-10-9.89C4.16,16.483,4,16.1,4,15.699V1.5
			C4,0.672,4.672,0,5.5,0h20C26.328,0,27,0.672,27,1.5v14.199c0,0.401-0.16,0.784-0.445,1.067l-10,9.89
			C16.263,26.945,15.881,27.09,15.5,27.09z M7,15.072l8.5,8.407l8.5-8.407V3H7V15.072z"/>
		<path id="path-5_82_" d="M55.186,59H42.981C41.141,59,39,57.418,39,55.379V38.46c0-0.616,0.376-1.169,0.948-1.396L42,36.254V32
			h-1.091c-0.828,0-1.5-0.672-1.5-1.5c0-4.185,3.313-6.784,8.645-6.784c0.376,0,0.663,0.014,0.821,0.025
			c0.158-0.011,0.445-0.025,0.821-0.025c5.215,0,8.498,2.487,8.64,6.51c0.016,0.089,0.024,0.18,0.024,0.274
			c0,0.828-0.671,1.5-1.5,1.5c-0.004,0-0.011,0-0.019,0H56v4.254l2.052,0.81C58.624,37.291,59,37.844,59,38.46v16.919
			C59,57.273,57.182,59,55.186,59z M42,39.48v15.899C42.039,55.582,42.583,56,42.981,56h12.205C55.56,56,56,55.59,56,55.379V39.48
			l-2.052-0.812C53.376,38.441,53,37.889,53,37.273V30.5c0-0.828,0.672-1.5,1.5-1.5h0.545c-0.829-1.849-3.253-2.284-5.349-2.284
			c-0.397,0-0.655,0.02-0.684,0.023c-0.091,0.008-0.186,0.008-0.277,0c-0.026-0.003-0.284-0.023-0.681-0.023
			c-2.096,0-4.52,0.435-5.349,2.284H43.5c0.828,0,1.5,0.672,1.5,1.5v6.773c0,0.616-0.376,1.168-0.948,1.395L42,39.48z"/>
		<path id="path-6_74_" d="M15.5,27.09c-0.381,0-0.763-0.145-1.055-0.434l-10-9.89C4.16,16.483,4,16.1,4,15.699V1.5
			C4,0.672,4.672,0,5.5,0h20C26.328,0,27,0.672,27,1.5v14.199c0,0.401-0.16,0.784-0.445,1.067l-10,9.89
			C16.263,26.945,15.881,27.09,15.5,27.09z M7,15.072l8.5,8.407l8.5-8.407V3H7V15.072z"/>
		<path id="path-7_59_" d="M15.5,34.5c-0.828,0-1.5-0.672-1.5-1.5v-8c0-0.828,0.672-1.5,1.5-1.5c0.828,0,1.5,0.672,1.5,1.5v8
			C17,33.828,16.328,34.5,15.5,34.5z"/>
		<path id="path-8_48_" d="M18.5,63h-6c-0.828,0-1.5-0.672-1.5-1.5v-28c0-0.828,0.672-1.5,1.5-1.5h6c0.828,0,1.5,0.672,1.5,1.5v28
			C20,62.328,19.328,63,18.5,63z M14,60h3V35h-3V60z"/>
		<path id="path-9_32_" d="M19.5,22.5c-0.828,0-1.5-0.672-1.5-1.5V2c0-0.828,0.672-1.5,1.5-1.5S21,1.172,21,2v19
			C21,21.828,20.328,22.5,19.5,22.5z"/>
		<path id="path-10_24_" d="M12.5,22.5c-0.828,0-1.5-0.672-1.5-1.5V3c0-0.828,0.672-1.5,1.5-1.5S14,2.172,14,3v18
			C14,21.828,13.328,22.5,12.5,22.5z"/>
	</g>
</g>
<g>
</g>
<g>
</g>
<g>
</g>
<g>
</g>
<g>
</g>
<g>
</g>
<g>
</g>
<g>
</g>
<g>
</g>
<g>
</g>
<g>
</g>
<g>
</g>
<g>
</g>
<g>
</g>
<g>
</g>
</svg>
