<?xml version="1.0" encoding="iso-8859-1"?>
<!-- Generator: Adobe Illustrator 19.1.0, SVG Export Plug-In . SVG Version: 6.00 Build 0)  -->
<svg version="1.1" id="Capa_1" xmlns="http://www.w3.org/2000/svg" xmlns:xlink="http://www.w3.org/1999/xlink" x="0px" y="0px"
	 viewBox="0 0 63.004 63.004" style="enable-background:new 0 0 63.004 63.004;" xml:space="preserve">
<g>
	<g id="group-75svg">
		<path id="path-1_71_" style="fill:#8B71B5;" d="M18.348,24.252c-3.69,4-5.972,10.831-5.972,17.562
			c0,7.19,2.611,13.438,6.755,18.438h28.31c4.143-5,6.755-11.248,6.755-18.438c0-6.731-2.283-13.562-5.973-17.562H18.348z"/>
		<path id="path-2_71_" style="fill:#E56A77;" d="M47.594,19.252H18.869l5.319-7h18.086L47.594,19.252z"/>
		<path id="path-3_71_" d="M42.441,59.252h-28.31c-0.447,0-0.87-0.199-1.155-0.543C8.33,53.103,5.875,46.397,5.875,39.314
			c0-7.201,2.441-14.32,6.37-18.58c0.285-0.306,0.684-0.482,1.103-0.482h29.875c0.419,0,0.818,0.176,1.103,0.482
			c3.929,4.26,6.37,11.379,6.37,18.58c0,7.083-2.455,13.789-7.1,19.395C43.311,59.053,42.888,59.252,42.441,59.252z M14.847,56.252
			h26.878c3.909-4.947,5.971-10.788,5.971-16.938c0-6.109-2.007-12.322-5.15-16.062H14.025c-3.143,3.74-5.15,9.953-5.15,16.062
			C8.875,45.463,10.937,51.305,14.847,56.252z"/>
		<path id="path-4_71_" d="M51.886,48.125c-0.147,0-0.293-0.009-0.438-0.025c-1.843-0.215-2.853-1.785-3.159-2.679
			c-0.269-0.784,0.149-1.637,0.933-1.905c0.785-0.269,1.636,0.149,1.905,0.932l0,0c0.001,0,0.261,0.631,0.676,0.673
			c0.202,0.02,2.111,0.01,6.123-6.367c1.969-3.133,2.539-5.844,1.693-8.059c-1.014-2.65-3.879-4.108-5.26-4.675l-5.451,5.062
			c-0.606,0.564-1.556,0.528-2.12-0.079c-0.563-0.606-0.528-1.556,0.079-2.12l6.122-5.684c0.385-0.358,0.928-0.488,1.434-0.343
			c0.248,0.072,6.098,1.799,7.998,6.768c1.201,3.144,0.543,6.752-1.956,10.726C57.142,45.635,54.4,48.125,51.886,48.125z"/>
		<path id="path-5_69_" d="M8.132,34.467c-0.557,0-1.093-0.313-1.352-0.848c-0.035-0.073-2.066-4.142-5.28-4.142
			c-0.829,0-1.5-0.67-1.5-1.5c0-0.828,0.671-1.5,1.5-1.5c5.122,0,7.869,5.603,7.984,5.841c0.358,0.747,0.043,1.643-0.704,2.001
			C8.571,34.42,8.35,34.467,8.132,34.467z"/>
		<path id="path-6_62_" d="M42.614,18.252c-0.007,0-0.013,0-0.02,0H13.869c-0.57,0-1.09-0.322-1.344-0.834
			c-0.253-0.51-0.195-1.119,0.15-1.574l5.319-7c0.284-0.373,0.726-0.592,1.194-0.592h18.086c0.469,0,0.911,0.219,1.195,0.592
			l5.195,6.837c0.278,0.272,0.45,0.651,0.45,1.071C44.114,17.58,43.443,18.252,42.614,18.252z M16.893,15.252H39.57l-3.04-4H19.932
			L16.893,15.252z"/>
		<path id="path-7_52_" d="M28.434,9.752c-0.828,0-1.5-0.672-1.5-1.5v-4c0-0.828,0.672-1.5,1.5-1.5c0.829,0,1.5,0.672,1.5,1.5v4
			C29.934,9.08,29.263,9.752,28.434,9.752z"/>
	</g>
</g>
<g>
</g>
<g>
</g>
<g>
</g>
<g>
</g>
<g>
</g>
<g>
</g>
<g>
</g>
<g>
</g>
<g>
</g>
<g>
</g>
<g>
</g>
<g>
</g>
<g>
</g>
<g>
</g>
<g>
</g>
</svg>
