<?xml version="1.0" encoding="iso-8859-1"?>
<!-- Generator: Adobe Illustrator 19.1.0, SVG Export Plug-In . SVG Version: 6.00 Build 0)  -->
<svg version="1.1" id="Capa_1" xmlns="http://www.w3.org/2000/svg" xmlns:xlink="http://www.w3.org/1999/xlink" x="0px" y="0px"
	 viewBox="0 0 65.5 65.5" style="enable-background:new 0 0 65.5 65.5;" xml:space="preserve">
<g>
	<g id="group-8svg">
		<path id="path-1_76_" style="fill:#81BDA4;" d="M5.5,19.75c0,17,13.432,30,30,30s30-13,30-30H5.5z"/>
		<path id="path-2_76_" style="fill:#E56A77;" d="M10.331,19.75c0,14,11.269,25.169,25.169,25.169S60.669,33.75,60.669,19.75H10.331
			z"/>
		<path id="path-3_76_" d="M31.5,43.919c-14.705,0-26.669-11.964-26.669-26.669c0-0.829,0.672-1.5,1.5-1.5h50.338
			c0.828,0,1.5,0.671,1.5,1.5C58.169,31.955,46.205,43.919,31.5,43.919z M7.878,18.75C8.654,31.106,18.952,40.919,31.5,40.919
			s22.846-9.813,23.622-22.169H7.878z"/>
		<path id="path-4_76_" d="M31.5,48.75C13.837,48.75,0,34.914,0,17.25c0-0.829,0.672-1.5,1.5-1.5h60c0.828,0,1.5,0.671,1.5,1.5
			C63,34.914,49.163,48.75,31.5,48.75z M3.037,18.75c0.755,15.258,12.985,27,28.463,27c15.477,0,27.708-11.742,28.463-27H3.037z"/>
		<path id="path-5_74_" d="M41.338,27.733l0.192-4.786l2.693,3.962c0.49,0.722,0.302,1.704-0.419,2.194
			c-0.722,0.491-1.704,0.303-2.195-0.419C41.412,28.394,41.324,28.06,41.338,27.733z"/>
		<path id="path-6_66_" d="M34.203,27.733l0.192-4.786l2.693,3.962c0.49,0.722,0.303,1.704-0.419,2.194
			c-0.722,0.491-1.704,0.303-2.194-0.419C34.277,28.394,34.19,28.06,34.203,27.733z"/>
		<path id="path-7_53_" d="M26.177,27.733l0.192-4.786l2.692,3.962c0.491,0.722,0.303,1.704-0.418,2.194
			c-0.722,0.491-1.705,0.303-2.195-0.419C26.251,28.394,26.163,28.06,26.177,27.733z"/>
		<path id="path-8_43_" d="M37.77,35.76l0.193-4.786l2.692,3.961c0.49,0.722,0.303,1.705-0.419,2.195
			c-0.721,0.49-1.704,0.303-2.194-0.419C37.845,36.42,37.758,36.086,37.77,35.76z"/>
		<path id="path-9_28_" d="M30.636,35.76l0.192-4.786l2.692,3.961c0.491,0.722,0.303,1.705-0.418,2.195
			c-0.722,0.49-1.704,0.303-2.194-0.419C30.71,36.42,30.623,36.086,30.636,35.76z"/>
		<path id="path-10_20_" d="M22.609,35.76l0.193-4.786l2.692,3.961c0.49,0.722,0.303,1.705-0.419,2.195
			c-0.722,0.49-1.704,0.303-2.194-0.419C22.684,36.42,22.597,36.086,22.609,35.76z"/>
		<path id="path-11_17_" d="M19.042,27.733l0.192-4.786l2.693,3.962c0.49,0.722,0.302,1.704-0.419,2.194
			c-0.722,0.491-1.703,0.303-2.194-0.419C19.116,28.394,19.029,28.06,19.042,27.733z"/>
	</g>
</g>
<g>
</g>
<g>
</g>
<g>
</g>
<g>
</g>
<g>
</g>
<g>
</g>
<g>
</g>
<g>
</g>
<g>
</g>
<g>
</g>
<g>
</g>
<g>
</g>
<g>
</g>
<g>
</g>
<g>
</g>
</svg>
