<?xml version="1.0" encoding="iso-8859-1"?>
<!-- Generator: Adobe Illustrator 19.1.0, SVG Export Plug-In . SVG Version: 6.00 Build 0)  -->
<svg version="1.1" id="Capa_1" xmlns="http://www.w3.org/2000/svg" xmlns:xlink="http://www.w3.org/1999/xlink" x="0px" y="0px"
	 viewBox="0 0 63 63" style="enable-background:new 0 0 63 63;" xml:space="preserve">
<g>
	<g id="group-81svg">
		<path id="path-1_78_" style="fill:#99746A;" d="M48.595,31.298V17.5h1.912c1.095,0,1.987-0.914,2-2.009l0.012-0.984
			c0.013-1.114-0.886-2.007-2-2.007h-9.743h-9.234c-1.105,0-2.947,0.83-2.947,1.935v1c0,1.105,1.842,2.065,2.947,2.065h0.977
			l0.023,13.83c0,0.194-7.38,22.317-7.38,22.317c-0.392,1.112,0.617,1.853,1.796,1.853h13.818h15.317
			c1.179,0,1.529-0.758,1.136-1.869C57.229,53.631,48.595,31.492,48.595,31.298z"/>
		<path id="path-2_78_" style="fill:#99746A;" d="M17.251,55.5H9.133c-0.468,0-0.868-0.206-0.946-0.668L5.514,38.819
			C5.415,38.233,5.866,37.5,6.46,37.5h13.464c0.594,0,1.045,0.8,0.946,1.386l-2.673,15.813C18.119,55.161,17.72,55.5,17.251,55.5z"
			/>
		<path id="path-3_78_" d="M47.505,31.016c-0.449,0-0.895-0.202-1.19-0.585c-0.505-0.657-0.382-1.599,0.274-2.104l13.996-10.768
			c0.656-0.504,1.599-0.383,2.103,0.274c0.506,0.656,0.383,1.599-0.273,2.103L48.419,30.705
			C48.146,30.914,47.824,31.016,47.505,31.016z"/>
		<path id="path-4_78_" d="M52.093,53.5H22.958c-1.27,0-2.334-0.477-2.921-1.306c-0.492-0.696-0.595-1.555-0.289-2.422
			c2.717-8.098,6.783-20.262,7.294-21.901l-0.021-12.394c-2.013-0.18-3.426-1.404-3.426-3.042v-1c0-1.913,2.029-3.935,3.947-3.935
			h18.977c0.91,0,1.775,0.369,2.437,1.039c0.687,0.695,1.074,1.647,1.063,2.611l-0.012,1.107c-0.022,1.822-1.482,3.202-3.412,3.242
			v12.558c0.614,1.719,5.208,13.752,8.285,21.787c0.441,1.243,0.128,2.066-0.209,2.544C54.311,52.894,53.573,53.5,52.093,53.5z
			 M22.676,50.476c0.077,0.014,0.171,0.024,0.282,0.024h28.961c-8.324-21.731-8.324-21.824-8.324-22.202V14
			c0-0.828,0.672-1.5,1.5-1.5h1.412c0.185,0,0.497-0.035,0.5-0.276l0.012-1.107c0.002-0.168-0.072-0.343-0.198-0.47
			c-0.053-0.055-0.166-0.147-0.302-0.147H27.542c-0.306,0.024-0.92,0.631-0.947,0.941v0.86c0.153,0.086,0.502,0.199,0.947,0.199
			h0.977c0.828,0,1.5,0.67,1.501,1.498l0.022,14.08C30.042,28.407,30.042,28.517,22.676,50.476z"/>
		<path id="path-5_76_" d="M4.914,53.501c-1.736,0-2.121-1.167-2.206-1.668L0.034,35.689c-0.133-0.787,0.126-1.683,0.675-2.333
			C1.176,32.805,1.798,32.5,2.46,32.5h13.464c0.631,0,1.227,0.295,1.679,0.83c0.587,0.693,0.887,1.72,0.747,2.555l-2.674,15.691
			c-0.195,1.15-1.169,1.924-2.425,1.924L4.914,53.501z M5.527,50.5h7.289l2.555-15H3.043L5.527,50.5z"/>
		<path id="path-6_68_" d="M44.571,48.199c-0.607,0-1.178-0.371-1.404-0.974L36.69,29.949c-0.063-0.168-0.095-0.346-0.095-0.525
			V17.5c0-0.828,0.672-1.5,1.5-1.5c0.828,0,1.5,0.672,1.5,1.5v11.651l6.381,17.021c0.291,0.775-0.102,1.64-0.878,1.931
			C44.925,48.168,44.746,48.199,44.571,48.199z"/>
		<path id="path-7_54_" d="M9.193,48.681c-0.121,0-0.244-0.015-0.368-0.046c-0.803-0.203-1.29-1.018-1.087-1.822l1.63-6.464
			c0.202-0.802,1.012-1.289,1.821-1.087c0.803,0.202,1.29,1.017,1.087,1.82l-1.63,6.465C10.476,48.226,9.864,48.681,9.193,48.681z"
			/>
	</g>
</g>
<g>
</g>
<g>
</g>
<g>
</g>
<g>
</g>
<g>
</g>
<g>
</g>
<g>
</g>
<g>
</g>
<g>
</g>
<g>
</g>
<g>
</g>
<g>
</g>
<g>
</g>
<g>
</g>
<g>
</g>
</svg>
