<?xml version="1.0" encoding="UTF-8" standalone="no"?><!DOCTYPE svg PUBLIC "-//W3C//DTD SVG 1.1//EN" "http://www.w3.org/Graphics/SVG/1.1/DTD/svg11.dtd"><svg width="100%" height="100%" viewBox="0 0 515 515" version="1.1" xmlns="http://www.w3.org/2000/svg" xmlns:xlink="http://www.w3.org/1999/xlink" xml:space="preserve" xmlns:serif="http://www.serif.com/" style="fill-rule:evenodd;clip-rule:evenodd;stroke-linejoin:round;stroke-miterlimit:1.41421;"><path d="M507.2,185.6c-12.8,-48 -41.6,-83.2 -80,-100.8c-19.2,-8 -38.4,-12.8 -60.8,-12.8c-22.4,0 -43.2,4.8 -62.4,8c-11.2,1.6 -20.8,3.2 -30.4,4.8l0,-36.8c0,0 0,-16 16,-16c9.6,0 16,-6.4 16,-16c0,-9.6 -6.4,-16 -16,-16c-30.4,0 -48,24 -48,48l0,38.4c-9.6,-1.6 -19.2,-3.2 -30.4,-4.8c-19.2,-3.2 -40,-8 -62.4,-8c-22.4,0 -41.6,4.8 -60.8,12.8c-40,17.6 -67.2,52.8 -80,99.2c-17.6,67.2 0,148.8 49.6,217.6c72,99.2 144,112 200,112c56,0 128,-12.8 200,-112c49.6,-68.8 67.2,-148.8 49.6,-217.6Zm-75.2,196.8c-72,97.6 -140.8,97.6 -174.4,97.6c-33.6,0 -102.4,0 -174.4,-99.2c-43.2,-59.2 -59.2,-129.6 -44.8,-188.8c9.6,-36.8 32,-64 62.4,-78.4c14.4,-6.4 30.4,-9.6 48,-9.6c19.2,0 38.4,3.2 56,8c12.8,3.2 24,4.8 36.8,6.4l0,9.6l-16,0c-9.6,0 -16,6.4 -16,16c0,9.6 6.4,16 16,16l64,0c9.6,0 16,-6.4 16,-16c0,-9.6 -6.4,-16 -16,-16l-16,0l0,-9.6c11.2,-1.6 24,-3.2 36.8,-6.4c17.6,-3.2 36.8,-8 56,-8c17.6,0 32,3.2 48,9.6c30.4,14.4 51.2,41.6 62.4,78.4c14.4,59.2 -1.6,129.6 -44.8,190.4Z" style="fill:#672bff;fill-rule:nonzero;"/></svg>