<?xml version="1.0" encoding="iso-8859-1"?>
<!-- Generator: Adobe Illustrator 19.0.0, SVG Export Plug-In . SVG Version: 6.00 Build 0)  -->
<svg xmlns="http://www.w3.org/2000/svg" xmlns:xlink="http://www.w3.org/1999/xlink" version="1.1" id="Layer_1" x="0px" y="0px" viewBox="0 0 512.663 512.663" style="enable-background:new 0 0 512.663 512.663;" xml:space="preserve">
<g>
	<g>
		<path d="M510.4,241.131c-1.6-1.6-4.8-4.8-11.2-4.8c-3.2,0-4.8,0-8,0c9.6-84.8-35.2-136-38.4-139.2c-4.8-4.8-11.2-6.4-16-4.8    c-28.8-60.8-92.8-81.6-96-83.2c-4.8-1.6-9.6,0-14.4,1.6c-20.8-4.8-44.8-9.6-67.2-9.6c-14.4,0-48,0-80,9.6    c-3.2-1.6-6.4-3.2-11.2-1.6c-3.2,0-72,17.6-110.4,102.4v-1.6c-1.6-6.4-9.6-11.2-16-11.2c-8,1.6-14.4,8-16,14.4    c0,3.2-9.6,57.6,1.6,123.2c-4.8,0-8,0-12.8,0h-1.6h-1.6c0,0,0,0-1.6,0s-1.6,1.6-3.2,1.6c-1.6,0-1.6,1.6-1.6,1.6l-1.6,1.6l-1.6,4.8    c0,1.6,0,1.6-1.6,3.2c0,1.6,0,1.6,0,3.2c0,0,0,0,0,1.6v1.6v1.6c28.8,92.8,99.2,160,190.4,187.2c6.4,4.8,14.4,30.4,17.6,54.4    c1.6,8,8,12.8,16,12.8h64c8,0,12.8-4.8,14.4-11.2c1.6-3.2,3.2-4.8,3.2-9.6c0-12.8,0-36.8,12.8-43.2    c91.2-27.2,164.8-100.8,193.6-192C513.6,250.731,512,245.931,510.4,241.131z M444.8,141.931c9.6,20.8,20.8,54.4,14.4,97.6    c-62.4,9.6-148.8,41.6-204.8,97.6c3.2-16,4.8-32,4.8-44.8c6.4-25.6,48-49.6,89.6-75.2C387.2,194.731,425.6,170.731,444.8,141.931z     M366.4,111.531c1.6-19.2,0-38.4-3.2-54.4c19.2,11.2,43.2,35.2,51.2,72c-17.6,20.8-52.8,43.2-83.2,62.4    c-32,19.2-62.4,38.4-83.2,60.8c0-1.6-1.6-3.2-1.6-4.8c9.6-30.4,35.2-48,60.8-64C334.4,165.931,363.2,148.331,366.4,111.531z     M156.8,68.331c0-4.8,3.2-9.6,6.4-14.4c17.6-14.4,49.6-20.8,96-20.8c22.4,0,44.8,4.8,67.2,12.8c4.8,14.4,9.6,38.4,6.4,60.8    c-1.6,19.2-17.6,30.4-44.8,48c-22.4,14.4-49.6,32-65.6,62.4c-11.2-9.6-27.2-19.2-44.8-25.6c-6.4-9.6-3.2-17.6,0-32    c6.4-19.2,14.4-46.4-12.8-73.6C155.2,76.331,156.8,69.931,156.8,68.331z M124.8,71.531c0,12.8,6.4,25.6,17.6,38.4    c12.8,12.8,11.2,22.4,4.8,41.6c-1.6,8-4.8,17.6-4.8,28.8c-30.4-11.2-49.6-24-62.4-36.8C91.2,109.931,107.2,85.931,124.8,71.531z     M54.4,164.331c17.6,19.2,48,40,94.4,52.8c35.2,9.6,57.6,24,68.8,44.8c8,16,11.2,36.8,6.4,60.8c-41.6-41.6-99.2-75.2-163.2-84.8    C54.4,210.731,52.8,185.131,54.4,164.331z M38.4,268.331c1.6,0,3.2,0,4.8,0h1.6c102.4,9.6,182.4,88,212.8,155.2    C158.4,417.131,75.2,357.931,38.4,268.331z M276.8,479.531H240c-3.2-6.4-4.8-16-8-25.6c16,3.2,32,3.2,48,3.2    C278.4,465.131,276.8,473.131,276.8,479.531z M292.8,423.531c-6.4-17.6-16-33.6-27.2-51.2c52.8-62.4,147.2-96,211.2-102.4    C444.8,346.731,376,405.931,292.8,423.531z"/>
	</g>
</g>
<g>
</g>
<g>
</g>
<g>
</g>
<g>
</g>
<g>
</g>
<g>
</g>
<g>
</g>
<g>
</g>
<g>
</g>
<g>
</g>
<g>
</g>
<g>
</g>
<g>
</g>
<g>
</g>
<g>
</g>
</svg>
