<?xml version="1.0" encoding="iso-8859-1"?>
<!-- Generator: Adobe Illustrator 19.0.0, SVG Export Plug-In . SVG Version: 6.00 Build 0)  -->
<svg xmlns="http://www.w3.org/2000/svg" xmlns:xlink="http://www.w3.org/1999/xlink" version="1.1" id="Layer_1" x="0px" y="0px" viewBox="0 0 511.584 511.584" style="enable-background:new 0 0 511.584 511.584;" xml:space="preserve">
<g>
	<g>
		<path d="M511.531,179.792c-1.6-67.2-28.8-126.4-75.2-168c-3.2-3.2-8-4.8-11.2-4.8c-14.4,0-43.2,25.6-43.2,43.2    c0,9.6,6.4,14.4,20.8,25.6c9.6,8,32,24,33.6,32c3.2,12.8-12.8,59.2-57.6,118.4c-65.6,84.8-176,174.4-292.8,174.4    c-9.6,0-19.2,0-30.4-1.6c-27.2-3.2-40,6.4-46.4,14.4c-11.2,12.8-9.6,32-8,35.2c0,1.6,1.6,3.2,1.6,3.2s0,1.6,1.6,1.6    c1.6,1.6,1.6,1.6,3.2,3.2l1.6,1.6c3.2,1.6,84.8,46.4,185.6,46.4c86.4,0,160-30.4,220.8-92.8    C477.931,347.792,513.131,264.592,511.531,179.792z M420.331,50.192c0,0-1.6-1.6-3.2-1.6c1.6-1.6,3.2-3.2,4.8-4.8    c8,8,14.4,16,20.8,25.6C436.331,61.392,428.331,56.592,420.331,50.192z M33.131,434.192c0,0,0-1.6,1.6-1.6    c1.6-3.2,6.4-3.2,11.2-3.2c1.6,0,4.8,0,6.4,0c11.2,1.6,22.4,3.2,33.6,3.2c161.6,0,283.2-142.4,316.8-185.6    c16-20.8,32-46.4,44.8-68.8c-4.8,46.4-24,108.8-78.4,163.2C258.731,453.392,87.531,451.792,33.131,434.192z M393.131,390.992    c-54.4,54.4-121.6,83.2-198.4,83.2c-11.2,0-22.4,0-33.6-1.6c76.8-9.6,164.8-40,230.4-107.2c59.2-59.2,80-124.8,86.4-176    C479.531,259.792,447.531,334.992,393.131,390.992z"/>
	</g>
</g>
<g>
</g>
<g>
</g>
<g>
</g>
<g>
</g>
<g>
</g>
<g>
</g>
<g>
</g>
<g>
</g>
<g>
</g>
<g>
</g>
<g>
</g>
<g>
</g>
<g>
</g>
<g>
</g>
<g>
</g>
</svg>
