<?xml version="1.0" encoding="iso-8859-1"?>
<!-- Generator: Adobe Illustrator 19.0.0, SVG Export Plug-In . SVG Version: 6.00 Build 0)  -->
<svg xmlns="http://www.w3.org/2000/svg" xmlns:xlink="http://www.w3.org/1999/xlink" version="1.1" id="Layer_1" x="0px" y="0px" viewBox="0 0 516.876 516.876" style="enable-background:new 0 0 516.876 516.876;" xml:space="preserve">
<g>
	<g>
		<path d="M500.372,352.076c-9.6-20.8-28.8-35.2-51.2-38.4c-20.8-3.2-38.4,4.8-52.8,11.2c-9.6-36.8-38.4-120-121.6-172.8    c16-46.4,4.8-112-40-148.8c-6.4-4.8-17.6-4.8-22.4,3.2c-4.8,6.4-4.8,17.6,3.2,22.4c38.4,30.4,43.2,96,22.4,128    c-8,12.8-20.8,25.6-35.2,40c-30.4,30.4-67.2,67.2-80,126.4c-12.8-6.4-30.4-14.4-52.8-11.2c-22.4,3.2-41.6,17.6-52.8,38.4    c-14.4,25.6-17.6,59.2-4.8,89.6c14.4,36.8,40,60.8,78.4,70.4c8,1.6,19.2,4.8,32,4.8c25.6,0,49.6-9.6,72-27.2    c25.6-20.8,40-49.6,40-80c0-24-9.6-46.4-27.2-60.8c-17.6-14.4-36.8-16-52.8-16h-1.6c11.2-49.6,43.2-83.2,72-112    c12.8-12.8,25.6-25.6,35.2-40c72,46.4,97.6,120,105.6,153.6h-1.6c-16,1.6-35.2,1.6-52.8,16c-17.6,14.4-27.2,35.2-27.2,60.8    c0,30.4,14.4,59.2,40,80c22.4,17.6,46.4,27.2,70.4,27.2c14.4,0,25.6-3.2,32-4.8c38.4-9.6,64-33.6,78.4-70.4    C516.372,411.276,514.772,377.676,500.372,352.076z M186.772,374.476c9.6,8,14.4,20.8,14.4,35.2c0,20.8-11.2,40-28.8,54.4    c-16,12.8-33.6,19.2-51.2,19.2c-9.6,0-17.6-1.6-24-3.2c-17.6-4.8-43.2-16-57.6-51.2c-8-22.4-8-44.8,3.2-62.4    c8-11.2,19.2-20.8,32-22.4c1.6,0,3.2,0,4.8,0c9.6,0,19.2,4.8,28.8,9.6c6.4,3.2,14.4,6.4,20.8,8h1.6c6.4,1.6,14.4,1.6,20.8,3.2    C165.972,366.476,177.172,366.476,186.772,374.476z M477.972,430.476c-14.4,36.8-40,46.4-57.6,51.2c-6.4,1.6-14.4,3.2-24,3.2    c-17.6,0-35.2-6.4-51.2-19.2c-17.6-14.4-28.8-35.2-28.8-54.4c0-14.4,4.8-27.2,14.4-35.2c9.6-8,20.8-8,33.6-9.6    c6.4,0,14.4-1.6,20.8-3.2h1.6c8-1.6,14.4-4.8,20.8-8c9.6-4.8,19.2-9.6,28.8-9.6c1.6,0,3.2,0,4.8,0c12.8,1.6,24,9.6,30.4,22.4    C484.372,385.676,485.972,408.076,477.972,430.476z"/>
	</g>
</g>
<g>
</g>
<g>
</g>
<g>
</g>
<g>
</g>
<g>
</g>
<g>
</g>
<g>
</g>
<g>
</g>
<g>
</g>
<g>
</g>
<g>
</g>
<g>
</g>
<g>
</g>
<g>
</g>
<g>
</g>
</svg>
