<?xml version="1.0" encoding="iso-8859-1"?>
<!-- Generator: Adobe Illustrator 19.0.0, SVG Export Plug-In . SVG Version: 6.00 Build 0)  -->
<svg xmlns="http://www.w3.org/2000/svg" xmlns:xlink="http://www.w3.org/1999/xlink" version="1.1" id="Layer_1" x="0px" y="0px" viewBox="0 0 510.897 510.897" style="enable-background:new 0 0 510.897 510.897;" xml:space="preserve">
<g>
	<g>
		<path d="M477.297,103.069c4.8-16,9.6-43.2,0-75.2c-1.6-8-11.2-14.4-19.2-11.2c-8,1.6-12.8,11.2-11.2,19.2c6.4,24,3.2,44.8,0,56    c-25.6-3.2-46.4,1.6-68.8,19.2c-25.6,19.2-36.8,56-48,99.2c-27.2,100.8-59.2,222.4-283.2,222.4c-6.4,0-14.4,0-22.4,0    c-16,0-24,11.2-24,20.8c-3.2,14.4,9.6,28.8,22.4,32c33.6,6.4,67.2,9.6,100.8,9.6c236.8,0,382.4-164.8,387.2-324.8    C510.897,157.469,506.097,123.869,477.297,103.069z M123.697,461.469c-6.4,0-12.8,0-19.2,0c196.8-20.8,232-152,256-241.6    c9.6-36.8,19.2-70.4,35.2-81.6c20.8-14.4,32-16,56-11.2c27.2,11.2,27.2,41.6,27.2,41.6    C475.697,290.269,362.097,461.469,123.697,461.469z"/>
	</g>
</g>
<g>
</g>
<g>
</g>
<g>
</g>
<g>
</g>
<g>
</g>
<g>
</g>
<g>
</g>
<g>
</g>
<g>
</g>
<g>
</g>
<g>
</g>
<g>
</g>
<g>
</g>
<g>
</g>
<g>
</g>
</svg>
