<?xml version="1.0" encoding="iso-8859-1"?>
<!-- Generator: Adobe Illustrator 19.0.0, SVG Export Plug-In . SVG Version: 6.00 Build 0)  -->
<svg xmlns="http://www.w3.org/2000/svg" xmlns:xlink="http://www.w3.org/1999/xlink" version="1.1" id="Layer_1" x="0px" y="0px" viewBox="0 0 514 514" style="enable-background:new 0 0 514 514;" xml:space="preserve">
<g>
	<g>
		<path d="M500.8,98.6L425.6,25c-6.4-6.4-16-6.4-22.4,0L176,250.6c0,0,0,1.6-1.6,1.6L11.2,417C3.2,425,0,436.2,0,447.4    s4.8,24,12.8,30.4c8,8,17.6,16,28.8,16c11.2,0,20.8-8,28.8-16c0,0,0-3.2,1.6-4.8l153.6-152l48,48c3.2,3.2,6.4,4.8,11.2,4.8    c4.8,0,8-1.6,11.2-4.8l204.8-204.8C518.4,146.6,518.4,116.2,500.8,98.6z M48,453.8v1.6c-3.2,1.6-4.8,6.4-6.4,6.4    c-3.2,0-4.8-4.8-6.4-6.4c-3.2-1.6-3.2-6.4-3.2-9.6s1.6-4.8,3.2-6.4l153.6-153.6l14.4,14.4L48,453.8z M476.8,141.8L283.2,335.4    l-72-72L414.4,58.6l62.4,62.4C481.6,127.4,481.6,135.4,476.8,141.8z"/>
	</g>
</g>
<g>
</g>
<g>
</g>
<g>
</g>
<g>
</g>
<g>
</g>
<g>
</g>
<g>
</g>
<g>
</g>
<g>
</g>
<g>
</g>
<g>
</g>
<g>
</g>
<g>
</g>
<g>
</g>
<g>
</g>
</svg>
