<?xml version="1.0" encoding="iso-8859-1"?>
<!-- Generator: Adobe Illustrator 19.0.0, SVG Export Plug-In . SVG Version: 6.00 Build 0)  -->
<svg xmlns="http://www.w3.org/2000/svg" xmlns:xlink="http://www.w3.org/1999/xlink" version="1.1" id="Layer_1" x="0px" y="0px" viewBox="0 0 512 512" style="enable-background:new 0 0 512 512;" xml:space="preserve">
<g>
	<g>
		<path d="M508.8,259.2l-22.4-28.8c-3.2-3.2-8-6.4-12.8-6.4h-224c68.8-20.8,139.2-52.8,179.2-102.4c0,0,0-1.6,1.6-1.6    c0-1.6,1.6-1.6,1.6-3.2s0-1.6,0-3.2V112V48c0-9.6-6.4-16-16-16H312c-27.2,0-48,20.8-48,48s20.8,48,48,48h65.6    c-94.4,78.4-286.4,96-323.2,96c-1.6,0-3.2,0-6.4,1.6c0,0-1.6,0-1.6,1.6c0,0-1.6,0-1.6,1.6L6.4,256c-4.8,3.2-6.4,8-6.4,12.8v160    c0,4.8,1.6,8,4.8,11.2l38.4,35.2c3.2,3.2,6.4,4.8,11.2,4.8h419.2c4.8,0,11.2-3.2,12.8-8l22.4-35.2c1.6-3.2,3.2-6.4,3.2-8v-160    C512,265.6,510.4,262.4,508.8,259.2z M312,96c-8,0-16-6.4-16-16s6.4-16,16-16h88v32H312z M480,424l-16,24H60.8L32,422.4V276.8    L59.2,256h406.4l14.4,17.6V424z"/>
	</g>
</g>
<g>
</g>
<g>
</g>
<g>
</g>
<g>
</g>
<g>
</g>
<g>
</g>
<g>
</g>
<g>
</g>
<g>
</g>
<g>
</g>
<g>
</g>
<g>
</g>
<g>
</g>
<g>
</g>
<g>
</g>
</svg>
