<?xml version="1.0" encoding="iso-8859-1"?>
<!-- Generator: Adobe Illustrator 19.0.0, SVG Export Plug-In . SVG Version: 6.00 Build 0)  -->
<svg xmlns="http://www.w3.org/2000/svg" xmlns:xlink="http://www.w3.org/1999/xlink" version="1.1" id="Layer_1" x="0px" y="0px" viewBox="0 0 516.8 516.8" style="enable-background:new 0 0 516.8 516.8;" xml:space="preserve">
<g>
	<g>
		<path d="M110.812,404.8c-6.4-6.4-17.6-6.4-22.4,0c-3.2,3.2-4.8,6.4-4.8,11.2c0,4.8,1.6,8,4.8,11.2c3.2,3.2,8,4.8,11.2,4.8    c4.8,0,8-1.6,11.2-4.8c3.2-3.2,4.8-8,4.8-11.2S114.012,408,110.812,404.8z"/>
	</g>
</g>
<g>
	<g>
		<path d="M157.212,356.8c-6.4-6.4-16-6.4-22.4,0c-3.2,3.2-4.8,6.4-4.8,11.2s1.6,8,4.8,11.2c3.2,3.2,8,4.8,11.2,4.8    c4.8,0,8-1.6,11.2-4.8s4.8-8,4.8-11.2S160.413,360,157.212,356.8z"/>
	</g>
</g>
<g>
	<g>
		<path d="M205.212,308.8c-6.4-6.4-16-6.4-22.4,0c-3.2,3.2-4.8,8-4.8,11.2s1.6,8,4.8,11.2c3.2,3.2,8,4.8,11.2,4.8    c4.8,0,8-1.6,11.2-4.8s4.8-8,4.8-11.2S208.413,312,205.212,308.8z"/>
	</g>
</g>
<g>
	<g>
		<path d="M254.812,260.8c-6.4-6.4-16-6.4-22.4,0c-3.2,3.2-4.8,6.4-4.8,11.2s1.6,8,4.8,11.2c1.6,3.2,6.4,4.8,11.2,4.8    c4.8,0,8-1.6,11.2-4.8c3.2-3.2,4.8-6.4,4.8-11.2C259.613,267.2,258.012,264,254.812,260.8z"/>
	</g>
</g>
<g>
	<g>
		<path d="M302.813,212.8c-6.4-6.4-16-6.4-22.4,0c-3.2,3.2-4.8,6.4-4.8,11.2c0,4.8,1.6,8,4.8,11.2c1.6,3.2,6.4,4.8,11.2,4.8    c4.8,0,8-1.6,11.2-4.8s4.8-6.4,4.8-11.2C307.613,219.2,306.012,216,302.813,212.8z"/>
	</g>
</g>
<g>
	<g>
		<path d="M350.813,163.2c-6.4-6.4-16-6.4-22.4,0c-3.2,3.2-4.8,6.4-4.8,11.2s1.6,8,4.8,11.2c3.2,3.2,6.4,4.8,11.2,4.8    c4.8,0,8-1.6,11.2-4.8s4.8-8,4.8-11.2C355.613,169.6,354.012,166.4,350.813,163.2z"/>
	</g>
</g>
<g>
	<g>
		<path d="M397.212,116.8c-6.4-6.4-16-6.4-22.4,0c-3.2,3.2-4.8,6.4-4.8,11.2c0,4.8,1.6,8,4.8,11.2c3.2,3.2,8,4.8,11.2,4.8    c4.8,0,8-1.6,11.2-4.8s4.8-6.4,4.8-11.2C402.012,123.2,400.413,120,397.212,116.8z"/>
	</g>
</g>
<g>
	<g>
		<path d="M398.813,163.2c-6.4-4.8-16-4.8-22.4,0c-3.2,3.2-4.8,6.4-4.8,11.2s1.6,8,4.8,11.2s8,4.8,11.2,4.8c4.8,0,8-1.6,11.2-4.8    s4.8-8,4.8-11.2C403.613,169.6,402.012,166.4,398.813,163.2z"/>
	</g>
</g>
<g>
	<g>
		<path d="M350.813,212.8c-6.4-6.4-16-6.4-22.4,0c-3.2,3.2-4.8,6.4-4.8,11.2c0,4.8,1.6,8,4.8,11.2s8,4.8,11.2,4.8    c4.8,0,8-1.6,11.2-4.8s4.8-6.4,4.8-11.2C355.613,219.2,354.012,216,350.813,212.8z"/>
	</g>
</g>
<g>
	<g>
		<path d="M254.812,212.8c-6.4-6.4-16-6.4-22.4,0c-3.2,3.2-4.8,6.4-4.8,11.2c0,4.8,1.6,8,4.8,11.2c1.6,3.2,6.4,4.8,11.2,4.8    c4.8,0,8-1.6,11.2-4.8c3.2-3.2,4.8-8,4.8-11.2C259.613,219.2,258.012,216,254.812,212.8z"/>
	</g>
</g>
<g>
	<g>
		<path d="M302.813,164.8c-6.4-6.4-16-6.4-22.4,0c-3.2,3.2-4.8,6.4-4.8,11.2c0,4.8,1.6,8,4.8,11.2s6.4,4.8,11.2,4.8    c4.8,0,8-1.6,11.2-4.8s4.8-6.4,4.8-11.2C307.613,171.2,306.012,168,302.813,164.8z"/>
	</g>
</g>
<g>
	<g>
		<path d="M350.813,116.8c-6.4-6.4-16-6.4-22.4,0c-3.2,3.2-4.8,6.4-4.8,11.2c0,4.8,1.6,8,4.8,11.2c1.6,3.2,6.4,4.8,11.2,4.8    c4.8,0,8-1.6,11.2-4.8s4.8-6.4,4.8-11.2C355.613,123.2,354.012,120,350.813,116.8z"/>
	</g>
</g>
<g>
	<g>
		<path d="M205.212,260.8c-6.4-6.4-16-6.4-22.4,0c-3.2,3.2-4.8,6.4-4.8,11.2s1.6,8,4.8,11.2c3.2,3.2,8,4.8,11.2,4.8    c4.8,0,8-1.6,11.2-4.8s4.8-8,4.8-11.2C210.012,267.2,208.413,264,205.212,260.8z"/>
	</g>
</g>
<g>
	<g>
		<path d="M157.212,308.8c-6.4-6.4-16-6.4-22.4,0c-3.2,3.2-4.8,8-4.8,11.2c0,4.8,1.6,8,4.8,11.2c3.2,3.2,8,4.8,11.2,4.8    c4.8,0,8-1.6,11.2-4.8s4.8-8,4.8-11.2S160.413,312,157.212,308.8z"/>
	</g>
</g>
<g>
	<g>
		<path d="M158.812,404.8c-6.4-6.4-17.6-6.4-22.4,0c-3.2,3.2-4.8,6.4-4.8,11.2c0,4.8,1.6,8,4.8,11.2c3.2,3.2,6.4,4.8,11.2,4.8    c4.8,0,8-1.6,11.2-4.8c3.2-3.2,4.8-6.4,4.8-11.2S162.012,408,158.812,404.8z"/>
	</g>
</g>
<g>
	<g>
		<path d="M206.812,356.8c-6.4-6.4-16-6.4-22.4,0c-3.2,3.2-4.8,6.4-4.8,11.2c0,4.8,1.6,8,4.8,11.2c3.2,3.2,8,4.8,11.2,4.8    c4.8,0,8-1.6,11.2-4.8c3.2-3.2,4.8-6.4,4.8-11.2S210.012,360,206.812,356.8z"/>
	</g>
</g>
<g>
	<g>
		<path d="M254.812,308.8c-6.4-6.4-17.6-6.4-22.4,0c-3.2,3.2-4.8,6.4-4.8,11.2c0,4.8,1.6,8,4.8,11.2c3.2,3.2,6.4,4.8,11.2,4.8    c4.8,0,8-1.6,11.2-4.8c3.2-3.2,4.8-6.4,4.8-11.2S258.012,312,254.812,308.8z"/>
	</g>
</g>
<g>
	<g>
		<path d="M302.813,259.2c-6.4-4.8-16-4.8-22.4,0c-3.2,3.2-4.8,6.4-4.8,11.2s1.6,8,4.8,11.2s8,4.8,11.2,4.8c4.8,0,8-1.6,11.2-4.8    s4.8-6.4,4.8-11.2C307.613,265.6,306.012,262.4,302.813,259.2z"/>
	</g>
</g>
<g>
	<g>
		<path d="M510.812,4.8c-6.4-6.4-16-6.4-22.4,0l-16,16c-19.2-8-46.4-4.8-83.2,11.2c-1.6,0-1.6,1.6-3.2,1.6c-4.8,3.2-9.6,8-12.8,11.2    c-1.6,1.6-3.2,4.8-4.8,4.8c-1.6,0-4.8,0-6.4,1.6c-6.4,0-14.4,1.6-20.8,6.4c-6.4,4.8-11.2,9.6-14.4,14.4c-1.6,1.6-3.2,4.8-4.8,6.4    c-1.6,0-4.8,1.6-6.4,1.6c-6.4,1.6-12.8,3.2-19.2,8c-6.4,4.8-9.6,11.2-12.8,16c-1.6,1.6-3.2,4.8-3.2,6.4c-1.6,0-4.8,1.6-6.4,1.6    c-6.4,1.6-12.8,3.2-19.2,8c-6.4,4.8-9.6,11.2-11.2,16c-1.6,1.6-3.2,4.8-3.2,6.4c-1.6,0-4.8,1.6-6.4,3.2    c-4.8,1.6-12.8,4.8-19.2,9.6c-6.4,4.8-8,11.2-11.2,17.6c-1.6,1.6-1.6,4.8-3.2,6.4c-1.6,0-4.8,1.6-6.4,3.2    c-4.8,1.6-12.8,4.8-17.6,9.6c-6.4,6.4-8,12.8-9.6,17.6c-1.6,1.6-1.6,4.8-3.2,6.4c-1.6,1.6-4.8,1.6-6.4,3.2    c-4.8,1.6-11.2,4.8-17.6,11.2c-6.4,4.8-8,11.2-9.6,17.6c0,1.6-1.6,4.8-3.2,6.4c0,1.6-4.8,3.2-6.4,3.2c-4.8,3.2-11.2,6.4-16,11.2    c-4.8,6.4-6.4,12.8-8,19.2c0,1.6-1.6,4.8-1.6,6.4c0,1.6-4.8,3.2-6.4,3.2c-4.8,3.2-11.2,6.4-16,12.8c-4.8,6.4-6.4,14.4-8,19.2    c0,1.6-1.6,4.8-1.6,6.4c0,1.6-3.2,3.2-6.4,4.8c-4.8,3.2-11.2,8-14.4,14.4c-4.8,6.4-4.8,14.4-6.4,20.8c0,1.6,0,4.8-1.6,6.4    c0,1.6-3.2,3.2-6.4,4.8c-1.6,4.8-6.4,8-9.6,14.4c0,1.6-1.6,1.6-1.6,3.2c-19.2,46.4-20.8,78.4-1.6,97.6    c9.6,9.6,20.8,14.4,36.8,14.4s36.8-4.8,59.2-16c1.6-1.6,3.2-1.6,3.2-3.2c4.8-3.2,9.6-8,12.8-11.2c1.6-1.6,4.8-4.8,4.8-4.8    c1.6,0,4.8,0,6.4-1.6c6.4,0,14.4-1.6,20.8-6.4c6.4-4.8,11.2-9.6,14.4-14.4c1.6-1.6,3.2-4.8,4.8-6.4c1.6,0,4.8-1.6,6.4-1.6    c6.4-1.6,12.8-3.2,19.2-8c6.4-4.8,9.6-11.2,12.8-16c1.6-1.6,3.2-4.8,3.2-6.4c1.6,0,4.8-1.6,6.4-1.6c6.4-1.6,12.8-3.2,19.2-8    c6.4-4.8,9.6-11.2,11.2-16c1.6-1.6,3.2-4.8,3.2-6.4c1.6,0,4.8-1.6,6.4-3.2c4.8-1.6,12.8-4.8,19.2-9.6c6.4-4.8,8-11.2,11.2-17.6    c1.6-1.6,1.6-6.4,3.2-6.4c1.6,0,4.8-1.6,6.4-3.2c4.8-1.6,12.8-4.8,17.6-9.6c6.4-6.4,8-12.8,9.6-17.6c1.6-1.6,1.6-4.8,3.2-6.4    c1.6-1.6,4.8-1.6,6.4-3.2c4.8-1.6,11.2-4.8,17.6-11.2c4.8-6.4,8-12.8,9.6-19.2c0-1.6,1.6-4.8,1.6-6.4c1.6-1.6,4.8-3.2,6.4-3.2    c4.8-3.2,11.2-6.4,16-11.2c4.8-6.4,6.4-12.8,8-19.2c0-1.6,1.6-4.8,1.6-6.4s4.8-3.2,6.4-3.2c4.8-3.2,11.2-6.4,16-12.8    c4.8-6.4,6.4-14.4,8-19.2c0-1.6,1.6-4.8,1.6-6.4c0-1.6,3.2-3.2,6.4-4.8c4.8-3.2,11.2-6.4,14.4-14.4c4.8-8,4.8-14.4,6.4-20.8    c0-1.6,0-4.8,1.6-6.4c0-1.6,3.2-3.2,6.4-4.8c3.2-3.2,8-6.4,11.2-12.8c0-1.6,1.6-1.6,1.6-3.2c16-36.8,19.2-64,11.2-83.2l16-16    C517.213,20.8,517.213,11.2,510.812,4.8z M456.413,112c0,0,0,1.6-1.6,1.6c0,1.6-3.2,3.2-4.8,4.8c-4.8,3.2-9.6,8-12.8,14.4    c-3.2,6.4-3.2,12.8-4.8,17.6c0,3.2,0,6.4-1.6,8c0,1.6-3.2,3.2-4.8,3.2c-4.8,3.2-11.2,6.4-14.4,12.8c-4.8,6.4-4.8,12.8-6.4,17.6    c0,3.2-1.6,6.4-1.6,6.4c0,1.6-3.2,3.2-6.4,3.2c-4.8,3.2-11.2,6.4-16,12.8s-6.4,12.8-8,17.6c0,1.6-1.6,6.4-1.6,6.4    c-1.6,1.6-3.2,1.6-6.4,3.2c-4.8,3.2-11.2,4.8-16,11.2c-4.8,6.4-6.4,12.8-8,17.6c0,1.6-1.6,6.4-3.2,6.4c-1.6,0-4.8,1.6-6.4,3.2    c-4.8,1.6-11.2,4.8-17.6,11.2c-4.8,4.8-8,11.2-9.6,17.6c-1.6,1.6-1.6,6.4-3.2,6.4c-1.6,0-4.8,1.6-6.4,3.2    c-4.8,1.6-11.2,4.8-17.6,9.6c-4.8,4.8-8,11.2-11.2,17.6c-1.6,1.6-1.6,4.8-3.2,6.4c-1.6,0-4.8,1.6-6.4,3.2    c-4.8,1.6-11.2,3.2-17.6,8c-6.4,4.8-9.6,11.2-11.2,16c-1.6,1.6-3.2,4.8-3.2,6.4c-1.6,0-4.8,1.6-6.4,1.6c-4.8,1.6-12.8,3.2-17.6,8    c-6.4,4.8-9.6,11.2-12.8,16c-1.6,1.6-3.2,4.8-3.2,6.4c-1.6,0-4.8,1.6-6.4,1.6c-4.8,1.6-12.8,1.6-17.6,6.4    c-6.4,4.8-9.6,9.6-12.8,14.4c-1.6,1.6-3.2,4.8-3.2,4.8c-1.6,0-4.8,1.6-8,1.6c-4.8,0-11.2,1.6-17.6,4.8    c-6.4,3.2-11.2,9.6-14.4,12.8c-1.6,1.6-3.2,3.2-4.8,4.8c0,0-1.6,0-1.6,1.6c-35.2,14.4-52.8,12.8-59.2,8c-6.4-6.4-8-25.6,8-59.2    c0,0,0-1.6,1.6-1.6c0-1.6,3.2-3.2,4.8-4.8c4.8-3.2,9.6-8,12.8-14.4c0-6.4,1.6-12.8,1.6-19.2c0-3.2,0-6.4,1.6-8    c0-1.6,3.2-3.2,4.8-3.2c3.2-1.6,6.4-4.8,11.2-8c-1.6,1.6-1.6,4.8-1.6,8c0,4.8,1.6,8,4.8,11.2c3.2,3.2,6.4,4.8,11.2,4.8    c4.8,0,8-1.6,11.2-4.8s4.8-8,4.8-11.2s-1.6-8-4.8-11.2c-4.8-4.8-14.4-6.4-20.8-1.6c4.8-6.4,4.8-12.8,6.4-17.6    c0-3.2,1.6-6.4,1.6-6.4c0-1.6,3.2-3.2,6.4-3.2c4.8-3.2,11.2-6.4,16-12.8c4.8-6.4,6.4-12.8,8-17.6c0-1.6,1.6-6.4,1.6-6.4    s3.2-1.6,6.4-3.2c4.8-3.2,11.2-4.8,16-11.2c4.8-6.4,6.4-12.8,8-17.6c0-1.6,1.6-6.4,3.2-6.4c1.6,0,4.8-1.6,6.4-3.2    c4.8-1.6,11.2-4.8,17.6-11.2c4.8-4.8,8-11.2,9.6-17.6c1.6-1.6,1.6-6.4,3.2-6.4c1.6,0,4.8-1.6,6.4-3.2c4.8-1.6,11.2-4.8,17.6-9.6    c4.8-4.8,8-11.2,11.2-17.6c1.6-1.6,1.6-4.8,3.2-6.4c1.6,0,4.8-1.6,6.4-3.2c4.8-1.6,11.2-3.2,17.6-8s9.6-11.2,11.2-16    c-1.6-3.2,0-6.4,0-6.4c1.6,0,4.8-1.6,6.4-1.6c4.8-1.6,12.8-3.2,17.6-8c6.4-4.8,9.6-11.2,12.8-16c1.6-1.6,3.2-4.8,3.2-6.4    c1.6,0,4.8-1.6,6.4-1.6c4.8-1.6,12.8-1.6,17.6-6.4c6.4-4.8,9.6-9.6,12.8-14.4c1.6-1.6,3.2-4.8,3.2-4.8c1.6,0,4.8-1.6,8-1.6    c8-1.6,14.4-1.6,20.8-4.8c6.4-3.2,11.2-9.6,14.4-12.8c1.6-1.6,4.8-4.8,4.8-4.8s1.6,0,1.6-1.6c35.2-14.4,52.8-12.8,59.2-8    C469.212,57.6,470.812,76.8,456.413,112z"/>
	</g>
</g>
<g>
</g>
<g>
</g>
<g>
</g>
<g>
</g>
<g>
</g>
<g>
</g>
<g>
</g>
<g>
</g>
<g>
</g>
<g>
</g>
<g>
</g>
<g>
</g>
<g>
</g>
<g>
</g>
<g>
</g>
</svg>
