<?xml version="1.0" encoding="iso-8859-1"?>
<!-- Generator: Adobe Illustrator 19.0.0, SVG Export Plug-In . SVG Version: 6.00 Build 0)  -->
<svg xmlns="http://www.w3.org/2000/svg" xmlns:xlink="http://www.w3.org/1999/xlink" version="1.1" id="Layer_1" x="0px" y="0px" viewBox="0 0 512.206 512.206" style="enable-background:new 0 0 512.206 512.206;" xml:space="preserve">
<g>
	<g>
		<path d="M478.031,176.206c-19.2,0-38.4,1.6-56,4.8c6.4-4.8,11.2-6.4,11.2-6.4c8-1.6,14.4-9.6,12.8-17.6c-1.6-8-9.6-14.4-17.6-12.8    c-11.2,1.6-41.6,14.4-49.6,48c-52.8,17.6-92.8,49.6-116.8,84.8v-84.8c0-14.4,3.2-28.8,6.4-40c4.8,4.8,11.2,8,17.6,11.2    c8,3.2,16,4.8,24,4.8c9.6,0,19.2-1.6,27.2-6.4s11.2-14.4,6.4-22.4s-14.4-11.2-22.4-6.4c-4.8,3.2-16,3.2-25.6,0    c-6.4-1.6-9.6-6.4-12.8-11.2c11.2-12.8,24-24,40-32c14.4,19.2,40,38.4,75.2,38.4c9.6,0,16-6.4,16-16s-6.4-16-16-16    c-19.2,0-33.6-8-41.6-17.6c19.2-4.8,40-8,60.8-8c9.6,0,16-6.4,16-16c0-9.6-6.4-16-16-16c-9.6,0-19.2,0-28.8,1.6    c4.8-4.8,8-8,14.4-8c9.6,0,16-8,14.4-17.6c0-8-8-16-17.6-14.4c-25.6,3.2-41.6,24-48,46.4c-17.6,4.8-33.6,11.2-48,19.2    c-8-11.2-4.8-24,0-32s3.2-17.6-4.8-22.4c-6.4-4.8-16-3.2-20.8,4.8c-12.8,19.2-16,46.4,0,68.8c-25.6,22.4-41.6,52.8-46.4,88    c-28.8-8-84.8-30.4-113.6-83.2c17.6-8,38.4-27.2,38.4-57.6c0-9.6-6.4-16-16-16c-8,0-16,6.4-16,16c0,17.6-12.8,25.6-20.8,28.8    c-3.2-12.8-4.8-27.2-4.8-44.8c0-9.6-6.4-16-16-16c-9.6,0-16,6.4-16,16c0,8,0,16,1.6,24c-6.4,0-17.6-4.8-24-16    c-4.8-8-14.4-11.2-20.8-6.4c-8,4.8-11.2,14.4-6.4,22.4c11.2,20.8,35.2,33.6,52.8,33.6c1.6,0,3.2,0,4.8,0    c4.8,16,11.2,30.4,19.2,41.6c-8,0-17.6,0-28.8-3.2c-8-3.2-16,3.2-17.6,11.2c-1.6,8,3.2,17.6,11.2,19.2c12.8,3.2,24,4.8,35.2,4.8    s19.2-1.6,25.6-3.2c38.4,38.4,88,54.4,110.4,60.8v150.4c-14.4-24-33.6-46.4-59.2-64l-1.6-1.6c-1.6,0-1.6-1.6-3.2-1.6    c1.6-17.6,0-49.6-24-73.6c-8-6.4-17.6-6.4-24,0c-6.4,6.4-6.4,16,0,22.4c11.2,9.6,14.4,24,16,35.2c-22.4-9.6-49.6-14.4-78.4-14.4    c-9.6,0-16,6.4-16,16c0,9.6,6.4,16,16,16c32,0,59.2,8,83.2,19.2c-11.2,9.6-27.2,16-48,16c-9.6,0-16,6.4-16,16c0,9.6,6.4,16,16,16    c38.4,0,62.4-14.4,75.2-28.8c44.8,36.8,65.6,94.4,65.6,140.8v27.2c0,9.6,6.4,16,16,16c9.6,0,16-6.4,16-16v-128    c0-41.6,30.4-94.4,88-126.4c11.2,17.6,32,32,59.2,32c3.2,0,4.8,0,8,0c8-1.6,14.4-8,14.4-17.6c-1.6-8-8-14.4-17.6-14.4    c-16,1.6-27.2-4.8-33.6-12.8c28.8-11.2,60.8-17.6,99.2-17.6c9.6,0,16-6.4,16-16C497.231,185.806,486.031,176.206,478.031,176.206z    "/>
	</g>
</g>
<g>
</g>
<g>
</g>
<g>
</g>
<g>
</g>
<g>
</g>
<g>
</g>
<g>
</g>
<g>
</g>
<g>
</g>
<g>
</g>
<g>
</g>
<g>
</g>
<g>
</g>
<g>
</g>
<g>
</g>
</svg>
