<?xml version="1.0" encoding="iso-8859-1"?>
<!-- Generator: Adobe Illustrator 19.0.0, SVG Export Plug-In . SVG Version: 6.00 Build 0)  -->
<svg xmlns="http://www.w3.org/2000/svg" xmlns:xlink="http://www.w3.org/1999/xlink" version="1.1" id="Layer_1" x="0px" y="0px" viewBox="0 0 492.8 492.8" style="enable-background:new 0 0 492.8 492.8;" xml:space="preserve">
<g>
	<g>
		<path d="M490.4,363.2c-4.8-4.8-9.6-8-14.4-8C469.6,238.4,376.8,144,261.6,136v-19.2c9.6-4.8,16-16,16-27.2c0-17.6-14.4-32-32-32    c-17.6,0-32,14.4-32,32c0,11.2,6.4,20.8,14.4,27.2v20.8C114.4,144,21.6,238.4,15.2,355.2c-4.8,0-11.2,3.2-12.8,8    c-3.2,4.8-3.2,11.2,0,16l16,27.2c6.4,11.2,17.6,28.8,44.8,28.8h366.4c27.2,0,36.8-17.6,44.8-28.8l16-27.2    C493.6,374.4,493.6,368,490.4,363.2z M245.6,168c105.6,0,192,83.2,198.4,187.2H47.2C53.6,251.2,140,168,245.6,168z M445.6,390.4    c-6.4,11.2-9.6,12.8-17.6,12.8H63.2c-8,0-9.6-3.2-16-12.8l-3.2-3.2h403.2L445.6,390.4z"/>
	</g>
</g>
<g>
</g>
<g>
</g>
<g>
</g>
<g>
</g>
<g>
</g>
<g>
</g>
<g>
</g>
<g>
</g>
<g>
</g>
<g>
</g>
<g>
</g>
<g>
</g>
<g>
</g>
<g>
</g>
<g>
</g>
</svg>
