<?xml version="1.0" encoding="iso-8859-1"?>
<!-- Generator: Adobe Illustrator 19.0.0, SVG Export Plug-In . SVG Version: 6.00 Build 0)  -->
<svg xmlns="http://www.w3.org/2000/svg" xmlns:xlink="http://www.w3.org/1999/xlink" version="1.1" id="Layer_1" x="0px" y="0px" viewBox="0 0 513.081 513.081" style="enable-background:new 0 0 513.081 513.081;" xml:space="preserve">
<g>
	<g>
		<path d="M474.4,63.061l32-35.2c6.4-6.4,6.4-16,0-22.4c-6.4-6.4-16-6.4-22.4,0l-33.6,33.6c-25.6-24-49.6-36.8-70.4-38.4    c-17.6-1.6-35.2,4.8-48,17.6s-19.2,30.4-20.8,43.2c-8,3.2-16,8-22.4,12.8c-73.6,59.2-243.2,198.4-248,203.2    c-54.4,54.4-54.4,140.8,0,195.2c27.2,27.2,62.4,40,97.6,40s70.4-12.8,97.6-40c4.8-4.8,12.8-14.4,12.8-16l190.4-232    c4.8-4.8,8-11.2,11.2-16c12.8-3.2,30.4-9.6,44.8-24C516,163.861,528.8,123.861,474.4,63.061z M412,205.461l-188.8,230.4    c-3.2,3.2-8,9.6-11.2,12.8c-41.6,41.6-108.8,41.6-150.4,0c-41.6-41.6-41.6-108.8,0-148.8c6.4-6.4,150.4-124.8,244.8-201.6    c3.2-1.6,4.8-3.2,8-4.8c1.6,1.6,3.2,1.6,4.8,1.6c12.8,3.2,25.6,6.4,38.4,4.8c-1.6,12.8,1.6,25.6,4.8,38.4    c1.6,4.8,6.4,9.6,11.2,11.2c12.8,3.2,25.6,6.4,36.8,6.4c-1.6,12.8,1.6,27.2,4.8,40c0,1.6,0,1.6,1.6,3.2    C415.2,200.661,413.6,203.861,412,205.461z M472.8,157.461c-8,8-19.2,11.2-27.2,12.8c-3.2-17.6,0-27.2,9.6-35.2    c6.4-6.4,6.4-17.6,0-22.4c-3.2-3.2-6.4-4.8-11.2-4.8c-4.8,0-8,1.6-11.2,4.8c-9.6,9.6-20.8,12.8-40,8c-4.8-19.2-1.6-28.8,8-40    c3.2-3.2,4.8-8,4.8-11.2s-1.6-8-4.8-11.2c-6.4-6.4-16-6.4-22.4,0c-9.6,9.6-19.2,12.8-35.2,9.6c1.6-8,4.8-19.2,12.8-27.2    c4.8-6.4,12.8-9.6,20.8-8c11.2,1.6,32,9.6,62.4,40C466.4,99.861,493.6,136.661,472.8,157.461z"/>
	</g>
</g>
<g>
</g>
<g>
</g>
<g>
</g>
<g>
</g>
<g>
</g>
<g>
</g>
<g>
</g>
<g>
</g>
<g>
</g>
<g>
</g>
<g>
</g>
<g>
</g>
<g>
</g>
<g>
</g>
<g>
</g>
</svg>
