<?xml version="1.0" encoding="iso-8859-1"?>
<!-- Generator: Adobe Illustrator 19.0.0, SVG Export Plug-In . SVG Version: 6.00 Build 0)  -->
<svg xmlns="http://www.w3.org/2000/svg" xmlns:xlink="http://www.w3.org/1999/xlink" version="1.1" id="Layer_1" x="0px" y="0px" viewBox="0 0 510.8 510.8" style="enable-background:new 0 0 510.8 510.8;" xml:space="preserve">
<g>
	<g>
		<path d="M465,203.6c0-35.2-20.8-62.4-52.8-70.4c-8-25.6-28.8-43.2-54.4-48c6.4-20.8,8-41.6,4.8-60.8c-1.6-8-9.6-12.8-17.6-12.8    c-19.2,1.6-38.4,8-57.6,20.8C281,21.2,273,11.6,265,3.6c-6.4-4.8-14.4-4.8-20.8,0c-9.6,8-16,17.6-22.4,28.8    c-19.2-11.2-38.4-19.2-57.6-20.8c-8,0-16,4.8-17.6,12.8c-1.6,17.6,0,38.4,6.4,59.2c-27.2,4.8-48,24-54.4,51.2    c-32,8-52.8,35.2-52.8,68.8c0,17.6,6.4,35.2,19.2,48c-4.8,9.6-8,20.8-8,32c0,25.6,12.8,48,33.6,60.8c-4.8,9.6-6.4,20.8-6.4,30.4    c0,33.6,22.4,60.8,54.4,68.8c0,38.4,32,67.2,68.8,67.2c17.6,0,35.2-6.4,48-17.6c12.8,11.2,30.4,17.6,48,17.6    c38.4,0,68.8-30.4,70.4-67.2c28.8-9.6,49.6-36.8,49.6-67.2c0-11.2-3.2-20.8-6.4-30.4c22.4-12.8,36.8-35.2,36.8-62.4    c0-11.2-3.2-22.4-8-32C457,238.8,465,221.2,465,203.6z M333.8,46.8c-1.6,11.2-4.8,25.6-9.6,40c-8,3.2-16,6.4-24,12.8    c-8-6.4-16-9.6-25.6-12.8C292.2,67.6,313,53.2,333.8,46.8z M255.4,38.8c3.2,3.2,4.8,8,8,12.8C255.4,58,249,66,242.6,74    c-1.6,3.2-4.8,6.4-6.4,9.6C241,64.4,247.4,50,255.4,38.8z M209,61.2c-3.2,9.6-4.8,20.8-6.4,32c-4.8-3.2-9.6-4.8-14.4-6.4    c-6.4-14.4-9.6-27.2-9.6-40C188.2,48.4,199.4,53.2,209,61.2z M413.8,258c6.4,6.4,8,16,8,24c0,19.2-14.4,35.2-33.6,38.4    c-6.4,1.6-11.2,4.8-12.8,11.2c-1.6,6.4,0,12.8,3.2,16c8,8,11.2,17.6,11.2,27.2c0,20.8-16,36.8-35.2,38.4c-4.8,0-8,3.2-11.2,6.4    c-3.2,3.2-3.2,8-3.2,12.8c0,1.6,0,4.8,0,6.4c0,22.4-17.6,40-40,40c-14.4,0-27.2-6.4-33.6-19.2c-3.2-4.8-8-8-14.4-8    c-6.4,0-11.2,3.2-14.4,8c-3.2,11.2-16,19.2-30.4,19.2c-22.4,0-40-17.6-40-40c0-1.6,0-4.8,0-6.4c0-4.8,0-9.6-3.2-12.8    c-1.6-3.2-4.8-4.8-9.6-4.8c-20.8,0-38.4-17.6-38.4-38.4c0-9.6,3.2-19.2,11.2-27.2c3.2-4.8,4.8-9.6,3.2-16    c-1.6-4.8-6.4-9.6-11.2-11.2c-17.6-4.8-30.4-19.2-30.4-38.4c0-9.6,3.2-17.6,8-24c3.2-3.2,4.8-8,3.2-12.8c0-4.8-3.2-8-6.4-11.2    c-11.2-8-16-19.2-16-32c0-20.8,16-36.8,35.2-38.4c8,0,14.4-6.4,14.4-14.4c1.6-20.8,19.2-35.2,38.4-35.2c12.8,0,24,6.4,32,16    c3.2,4.8,8,6.4,12.8,6.4s9.6-3.2,12.8-6.4c8-9.6,19.2-16,32-16s24,6.4,32,16c6.4,8,19.2,8,25.6,0c8-9.6,19.2-16,32-16    c19.2,0,36.8,14.4,38.4,33.6c1.6,8,6.4,12.8,14.4,14.4c20.8,1.6,35.2,19.2,35.2,38.4c0,12.8-6.4,24-16,32    c-3.2,3.2-6.4,6.4-6.4,11.2C410.6,250,410.6,254.8,413.8,258z"/>
	</g>
</g>
<g>
	<g>
		<path d="M218.6,178c-6.4-6.4-16-6.4-22.4,0c-3.2,3.2-4.8,6.4-4.8,11.2c0,4.8,1.6,8,4.8,11.2c1.6,3.2,6.4,4.8,11.2,4.8    s8-1.6,11.2-4.8s4.8-6.4,4.8-11.2C223.4,184.4,221.8,181.2,218.6,178z"/>
	</g>
</g>
<g>
	<g>
		<path d="M314.6,178c-6.4-6.4-16-6.4-22.4,0c-3.2,3.2-4.8,6.4-4.8,11.2c0,4.8,1.6,8,4.8,11.2c3.2,3.2,6.4,4.8,11.2,4.8    s8-1.6,11.2-4.8s4.8-6.4,4.8-11.2C319.4,184.4,317.8,181.2,314.6,178z"/>
	</g>
</g>
<g>
	<g>
		<path d="M266.6,227.6c-6.4-6.4-16-6.4-22.4,0c-3.2,3.2-4.8,8-4.8,11.2c0,4.8,1.6,8,4.8,11.2c3.2,3.2,8,4.8,11.2,4.8    s8-1.6,11.2-4.8c3.2-3.2,4.8-6.4,4.8-11.2S269.8,230.8,266.6,227.6z"/>
	</g>
</g>
<g>
	<g>
		<path d="M362.6,227.6c-6.4-6.4-17.6-6.4-22.4,0c-3.2,3.2-4.8,8-4.8,11.2c0,4.8,1.6,8,4.8,11.2c3.2,3.2,8,4.8,11.2,4.8    c4.8,0,8-1.6,11.2-4.8c3.2-3.2,4.8-6.4,4.8-11.2S365.8,230.8,362.6,227.6z"/>
	</g>
</g>
<g>
	<g>
		<path d="M169,227.6c-4.8-6.4-16-6.4-22.4,0c-3.2,3.2-4.8,8-4.8,11.2c0,4.8,1.6,8,4.8,11.2c3.2,3.2,6.4,4.8,11.2,4.8    s8-1.6,11.2-4.8c3.2-3.2,4.8-6.4,4.8-11.2S172.2,230.8,169,227.6z"/>
	</g>
</g>
<g>
	<g>
		<path d="M218.6,275.6c-6.4-6.4-16-6.4-22.4,0c-3.2,3.2-4.8,8-4.8,11.2c0,4.8,1.6,8,4.8,11.2c1.6,3.2,6.4,4.8,11.2,4.8    s8-1.6,11.2-4.8c3.2-3.2,4.8-8,4.8-11.2C223.4,282,221.8,278.8,218.6,275.6z"/>
	</g>
</g>
<g>
	<g>
		<path d="M314.6,275.6c-6.4-6.4-16-4.8-22.4,0c-3.2,3.2-4.8,8-4.8,11.2c0,4.8,1.6,8,4.8,11.2c3.2,3.2,6.4,4.8,11.2,4.8    s8-1.6,11.2-4.8c3.2-3.2,4.8-8,4.8-11.2C319.4,282,317.8,278.8,314.6,275.6z"/>
	</g>
</g>
<g>
	<g>
		<path d="M362.6,323.6c-6.4-4.8-17.6-4.8-22.4,0c-3.2,3.2-4.8,8-4.8,11.2c0,4.8,1.6,8,4.8,11.2c3.2,3.2,8,4.8,11.2,4.8    c4.8,0,8-1.6,11.2-4.8c3.2-3.2,4.8-6.4,4.8-11.2S365.8,326.8,362.6,323.6z"/>
	</g>
</g>
<g>
	<g>
		<path d="M169,323.6c-4.8-4.8-16-4.8-22.4,0c-3.2,3.2-4.8,8-4.8,11.2c0,4.8,1.6,8,4.8,11.2c3.2,3.2,8,4.8,11.2,4.8    c3.2,0,8-1.6,11.2-4.8c3.2-3.2,4.8-8,4.8-11.2C173.8,330,172.2,326.8,169,323.6z"/>
	</g>
</g>
<g>
	<g>
		<path d="M266.6,323.6c-6.4-4.8-16-4.8-22.4,0c-3.2,3.2-4.8,8-4.8,11.2c0,4.8,1.6,8,4.8,11.2c3.2,3.2,8,4.8,11.2,4.8    s8-1.6,11.2-4.8c3.2-3.2,4.8-8,4.8-11.2C271.4,330,269.8,326.8,266.6,323.6z"/>
	</g>
</g>
<g>
	<g>
		<path d="M220.2,371.6c-6.4-4.8-16-4.8-22.4,0c-3.2,3.2-4.8,8-4.8,11.2c0,4.8,1.6,8,4.8,11.2c3.2,3.2,6.4,4.8,11.2,4.8    c4.8,0,8-1.6,11.2-4.8c3.2-3.2,4.8-8,4.8-11.2S223.4,374.8,220.2,371.6z"/>
	</g>
</g>
<g>
	<g>
		<path d="M314.6,371.6c-6.4-4.8-16-4.8-22.4,0c-3.2,3.2-4.8,8-4.8,11.2s1.6,8,4.8,11.2c3.2,3.2,6.4,4.8,11.2,4.8s8-1.6,11.2-4.8    c3.2-3.2,4.8-8,4.8-11.2S317.8,374.8,314.6,371.6z"/>
	</g>
</g>
<g>
</g>
<g>
</g>
<g>
</g>
<g>
</g>
<g>
</g>
<g>
</g>
<g>
</g>
<g>
</g>
<g>
</g>
<g>
</g>
<g>
</g>
<g>
</g>
<g>
</g>
<g>
</g>
<g>
</g>
</svg>
