<?xml version="1.0" encoding="iso-8859-1"?>
<!-- Generator: Adobe Illustrator 19.0.0, SVG Export Plug-In . SVG Version: 6.00 Build 0)  -->
<svg xmlns="http://www.w3.org/2000/svg" xmlns:xlink="http://www.w3.org/1999/xlink" version="1.1" id="Layer_1" x="0px" y="0px" viewBox="0 0 510.026 510.026" style="enable-background:new 0 0 510.026 510.026;" xml:space="preserve">
<g>
	<g>
		<path d="M275.813,50.826c6.4-12.8,17.6-19.2,20.8-20.8c8-3.2,11.2-12.8,8-20.8s-12.8-11.2-20.8-8c-16,8-33.6,24-40,49.6    c-112,4.8-201.6,105.6-201.6,228.8c0,126.4,96,230.4,212.8,230.4s212.8-104,212.8-230.4    C467.813,161.226,384.613,62.026,275.813,50.826z M255.013,478.026c-99.2,0-180.8-89.6-180.8-198.4c0-104,72-190.4,164.8-198.4    c0,4.8,0,9.6,1.6,16c1.6,8,8,12.8,16,12.8c1.6,0,1.6,0,3.2,0c8-1.6,14.4-9.6,12.8-19.2c0-3.2,0-6.4-1.6-9.6    c92.8,9.6,164.8,94.4,164.8,198.4C435.813,388.426,354.213,478.026,255.013,478.026z"/>
	</g>
</g>
<g>
</g>
<g>
</g>
<g>
</g>
<g>
</g>
<g>
</g>
<g>
</g>
<g>
</g>
<g>
</g>
<g>
</g>
<g>
</g>
<g>
</g>
<g>
</g>
<g>
</g>
<g>
</g>
<g>
</g>
</svg>
