<?xml version="1.0" encoding="iso-8859-1"?>
<!-- Generator: Adobe Illustrator 19.0.0, SVG Export Plug-In . SVG Version: 6.00 Build 0)  -->
<svg xmlns="http://www.w3.org/2000/svg" xmlns:xlink="http://www.w3.org/1999/xlink" version="1.1" id="Layer_1" x="0px" y="0px" viewBox="0 0 501.302 501.302" style="enable-background:new 0 0 501.302 501.302;" xml:space="preserve">
<g>
	<g>
		<path d="M498.651,329.051c-1.6-3.2-8-6.4-12.8-6.4h-48v-1.6c-14.4-121.6-107.2-248-182.4-254.4c-1.6,0-3.2,0-4.8,0    c-76.8,0-174.4,131.2-188.8,254.4v1.6h-46.4c-4.8,0-9.6,3.2-12.8,6.4c-3.2,4.8-3.2,9.6-1.6,14.4l16,46.4    c9.6,25.6,33.6,44.8,57.6,44.8h352c22.4,0,48-19.2,57.6-44.8l16-46.4C501.851,338.651,501.851,333.851,498.651,329.051z     M405.851,322.651h-75.2c-3.2-56-16-148.8-36.8-206.4C340.251,151.451,394.651,233.051,405.851,322.651z M298.651,322.651h-96    c6.4-112,33.6-200,48-222.4C265.051,122.651,292.251,210.651,298.651,322.651z M209.051,114.651c-22.4,57.6-35.2,150.4-38.4,208    h-76.8C105.051,231.451,161.051,148.251,209.051,114.651z M455.451,378.651c-6.4,12.8-19.2,24-28.8,24h-352    c-8,0-22.4-11.2-27.2-24l-9.6-24h425.6L455.451,378.651z"/>
	</g>
</g>
<g>
</g>
<g>
</g>
<g>
</g>
<g>
</g>
<g>
</g>
<g>
</g>
<g>
</g>
<g>
</g>
<g>
</g>
<g>
</g>
<g>
</g>
<g>
</g>
<g>
</g>
<g>
</g>
<g>
</g>
</svg>
