<?xml version="1.0" encoding="iso-8859-1"?>
<!-- Generator: Adobe Illustrator 19.0.0, SVG Export Plug-In . SVG Version: 6.00 Build 0)  -->
<svg xmlns="http://www.w3.org/2000/svg" xmlns:xlink="http://www.w3.org/1999/xlink" version="1.1" id="Layer_1" x="0px" y="0px" viewBox="0 0 512 512" width="512px" height="512px" style="enable-background:new 0 0 512 512;" xml:space="preserve">
<g>
	<g>
		<path d="M369.6,96H320V62.4C320,28.8,291.2,0,256,0s-64,28.8-64,64v32h-33.6C128,96,96,118.4,96,148.8v308.8    c0,32,32,54.4,62.4,54.4h211.2c28.8,0,46.4-20.8,46.4-54.4V148.8C416,116.8,398.4,96,369.6,96z M384,457.6    c0,22.4-11.2,22.4-14.4,22.4H158.4c-14.4,0-30.4-11.2-30.4-22.4V148.8c0-9.6,16-20.8,30.4-20.8H208c9.6,0,16-6.4,16-16V62.4    c0-17.6,14.4-32,32-32c17.6,0,32,14.4,32,32V112c0,9.6,6.4,16,16,16h65.6c4.8,0,14.4,0,14.4,20.8V457.6z"/>
	</g>
</g>
<g>
	<g>
		<path d="M267.2,52.8c-6.4-6.4-16-6.4-22.4,0C241.6,56,240,59.2,240,64s1.6,8,4.8,11.2c3.2,3.2,6.4,4.8,11.2,4.8s8-1.6,11.2-4.8    S272,68.8,272,64S270.4,56,267.2,52.8z"/>
	</g>
</g>
<g>
</g>
<g>
</g>
<g>
</g>
<g>
</g>
<g>
</g>
<g>
</g>
<g>
</g>
<g>
</g>
<g>
</g>
<g>
</g>
<g>
</g>
<g>
</g>
<g>
</g>
<g>
</g>
<g>
</g>
</svg>
