<?xml version="1.0" encoding="iso-8859-1"?>
<!-- Generator: Adobe Illustrator 19.0.0, SVG Export Plug-In . SVG Version: 6.00 Build 0)  -->
<svg xmlns="http://www.w3.org/2000/svg" xmlns:xlink="http://www.w3.org/1999/xlink" version="1.1" id="Layer_1" x="0px" y="0px" viewBox="0 0 512.6 512.6" style="enable-background:new 0 0 512.6 512.6;" xml:space="preserve">
<g>
	<g>
		<path d="M491.878,11.8c-1.6-4.8-6.4-9.6-11.2-11.2s-11.2,0-16,4.8l-268.8,270.4c0,0,0,0,0,1.6c0,0,0,0-1.6,0l-164.8,163.2    c-8,8-12.8,19.2-12.8,30.4c0,11.2,4.8,22.4,12.8,28.8c8,8,17.6,12.8,28.8,12.8c11.2,0,20.8-4.8,27.2-11.2c0,0,1.6,0,1.6-1.6    l153.6-153.6l48,48c3.2,3.2,6.4,4.8,11.2,4.8c4.8,0,8-1.6,11.2-4.8C535.078,173.4,493.478,18.2,491.878,11.8z M66.278,479h-1.6    c0,0-3.2,1.6-6.4,1.6c-3.2,0-4.8-1.6-6.4-3.2c-1.6-1.6-3.2-3.2-3.2-6.4c0-3.2,1.6-4.8,3.2-6.4l153.6-153.6l14.4,14.4L66.278,479z     M301.478,359l-72-72l233.6-235.2C461.478,103,440.678,215,301.478,359z"/>
	</g>
</g>
<g>
</g>
<g>
</g>
<g>
</g>
<g>
</g>
<g>
</g>
<g>
</g>
<g>
</g>
<g>
</g>
<g>
</g>
<g>
</g>
<g>
</g>
<g>
</g>
<g>
</g>
<g>
</g>
<g>
</g>
</svg>
