<?xml version="1.0" encoding="iso-8859-1"?>
<!-- Generator: Adobe Illustrator 19.0.0, SVG Export Plug-In . SVG Version: 6.00 Build 0)  -->
<svg xmlns="http://www.w3.org/2000/svg" xmlns:xlink="http://www.w3.org/1999/xlink" version="1.1" id="Layer_1" x="0px" y="0px" viewBox="0 0 513.6 513.6" style="enable-background:new 0 0 513.6 513.6;" xml:space="preserve">
<g>
	<g>
		<path d="M504,13.909c-6.4-6.4-22.4-17.6-49.6-3.2c-88,52.8-212.8,169.6-219.2,174.4c-1.6,1.6-1.6,3.2-3.2,4.8    c0,1.6-1.6,3.2-1.6,4.8v36.8l-219.2,201.6c-8,8-11.2,19.2-11.2,30.4s4.8,24,12.8,30.4c6.4,8,17.6,16,28.8,16    c11.2,0,22.4-8,30.4-16l432-435.2C516.8,45.909,516.8,26.709,504,13.909z M48,468.309c-3.2,3.2-9.6,3.2-14.4,0    c-1.6-1.6-1.6-3.2-1.6-6.4c0-1.6,0-4.8,1.6-6.4l224-201.6c3.2-3.2,4.8-8,4.8-11.2v-36.8c24-22.4,132.8-120,208-166.4    c3.2-1.6,8-4.8,9.6-3.2L48,468.309z"/>
	</g>
</g>
<g>
</g>
<g>
</g>
<g>
</g>
<g>
</g>
<g>
</g>
<g>
</g>
<g>
</g>
<g>
</g>
<g>
</g>
<g>
</g>
<g>
</g>
<g>
</g>
<g>
</g>
<g>
</g>
<g>
</g>
</svg>
