<?xml version="1.0" encoding="iso-8859-1"?>
<!-- Generator: Adobe Illustrator 19.0.0, SVG Export Plug-In . SVG Version: 6.00 Build 0)  -->
<svg xmlns="http://www.w3.org/2000/svg" xmlns:xlink="http://www.w3.org/1999/xlink" version="1.1" id="Layer_1" x="0px" y="0px" viewBox="0 0 513.665 513.665" style="enable-background:new 0 0 513.665 513.665;" xml:space="preserve">
<g>
	<g>
		<path d="M512,76.865c-3.2-6.4-9.6-9.6-16-8l-19.2,3.2l3.2-19.2c1.6-4.8,0-9.6-4.8-14.4c-3.2-3.2-9.6-4.8-14.4-4.8l-17.6,3.2    l3.2-17.6c1.6-6.4-3.2-14.4-9.6-17.6c-6.4-3.2-14.4-1.6-19.2,3.2c-1.6,4.8-236.8,267.2-366.4,396.8c-12.8,3.2-25.6,9.6-35.2,19.2    c-11.2,11.2-16,24-14.4,38.4c0,8,3.2,16,8,22.4l-4.8,4.8c-6.4,6.4-6.4,16,0,22.4c3.2,3.2,8,4.8,11.2,4.8c4.8,0,8-1.6,11.2-4.8    l4.8-3.2c8,4.8,17.6,8,27.2,8c12.8,0,25.6-4.8,35.2-14.4c9.6-9.6,16-22.4,19.2-35.2c123.2-128,393.6-364.8,395.2-368    C513.6,91.265,515.2,83.265,512,76.865z M70.4,476.865c-3.2,3.2-6.4,4.8-11.2,4.8c-6.4,0-12.8-3.2-17.6-8c-4.8-4.8-8-11.2-8-16    s1.6-9.6,4.8-12.8c6.4-6.4,19.2-11.2,30.4-11.2c3.2,0,8,0,11.2,3.2s3.2,8,3.2,11.2C83.2,456.065,78.4,468.865,70.4,476.865z     M108.8,420.865c-1.6-3.2-3.2-6.4-6.4-9.6s-6.4-4.8-9.6-6.4c100.8-104,251.2-268.8,316.8-340.8c0,1.6,1.6,3.2,3.2,4.8    c3.2,3.2,9.6,4.8,14.4,4.8l17.6-3.2l-3.2,17.6c-1.6,4.8,0,9.6,4.8,14.4c1.6,1.6,3.2,3.2,4.8,3.2    C376,169.665,209.6,320.065,108.8,420.865z"/>
	</g>
</g>
<g>
</g>
<g>
</g>
<g>
</g>
<g>
</g>
<g>
</g>
<g>
</g>
<g>
</g>
<g>
</g>
<g>
</g>
<g>
</g>
<g>
</g>
<g>
</g>
<g>
</g>
<g>
</g>
<g>
</g>
</svg>
