<?xml version="1.0" encoding="iso-8859-1"?>
<!-- Generator: Adobe Illustrator 19.0.0, SVG Export Plug-In . SVG Version: 6.00 Build 0)  -->
<svg xmlns="http://www.w3.org/2000/svg" xmlns:xlink="http://www.w3.org/1999/xlink" version="1.1" id="Layer_1" x="0px" y="0px" viewBox="0 0 510.758 510.758" style="enable-background:new 0 0 510.758 510.758;" xml:space="preserve">
<g>
	<g>
		<path d="M251.142,243.379c-6.4-6.4-16-6.4-22.4,0c-3.2,3.2-4.8,6.4-4.8,11.2s1.6,8,4.8,11.2c3.2,3.2,8,4.8,11.2,4.8    s8-1.6,11.2-4.8c3.2-3.2,4.8-6.4,4.8-11.2S254.342,246.579,251.142,243.379z"/>
	</g>
</g>
<g>
	<g>
		<path d="M379.142,275.379c-6.4-6.4-16-6.4-22.4,0c-3.2,3.2-4.8,6.4-4.8,11.2s1.6,8,4.8,11.2c3.2,3.2,6.4,4.8,11.2,4.8    s8-1.6,11.2-4.8c3.2-3.2,4.8-6.4,4.8-11.2S382.342,278.579,379.142,275.379z"/>
	</g>
</g>
<g>
	<g>
		<path d="M363.142,179.379c-6.4-6.4-16-6.4-22.4,0c-3.2,3.2-4.8,6.4-4.8,11.2s1.6,8,4.8,11.2c3.2,3.2,6.4,4.8,11.2,4.8    s8-1.6,11.2-4.8c3.2-3.2,4.8-6.4,4.8-11.2S366.342,182.579,363.142,179.379z"/>
	</g>
</g>
<g>
	<g>
		<path d="M267.142,355.379c-6.4-6.4-16-6.4-22.4,0c-3.2,3.2-4.8,6.4-4.8,11.2s1.6,8,4.8,11.2c3.2,3.2,6.4,4.8,11.2,4.8    c4.8,0,8-1.6,11.2-4.8c3.2-3.2,4.8-8,4.8-11.2C271.942,361.779,270.342,358.579,267.142,355.379z"/>
	</g>
</g>
<g>
	<g>
		<path d="M139.142,259.379c-6.4-6.4-16-6.4-22.4,0c-3.2,3.2-4.8,6.4-4.8,11.2s1.6,8,4.8,11.2c3.2,3.2,6.4,4.8,11.2,4.8    s8-1.6,11.2-4.8c3.2-3.2,4.8-6.4,4.8-11.2S142.342,262.579,139.142,259.379z"/>
	</g>
</g>
<g>
	<g>
		<path d="M235.142,147.379c-6.4-6.4-16-6.4-22.4,0c-3.2,3.2-4.8,6.4-4.8,11.2s1.6,8,4.8,11.2c3.2,3.2,8,4.8,11.2,4.8    c4.8,0,8-1.6,11.2-4.8c3.2-3.2,4.8-6.4,4.8-11.2S238.342,150.579,235.142,147.379z"/>
	</g>
</g>
<g>
	<g>
		<path d="M487.942,118.579c8-11.2,12.8-24,12.8-38.4c0-38.4-30.4-68.8-68.8-68.8c-14.4,0-27.2,3.2-38.4,11.2    c-30.4-14.4-65.6-22.4-102.4-22.4c-73.6,0-147.2,32-203.2,88c-86.4,86.4-112,209.6-64,304c-8,11.2-12.8,25.6-12.8,38.4    c0,38.4,30.4,68.8,68.8,68.8c14.4,0,27.2-4.8,38.4-11.2c30.4,14.4,65.6,22.4,100.8,22.4c73.6,0,147.2-32,203.2-88    C508.742,336.179,534.342,212.979,487.942,118.579z M403.142,401.779c-51.2,49.6-116.8,76.8-182.4,76.8c-33.6,0-67.2-8-96-24    c-3.2-1.6-4.8-1.6-8-1.6c-3.2,0-8,1.6-11.2,4.8c-6.4,6.4-16,9.6-25.6,9.6c-20.8,0-36.8-16-36.8-36.8c0-9.6,3.2-19.2,9.6-25.6    c4.8-4.8,6.4-12.8,1.6-19.2c-44.8-83.2-22.4-196.8,56-275.2c49.6-49.6,115.2-78.4,180.8-78.4c35.2,0,67.2,8,96,24    c6.4,3.2,14.4,3.2,19.2-1.6c6.4-6.4,16-9.6,25.6-9.6c20.8,0,36.8,16,36.8,36.8c0,9.6-3.2,19.2-9.6,25.6    c-4.8,4.8-6.4,12.8-1.6,19.2C503.942,209.779,481.542,323.379,403.142,401.779z"/>
	</g>
</g>
<g>
</g>
<g>
</g>
<g>
</g>
<g>
</g>
<g>
</g>
<g>
</g>
<g>
</g>
<g>
</g>
<g>
</g>
<g>
</g>
<g>
</g>
<g>
</g>
<g>
</g>
<g>
</g>
<g>
</g>
</svg>
