<?xml version="1.0" encoding="iso-8859-1"?>
<!-- Generator: Adobe Illustrator 19.0.0, SVG Export Plug-In . SVG Version: 6.00 Build 0)  -->
<svg xmlns="http://www.w3.org/2000/svg" xmlns:xlink="http://www.w3.org/1999/xlink" version="1.1" id="Layer_1" x="0px" y="0px" viewBox="0 0 512 512" width="512px" height="512px" style="enable-background:new 0 0 512 512;" xml:space="preserve">
<g>
	<g>
		<path d="M473.099,38.4c-24-25.6-57.6-38.4-91.2-38.4c-35.2,0-67.2,12.8-92.8,38.4c-48,48-128,238.4-139.2,264L12.299,440    c-16,16-16,43.2,0,59.2c6.4,9.6,17.6,12.8,28.8,12.8c9.6,0,20.8-3.2,28.8-11.2c0,0,1.6,0,1.6-1.6l137.6-137.6    c27.2-11.2,219.2-92.8,265.6-139.2C524.299,171.2,524.299,89.6,473.099,38.4z M49.099,476.8c-4.8,4.8-11.2,4.8-14.4,1.6    s-3.2-9.6,0-14.4l129.6-129.6l14.4,14.4L49.099,476.8z M205.899,252.8c32-70.4,78.4-164.8,105.6-192    c19.2-19.2,43.2-28.8,70.4-28.8c9.6,0,19.2,1.6,28.8,4.8c-22.4,9.6-48,27.2-72,51.2C308.299,118.4,247.499,198.4,205.899,252.8z     M361.099,110.4c35.2-35.2,68.8-51.2,84.8-51.2c3.2,0,4.8,0,4.8,1.6c4.8,4.8-3.2,43.2-49.6,89.6c-33.6,33.6-137.6,112-190.4,150.4    C249.099,248,327.499,145.6,361.099,110.4z M450.699,200c-25.6,25.6-120,72-190.4,104c56-41.6,134.4-102.4,163.2-131.2    c22.4-22.4,40-48,51.2-70.4C485.899,136,477.899,172.8,450.699,200z"/>
	</g>
</g>
<g>
</g>
<g>
</g>
<g>
</g>
<g>
</g>
<g>
</g>
<g>
</g>
<g>
</g>
<g>
</g>
<g>
</g>
<g>
</g>
<g>
</g>
<g>
</g>
<g>
</g>
<g>
</g>
<g>
</g>
</svg>
