<?xml version="1.0" encoding="iso-8859-1"?>
<!-- Generator: Adobe Illustrator 19.0.0, SVG Export Plug-In . SVG Version: 6.00 Build 0)  -->
<svg xmlns="http://www.w3.org/2000/svg" xmlns:xlink="http://www.w3.org/1999/xlink" version="1.1" id="Layer_1" x="0px" y="0px" viewBox="0 0 515.2 515.2" style="enable-background:new 0 0 515.2 515.2;" xml:space="preserve">
<g>
	<g>
		<path d="M460.8,82.4c-32-36.8-94.4-80-203.2-80S86.4,45.6,54.4,82.4C20.8,120.8,0,173.6,0,221.6c0,57.6,33.6,97.6,81.6,97.6    c24,0,54.4-3.2,84.8-6.4c-3.2,16-8,38.4-14.4,67.2c-9.6,41.6-6.4,75.2,11.2,97.6c17.6,24,49.6,35.2,94.4,35.2s75.2-12.8,94.4-35.2    c17.6-22.4,22.4-56,11.2-97.6c-6.4-28.8-11.2-49.6-14.4-67.2c30.4,3.2,60.8,8,84.8,8c46.4,0,81.6-43.2,81.6-99.2    C515.2,172,494.4,120.8,460.8,82.4z M326.4,460c-11.2,16-35.2,22.4-68.8,22.4s-57.6-8-68.8-22.4c-11.2-14.4-12.8-38.4-6.4-70.4    c9.6-35.2,14.4-60.8,17.6-78.4c22.4-3.2,43.2-4.8,57.6-4.8s35.2,1.6,57.6,4.8c4.8,22.4,9.6,49.6,17.6,78.4    C340.8,420,337.6,444,326.4,460z M433.6,290.4c-27.2,0-60.8-4.8-94.4-8c-30.4-3.2-60.8-8-81.6-8c-20.8,0-49.6,3.2-81.6,6.4    c-33.6,3.2-68.8,8-94.4,8c-28.8,0-49.6-27.2-49.6-65.6c0-65.6,48-188.8,225.6-188.8s225.6,123.2,225.6,188.8    C483.2,261.6,462.4,290.4,433.6,290.4z"/>
	</g>
</g>
<g>
	<g>
		<circle cx="257.6" cy="90.4" r="16"/>
	</g>
</g>
<g>
</g>
<g>
</g>
<g>
</g>
<g>
</g>
<g>
</g>
<g>
</g>
<g>
</g>
<g>
</g>
<g>
</g>
<g>
</g>
<g>
</g>
<g>
</g>
<g>
</g>
<g>
</g>
<g>
</g>
</svg>
