<?xml version="1.0" encoding="iso-8859-1"?>
<!-- Generator: Adobe Illustrator 19.0.0, SVG Export Plug-In . SVG Version: 6.00 Build 0)  -->
<svg xmlns="http://www.w3.org/2000/svg" xmlns:xlink="http://www.w3.org/1999/xlink" version="1.1" id="Layer_1" x="0px" y="0px" viewBox="0 0 510.4 510.4" style="enable-background:new 0 0 510.4 510.4;" xml:space="preserve">
<g>
	<g>
		<path d="M465.6,392l-9.6-36.8c-11.2-40-48-68.8-89.6-68.8c-8,0-16,1.6-24,3.2h-1.6c-14.4-33.6-36.8-56-51.2-68.8    c1.6-3.2,4.8-6.4,6.4-11.2c17.6-33.6,3.2-67.2-11.2-100.8c-11.2-27.2-24-56-25.6-92.8c0-9.6-8-16-16-16c-9.6,0-16,8-16,16    c1.6,41.6,16,76.8,27.2,104c14.4,33.6,22.4,54.4,11.2,73.6c-8,22.4-22.4,32-40,44.8c-17.6,12.8-38.4,25.6-54.4,52.8l-3.2-1.6    c-8-1.6-16-3.2-24-3.2c-41.6,0-78.4,28.8-89.6,68.8L44.8,392c-12.8,49.6,16,100.8,65.6,113.6l8,1.6c8,1.6,16,3.2,24,3.2    c41.6,0,78.4-28.8,89.6-68.8l9.6-36.8c6.4-24,3.2-49.6-9.6-70.4c-8-12.8-17.6-24-30.4-32c11.2-17.6,25.6-28.8,41.6-38.4    c8-4.8,17.6-11.2,25.6-19.2c11.2,9.6,30.4,27.2,43.2,56c-12.8,8-25.6,19.2-33.6,33.6c-12.8,20.8-16,46.4-9.6,70.4l9.6,36.8    c11.2,40,48,68.8,89.6,68.8c8,0,16-1.6,24-3.2l8-1.6C449.6,492.8,478.4,441.6,465.6,392z M204.8,350.4c8,14.4,9.6,30.4,6.4,46.4    l-9.6,36.8c-6.4,27.2-32,44.8-59.2,44.8c-4.8,0-11.2,0-16-1.6l-8-1.6c-32-8-51.2-41.6-43.2-75.2l9.6-36.8    c6.4-27.2,32-44.8,59.2-44.8c4.8,0,11.2,0,16,1.6l8,1.6C184,326.4,196.8,336,204.8,350.4z M393.6,475.2l-8,1.6    c-4.8,1.6-9.6,1.6-16,1.6c-27.2,0-51.2-19.2-59.2-44.8l-9.6-36.8c-8-32,11.2-65.6,43.2-75.2l8-1.6c4.8-1.6,9.6-1.6,16-1.6    c27.2,0,51.2,19.2,59.2,44.8l9.6,36.8C444.8,432,425.6,465.6,393.6,475.2z"/>
	</g>
</g>
<g>
	<g>
		<path d="M142.4,425.6l-17.6-4.8c-8-1.6-17.6,3.2-19.2,11.2c-1.6,8,3.2,17.6,11.2,19.2l17.6,4.8c1.6,0,3.2,0,4.8,0    c6.4,0,12.8-4.8,16-11.2C155.2,436.8,150.4,427.2,142.4,425.6z"/>
	</g>
</g>
<g>
	<g>
		<path d="M404.8,433.6c-1.6-8-11.2-14.4-19.2-11.2l-17.6,3.2c-8,1.6-12.8,11.2-11.2,19.2c1.6,8,8,12.8,14.4,12.8c1.6,0,3.2,0,4.8,0    l17.6-4.8C401.6,451.2,406.4,441.6,404.8,433.6z"/>
	</g>
</g>
<g>
</g>
<g>
</g>
<g>
</g>
<g>
</g>
<g>
</g>
<g>
</g>
<g>
</g>
<g>
</g>
<g>
</g>
<g>
</g>
<g>
</g>
<g>
</g>
<g>
</g>
<g>
</g>
<g>
</g>
</svg>
