<?xml version="1.0" encoding="iso-8859-1"?>
<!-- Generator: Adobe Illustrator 19.0.0, SVG Export Plug-In . SVG Version: 6.00 Build 0)  -->
<svg xmlns="http://www.w3.org/2000/svg" xmlns:xlink="http://www.w3.org/1999/xlink" version="1.1" id="Layer_1" x="0px" y="0px" viewBox="0 0 510.4 510.4" style="enable-background:new 0 0 510.4 510.4;" xml:space="preserve">
<g>
	<g>
		<path d="M336.8,76.8c12.8-17.6,20.8-36.8,22.4-59.2c0-4.8-1.6-9.6-4.8-12.8c-3.2-3.2-8-4.8-12.8-4.8c-27.2,1.6-51.2,12.8-70.4,32    c-8,8-16,19.2-20.8,28.8c-121.6,4.8-219.2,104-219.2,225.6c0,123.2,100.8,224,224,224s224-100.8,224-224    C479.2,193.6,421.6,110.4,336.8,76.8z M293.6,54.4c8-6.4,17.6-12.8,28.8-17.6c-3.2,11.2-9.6,20.8-17.6,28.8S287.2,80,276,83.2    C279.2,72,285.6,62.4,293.6,54.4z M255.2,478.4c-105.6,0-192-86.4-192-192c0-100.8,78.4-184,177.6-192c0,3.2,0,6.4-1.6,9.6    c0,4.8,1.6,9.6,4.8,12.8c3.2,3.2,6.4,4.8,11.2,4.8c0,0,0,0,1.6,0c19.2-1.6,38.4-8,54.4-17.6c80,22.4,136,97.6,136,182.4    C447.2,392,360.8,478.4,255.2,478.4z"/>
	</g>
</g>
<g>
	<g>
		<path d="M298.4,195.2c-6.4-6.4-16-6.4-22.4,0c-3.2,3.2-4.8,6.4-4.8,11.2s1.6,8,4.8,11.2c3.2,3.2,6.4,4.8,11.2,4.8s8-1.6,11.2-4.8    c3.2-3.2,4.8-8,4.8-11.2C303.2,201.6,301.6,198.4,298.4,195.2z"/>
	</g>
</g>
<g>
	<g>
		<path d="M282.4,387.2c-6.4-6.4-16-6.4-22.4,0c-3.2,3.2-4.8,6.4-4.8,11.2s1.6,8,4.8,11.2c3.2,3.2,6.4,4.8,11.2,4.8s8-1.6,11.2-4.8    c3.2-3.2,4.8-8,4.8-11.2C287.2,393.6,285.6,390.4,282.4,387.2z"/>
	</g>
</g>
<g>
	<g>
		<path d="M154.4,243.2c-6.4-6.4-16-6.4-22.4,0c-3.2,3.2-4.8,6.4-4.8,11.2s1.6,8,4.8,11.2c3.2,3.2,8,4.8,11.2,4.8    c4.8,0,8-1.6,11.2-4.8c3.2-3.2,4.8-6.4,4.8-11.2S157.6,246.4,154.4,243.2z"/>
	</g>
</g>
<g>
	<g>
		<path d="M218.4,163.2c-6.4-6.4-16-6.4-22.4,0c-3.2,3.2-4.8,6.4-4.8,11.2s1.6,8,4.8,11.2c3.2,3.2,6.4,4.8,11.2,4.8s8-1.6,11.2-4.8    c3.2-3.2,4.8-8,4.8-11.2C223.2,169.6,221.6,166.4,218.4,163.2z"/>
	</g>
</g>
<g>
	<g>
		<path d="M362.4,323.2c-6.4-6.4-16-6.4-22.4,0c-3.2,3.2-4.8,6.4-4.8,11.2s1.6,8,4.8,11.2c3.2,3.2,6.4,4.8,11.2,4.8    c4.8,0,8-1.6,11.2-4.8c3.2-3.2,4.8-8,4.8-11.2C367.2,329.6,365.6,326.4,362.4,323.2z"/>
	</g>
</g>
<g>
</g>
<g>
</g>
<g>
</g>
<g>
</g>
<g>
</g>
<g>
</g>
<g>
</g>
<g>
</g>
<g>
</g>
<g>
</g>
<g>
</g>
<g>
</g>
<g>
</g>
<g>
</g>
<g>
</g>
</svg>
