<?xml version="1.0" encoding="iso-8859-1"?>
<!-- Generator: Adobe Illustrator 19.0.0, SVG Export Plug-In . SVG Version: 6.00 Build 0)  -->
<svg xmlns="http://www.w3.org/2000/svg" xmlns:xlink="http://www.w3.org/1999/xlink" version="1.1" id="Layer_1" x="0px" y="0px" viewBox="0 0 511.274 511.274" style="enable-background:new 0 0 511.274 511.274;" xml:space="preserve">
<g>
	<g>
		<path d="M369.125,192.874c0-8-8-17.6-16-17.6c-9.6,0-16,9.6-16,17.6c0,38.4,0,112-12.8,177.6c-1.6,9.6-3.2,17.6-6.4,27.2    c-1.6,8,3.2,17.6,11.2,19.2c1.6,0,3.2,0,4.8,0c6.4,0,12.8-4.8,16-12.8c3.2-9.6,4.8-19.2,6.4-28.8    C369.125,308.074,370.725,231.274,369.125,192.874z"/>
	</g>
</g>
<g>
	<g>
		<path d="M466.725,125.674c-30.4-62.4-96-68.8-147.2-46.4c-16-9.6-32-12.8-44.8-14.4c4.8-24,16-36.8,17.6-38.4    c6.4-4.8,6.4-14.4,0-20.8c-6.4-6.4-16-8-22.4-1.6c-1.6,1.6-22.4,20.8-28.8,60.8c-16,1.6-32,6.4-46.4,16    c-49.6-24-116.8-19.2-150.4,44.8c-35.2,64,8,270.4,72,348.8c22.4,28.8,44.8,36.8,62.4,36.8c6.4,0,12.8-1.6,17.6-3.2    c8-3.2,14.4-4.8,20.8-8c11.2,8,24,11.2,38.4,11.2s27.2-4.8,38.4-11.2c6.4,3.2,12.8,6.4,20.8,8c4.8,1.6,11.2,3.2,17.6,3.2    c17.6,0,40-8,62.4-36.8C460.325,394.474,501.925,189.674,466.725,125.674z M372.325,455.274c-16,19.2-32,27.2-46.4,24    c-1.6,0-4.8-1.6-6.4-1.6c0,0,0-1.6,1.6-1.6c4.8-8,3.2-17.6-4.8-22.4s-17.6-3.2-22.4,4.8c-11.2,16-22.4,24-36.8,24    c-22.4,0-40-19.2-52.8-57.6c-3.2-8-12.8-12.8-20.8-9.6c-8,3.2-12.8,12.8-9.6,20.8c6.4,17.6,12.8,30.4,20.8,41.6    c-1.6,1.6-4.8,1.6-6.4,3.2c-14.4,4.8-30.4-3.2-46.4-24c-59.2-72-96-265.6-68.8-313.6c22.4-41.6,64-46.4,97.6-36.8    c-12.8,16-22.4,40-22.4,68.8c0,9.6,6.4,17.6,16,17.6c8,0,16-8,16-16c3.2-72,60.8-80,78.4-80c16,0,54.4,3.2,70.4,40    c1.6,6.4,11.2,9.6,19.2,6.4s11.2-12.8,8-20.8c-3.2-6.4-6.4-12.8-11.2-17.6c33.6-11.2,73.6-6.4,96,36.8    C466.725,189.674,431.525,383.274,372.325,455.274z"/>
	</g>
</g>
<g>
</g>
<g>
</g>
<g>
</g>
<g>
</g>
<g>
</g>
<g>
</g>
<g>
</g>
<g>
</g>
<g>
</g>
<g>
</g>
<g>
</g>
<g>
</g>
<g>
</g>
<g>
</g>
<g>
</g>
</svg>
