<?xml version="1.0" encoding="iso-8859-1"?>
<!-- Generator: Adobe Illustrator 19.0.0, SVG Export Plug-In . SVG Version: 6.00 Build 0)  -->
<svg xmlns="http://www.w3.org/2000/svg" xmlns:xlink="http://www.w3.org/1999/xlink" version="1.1" id="Layer_1" x="0px" y="0px" viewBox="0 0 510.4 510.4" style="enable-background:new 0 0 510.4 510.4;" xml:space="preserve">
<g>
	<g>
		<path d="M317.6,81.6c-16,0-32,3.2-48,8V46.4c1.6,0,1.6-14.4,17.6-14.4c9.6,0,16-6.4,16-16c0-9.6-6.4-16-16-16c-32,0-48,24-48,46.4    v43.2c-14.4-4.8-30.4-8-46.4-8c-97.6,0-176,96-176,214.4s78.4,214.4,176,214.4c22.4,0,43.2-4.8,62.4-14.4    c19.2,9.6,40,14.4,62.4,14.4c97.6,0,176-96,176-214.4S413.6,81.6,317.6,81.6z M192.8,478.4c-80,0-144-81.6-144-182.4    s65.6-182.4,144-182.4c9.6,0,19.2,1.6,28.8,3.2c-48,38.4-80,104-80,177.6s32,139.2,80,177.6C212,476.8,202.4,478.4,192.8,478.4z     M319.2,478.4c-80,0-144-81.6-144-182.4s64-180.8,144-180.8s144,81.6,144,180.8C463.2,396.8,399.2,478.4,319.2,478.4z"/>
	</g>
</g>
<g>
</g>
<g>
</g>
<g>
</g>
<g>
</g>
<g>
</g>
<g>
</g>
<g>
</g>
<g>
</g>
<g>
</g>
<g>
</g>
<g>
</g>
<g>
</g>
<g>
</g>
<g>
</g>
<g>
</g>
</svg>
