<?xml version="1.0" encoding="iso-8859-1"?>
<!-- Generator: Adobe Illustrator 19.0.0, SVG Export Plug-In . SVG Version: 6.00 Build 0)  -->
<svg xmlns="http://www.w3.org/2000/svg" xmlns:xlink="http://www.w3.org/1999/xlink" version="1.1" id="Layer_1" x="0px" y="0px" viewBox="0 0 507.2 507.2" style="enable-background:new 0 0 507.2 507.2;" xml:space="preserve">
<g>
	<g>
		<path d="M380.8,240c-17.6-22.4-33.6-43.2-40-67.2c-1.6-4.8-3.2-9.6-4.8-14.4c-11.2-40-22.4-78.4-65.6-84.8V40c0-6.4,9.6-8,16-8    c9.6,0,16-6.4,16-16c0-9.6-6.4-16-16-16c-33.6,0-48,20.8-48,40v30.4c-44.8,8-56,44.8-67.2,84.8c-1.6,4.8-3.2,9.6-4.8,14.4    c-6.4,27.2-22.4,48-40,70.4c-25.6,32-52.8,68.8-52.8,120c0,88,70.4,147.2,179.2,147.2h1.6c108.8,0,179.2-57.6,179.2-147.2    C433.6,308.8,404.8,272,380.8,240z M256,475.2h-1.6c-72,0-147.2-30.4-147.2-115.2c0-40,22.4-70.4,46.4-100.8    c17.6-24,36.8-48,46.4-78.4c1.6-4.8,3.2-11.2,4.8-16c11.2-46.4,17.6-62.4,49.6-62.4s38.4,16,51.2,62.4c1.6,4.8,3.2,9.6,4.8,16    c9.6,30.4,27.2,54.4,46.4,78.4c24,30.4,46.4,59.2,46.4,100.8C403.2,444.8,326.4,475.2,256,475.2z"/>
	</g>
</g>
<g>
</g>
<g>
</g>
<g>
</g>
<g>
</g>
<g>
</g>
<g>
</g>
<g>
</g>
<g>
</g>
<g>
</g>
<g>
</g>
<g>
</g>
<g>
</g>
<g>
</g>
<g>
</g>
<g>
</g>
</svg>
