<?xml version="1.0" encoding="UTF-8" standalone="no"?><!DOCTYPE svg PUBLIC "-//W3C//DTD SVG 1.1//EN" "http://www.w3.org/Graphics/SVG/1.1/DTD/svg11.dtd"><svg width="100%" height="100%" viewBox="0 0 513 513" version="1.1" xmlns="http://www.w3.org/2000/svg" xmlns:xlink="http://www.w3.org/1999/xlink" xml:space="preserve" xmlns:serif="http://www.serif.com/" style="fill-rule:evenodd;clip-rule:evenodd;stroke-linejoin:round;stroke-miterlimit:1.41421;"><path d="M335.2,129.6c35.2,-46.4 33.6,-94.4 33.6,-97.6c0,-8 -8,-14.4 -16,-16c-1.6,0 -30.4,1.6 -57.6,30.4c-6.4,-16 -16,-28.8 -27.2,-41.6c-6.4,-6.4 -16,-6.4 -22.4,0c-11.2,12.8 -20.8,27.2 -27.2,41.6c-27.2,-28.8 -54.4,-28.8 -56,-28.8c-9.6,0 -16,6.4 -16,16c0,1.6 -1.6,49.6 33.6,96c-59.2,25.6 -99.2,84.8 -99.2,153.6l0,60.8c0,78.4 52.8,144 126.4,163.2c1.6,0 3.2,1.6 4.8,1.6c12.8,3.2 25.6,4.8 38.4,4.8l12.8,0c94.4,0 169.6,-75.2 169.6,-169.6l0,-60.8c0,-67.2 -40,-126.4 -97.6,-153.6Zm-30.4,-36.8c0,-1.6 0,-3.2 0,-4.8c9.6,-16 20.8,-27.2 30.4,-32c-3.2,16 -11.2,40 -32,62.4l-1.6,0c1.6,-8 3.2,-16 3.2,-25.6Zm4.8,60.8c20.8,8 40,20.8 56,36.8l-36.8,36.8l-46.4,-46.4l27.2,-27.2Zm-49.6,49.6l46.4,46.4l-46.4,46.4l-46.4,-46.4l46.4,-46.4Zm-12.8,-57.6l24,0l-11.2,11.2l-12.8,-11.2Zm-9.6,172.8l-41.6,41.6l-46.4,-46.4l41.6,-41.6l46.4,46.4Zm22.4,22.4l41.6,41.6l-41.6,41.6l-41.6,-41.6l41.6,-41.6Zm22.4,-22.4l46.4,-46.4l41.6,41.6l-46.4,46.4l-41.6,-41.6Zm-25.6,-275.2c9.6,14.4 16,32 16,51.2c0,6.4 -1.6,14.4 -3.2,20.8c-1.6,0 -3.2,0 -6.4,0l-12.8,0c-1.6,0 -3.2,0 -6.4,0c-1.6,-8 -3.2,-14.4 -3.2,-22.4c0,-17.6 6.4,-35.2 16,-49.6Zm-48,43.2c0,1.6 0,4.8 0,6.4c0,8 1.6,16 3.2,25.6c-19.2,-22.4 -28.8,-46.4 -32,-62.4c8,4.8 19.2,14.4 28.8,30.4Zm0,65.6l28.8,28.8l-46.4,46.4l-38.4,-38.4c14.4,-17.6 33.6,-30.4 56,-36.8Zm-76.8,62.4l35.2,35.2l-41.6,41.6l-12.8,-12.8c1.6,-24 8,-46.4 19.2,-64Zm-19.2,134.4l12.8,-12.8l46.4,46.4l-36.8,36.8c-14.4,-20.8 -22.4,-44.8 -22.4,-70.4Zm96,126.4c-19.2,-6.4 -36.8,-17.6 -52.8,-30.4l38.4,-38.4l41.6,41.6l-27.2,27.2Zm54.4,6.4l-12.8,0l-1.6,0l11.2,-11.2l11.2,11.2c-3.2,0 -4.8,0 -8,0Zm46.4,-8c-1.6,0 -3.2,-1.6 -3.2,-3.2l-24,-24l41.6,-41.6l36.8,36.8c-14.4,14.4 -32,25.6 -51.2,32Zm70.4,-56l-33.6,-33.6l46.4,-46.4l8,8c0,25.6 -8,49.6 -20.8,72Zm12.8,-126.4l-41.6,-41.6l32,-32c11.2,19.2 17.6,41.6 17.6,65.6l-8,8Z" style="fill:#672bff;fill-rule:nonzero;"/></svg>