<?xml version="1.0" encoding="iso-8859-1"?>
<!-- Generator: Adobe Illustrator 19.0.0, SVG Export Plug-In . SVG Version: 6.00 Build 0)  -->
<svg xmlns="http://www.w3.org/2000/svg" xmlns:xlink="http://www.w3.org/1999/xlink" version="1.1" id="Layer_1" x="0px" y="0px" viewBox="0 0 512 512" style="enable-background:new 0 0 512 512;" xml:space="preserve">
<g>
	<g>
		<path d="M505.6,182.4c-11.2-41.6-40-75.2-81.6-92.8c-24-9.6-48-16-76.8-16c-4.8,0-9.6,0-14.4,0c8-28.8,3.2-51.2-11.2-59.2    c-6.4-3.2-19.2-6.4-36.8,6.4C275.2,3.2,264,0,256,0c-8,0-20.8,3.2-30.4,22.4c-14.4-11.2-28.8-14.4-40-8c-16,8-19.2,28.8-11.2,59.2    c-3.2,0-6.4,0-9.6,0c-28.8,0-54.4,4.8-76.8,16c-40,17.6-70.4,51.2-81.6,92.8c-17.6,62.4,1.6,136,54.4,211.2    c56,80,120,118.4,195.2,118.4s139.2-38.4,195.2-118.4C504,318.4,523.2,243.2,505.6,182.4z M220.8,62.4c3.2,4.8,9.6,6.4,16,4.8    c6.4-1.6,11.2-6.4,11.2-12.8c1.6-11.2,4.8-17.6,8-20.8c1.6,3.2,4.8,8,6.4,17.6c1.6,6.4,6.4,9.6,11.2,11.2c6.4,1.6,11.2,0,16-4.8    c6.4-8,11.2-11.2,14.4-12.8c0,6.4-1.6,16-6.4,30.4c-1.6,0-1.6,0-3.2,0C281.6,78.4,268.8,80,256,80c-12.8,0-25.6-1.6-40-3.2    c-1.6,0-4.8,0-6.4,0c-4.8-16-6.4-25.6-6.4-32C206.4,46.4,212.8,52.8,220.8,62.4z M425.6,376C360,470.4,297.6,481.6,256,481.6    c-41.6,0-102.4-11.2-169.6-105.6c-46.4-67.2-64-132.8-49.6-184c9.6-33.6,32-59.2,64-73.6c19.2-8,40-12.8,64-12.8    c16,0,32,1.6,48,3.2c30.4,3.2,56,3.2,86.4,0c16-1.6,32-3.2,48-3.2c24,0,44.8,4.8,64,12.8c32,14.4,54.4,40,64,73.6    C489.6,243.2,472,308.8,425.6,376z"/>
	</g>
</g>
<g>
</g>
<g>
</g>
<g>
</g>
<g>
</g>
<g>
</g>
<g>
</g>
<g>
</g>
<g>
</g>
<g>
</g>
<g>
</g>
<g>
</g>
<g>
</g>
<g>
</g>
<g>
</g>
<g>
</g>
</svg>
