<?xml version="1.0" encoding="iso-8859-1"?>
<!-- Generator: Adobe Illustrator 19.0.0, SVG Export Plug-In . SVG Version: 6.00 Build 0)  -->
<svg xmlns="http://www.w3.org/2000/svg" xmlns:xlink="http://www.w3.org/1999/xlink" version="1.1" id="Layer_1" x="0px" y="0px" viewBox="0 0 509.991 509.991" style="enable-background:new 0 0 509.991 509.991;" xml:space="preserve">
<g>
	<g>
		<path d="M436.762,114.791c-41.6-33.6-88-33.6-113.6-30.4c-19.2-4.8-36.8-4.8-51.2-6.4c1.6-24,9.6-41.6,20.8-49.6    c6.4-4.8,8-16,3.2-22.4s-16-8-22.4-3.2c-19.2,16-32,41.6-33.6,75.2c-14.4,0-32,1.6-51.2,6.4c-25.6-3.2-70.4-3.2-112,30.4    c-57.6,44.8-83.2,110.4-73.6,187.2c9.6,81.6,60.8,164.8,120,192c20.8,9.6,44.8,14.4,67.2,14.4c6.4,0,12.8,0,17.6-1.6    c9.6,1.6,19.2,1.6,28.8,1.6c6.4,1.6,12.8,1.6,16,1.6c16,0,33.6,0,51.2-3.2c4.8,0,9.6,1.6,14.4,1.6c22.4,0,46.4-4.8,67.2-14.4    c59.2-27.2,110.4-108.8,120-192C518.362,225.191,492.762,159.591,436.762,114.791z M35.162,297.191c-4.8-46.4,0-110.4,60.8-158.4    c9.6-8,19.2-12.8,28.8-16c-51.2,65.6-48,152-41.6,198.4c8,54.4,27.2,107.2,49.6,140.8    C91.162,441.191,44.762,373.991,35.162,297.191z M180.762,466.791c-24-16-56-75.2-65.6-150.4c-6.4-43.2-8-123.2,38.4-179.2    c8-9.6,22.4-16,36.8-20.8c1.6,0,4.8,0,6.4,1.6c0,1.6-1.6,3.2-1.6,4.8c-33.6,99.2-17.6,286.4,6.4,352    C191.962,473.191,185.562,469.991,180.762,466.791z M276.762,471.591c-3.2,4.8-4.8,4.8-22.4,4.8c-4.8,0-16,0-19.2-4.8    c-22.4-36.8-46.4-235.2-11.2-339.2c8-20.8,20.8-22.4,32-22.4s25.6,1.6,32,22.4C323.162,236.391,299.162,434.791,276.762,471.591z     M331.162,466.791c-4.8,3.2-12.8,4.8-20.8,6.4c25.6-67.2,41.6-252.8,8-352c0-1.6-1.6-3.2-1.6-4.8c1.6,0,3.2,0,4.8,0    c14.4,3.2,28.8,9.6,36.8,20.8c48,56,44.8,137.6,38.4,179.2C387.162,391.591,356.762,449.191,331.162,466.791z M476.762,297.191    c-9.6,76.8-56,142.4-97.6,164.8c24-33.6,41.6-86.4,49.6-140.8c6.4-46.4,9.6-132.8-41.6-198.4c9.6,3.2,19.2,9.6,28.8,16    C476.762,186.791,483.162,252.391,476.762,297.191z"/>
	</g>
</g>
<g>
</g>
<g>
</g>
<g>
</g>
<g>
</g>
<g>
</g>
<g>
</g>
<g>
</g>
<g>
</g>
<g>
</g>
<g>
</g>
<g>
</g>
<g>
</g>
<g>
</g>
<g>
</g>
<g>
</g>
</svg>
