<?xml version="1.0" encoding="iso-8859-1"?>
<!-- Generator: Adobe Illustrator 19.0.0, SVG Export Plug-In . SVG Version: 6.00 Build 0)  -->
<svg xmlns="http://www.w3.org/2000/svg" xmlns:xlink="http://www.w3.org/1999/xlink" version="1.1" id="Layer_1" x="0px" y="0px" viewBox="0 0 512 512" style="enable-background:new 0 0 512 512;" xml:space="preserve">
<g>
	<g>
		<path d="M512,41.6c0-11.2-4.8-22.4-12.8-28.8C492.8,4.8,481.6,0,470.4,0s-20.8,3.2-28.8,11.2c0,0-1.6,0-1.6,1.6L380.8,72    c-17.6-17.6-48-17.6-65.6,0L72,315.2c-8,8-12.8,20.8-12.8,33.6c0,12.8,4.8,24,12.8,33.6l-59.2,59.2C3.2,449.6,0,459.2,0,470.4    c0,11.2,4.8,22.4,12.8,28.8c6.4,8,17.6,12.8,28.8,12.8c11.2,0,20.8-3.2,28.8-11.2c0,0,1.6,0,1.6-1.6l59.2-59.2    c8,8,20.8,12.8,33.6,12.8s24-4.8,33.6-12.8l243.2-243.2c17.6-17.6,17.6-48,0-65.6L500.8,72C508.8,62.4,512,52.8,512,41.6z     M49.6,476.8c-4.8,4.8-11.2,4.8-14.4,1.6c-3.2-3.2-3.2-4.8-3.2-8c0-3.2,0-4.8,3.2-6.4l59.2-59.2l14.4,14.4L49.6,476.8z     M417.6,174.4L174.4,417.6c-4.8,4.8-14.4,4.8-20.8,0l-59.2-59.2c-3.2-3.2-4.8-6.4-4.8-9.6s1.6-8,4.8-9.6L337.6,94.4    c3.2-3.2,6.4-4.8,9.6-4.8s8,1.6,9.6,4.8l59.2,59.2C424,158.4,424,168,417.6,174.4z M476.8,48l-59.2,59.2l-14.4-14.4l59.2-59.2    c0,0,0,0,1.6-1.6c3.2-3.2,9.6-3.2,14.4,0C481.6,38.4,481.6,44.8,476.8,48z"/>
	</g>
</g>
<g>
</g>
<g>
</g>
<g>
</g>
<g>
</g>
<g>
</g>
<g>
</g>
<g>
</g>
<g>
</g>
<g>
</g>
<g>
</g>
<g>
</g>
<g>
</g>
<g>
</g>
<g>
</g>
<g>
</g>
</svg>
