<?xml version="1.0" encoding="iso-8859-1"?>
<!-- Generator: Adobe Illustrator 19.0.0, SVG Export Plug-In . SVG Version: 6.00 Build 0)  -->
<svg xmlns="http://www.w3.org/2000/svg" xmlns:xlink="http://www.w3.org/1999/xlink" version="1.1" id="Layer_1" x="0px" y="0px" viewBox="0 0 513.6 513.6" style="enable-background:new 0 0 513.6 513.6;" xml:space="preserve">
<g>
	<g>
		<path d="M352.8,305.6h-192c-9.6,0-16,6.4-16,16c0,9.6,6.4,16,16,16h192c9.6,0,16-6.4,16-16C368.8,312,362.4,305.6,352.8,305.6z"/>
	</g>
</g>
<g>
	<g>
		<path d="M256.8,0c-88,0-160,72-160,160v17.6v16v281.6c0,22.4,28.8,38.4,48,38.4h240c8,0,32-3.2,32-38.4V193.6v-16V160    C416.8,72,344.8,0,256.8,0z M384.8,475.2c0,3.2,0,6.4,0,6.4h-240c-6.4,0-14.4-4.8-16-6.4V193.6h256V475.2z M384.8,161.6h-256V160    c0-70.4,57.6-128,128-128s128,57.6,128,128V161.6z"/>
	</g>
</g>
<g>
	<g>
		<path d="M276,86.4c-6.4-6.4-16-6.4-22.4,0c-3.2,3.2-4.8,6.4-4.8,11.2s1.6,8,3.2,11.2c3.2,3.2,8,4.8,12.8,4.8s8-1.6,11.2-4.8    s4.8-6.4,4.8-11.2S279.2,89.6,276,86.4z"/>
	</g>
</g>
<g>
	<g>
		<path d="M244,54.4c-6.4-6.4-17.6-6.4-22.4,0c-3.2,3.2-4.8,6.4-4.8,11.2s1.6,8,4.8,11.2c1.6,3.2,6.4,4.8,11.2,4.8s8-1.6,11.2-4.8    s4.8-6.4,4.8-11.2S247.2,57.6,244,54.4z"/>
	</g>
</g>
<g>
	<g>
		<path d="M308,54.4c-6.4-6.4-17.6-6.4-22.4,0c-3.2,3.2-4.8,6.4-4.8,11.2s1.6,8,4.8,11.2c1.6,3.2,6.4,4.8,11.2,4.8s8-1.6,11.2-4.8    s4.8-6.4,4.8-11.2S311.2,57.6,308,54.4z"/>
	</g>
</g>
<g>
</g>
<g>
</g>
<g>
</g>
<g>
</g>
<g>
</g>
<g>
</g>
<g>
</g>
<g>
</g>
<g>
</g>
<g>
</g>
<g>
</g>
<g>
</g>
<g>
</g>
<g>
</g>
<g>
</g>
</svg>
