<?xml version="1.0" encoding="iso-8859-1"?>
<!-- Generator: Adobe Illustrator 19.0.0, SVG Export Plug-In . SVG Version: 6.00 Build 0)  -->
<svg xmlns="http://www.w3.org/2000/svg" xmlns:xlink="http://www.w3.org/1999/xlink" version="1.1" id="Layer_1" x="0px" y="0px" viewBox="0 0 510.4 510.4" style="enable-background:new 0 0 510.4 510.4;" xml:space="preserve">
<g>
	<g>
		<path d="M335.2,144v-9.6c0-33.6-19.2-38.4-30.4-38.4h-33.6V16c0-9.6-6.4-16-16-16c-9.6,0-16,6.4-16,16v80H220    c-17.6,0-44.8,16-44.8,38.4v14.4c-17.6,8-32,22.4-32,41.6V464c0,27.2,28.8,46.4,54.4,46.4h129.6c24,0,40-19.2,40-46.4V190.4    C367.2,164.8,354.4,147.2,335.2,144z M207.2,134.4c1.6-1.6,8-6.4,12.8-6.4h83.2c0,0,0,3.2,0,6.4v9.6h-96V134.4z M175.2,240h104    c1.6,0,8,0,8,16v144c0,16-4.8,16-8,16h-104V240z M335.2,465.6c0,14.4-4.8,14.4-8,14.4H197.6c-11.2,0-22.4-9.6-22.4-14.4V448h104    c19.2,0,40-12.8,40-48V256c0-28.8-16-48-40-48h-104v-17.6c0-6.4,11.2-14.4,22.4-14.4h129.6c1.6,0,8,0,8,14.4V465.6z"/>
	</g>
</g>
<g>
</g>
<g>
</g>
<g>
</g>
<g>
</g>
<g>
</g>
<g>
</g>
<g>
</g>
<g>
</g>
<g>
</g>
<g>
</g>
<g>
</g>
<g>
</g>
<g>
</g>
<g>
</g>
<g>
</g>
</svg>
