<?xml version="1.0" encoding="iso-8859-1"?>
<!-- Generator: Adobe Illustrator 19.0.0, SVG Export Plug-In . SVG Version: 6.00 Build 0)  -->
<svg xmlns="http://www.w3.org/2000/svg" xmlns:xlink="http://www.w3.org/1999/xlink" version="1.1" id="Layer_1" x="0px" y="0px" viewBox="0 0 512.4 512.4" style="enable-background:new 0 0 512.4 512.4;" xml:space="preserve">
<g>
	<g>
		<path d="M499.543,83.6l-70.4-70.4c-17.6-17.6-48-17.6-65.6,0l-67.2,67.2c-27.2,25.6-35.2,65.6-22.4,99.2L13.143,442    c-16,16-16,43.2,0,59.2c8,6.4,19.2,11.2,30.4,11.2s20.8-3.2,28.8-11.2l1.6-1.6l248-259.2c9.6,3.2,19.2,4.8,28.8,4.8    c22.4,0,43.2-9.6,60.8-25.6l57.6-51.2l24-17.6l1.6-1.6C512.343,131.6,518.743,102.8,499.543,83.6z M472.343,126.8l-22.4,17.6    l-59.2,51.2c-19.2,17.6-41.6,22.4-64,11.2c-6.4-3.2-14.4-1.6-19.2,3.2l-256,265.6c0,0,0,0-1.6,1.6c-3.2,3.2-9.6,3.2-14.4,0    c-3.2-3.2-3.2-9.6,0-12.8l267.2-267.2c4.8-4.8,6.4-12.8,3.2-17.6c-12.8-24-6.4-54.4,12.8-73.6l67.2-67.2c3.2-4.8,6.4-6.4,11.2-6.4    c3.2,0,8,1.6,9.6,4.8l70.4,70.4C481.943,112.4,478.743,122,472.343,126.8z"/>
	</g>
</g>
<g>
	<g>
		<path d="M406.743,67.6c-6.4-6.4-16-6.4-22.4,0l-56,56c-6.4,6.4-6.4,16,0,22.4c3.2,4.8,8,4.8,11.2,4.8c4.8,0,8-1.6,11.2-4.8l56-56    C413.143,83.6,413.143,74,406.743,67.6z"/>
	</g>
</g>
<g>
	<g>
		<path d="M445.143,106c-6.4-6.4-16-6.4-22.4,0l-56,56c-6.4,6.4-6.4,16,0,22.4c3.2,3.2,8,4.8,11.2,4.8s8-1.6,11.2-4.8l56-56    C451.543,122,451.543,112.4,445.143,106z"/>
	</g>
</g>
<g>
</g>
<g>
</g>
<g>
</g>
<g>
</g>
<g>
</g>
<g>
</g>
<g>
</g>
<g>
</g>
<g>
</g>
<g>
</g>
<g>
</g>
<g>
</g>
<g>
</g>
<g>
</g>
<g>
</g>
</svg>
