<?xml version="1.0" encoding="iso-8859-1"?>
<!-- Generator: Adobe Illustrator 19.0.0, SVG Export Plug-In . SVG Version: 6.00 Build 0)  -->
<svg xmlns="http://www.w3.org/2000/svg" xmlns:xlink="http://www.w3.org/1999/xlink" version="1.1" id="Layer_1" x="0px" y="0px" viewBox="0 0 510.4 510.4" style="enable-background:new 0 0 510.4 510.4;" xml:space="preserve">
<g>
	<g>
		<path d="M488.158,22.4C473.758,8,454.558,0,433.758,0c-35.2,0-72,19.2-110.4,57.6c-27.2,27.2-33.6,68.8-17.6,104L12.958,440    c-8,8-12.8,17.6-12.8,28.8s4.8,22.4,12.8,28.8c8,9.6,17.6,12.8,28.8,12.8c11.2,0,22.4-4.8,30.4-12.8l283.2-289.6    c11.2,4.8,22.4,6.4,33.6,6.4c24,0,48-9.6,64-27.2C526.558,113.6,518.558,52.8,488.158,22.4z M432.158,164.8    c-19.2,19.2-49.6,22.4-72,9.6c-6.4-3.2-14.4-3.2-19.2,3.2l-291.2,299.2c-3.2,3.2-9.6,3.2-14.4,0c-1.6-1.6-3.2-4.8-3.2-6.4    c1.6-3.2,1.6-6.4,3.2-8l302.4-286.4c6.4-4.8,6.4-14.4,1.6-20.8c-16-24-12.8-54.4,8-75.2c30.4-30.4,62.4-48,88-48    c12.8,0,24,4.8,32,12.8C492.958,70.4,478.558,116.8,432.158,164.8z"/>
	</g>
</g>
<g>
</g>
<g>
</g>
<g>
</g>
<g>
</g>
<g>
</g>
<g>
</g>
<g>
</g>
<g>
</g>
<g>
</g>
<g>
</g>
<g>
</g>
<g>
</g>
<g>
</g>
<g>
</g>
<g>
</g>
</svg>
