<?xml version="1.0" encoding="iso-8859-1"?>
<!-- Generator: Adobe Illustrator 19.0.0, SVG Export Plug-In . SVG Version: 6.00 Build 0)  -->
<svg xmlns="http://www.w3.org/2000/svg" xmlns:xlink="http://www.w3.org/1999/xlink" version="1.1" id="Layer_1" x="0px" y="0px" viewBox="0 0 510.8 510.8" style="enable-background:new 0 0 510.8 510.8;" xml:space="preserve">
<g>
	<g>
		<path d="M349.8,107.6c12.8-28.8,17.6-59.2,12.8-83.2c-1.6-8-9.6-12.8-17.6-12.8c-19.2,1.6-38.4,8-57.6,20.8    C281,21.2,273,11.6,265,3.6c-6.4-4.8-14.4-4.8-20.8,0c-8,8-16,17.6-22.4,28.8c-19.2-11.2-38.4-19.2-57.6-20.8    c-8,0-16,4.8-17.6,12.8c-3.2,24,1.6,54.4,14.4,83.2c-62.4,24-100.8,76.8-100.8,145.6c0,88,116.8,257.6,195.2,257.6    s195.2-169.6,195.2-257.6C450.6,184.4,412.2,131.6,349.8,107.6z M332.2,46.8c0,14.4-4.8,33.6-14.4,51.2c-14.4-3.2-32-4.8-48-6.4    C287.4,69.2,309.8,53.2,332.2,46.8z M255.4,38.8c3.2,3.2,4.8,8,8,12.8C255.4,58,249,66,242.6,74c-1.6,3.2-3.2,4.8-4.8,8    C241,66,247.4,50,255.4,38.8z M209,61.2c-3.2,11.2-6.4,22.4-8,35.2c-3.2,0-6.4,1.6-9.6,1.6c-8-17.6-12.8-36.8-12.8-52.8    C188.2,48.4,199.4,53.2,209,61.2z M261.131,478.449c2.262-0.626,4.297-2.103,5.469-4.449c3.2-3.2,4.8-6.4,4.8-11.2    s-1.6-8-4.8-11.2c-6.4-6.4-16-6.4-22.4,0c-3.2,3.2-4.8,6.4-4.8,11.2s1.6,8,4.8,11.2c0.852,0.852,1.713,1.697,2.807,2.307    C196.021,461.523,93.8,335.974,93.8,251.6c0-4.8,0-9.6,0-14.4h1.6c4.8,0,8-1.6,11.2-4.8c3.2-1.6,4.8-4.8,4.8-9.6s-1.6-8-4.8-11.2    c-1.6-1.6-4.8-3.2-6.4-3.2c3.2-9.6,8-17.6,12.8-25.6c0,1.6,1.6,3.2,3.2,4.8c3.2,1.6,6.4,3.2,11.2,3.2s8-1.6,11.2-4.8    c3.2-3.2,4.8-6.4,4.8-11.2s-1.6-8-4.8-11.2c-1.6-1.6-3.2-3.2-4.8-3.2c22.4-17.6,49.6-28.8,80-33.6c1.6,0,1.6,0,3.2,0    c3.2,0,4.8-1.6,8-3.2c9.6-1.6,20.8-1.6,30.4-1.6c44.8,0,91.2,11.2,121.6,36.8c-1.6,0-4.8,1.6-6.4,3.2c-1.6,4.8-3.2,8-3.2,12.8    s1.6,8,4.8,11.2c3.2,3.2,8,4.8,11.2,4.8c4.8,0,8-1.6,11.2-4.8c1.6-1.6,1.6-3.2,3.2-4.8c4.8,8,9.6,17.6,12.8,27.2    c-3.2,0-4.8,1.6-6.4,3.2c-3.2,3.2-4.8,6.4-4.8,11.2s1.6,8,4.8,11.2c3.2,3.2,8,4.8,11.2,4.8c1.6,0,1.6,0,3.2,0c0,4.8,0,9.6,0,14.4    C418.6,339.734,311.85,469.583,261.131,478.449z"/>
	</g>
</g>
<g>
	<g>
		<path d="M266.6,163.6c-6.4-6.4-16-6.4-22.4,0c-3.2,3.2-4.8,6.4-4.8,11.2s1.6,8,4.8,11.2c3.2,3.2,6.4,4.8,11.2,4.8s8-1.6,11.2-4.8    c3.2-3.2,4.8-6.4,4.8-11.2S269.8,166.8,266.6,163.6z"/>
	</g>
</g>
<g>
	<g>
		<path d="M202.6,163.6c-6.4-6.4-16-6.4-22.4,0c-3.2,3.2-4.8,6.4-4.8,11.2s1.6,8,4.8,11.2c3.2,3.2,6.4,4.8,11.2,4.8s8-1.6,11.2-4.8    c3.2-3.2,4.8-6.4,4.8-11.2S205.8,166.8,202.6,163.6z"/>
	</g>
</g>
<g>
	<g>
		<path d="M330.6,163.6c-6.4-6.4-16-6.4-22.4,0c-3.2,3.2-4.8,6.4-4.8,11.2s1.6,8,4.8,11.2c3.2,3.2,6.4,4.8,11.2,4.8s8-1.6,11.2-4.8    c3.2-3.2,4.8-6.4,4.8-11.2S333.8,166.8,330.6,163.6z"/>
	</g>
</g>
<g>
	<g>
		<path d="M266.6,259.6c-6.4-6.4-17.6-6.4-22.4,0c-3.2,3.2-4.8,6.4-4.8,11.2s1.6,8,4.8,11.2c3.2,3.2,8,4.8,11.2,4.8    c4.8,0,8-1.6,11.2-4.8c3.2-3.2,4.8-6.4,4.8-11.2S269.8,262.8,266.6,259.6z"/>
	</g>
</g>
<g>
	<g>
		<path d="M394.6,259.6c-6.4-6.4-17.6-6.4-22.4,0c-3.2,3.2-4.8,6.4-4.8,11.2s1.6,8,4.8,11.2c3.2,3.2,8,4.8,11.2,4.8    c4.8,0,8-1.6,11.2-4.8c3.2-3.2,4.8-6.4,4.8-11.2S397.8,262.8,394.6,259.6z"/>
	</g>
</g>
<g>
	<g>
		<path d="M138.6,259.6c-6.4-6.4-16-6.4-22.4,0c-3.2,3.2-4.8,6.4-4.8,11.2s1.6,8,4.8,11.2c3.2,3.2,6.4,4.8,11.2,4.8s8-1.6,11.2-4.8    c3.2-3.2,4.8-6.4,4.8-11.2S141.8,262.8,138.6,259.6z"/>
	</g>
</g>
<g>
	<g>
		<path d="M202.6,259.6c-6.4-6.4-17.6-6.4-22.4,0c-3.2,3.2-4.8,6.4-4.8,11.2s1.6,8,4.8,11.2c3.2,3.2,8,4.8,11.2,4.8    c4.8,0,8-1.6,11.2-4.8c3.2-3.2,4.8-6.4,4.8-11.2S205.8,262.8,202.6,259.6z"/>
	</g>
</g>
<g>
	<g>
		<path d="M330.6,259.6c-6.4-6.4-17.6-6.4-22.4,0c-3.2,3.2-4.8,6.4-4.8,11.2s1.6,8,4.8,11.2c3.2,3.2,8,4.8,11.2,4.8    c4.8,0,8-1.6,11.2-4.8c3.2-3.2,4.8-6.4,4.8-11.2S333.8,262.8,330.6,259.6z"/>
	</g>
</g>
<g>
	<g>
		<path d="M298.6,211.6c-6.4-6.4-16-6.4-22.4,0c-3.2,3.2-4.8,6.4-4.8,11.2s1.6,8,4.8,11.2c3.2,3.2,8,4.8,11.2,4.8    c4.8,0,8-1.6,11.2-4.8c3.2-3.2,4.8-6.4,4.8-11.2S301.8,214.8,298.6,211.6z"/>
	</g>
</g>
<g>
	<g>
		<path d="M170.6,211.6c-6.4-6.4-16-6.4-22.4,0c-3.2,3.2-4.8,6.4-4.8,11.2s1.6,8,4.8,11.2c3.2,3.2,6.4,4.8,11.2,4.8s8-1.6,11.2-4.8    c3.2-3.2,4.8-6.4,4.8-11.2S173.8,214.8,170.6,211.6z"/>
	</g>
</g>
<g>
	<g>
		<path d="M234.6,211.6c-6.4-6.4-16-6.4-22.4,0c-3.2,3.2-4.8,6.4-4.8,11.2s1.6,8,4.8,11.2c3.2,3.2,8,4.8,11.2,4.8    c4.8,0,8-1.6,11.2-4.8c3.2-3.2,4.8-6.4,4.8-11.2S237.8,214.8,234.6,211.6z"/>
	</g>
</g>
<g>
	<g>
		<path d="M362.6,211.6c-6.4-6.4-16-6.4-22.4,0c-3.2,3.2-4.8,6.4-4.8,11.2s1.6,8,4.8,11.2c3.2,3.2,8,4.8,11.2,4.8    c4.8,0,8-1.6,11.2-4.8c3.2-3.2,4.8-6.4,4.8-11.2S365.8,214.8,362.6,211.6z"/>
	</g>
</g>
<g>
	<g>
		<path d="M266.6,355.6c-6.4-6.4-16-6.4-22.4,0c-3.2,3.2-4.8,6.4-4.8,11.2s1.6,8,4.8,11.2c3.2,3.2,8,4.8,11.2,4.8    c4.8,0,8-1.6,11.2-4.8c3.2-3.2,4.8-6.4,4.8-11.2S269.8,358.8,266.6,355.6z"/>
	</g>
</g>
<g>
	<g>
		<path d="M202.6,355.6c-6.4-6.4-16-6.4-22.4,0c-3.2,3.2-4.8,6.4-4.8,11.2s1.6,8,4.8,11.2c3.2,3.2,8,4.8,11.2,4.8    c4.8,0,8-1.6,11.2-4.8c3.2-3.2,4.8-6.4,4.8-11.2S205.8,358.8,202.6,355.6z"/>
	</g>
</g>
<g>
	<g>
		<path d="M330.6,355.6c-6.4-6.4-17.6-6.4-22.4,0c-3.2,3.2-4.8,6.4-4.8,11.2s1.6,8,4.8,11.2c3.2,3.2,8,4.8,11.2,4.8    c4.8,0,8-1.6,11.2-4.8c3.2-3.2,4.8-6.4,4.8-11.2S333.8,358.8,330.6,355.6z"/>
	</g>
</g>
<g>
	<g>
		<path d="M298.6,307.6c-6.4-6.4-16-6.4-22.4,0c-3.2,3.2-4.8,6.4-4.8,11.2s1.6,8,4.8,11.2c3.2,3.2,6.4,4.8,11.2,4.8s8-1.6,11.2-4.8    c3.2-3.2,4.8-6.4,4.8-11.2S301.8,310.8,298.6,307.6z"/>
	</g>
</g>
<g>
	<g>
		<path d="M298.6,403.6c-6.4-6.4-17.6-6.4-22.4,0c-3.2,3.2-4.8,6.4-4.8,11.2s1.6,8,4.8,11.2c3.2,3.2,8,4.8,11.2,4.8    c4.8,0,8-1.6,11.2-4.8c3.2-3.2,4.8-6.4,4.8-11.2S301.8,406.8,298.6,403.6z"/>
	</g>
</g>
<g>
	<g>
		<path d="M234.6,403.6c-6.4-6.4-17.6-6.4-22.4,0c-3.2,3.2-4.8,6.4-4.8,11.2s1.6,8,4.8,11.2c3.2,3.2,6.4,4.8,11.2,4.8    s8-1.6,11.2-4.8c3.2-3.2,4.8-6.4,4.8-11.2S237.8,406.8,234.6,403.6z"/>
	</g>
</g>
<g>
	<g>
		<path d="M170.6,307.6c-6.4-6.4-16-6.4-22.4,0c-3.2,3.2-4.8,6.4-4.8,11.2s1.6,8,4.8,11.2c3.2,3.2,6.4,4.8,11.2,4.8s8-1.6,11.2-4.8    c3.2-3.2,4.8-6.4,4.8-11.2S173.8,310.8,170.6,307.6z"/>
	</g>
</g>
<g>
	<g>
		<path d="M234.6,307.6c-6.4-6.4-16-6.4-22.4,0c-3.2,3.2-4.8,6.4-4.8,11.2s1.6,8,4.8,11.2c3.2,3.2,6.4,4.8,11.2,4.8s8-1.6,11.2-4.8    c3.2-3.2,4.8-6.4,4.8-11.2S237.8,310.8,234.6,307.6z"/>
	</g>
</g>
<g>
	<g>
		<path d="M362.6,307.6c-6.4-6.4-17.6-6.4-22.4,0c-3.2,3.2-4.8,6.4-4.8,11.2s1.6,8,4.8,11.2c3.2,3.2,8,4.8,11.2,4.8    c4.8,0,8-1.6,11.2-4.8c3.2-3.2,4.8-6.4,4.8-11.2S365.8,310.8,362.6,307.6z"/>
	</g>
</g>
<g>
</g>
<g>
</g>
<g>
</g>
<g>
</g>
<g>
</g>
<g>
</g>
<g>
</g>
<g>
</g>
<g>
</g>
<g>
</g>
<g>
</g>
<g>
</g>
<g>
</g>
<g>
</g>
<g>
</g>
</svg>
