<?xml version="1.0" encoding="iso-8859-1"?>
<!-- Generator: Adobe Illustrator 19.0.0, SVG Export Plug-In . SVG Version: 6.00 Build 0)  -->
<svg xmlns="http://www.w3.org/2000/svg" xmlns:xlink="http://www.w3.org/1999/xlink" version="1.1" id="Layer_1" x="0px" y="0px" viewBox="0 0 512 512" width="512px" height="512px" style="enable-background:new 0 0 512 512;" xml:space="preserve">
<g>
	<g>
		<path d="M360,80c4.8-12.8,8-27.2,8-44.8c0-4.8-1.6-4.8-4.8-8s-8-4.8-12.8-4.8c-19.2,1.6-40,9.6-60.8,24    c-6.4-11.2-12.8-22.4-22.4-33.6C264,9.6,259.2,8,256,8c-4.8,0-9.6,1.6-11.2,6.4c-9.6,11.2-17.6,20.8-24,33.6    c-17.6-14.4-36.8-22.4-57.6-24c-4.8,0-9.6,1.6-12.8,4.8C147.2,32,144,35.2,144,40c0,16,1.6,28.8,6.4,40C59.2,104,0,176,0,260.8    C0,376,108.8,504,256,504s256-128,256-243.2C512,172.8,452.8,104,360,80z M294.4,88c1.6,0,1.6-1.6,1.6-3.2    c12.8-11.2,24-19.2,36.8-24c-4.8,19.2-19.2,48-57.6,56C280,105.6,288,96,294.4,88z M256,49.6c4.8,6.4,8,12.8,9.6,20.8    c-11.2,12.8-19.2,28.8-25.6,48c-1.6,0-3.2-1.6-4.8-1.6C236.8,84.8,243.2,65.6,256,49.6z M208,78.4c-1.6,6.4-3.2,14.4-4.8,22.4    c-11.2-8-20.8-20.8-25.6-40C188.8,64,198.4,70.4,208,78.4z M256,472C128,472,32,360,32,260.8c0-73.6,52.8-132.8,134.4-152    c12.8,16,27.2,25.6,43.2,32c1.6,0,1.6,0,3.2,1.6c12.8,4.8,27.2,8,36.8,9.6c0,0,0,0,1.6,0c6.4,0,11.2-3.2,14.4-8    c24-3.2,54.4-12.8,76.8-35.2c84.8,17.6,139.2,76.8,139.2,152C480,360,384,472,256,472z"/>
	</g>
</g>
<g>
</g>
<g>
</g>
<g>
</g>
<g>
</g>
<g>
</g>
<g>
</g>
<g>
</g>
<g>
</g>
<g>
</g>
<g>
</g>
<g>
</g>
<g>
</g>
<g>
</g>
<g>
</g>
<g>
</g>
</svg>
