<?xml version="1.0" encoding="iso-8859-1"?>
<!-- Generator: Adobe Illustrator 19.0.0, SVG Export Plug-In . SVG Version: 6.00 Build 0)  -->
<svg xmlns="http://www.w3.org/2000/svg" xmlns:xlink="http://www.w3.org/1999/xlink" version="1.1" id="Layer_1" x="0px" y="0px" viewBox="0 0 512.749 512.749" style="enable-background:new 0 0 512.749 512.749;" xml:space="preserve">
<g>
	<g>
		<path d="M277.174,34.349c1.6-1.6,3.2-3.2,4.8-4.8c8-4.8,9.6-14.4,3.2-22.4c-4.8-8-14.4-9.6-22.4-3.2c-11.2,8-17.6,17.6-20.8,30.4    c-124.8,8-224,112-224,238.4c0,132.8,107.2,240,238.4,240s238.4-107.2,238.4-238.4C494.775,147.949,398.775,45.549,277.174,34.349    z M49.974,272.749c0-67.2,32-126.4,81.6-164.8c-1.6,6.4-3.2,11.2-3.2,16c0,6.4-1.6,12.8-3.2,16c-1.6,3.2-6.4,6.4-9.6,11.2    c-6.4,6.4-16,14.4-19.2,27.2c-3.2,11.2-1.6,22.4,1.6,32c1.6,6.4,3.2,12.8,1.6,17.6c0,3.2-3.2,9.6-6.4,14.4    c-4.8,9.6-9.6,19.2-9.6,32s4.8,22.4,9.6,32c3.2,4.8,6.4,11.2,6.4,14.4c0,4.8,0,11.2-1.6,17.6c-1.6,9.6-4.8,20.8-1.6,32    c3.2,12.8,12.8,20.8,19.2,27.2c4.8,3.2,8,8,9.6,9.6c1.6,3.2,3.2,9.6,3.2,16c0,4.8,1.6,9.6,1.6,16    C80.375,399.149,49.974,339.949,49.974,272.749z M209.975,456.749c0,1.6-1.6,4.8-1.6,6.4c-3.2-3.2-6.4-8-9.6-11.2    c-6.4-6.4-14.4-8-22.4-9.6c-4.8-1.6-11.2-3.2-12.8-4.8c-1.6-3.2-3.2-11.2-3.2-16c-1.6-8-1.6-17.6-6.4-27.2    c-4.8-8-11.2-14.4-16-19.2c-4.8-4.8-9.6-8-11.2-12.8c-1.6-3.2,0-11.2,1.6-17.6c1.6-11.2,3.2-20.8,3.2-30.4    c-1.6-9.6-6.4-17.6-9.6-25.6c-3.2-6.4-6.4-12.8-6.4-16s3.2-11.2,6.4-16c3.2-8,8-16,9.6-25.6c1.6-9.6,0-19.2-3.2-27.2    c-1.6-6.4-3.2-14.4-1.6-17.6c1.6-3.2,6.4-8,9.6-12.8c6.4-4.8,12.8-11.2,16-19.2c4.8-8,6.4-17.6,8-27.2c0-6.4,1.6-14.4,3.2-16    c1.6-1.6,8-3.2,12.8-4.8c6.4-1.6,14.4-4.8,22.4-9.6c3.2-3.2,6.4-6.4,9.6-11.2c0,1.6,1.6,4.8,1.6,6.4c1.6,3.2,3.2,9.6,3.2,9.6    c-1.6,1.6-4.8,4.8-6.4,6.4c-8,6.4-16,14.4-19.2,25.6c-1.6,11.2,3.2,20.8,8,28.8c1.6,3.2,4.8,8,4.8,8c0,1.6-3.2,4.8-6.4,8    c-6.4,6.4-14.4,14.4-14.4,27.2c-1.6,11.2,4.8,20.8,9.6,27.2c1.6,3.2,4.8,6.4,4.8,6.4c0,1.6-3.2,4.8-4.8,8    c-6.4,6.4-12.8,16-12.8,27.2s6.4,20.8,12.8,27.2c1.6,3.2,4.8,6.4,4.8,6.4c0,1.6-3.2,6.4-4.8,8c-4.8,8-11.2,16-9.6,27.2    c1.6,11.2,9.6,19.2,14.4,27.2c1.6,1.6,4.8,6.4,6.4,6.4c0,1.6-3.2,6.4-4.8,9.6c-4.8,8-9.6,17.6-8,28.8    c1.6,12.8,11.2,19.2,19.2,25.6c1.6,1.6,6.4,4.8,6.4,4.8C213.174,447.149,211.575,453.549,209.975,456.749z M289.974,400.749    c1.6,1.6,3.2,4.8,3.2,6.4c-1.6,1.6-4.8,4.8-8,6.4c-6.4,4.8-14.4,11.2-16,20.8c-3.2,11.2,0,22.4,3.2,30.4c0,1.6,1.6,4.8,1.6,6.4    c-4.8,6.4-12.8,9.6-17.6,9.6s-12.8-3.2-17.6-9.6c0-1.6,1.6-4.8,1.6-6.4c3.2-8,6.4-19.2,3.2-30.4c-3.2-9.6-9.6-16-16-20.8    c-1.6-1.6-6.4-4.8-8-6.4c0-1.6,1.6-4.8,3.2-6.4c4.8-8,9.6-17.6,8-28.8c-1.6-9.6-8-17.6-14.4-24c-1.6-1.6-4.8-4.8-6.4-6.4    c1.6-1.6,3.2-4.8,4.8-6.4c4.8-8,11.2-16,11.2-27.2s-6.4-19.2-12.8-25.6c-1.6-1.6-4.8-4.8-4.8-8c1.6-1.6,3.2-4.8,4.8-8    c4.8-6.4,12.8-14.4,12.8-25.6c0-11.2-6.4-20.8-11.2-27.2c-1.6-1.6-3.2-4.8-4.8-6.4c1.6-1.6,4.8-4.8,6.4-6.4    c6.4-6.4,12.8-14.4,14.4-24c1.6-11.2-3.2-20.8-8-28.8c-1.6-1.6-3.2-4.8-3.2-6.4c1.6-1.6,4.8-4.8,8-6.4c6.4-4.8,14.4-11.2,16-20.8    c3.2-11.2,0-22.4-3.2-30.4c0-1.6-1.6-4.8-1.6-6.4c4.8-6.4,14.4-9.6,17.6-9.6c4.8,0,12.8,1.6,17.6,9.6c0,1.6-1.6,4.8-1.6,6.4    c-3.2,8-6.4,19.2-3.2,30.4c3.2,9.6,9.6,16,16,20.8c1.6,1.6,6.4,4.8,8,6.4c0,1.6-1.6,4.8-3.2,6.4c-4.8,8-9.6,17.6-8,28.8    c1.6,9.6,8,17.6,14.4,24c1.6,1.6,4.8,4.8,6.4,6.4c-1.6,1.6-3.2,4.8-4.8,6.4c-4.8,8-11.2,16-11.2,27.2c0,11.2,6.4,19.2,12.8,25.6    c1.6,1.6,4.8,4.8,4.8,8c-1.6,1.6-3.2,4.8-4.8,8c-4.8,6.4-12.8,14.4-12.8,25.6s6.4,20.8,11.2,27.2c1.6,1.6,3.2,4.8,4.8,6.4    c-1.6,1.6-4.8,4.8-6.4,6.4c-6.4,6.4-12.8,14.4-14.4,24C280.375,383.149,285.174,392.749,289.974,400.749z M358.775,391.149    c-4.8,8-4.8,17.6-6.4,27.2c0,6.4-1.6,14.4-3.2,16c-1.6,1.6-8,3.2-12.8,4.8c-6.4,1.6-14.4,4.8-22.4,9.6c-3.2,3.2-6.4,6.4-9.6,11.2    c0-1.6-1.6-4.8-1.6-6.4c-1.6-3.2-3.2-9.6-3.2-9.6c1.6-1.6,4.8-4.8,6.4-6.4c8-6.4,16-14.4,19.2-25.6c1.6-11.2-3.2-20.8-8-28.8    c-1.6-3.2-4.8-8-4.8-8c0-1.6,3.2-4.8,6.4-8c6.4-6.4,14.4-14.4,14.4-27.2c1.6-11.2-4.8-20.8-9.6-27.2c-1.6-1.6-3.2-6.4-4.8-8    c1.6-1.6,3.2-4.8,4.8-6.4c6.4-6.4,12.8-16,12.8-27.2s-6.4-20.8-12.8-27.2c-1.6-3.2-4.8-6.4-4.8-6.4c0-1.6,3.2-6.4,4.8-8    c4.8-8,11.2-16,9.6-27.2c-1.6-11.2-8-19.2-14.4-27.2c-1.6-1.6-4.8-6.4-6.4-6.4c0-1.6,3.2-6.4,4.8-9.6c4.8-8,9.6-17.6,8-28.8    c-1.6-12.8-11.2-19.2-19.2-25.6c-1.6-1.6-6.4-4.8-6.4-4.8c0-1.6,1.6-8,3.2-11.2c1.6,0,1.6-1.6,1.6-3.2c3.2,3.2,6.4,8,9.6,11.2    c6.4,6.4,14.4,8,22.4,9.6c4.8,1.6,11.2,3.2,12.8,4.8c1.6,3.2,3.2,11.2,3.2,16c1.6,8,1.6,17.6,6.4,27.2c4.8,8,11.2,14.4,16,19.2    s9.6,8,9.6,12.8c1.6,3.2,0,11.2-1.6,17.6c0,8-1.6,17.6-1.6,27.2c1.6,9.6,6.4,17.6,9.6,25.6c3.2,6.4,6.4,12.8,6.4,16    s-3.2,11.2-6.4,16c-3.2,8-8,16-9.6,25.6c-1.6,9.6,0,19.2,3.2,27.2c1.6,6.4,3.2,14.4,1.6,17.6c-1.6,3.2-6.4,8-11.2,12.8    C368.375,376.749,361.975,383.149,358.775,391.149z M382.775,437.549c1.6-4.8,1.6-9.6,3.2-16c0-6.4,1.6-12.8,3.2-16    c1.6-3.2,4.8-6.4,9.6-9.6c6.4-6.4,16-14.4,19.2-27.2c3.2-11.2,1.6-22.4-1.6-32c-1.6-6.4-3.2-12.8-1.6-17.6c0-3.2,3.2-9.6,6.4-14.4    c4.8-9.6,9.6-19.2,9.6-32s-4.8-22.4-9.6-32c-3.2-4.8-6.4-11.2-6.4-14.4c0-4.8,0-11.2,1.6-17.6c1.6-9.6,4.8-20.8,1.6-32    c-3.2-12.8-12.8-20.8-19.2-27.2c-4.8-3.2-8-8-9.6-9.6c-1.6-3.2-3.2-9.6-3.2-16c0-4.8-1.6-9.6-3.2-16    c49.6,38.4,81.6,97.6,81.6,164.8C462.775,339.949,432.375,399.149,382.775,437.549z"/>
	</g>
</g>
<g>
</g>
<g>
</g>
<g>
</g>
<g>
</g>
<g>
</g>
<g>
</g>
<g>
</g>
<g>
</g>
<g>
</g>
<g>
</g>
<g>
</g>
<g>
</g>
<g>
</g>
<g>
</g>
<g>
</g>
</svg>
